<svg width="218" height="158" viewBox="0 0 218 158" fill="none" xmlns="http://www.w3.org/2000/svg">
<path d="M72.5574 29.7457C50.1704 34.1026 46.9218 45.889 26.2799 65.2165C20.0377 71.0606 13.5667 77.6581 10.2331 85.8018C7.89312 91.5149 7.39636 97.3459 7.40943 102.771C7.40943 108.811 8.03692 114.734 10.292 119.294C15.3184 129.423 27.1362 130.91 36.1237 136.093C44.6014 140.987 51.2554 149.641 61.7594 149.989C73.8059 150.395 87.31 139.82 100.259 134.441C111.534 129.75 122.803 129.017 132.097 132.378C136.124 133.832 139.849 136.04 144.366 136.276C149.922 136.558 156.151 133.819 162.138 130.687C172.276 125.453 182.467 118.763 191.147 109.263C194.631 105.418 197.951 101.015 199.742 96.1469C202.298 89.1956 201.396 82.6112 200.442 76.5378C199.592 71.1457 198.729 65.7079 196.827 61.0758C192.598 50.7045 183.44 44.8015 180.917 33.1002C179.989 28.7236 180.061 23.7313 178.76 19.5841C176.25 11.5517 168.943 8.0531 161.047 8.00069C153.151 7.94827 144.595 10.9031 136.196 13.5827C115.109 20.3571 93.8529 25.7492 72.577 29.726" fill="#E9F0FA"/>
<path d="M76.3947 74.3674C75.3994 75.3152 74.4581 76.3939 74.026 77.727C73.6325 78.9367 73.7251 80.3699 74.5198 81.3948C74.8207 81.78 75.492 81.3948 75.1834 81.0095C74.4813 80.1003 74.4272 78.8982 74.7976 77.8349C75.1988 76.679 76.0707 75.7467 76.9348 74.9145C77.2975 74.5678 76.7497 74.0284 76.387 74.3674H76.3947Z" fill="white"/>
<path d="M95.0432 28.0348C93.9476 25.2686 93.1915 18.5186 94.7192 15.9681C95.3056 14.9895 96.0926 14.0957 97.1187 13.6102C98.4921 12.963 100.105 13.1248 101.586 13.4561C103.067 13.7874 104.541 14.2729 106.061 14.2498C108.268 14.2035 110.289 13.0785 112.203 11.9844C113.067 14.6736 111.686 19.3431 110.127 21.6932L95.0432 28.0348Z" fill="#5081F1"/>
<path d="M107.442 38.3438C104.85 41.896 102.651 45.741 100.915 49.7786C100.082 51.7127 99.3563 53.6853 98.6311 55.6579L88.9634 81.8795L107.45 38.3515L107.442 38.3438Z" fill="white"/>
<path d="M99.3871 50.9591L81.9112 78.1978L81.6412 78.6216C81.4251 80.2552 80.7307 81.881 79.4499 82.9213C79.4191 82.9521 79.3805 82.9752 79.3419 82.9983C78.0688 83.9769 76.2325 84.2774 74.836 83.4838C73.6786 82.8211 72.9997 81.5497 72.4519 80.3168C70.6233 76.2407 69.4428 71.9102 68.27 67.6106C68.1388 67.0943 67.9922 66.578 68.0154 66.0464C68.0539 65.3452 68.3703 64.6979 68.6866 64.0661C71.1325 59.2193 73.7404 54.4497 76.5103 49.7725C77.4207 48.2314 78.3775 46.6826 79.6968 45.4574C81.7029 43.5927 84.4188 42.6758 87.1193 42.2365C88.539 42.0054 90.1284 41.8127 91.0234 40.6955C91.8413 39.6706 92.0187 37.96 93.2764 37.6133C93.3612 37.829 93.4538 38.0525 93.5387 38.2605C93.5464 38.2914 93.5618 38.3145 93.5773 38.3453C95.3133 42.6449 97.2499 46.8521 99.3871 50.9591Z" fill="white"/>
<path d="M80.0597 86.3965C78.3005 89.0163 76.4256 91.5668 74.4504 94.0326C71.6728 97.4923 68.6869 100.783 65.7626 104.127C57.7538 113.273 50.1693 122.789 43.0478 132.637C42.7083 133.107 42.3611 133.6 42.2608 134.178C42.1065 135.11 42.6466 136.02 43.233 136.759C46.0183 140.288 50.1385 142.461 54.1892 144.411C54.7833 144.696 55.4005 144.989 56.0564 145.019C56.8588 145.058 57.6304 144.711 58.3402 144.341C67.1592 139.68 71.9892 129.616 80.5458 124.492L80.0597 86.4042V86.3965Z" fill="white"/>
<path d="M85.0978 87.6758C84.2105 89.6561 83.8942 91.8367 83.6396 93.9942C82.5208 103.472 82.3665 113.058 83.1767 122.566C83.1998 122.874 83.2461 123.213 83.4698 123.429C83.6936 123.637 84.0331 123.66 84.334 123.668C91.8104 123.868 99.3332 124.069 106.732 122.982C114.132 121.896 121.477 119.453 127.372 114.853C127.788 114.522 128.228 114.152 128.359 113.635C128.475 113.165 128.313 112.672 128.151 112.218C125.265 103.996 122.179 95.4583 115.899 89.4095L85.0901 87.6989L85.0978 87.6758Z" fill="white"/>
<path d="M126.114 117.249C130.558 123.028 132.318 130.379 133.907 137.491C133.984 137.83 134.069 138.193 134.308 138.447C134.787 138.948 135.612 138.801 136.283 138.609C140.666 137.33 144.94 135.65 149.022 133.6C149.986 133.115 150.982 132.575 151.576 131.682C152.648 130.071 152.108 127.929 151.645 126.049C150.75 122.427 150.31 118.706 150.318 114.976C150.318 113.135 150.388 111.116 149.253 109.659C148.814 109.105 148.235 108.673 147.664 108.265C143.351 105.159 138.938 102.185 134.424 99.3649C132.773 98.3324 131.114 97.3153 129.447 96.3058L116.447 88.377L126.114 117.249Z" fill="white"/>
<path d="M94.1406 37.6504C94.6421 37.766 94.9199 37.1419 94.9508 36.6718C95.0588 35.1539 95.0434 33.6282 94.9199 32.1025C94.8813 31.5939 94.8196 31.0777 94.5727 30.623C94.3644 30.2378 94.0403 29.9141 93.7626 29.5674C93.0142 28.635 92.6284 27.4715 92.6669 26.3234C92.6824 25.9998 92.7287 25.6685 92.8984 25.3833C93.2456 24.8209 94.0095 24.5666 94.7193 24.528C96.2624 24.451 97.8981 25.3063 98.3148 26.647C98.2916 23.8577 99.0864 20.7986 101.617 19.1805C103.098 18.2404 104.973 17.9322 106.787 17.963C107.473 17.9784 108.191 18.0478 108.739 18.4099C109.495 18.9108 109.734 19.82 109.904 20.6522C110.583 24.0734 110.922 27.5409 110.922 31.016C110.922 32.2566 110.876 33.528 110.405 34.6992C109.942 35.8705 108.986 36.9415 107.674 37.3345C106.154 37.7891 104.48 37.2574 103.106 36.5023C101.687 35.7241 100.437 34.6992 99.4336 33.5049L94.1329 37.635L94.1406 37.6504Z" fill="white"/>
<path d="M46.0876 131.75C41.6049 134.948 38.9584 140.056 35.4169 144.279C34.6454 145.204 33.8198 146.09 32.8476 146.799C31.4588 147.816 29.6611 148.617 29.1827 150.266C29.0052 150.867 29.0438 151.514 29.121 152.139C29.2521 153.187 29.5145 154.211 29.8925 155.198C30.0623 155.645 30.2783 156.107 30.6641 156.392C31.2119 156.808 31.9758 156.77 32.6624 156.716L39.0433 156.199C39.1127 156.199 39.1822 156.184 39.2362 156.153C39.4213 156.045 39.3673 155.768 39.2902 155.568L37.5542 151.06C37.4153 150.705 37.2764 150.336 37.2918 149.958C37.3304 149.118 38.0788 148.509 38.7655 148.016L41.7669 145.851C44.5677 143.832 47.461 141.713 49.1585 138.708L46.0799 131.758L46.0876 131.75Z" fill="white"/>
<path d="M135.658 136.249C134.547 141.527 133.305 146.782 131.916 151.999C131.723 152.731 131.523 153.478 131.554 154.234C131.585 154.989 131.87 155.775 132.487 156.222C132.881 156.507 133.367 156.63 133.853 156.722C135.558 157.054 137.302 157.069 139.038 157.092L151.19 157.246C151.715 157.246 152.301 157.231 152.664 156.853C153.088 156.399 152.957 155.628 152.548 155.166C152.139 154.704 151.529 154.472 150.943 154.264C149.06 153.602 147.162 153.001 145.241 152.461C144.138 152.153 142.973 151.829 142.147 151.036C141.491 150.396 141.121 149.526 140.774 148.686C140.643 148.362 140.504 148.038 140.473 147.692C140.442 147.314 140.527 146.937 140.62 146.574L143.945 133.09L135.651 136.257L135.658 136.249Z" fill="white"/>
<path d="M77.7604 73.797C77.4672 72.9956 77.3283 72.1326 77.336 71.2773C77.3514 70.5453 77.5289 69.7362 78.1384 69.3278C78.3545 69.1814 78.6168 69.1044 78.8714 69.0504C80.7926 68.6652 82.899 69.8672 83.5548 71.7088C83.9637 72.8492 83.8403 74.136 83.4236 75.2764C83.007 76.4168 82.1197 77.565 80.9006 77.6189C80.0673 77.6497 79.2803 77.1412 78.7943 76.4631C78.3082 75.785 78.0767 74.9605 77.9147 74.1437L77.7604 73.8047V73.797Z" fill="white"/>
<path d="M146.136 42.1511C150.063 40.3018 153.59 37.6203 156.413 34.3224C156.699 33.991 157 33.6366 157.416 33.4902C157.71 33.39 158.034 33.4054 158.342 33.4285C159.777 33.5287 161.243 33.6674 162.625 33.2667C163.466 33.0201 164.237 32.5732 164.993 32.134C168.234 30.2462 171.444 28.289 174.615 26.2856C175.17 25.9311 175.772 25.5228 175.934 24.8832C173.928 24.4902 171.883 25.1914 169.939 25.8387C166.089 27.1178 162.169 28.1965 158.257 29.2753L150.982 31.2787L146.136 42.1511Z" fill="white"/>
<path d="M154.492 39.4622L153.952 42.2747L153.79 43.0915L151.406 46.2661L149.778 47.1831L148.158 48.0846L147.649 48.2618L139.802 51.0204L138.899 51.7755L136.824 53.4938L131.554 59.7429L125.975 67.4946L123.692 70.1607L120.574 73.7899L118.862 75.6007C118.777 75.7317 118.684 75.8704 118.607 75.9937C115.683 80.4012 115.683 81.1486 115.683 81.1486V83.5296L114.888 86.7043L116.74 88.5536L117.272 89.0852L118.067 90.6726L117.573 91.1503L117.426 91.2967L84.7199 123.19L83.632 123.552L80.2603 124.669L79.9594 124.769L74.4041 123.975L72.8147 114.459L79.6276 87.1897L79.8128 86.7659L83.9329 77.188L81.9191 78.1974L80.7618 78.7754L80.2834 77.5348L77.4904 70.2917L76.7882 68.4655L90.2829 49.433L92.1964 41.1574L92.667 39.1309L93.5389 38.2602L93.5929 38.2062L94.1484 37.6514L94.1793 37.6206L94.92 36.8809L95.8381 35.9639L97.4276 31.2097L99.8117 30.416L106.162 35.9639L106.964 37.505L107.427 38.3911L107.496 38.5221L108.384 40.2405L108.422 40.3098L108.523 40.3252L110.922 40.7105L113.36 40.6257L114.394 40.5949L115.521 40.2944L122.835 38.3372L128.228 36.9348L140.18 33.8218L140.35 33.7833L141.106 33.5829L150.635 31.202L150.681 31.2713L150.866 31.541V31.5564L153.813 35.9562L153.991 36.8501L154.516 39.4622H154.492Z" fill="white"/>
<path d="M93.5926 38.2065C93.5849 38.2527 93.5849 38.299 93.5772 38.3529C93.5464 38.6303 93.5001 38.8923 93.4615 39.1389C93.2532 39.6397 92.8751 40.4025 92.1961 41.1654C92.0958 41.281 91.9878 41.3965 91.8721 41.5121C91.6329 41.751 90.8382 42.5061 89.4879 43.0994C87.8676 43.8083 86.9263 43.6311 85.5221 43.8931C83.354 44.2938 81.8726 45.4265 80.7615 46.2741C80.0286 46.8289 79.095 47.6842 76.001 53.4093C73.1848 58.6182 74.0952 57.6627 72.0352 61.3382C70.5769 63.9504 69.8131 64.9598 69.651 66.8861C69.5199 68.589 69.9365 69.9683 70.4457 71.6404C71.1401 73.8981 71.5877 74.0137 72.8299 77.1883C73.9718 80.1241 73.7172 80.3861 74.4193 81.1489C76.0087 82.898 78.254 82.5898 79.3573 82.9905C78.0842 83.9691 76.2479 84.2696 74.8514 83.476C73.694 82.8133 73.015 81.5419 72.4672 80.309C70.6386 76.2328 69.4581 71.9024 68.2854 67.6027C68.1542 67.0865 68.0076 66.5702 68.0307 66.0385C68.0693 65.3373 68.3857 64.6901 68.702 64.0582C71.1479 59.2115 73.7558 54.4419 76.5257 49.7647C77.4361 48.2236 78.3928 46.6748 79.7122 45.4496C81.7183 43.5849 84.4342 42.6679 87.1347 42.2287C88.5543 41.9976 90.1438 41.8049 91.0388 40.6876C91.8566 39.6628 92.0341 37.9522 93.2917 37.6055C93.3766 37.8212 93.4692 38.0447 93.5541 38.2527L93.6081 38.1988L93.5926 38.2065Z" fill="#CAD7E8"/>
<path d="M107.164 38.2059C106.918 39.3772 107.689 40.4328 108.746 40.872C110.019 41.396 111.57 41.211 112.905 41.0723C115.999 40.7564 119 39.8934 121.978 39.0535C128.182 37.3044 134.416 35.6477 140.666 34.0835C144.207 33.1974 147.756 32.3421 151.313 31.5099L150.935 30.8626C147.726 34.2222 145.727 38.622 145.257 43.2376C145.141 44.3703 145.102 45.5338 145.21 46.6742C145.318 47.8146 145.936 48.5466 147.062 48.6622C148.188 48.7778 149.184 48.092 150.048 47.4602C150.966 46.7898 151.838 46.0424 152.586 45.1716C154.33 43.1528 155.349 40.4559 154.67 37.7975C154.546 37.3198 153.805 37.5201 153.929 38.0056C154.477 40.1477 153.767 42.3592 152.478 44.0929C151.869 44.9097 151.128 45.6263 150.341 46.2735C149.554 46.9208 148.644 47.699 147.648 47.8763C147.201 47.9533 146.684 47.8763 146.344 47.568C145.92 47.1828 145.966 46.497 145.951 45.9653C145.912 44.9559 145.951 43.9388 146.074 42.9294C146.306 40.9414 146.854 38.9688 147.664 37.1349C148.605 35.0236 149.894 33.0818 151.491 31.4097C151.761 31.1246 151.491 30.6777 151.113 30.7625C145.172 32.1494 139.254 33.6135 133.359 35.1546C130.473 35.9097 127.588 36.688 124.71 37.4816C121.832 38.2753 118.977 39.1691 116.061 39.7778C114.417 40.1246 112.751 40.3712 111.069 40.402C110.359 40.4174 109.603 40.402 108.939 40.1015C108.276 39.801 107.743 39.1306 107.897 38.3831C107.998 37.8977 107.257 37.6897 107.157 38.1751L107.164 38.2059Z" fill="black"/>
<path d="M145.882 48.6167C144.315 49.1946 142.741 49.7648 141.175 50.3427C139.748 50.8667 138.436 51.4754 137.302 52.508C135.095 54.5191 133.182 56.9078 131.353 59.2656C127.642 64.0661 124.324 69.1825 120.219 73.6671C118.19 75.8863 115.806 78.1286 115.243 81.2107C115.15 81.6962 115.899 81.9042 115.983 81.4188C116.477 78.7065 118.476 76.6722 120.281 74.7305C122.249 72.6115 124.054 70.3615 125.79 68.0498C129.332 63.3264 132.626 58.3795 136.746 54.1261C137.333 53.5174 137.934 52.9009 138.621 52.4078C139.308 51.9147 140.095 51.5679 140.89 51.2597C142.61 50.6047 144.354 49.9883 146.082 49.3487C146.545 49.1792 146.344 48.4318 145.874 48.609L145.882 48.6167Z" fill="black"/>
<path d="M107.111 38.1517C103.6 42.9753 100.985 48.2459 98.9014 53.8169C96.6716 59.7732 94.4958 65.7526 92.2969 71.7166L88.5856 81.7722C88.4159 82.2346 89.1566 82.4426 89.3263 81.9803L95.8846 64.2038C96.988 61.2141 98.0836 58.2244 99.1869 55.2424C100.229 52.4299 101.309 49.6328 102.651 46.9514C104.117 44.0156 105.838 41.2031 107.774 38.5447C108.068 38.144 107.396 37.7588 107.111 38.1594V38.1517Z" fill="black"/>
<path d="M99.7191 50.7664C97.4816 46.4437 95.4524 42.0208 93.6392 37.5054C93.562 37.3205 93.3846 37.1663 93.1608 37.2357C91.3554 37.8059 91.502 40.2023 89.9434 41.0807C89.0561 41.5816 87.9991 41.6894 87.0115 41.8513C85.885 42.0362 84.7739 42.2982 83.7015 42.6757C81.5179 43.4463 79.6122 44.7023 78.1694 46.5362C76.6185 48.5088 75.438 50.7973 74.1958 52.9702C72.8687 55.305 71.5725 57.6551 70.3226 60.0361C69.713 61.1996 69.1112 62.3631 68.5171 63.5344C67.977 64.6054 67.4755 65.6148 67.6915 66.8477C67.9076 68.0806 68.3242 69.298 68.6637 70.5001C69.0186 71.7792 69.3967 73.0583 69.7979 74.322C70.5463 76.6953 71.3642 79.1071 72.5061 81.3262C73.023 82.3433 73.7251 83.345 74.7668 83.8767C75.8084 84.4084 76.9503 84.4315 78.015 84.1079C80.3837 83.3836 81.6877 81.0411 82.0195 78.7218C82.0889 78.2363 81.3482 78.0283 81.2788 78.5137C80.9933 80.5094 79.9902 82.613 77.9533 83.3142C77.0043 83.6456 75.9241 83.6456 75.0291 83.137C74.1341 82.6284 73.5554 81.7038 73.1002 80.7945C72.0354 78.6678 71.2562 76.3716 70.5386 74.1062C69.821 71.8408 69.1343 69.483 68.548 67.1482C68.3936 66.5318 68.3396 65.9616 68.5325 65.3451C68.71 64.7826 69.0032 64.2664 69.2655 63.7424C69.8288 62.6251 70.4074 61.5155 70.9861 60.4137C72.1512 58.2022 73.3471 56.0139 74.5816 53.8409C75.8161 51.668 76.904 49.626 78.2774 47.6689C79.5736 45.8196 81.2788 44.4403 83.3851 43.6081C84.4653 43.1766 85.5995 42.8761 86.7491 42.668C87.8139 42.4754 88.9095 42.3829 89.9126 41.9514C90.8076 41.5662 91.4171 40.9266 91.8492 40.0636C92.2118 39.3316 92.505 38.2451 93.3769 37.9677L92.8985 37.698C94.7348 42.2751 96.7872 46.7596 99.0556 51.144C99.2871 51.5832 99.9506 51.198 99.7191 50.7587V50.7664Z" fill="black"/>
<path d="M79.7278 86.1949C77.4516 89.5853 74.9826 92.837 72.3516 95.9654C69.7206 99.0938 66.9584 102.137 64.2733 105.235C58.9418 111.384 53.8032 117.695 48.8652 124.16C47.6384 125.77 46.4194 127.388 45.2157 129.014C44.5985 129.854 43.9812 130.694 43.364 131.541C42.847 132.25 42.1912 132.975 41.9443 133.838C41.4659 135.502 42.8933 137.051 43.9426 138.16C45.1386 139.424 46.5197 140.511 47.9779 141.466C49.4362 142.421 50.9947 143.261 52.5687 144.047C54.1427 144.833 55.7167 145.82 57.5067 145.149C59.019 144.587 60.431 143.608 61.7195 142.66C63.008 141.713 64.173 140.695 65.3072 139.609C69.8903 135.217 73.617 129.892 78.7864 126.124C79.4191 125.662 80.075 125.231 80.7462 124.822C81.1706 124.568 80.7848 123.898 80.3604 124.16C75.0366 127.373 71.1943 132.358 66.9815 136.82C64.8752 139.054 62.6376 141.204 60.0529 142.892C58.6641 143.801 56.9281 145.064 55.2075 144.448C54.3819 144.155 53.5949 143.708 52.8156 143.315C52.0363 142.922 51.2956 142.537 50.5549 142.121C49.035 141.273 47.5613 140.341 46.2188 139.231C45.5706 138.7 44.9534 138.122 44.3824 137.513C43.8115 136.904 43.1711 136.196 42.8239 135.394C42.3918 134.408 42.8007 133.645 43.3794 132.836C43.9581 132.027 44.5367 131.249 45.1154 130.455C46.2805 128.875 47.4533 127.296 48.6415 125.732C53.4406 119.398 58.4403 113.21 63.6175 107.185C68.7947 101.159 74.1571 95.4414 78.7402 88.9997C79.3034 88.206 79.8512 87.4046 80.399 86.6033C80.6768 86.1872 80.0055 85.8019 79.7355 86.218L79.7278 86.1949Z" fill="black"/>
<path d="M84.7663 87.4834C84.0179 89.194 83.6475 91.0047 83.4006 92.8386C83.1383 94.8189 82.9377 96.8069 82.7757 98.8027C82.4362 102.863 82.2741 106.94 82.2896 111.016C82.2896 113.035 82.3436 115.061 82.4362 117.08C82.4825 118.089 82.5365 119.099 82.6059 120.108C82.6676 121.041 82.6677 122.019 82.8374 122.936C82.9686 123.684 83.4855 123.999 84.2108 124.046C85.1907 124.107 86.186 124.1 87.1736 124.123C89.1874 124.169 91.2011 124.207 93.2149 124.207C100.846 124.207 108.569 123.653 115.86 121.256C119.17 120.17 122.38 118.706 125.297 116.803C126.03 116.325 126.747 115.816 127.441 115.277C128.036 114.822 128.668 114.314 128.769 113.52C128.869 112.726 128.445 111.879 128.182 111.131C127.897 110.33 127.611 109.529 127.326 108.727C125.034 102.424 122.38 96.0595 117.913 90.9508C117.357 90.319 116.778 89.7102 116.177 89.1246C115.822 88.7779 115.274 89.325 115.629 89.6717C120.312 94.2102 123.221 100.159 125.543 106.169C126.13 107.687 126.685 109.213 127.225 110.738C127.357 111.116 127.488 111.486 127.619 111.863C127.766 112.272 127.966 112.711 128.005 113.15C128.074 114.021 127.133 114.56 126.523 115.007C123.823 117.011 120.814 118.598 117.673 119.792C110.953 122.358 103.754 123.213 96.6021 123.391C92.7674 123.483 88.925 123.391 85.0904 123.291C84.7432 123.283 84.2416 123.352 83.9099 123.229C83.4701 123.059 83.5395 122.381 83.5087 121.996C83.4315 121.017 83.3621 120.047 83.3003 119.068C83.1846 117.142 83.1074 115.215 83.0689 113.289C82.9917 109.436 83.0766 105.576 83.3158 101.731C83.4392 99.8044 83.5935 97.8857 83.7941 95.9671C83.9947 94.0484 84.1645 92.253 84.5811 90.4423C84.7817 89.5638 85.0518 88.7008 85.4144 87.8686C85.615 87.4217 84.9438 87.0287 84.7509 87.4834H84.7663Z" fill="black"/>
<path d="M125.782 117.442C129.787 122.682 131.584 129.116 133.043 135.442C133.228 136.236 133.375 137.037 133.583 137.815C133.753 138.462 134.123 138.979 134.802 139.125C135.442 139.264 136.114 139.056 136.731 138.871C137.595 138.617 138.451 138.339 139.308 138.054C142.703 136.914 146.02 135.534 149.215 133.924C150.542 133.254 151.83 132.452 152.34 130.973C152.849 129.493 152.509 128.014 152.178 126.619C151.313 122.99 150.742 119.361 150.704 115.624C150.688 114.129 150.804 112.58 150.395 111.116C149.948 109.536 148.837 108.627 147.556 107.702C144.539 105.537 141.484 103.441 138.374 101.415C132.055 97.3 125.559 93.4627 119.116 89.5329L116.647 88.0304C116.223 87.7684 115.837 88.4388 116.261 88.693C122.465 92.4764 128.714 96.1981 134.864 100.074C137.842 101.954 140.789 103.896 143.683 105.899C145.118 106.893 146.576 107.872 147.957 108.935C148.59 109.421 149.13 109.975 149.446 110.715C149.732 111.378 149.847 112.11 149.901 112.826C150.009 114.429 149.917 116.047 150.009 117.658C150.11 119.399 150.303 121.133 150.596 122.851C150.889 124.57 151.329 126.095 151.645 127.737C151.931 129.208 151.977 130.85 150.82 131.975C150.287 132.491 149.624 132.845 148.968 133.184C148.196 133.577 147.417 133.947 146.638 134.309C145.056 135.041 143.451 135.712 141.823 136.328C140.195 136.945 138.598 137.492 136.962 137.985C136.36 138.17 135.535 138.54 134.895 138.339C134.208 138.123 134.169 136.852 134.03 136.259C132.672 130.264 131.122 124.13 127.758 118.898C127.349 118.259 126.909 117.642 126.446 117.034C126.145 116.648 125.481 117.034 125.782 117.419V117.442Z" fill="black"/>
<path d="M94.1404 38.0371C94.7731 38.1142 95.1666 37.5517 95.2901 36.9969C95.4753 36.1724 95.4135 35.2324 95.4058 34.3848C95.4058 33.4293 95.3827 32.443 95.2361 31.4952C95.0895 30.5475 94.6188 30.0312 94.071 29.3377C93.5232 28.6442 93.1683 27.8274 93.0757 26.9567C93.0294 26.5252 92.9985 25.9704 93.2377 25.5851C93.446 25.2538 93.8241 25.092 94.1867 25.0072C95.5756 24.6605 97.4659 25.3232 97.952 26.7641C98.0831 27.1648 98.7081 27.1108 98.7081 26.6639C98.7081 24.2675 99.2791 21.6708 101.154 20.0218C102.257 19.0586 103.708 18.5963 105.135 18.4345C106.401 18.2958 108.36 18.08 109.093 19.3823C109.41 19.9448 109.502 20.6151 109.626 21.2393C109.772 22.0329 109.911 22.8343 110.019 23.628C110.258 25.2846 110.405 26.949 110.482 28.6211C110.598 31.2564 111.007 35.0628 108.337 36.6425C106.856 37.5209 105.043 37.074 103.6 36.3342C102.157 35.5945 100.799 34.5158 99.7188 33.2444C99.3948 32.8668 98.8547 33.4139 99.171 33.7914C100.236 35.0474 101.54 36.1031 102.99 36.889C104.441 37.675 106.038 38.1681 107.62 37.7674C108.985 37.4207 110.089 36.3651 110.66 35.1014C111.362 33.5449 111.331 31.7803 111.3 30.1082C111.269 28.2435 111.138 26.3865 110.914 24.5372C110.799 23.6049 110.667 22.6802 110.505 21.7632C110.374 20.9927 110.266 20.1836 109.973 19.4516C109.718 18.8121 109.309 18.2496 108.677 17.9491C107.998 17.6254 107.211 17.5869 106.462 17.5946C104.85 17.5946 103.191 17.872 101.771 18.658C98.9087 20.2376 97.9288 23.5817 97.9365 26.6562L98.6927 26.556C98.3223 25.4542 97.381 24.7067 96.2931 24.36C95.2052 24.0132 93.8318 24.0209 92.9368 24.7761C91.9261 25.6314 92.227 27.3574 92.659 28.4362C92.9059 29.0603 93.2763 29.5997 93.7084 30.1082C93.9553 30.401 94.2099 30.6861 94.3411 31.0483C94.4877 31.449 94.5185 31.8805 94.5494 32.3043C94.5957 32.9053 94.9506 37.3745 94.1404 37.2743C93.6466 37.2127 93.6544 37.9832 94.1404 38.0448V38.0371Z" fill="black"/>
<path d="M42.0676 134.939C39.4598 137.945 37.4228 141.397 34.8072 144.394C34.1514 145.149 33.457 145.873 32.6468 146.467C32.0296 146.921 31.3583 147.307 30.7411 147.761C29.414 148.724 28.5653 149.919 28.6733 151.622C28.735 152.585 28.9433 153.548 29.2211 154.465C29.4603 155.228 29.7226 156.137 30.3785 156.661C31.0343 157.185 31.8753 157.162 32.6546 157.1C33.7193 157.016 34.7764 156.923 35.8411 156.838C36.9059 156.754 37.9706 156.676 39.0354 156.576C39.915 156.492 39.7684 155.729 39.5292 155.112C39.1511 154.126 38.7731 153.147 38.395 152.161C38.0864 151.352 37.3688 150.219 37.8703 149.372C38.1249 148.94 38.557 148.624 38.9582 148.332C39.4289 147.985 39.9073 147.646 40.3856 147.307C41.3038 146.644 42.2219 145.989 43.1324 145.326C44.8607 144.055 46.5581 142.707 47.9547 141.073C48.2787 140.695 47.7309 140.148 47.4069 140.526C44.9764 143.361 41.7127 145.396 38.7113 147.561C38.1172 147.985 37.4768 148.439 37.1296 149.102C36.7361 149.857 36.9599 150.581 37.2454 151.321C37.6003 152.246 37.9552 153.171 38.3101 154.095C38.4799 154.527 38.6419 154.966 38.8116 155.397C38.8734 155.551 38.9582 155.713 38.966 155.883L39.0277 155.798L38.8425 155.813C38.7036 155.798 38.5184 155.837 38.3718 155.852C36.3889 156.014 34.4137 156.214 32.4308 156.337C32.0527 156.361 31.6438 156.384 31.2735 156.268C30.7951 156.114 30.5405 155.744 30.3476 155.313C29.9695 154.473 29.7381 153.54 29.576 152.639C29.414 151.737 29.2983 150.805 29.6918 149.98C30.0004 149.333 30.5559 148.84 31.1269 148.432C31.6978 148.023 32.3382 147.638 32.9246 147.214C33.6422 146.698 34.2903 146.105 34.8844 145.457C37.7469 142.367 39.8455 138.661 42.6077 135.487C42.9318 135.117 42.3917 134.57 42.0599 134.939H42.0676Z" fill="black"/>
<path d="M134.74 138.677C134.224 141.042 133.676 143.408 133.105 145.758C132.534 148.108 131.847 150.404 131.33 152.747C131.13 153.672 131.06 154.65 131.461 155.536C131.863 156.422 132.657 156.862 133.583 157.062C135.859 157.555 138.236 157.47 140.55 157.501C142.865 157.532 145.365 157.555 147.764 157.586C148.976 157.601 150.187 157.648 151.398 157.632C152.224 157.617 153.088 157.347 153.273 156.438C153.443 155.583 152.903 154.82 152.201 154.396C151.275 153.833 150.11 153.564 149.092 153.225C147.965 152.855 146.839 152.508 145.697 152.184C144.709 151.899 143.667 151.676 142.819 151.083C141.877 150.435 141.391 149.279 141.013 148.247C140.759 147.569 140.921 146.976 141.083 146.29C141.245 145.604 141.414 144.934 141.584 144.256C142.24 141.613 142.896 138.962 143.536 136.319C143.652 135.833 142.911 135.633 142.796 136.111C142.255 138.33 141.708 140.541 141.16 142.761C140.882 143.87 140.612 144.98 140.342 146.082C140.234 146.521 140.103 146.976 140.087 147.43C140.064 147.954 140.265 148.432 140.465 148.902C140.805 149.711 141.16 150.528 141.769 151.175C142.379 151.822 143.235 152.215 144.076 152.493C146.144 153.178 148.251 153.71 150.311 154.427C151.098 154.704 152.456 155.012 152.533 156.037C152.625 157.178 150.627 156.831 149.956 156.823C147.68 156.792 145.396 156.761 143.12 156.738C140.844 156.715 138.652 156.738 136.43 156.615C135.365 156.553 134.169 156.507 133.159 156.122C132.148 155.737 131.863 154.673 131.947 153.687C132.055 152.469 132.511 151.244 132.812 150.065C133.112 148.886 133.429 147.623 133.73 146.398C134.339 143.893 134.926 141.374 135.473 138.854C135.581 138.369 134.833 138.16 134.733 138.646L134.74 138.677Z" fill="black"/>
<path d="M78.1308 73.6975C77.8607 72.9192 77.7064 72.1102 77.7218 71.2857C77.7373 70.6461 77.8684 69.8602 78.5166 69.5674C79.6276 69.0665 81.0859 69.5057 81.9963 70.2223C83.1074 71.0931 83.5394 72.4261 83.3851 73.8054C83.2462 75.0382 82.629 76.7334 81.3173 77.1572C79.4502 77.7583 78.5706 75.4158 78.2851 74.0365C78.1848 73.5511 77.4441 73.7591 77.5444 74.2446C77.8839 75.9013 78.7712 77.9586 80.7695 78.0048C82.5133 78.0434 83.5857 76.2788 83.9792 74.7994C84.4267 73.1042 84.1721 71.2549 82.8913 69.9835C81.8034 68.9047 80.1523 68.3499 78.64 68.7121C76.4025 69.2515 76.8191 72.272 77.3824 73.8978C77.5444 74.3602 78.2928 74.1598 78.1231 73.6898L78.1308 73.6975Z" fill="black"/>
<path d="M150.989 31.2787L158.265 29.2753C162.177 28.1965 166.097 27.1178 169.947 25.8387C171.891 25.1914 173.936 24.4902 175.942 24.8832C175.78 25.5228 175.178 25.9311 174.622 26.2856C171.451 28.2967 168.242 30.2462 165.001 32.134C164.245 32.5732 163.473 33.0201 162.632 33.2667C161.251 33.6751 159.785 33.5364 158.35 33.4285C158.042 33.4054 157.717 33.39 157.424 33.4902C157.008 33.6289 156.707 33.991 156.421 34.3224C153.597 37.6126 150.071 40.3018 146.144 42.1511" fill="white"/>
<path d="M151.09 31.6492C157.509 29.877 163.983 28.2203 170.302 26.1167C172.076 25.5311 173.943 24.907 175.834 25.246L175.564 24.7683C175.402 25.2768 174.97 25.5851 174.545 25.8624C174.036 26.1938 173.511 26.5174 172.994 26.841C171.937 27.5037 170.873 28.1664 169.8 28.8136C168.728 29.4609 167.655 30.1081 166.583 30.7477C165.51 31.3872 164.507 32.0345 163.412 32.5508C162.262 33.0901 161.043 33.1903 159.785 33.1364C158.798 33.0979 157.609 32.7665 156.761 33.4215C156.375 33.7143 156.082 34.115 155.765 34.4771C155.387 34.9009 154.994 35.317 154.593 35.7177C153.829 36.4882 153.019 37.2126 152.178 37.8983C150.264 39.4548 148.166 40.7571 145.936 41.8127C145.488 42.0285 145.882 42.6911 146.321 42.4754C150.395 40.549 153.844 37.7751 156.822 34.4232C157.224 33.9763 157.563 33.7759 158.18 33.7991C158.836 33.8299 159.484 33.8992 160.14 33.9146C161.321 33.9377 162.47 33.7913 163.558 33.3213C164.646 32.8513 165.749 32.1347 166.806 31.5105C167.864 30.8864 169.013 30.2006 170.109 29.5302C171.336 28.7828 172.562 28.0277 173.781 27.2571C174.715 26.6715 175.95 26.109 176.304 24.9763C176.366 24.7914 176.235 24.5371 176.034 24.4986C174.43 24.2058 172.848 24.5063 171.312 24.9763C169.684 25.4695 168.072 26.032 166.444 26.5251C163.149 27.5268 159.832 28.4284 156.514 29.3376L150.881 30.8941C150.403 31.0251 150.604 31.7725 151.09 31.6338V31.6492Z" fill="black"/>
<path d="M83.6011 77.5355L80.6383 83.3608C80.3759 83.8848 80.0982 84.4627 80.2216 85.0329C80.3759 85.7418 81.0781 86.181 81.7107 86.5355L86.0778 88.9704C87.6132 89.8257 89.1563 90.6887 90.8306 91.2281C93.4154 92.0603 96.1853 92.0834 98.9012 92.0988C102.072 92.1219 105.274 92.1373 108.368 91.4284C110.945 90.8428 113.391 89.7641 115.744 88.562C116.138 88.3617 116.547 88.1459 116.809 87.7838C117.041 87.4678 117.133 87.0749 117.218 86.6896C117.264 85.318 117.272 83.3454 116.755 81.812C116.632 81.4499 116.207 81.2727 115.868 81.4422C112.897 82.8908 111.2 84.4242 108.044 85.8574C107.358 86.1733 106.663 86.4892 105.938 86.705C102.99 87.6065 99.8116 86.8976 96.8257 86.104C94.1483 85.3874 91.471 84.5937 89.0637 83.2299C86.6565 81.866 84.5347 79.8472 83.5085 77.2812" fill="#5081F1"/>
<path d="M91.4171 88.7227C86.6951 94.4786 83.7091 101.429 80.7926 108.279C79.9208 110.321 79.0489 112.363 78.4625 114.505C78.1462 115.676 77.9147 116.871 77.6832 118.065L76.4487 124.453C78.9872 123.698 81.5025 122.842 83.9715 121.879C84.1875 121.794 84.419 121.702 84.5502 121.509C84.635 121.386 84.6736 121.24 84.7122 121.093L88.1071 107.886C88.5083 106.306 88.9172 104.735 89.4187 103.186C90.7458 99.0865 92.7133 95.2415 94.6808 91.4119" fill="#5081F1"/>
<path d="M102.512 90.903C105.375 93.5999 106.216 97.7762 106.64 101.683C107.25 107.316 107.296 112.994 107.304 118.658C107.304 121.694 107.273 124.853 105.915 127.565L112.681 125.431C112.859 125.377 113.044 125.315 113.16 125.169C113.291 125.007 113.299 124.776 113.299 124.568C113.33 114.851 111.732 105.135 108.592 95.9423C107.921 93.9697 107.118 91.9355 105.583 90.5254" fill="#5081F1"/>
<rect x="48.5479" y="11.0488" width="3" height="9" transform="rotate(38.6461 48.5479 11.0488)" fill="#BEE3F8"/>
<rect x="13.0298" y="82" width="3" height="9" transform="rotate(38.6461 13.0298 82)" fill="#5081F1"/>
<rect x="37.1567" y="40.6367" width="3" height="9" transform="rotate(-17.0352 37.1567 40.6367)" fill="#BEE3F8"/>
<rect x="150.97" y="80.3574" width="3" height="9" transform="rotate(40.8464 150.97 80.3574)" fill="#BEE3F8"/>
<rect x="19.4092" y="59.8789" width="3" height="9" transform="rotate(-17.0352 19.4092 59.8789)" fill="white"/>
<rect x="61.4092" y="16.8789" width="3" height="9" transform="rotate(-17.0352 61.4092 16.8789)" fill="#BEE3F8"/>
<rect x="83.5347" y="38" width="3" height="9" transform="rotate(0.79987 83.5347 38)" fill="#BEE3F8"/>
<rect x="84.5347" y="8" width="3" height="9" transform="rotate(0.79987 84.5347 8)" fill="#5081F1"/>
<rect x="3.13037" y="34.7793" width="3" height="9" transform="rotate(20.354 3.13037 34.7793)" fill="#5081F1"/>
<rect x="186.152" y="28.5918" width="3" height="9" transform="rotate(-44.6326 186.152 28.5918)" fill="#BEE3F8"/>
<rect x="215.077" y="48.7363" width="3" height="9" transform="rotate(36.0886 215.077 48.7363)" fill="#BEE3F8"/>
<rect x="132.535" y="50" width="3" height="9" transform="rotate(0.79987 132.535 50)" fill="#5081F1"/>
<rect x="164.806" y="95.252" width="3" height="9" transform="rotate(-43.0047 164.806 95.252)" fill="#5081F1"/>
<rect x="156.388" y="56.7812" width="3" height="9" transform="rotate(24.2325 156.388 56.7812)" fill="#BEE3F8"/>
<rect x="191.103" y="75" width="3" height="9" transform="rotate(24.2325 191.103 75)" fill="#BEE3F8"/>
<rect x="20.6802" y="36.3945" width="3" height="8" transform="rotate(-61.2932 20.6802 36.3945)" fill="#5081F1"/>
<rect x="13.8677" y="14.9238" width="3" height="8.02819" transform="rotate(-29.2197 13.8677 14.9238)" fill="#5081F1"/>
<rect x="55.4092" y="42.4648" width="3" height="8.06295" transform="rotate(-29.2197 55.4092 42.4648)" fill="#5081F1"/>
<rect x="40.4092" y="62.4648" width="3" height="8.06295" transform="rotate(-29.2197 40.4092 62.4648)" fill="#5081F1"/>
<rect x="138.62" y="5.94922" width="3" height="8.06295" transform="rotate(19.5284 138.62 5.94922)" fill="#5081F1"/>
<rect x="172.104" width="3" height="8.06295" transform="rotate(19.5284 172.104 0)" fill="#5081F1"/>
<rect x="48.1045" y="95" width="3" height="8.06295" transform="rotate(19.5284 48.1045 95)" fill="#5081F1"/>
<rect x="176.104" y="48" width="3" height="8.06295" transform="rotate(19.5284 176.104 48)" fill="#5081F1"/>
</svg>
