<svg width="73" height="68" viewBox="0 0 73 68" fill="none" xmlns="http://www.w3.org/2000/svg">
<path d="M72.8887 8.40439C72.5742 6.36113 71.5352 4.48386 69.9463 3.08804C68.3574 1.69222 66.3155 0.862925 64.1637 0.739502H62.8919C61.2043 0.886791 59.5839 1.44421 58.184 2.359C56.7841 3.2738 55.651 4.51572 54.8919 5.96722C52.3482 9.78139 50.8219 14.0221 48.6343 17.9581C46.9809 20.5049 44.4372 23.6854 40.9141 23.0274C40.1827 22.8889 39.4934 22.5939 38.8977 22.1643C38.3021 21.7347 37.8154 21.1817 37.4742 20.5466C37.133 19.9114 36.946 19.2106 36.9272 18.4965C36.9084 17.7824 37.0583 17.0735 37.3656 16.4227C37.5674 15.9598 37.8711 15.5442 38.2559 15.2041C39.1034 14.5747 39.7569 13.7368 40.1466 12.7797C40.5363 11.8226 40.6477 10.7822 40.469 9.76921C40.2682 8.52549 39.6541 7.37697 38.7179 6.49423C37.7817 5.61148 36.5733 5.04158 35.2722 4.86916C33.9711 4.69674 32.6466 4.93099 31.4954 5.53713C30.3443 6.14327 29.4279 7.08897 28.8823 8.23379C27.9284 10.281 28.5644 12.6572 27.6105 14.741C26.5332 18.0955 24.2066 20.9536 21.0731 22.7715C19.1653 24.0144 16.6216 24.246 14.9682 26.0495C9.0922 31.7159 14.3068 41.4889 22.5994 40.1485C23.9385 39.9683 25.2137 39.4853 26.3195 38.7394C27.4253 37.9935 28.3299 37.0062 28.9587 35.8591C29.5089 34.9688 30.3675 34.2915 31.3851 33.945C32.4027 33.5985 33.5149 33.6048 34.5281 33.9627C35.5414 34.3206 36.3917 35.0075 36.931 35.9039C37.4704 36.8003 37.6647 37.8495 37.4801 38.869C35.9539 43.329 32.2909 46.7288 30.4594 51.0548C29.0986 53.8819 27.814 57.0015 28.6025 60.1454C29.1389 62.5126 30.5597 64.6102 32.5976 66.0438C34.6355 67.4773 37.1499 68.1478 39.6678 67.9292C42.1856 67.7106 44.5332 66.6179 46.2689 64.8567C48.0046 63.0955 49.0087 60.7872 49.0922 58.3663C48.5952 50.5503 50.0834 42.7353 53.4292 35.591V35.591C56.3882 29.3925 60.6839 23.8648 66.0334 19.3716C67.1272 18.4455 68.2973 17.6169 69.4292 16.7395C70.4474 15.961 71.2853 14.9881 71.8897 13.8824C72.494 12.7768 72.8516 11.5628 72.9396 10.3176V9.09898C72.9014 8.9162 72.9141 8.67248 72.8887 8.40439ZM13.1113 21.1264C11.6609 21.4234 10.1622 21.4299 8.70907 21.1455C7.25598 20.8611 5.87994 20.292 4.66733 19.4739C3.45472 18.6557 2.43173 17.6062 1.66259 16.3913C0.893446 15.1763 0.394753 13.8222 0.19782 12.4138C0.000887139 11.0054 0.109966 9.57318 0.518209 8.2071C0.926451 6.84103 1.62504 5.57056 2.57012 4.47546C3.51521 3.38036 4.68637 2.48427 6.0101 1.84346C7.33382 1.20265 8.78152 0.830946 10.2623 0.751687H11.5342C24.151 1.81186 25.3466 18.5065 13.0858 21.1386L13.1113 21.1264Z" fill="url(#paint0_linear_111_19)"/>
<defs>
<linearGradient id="paint0_linear_111_19" x1="20.0684" y1="-15.9551" x2="77.4932" y2="86.1032" gradientUnits="userSpaceOnUse">
<stop stop-color="#39D0B5"/>
<stop offset="1" stop-color="#527AF5"/>
</linearGradient>
</defs>
</svg>
