<svg width="585" height="808" viewBox="0 0 585 808" fill="none" xmlns="http://www.w3.org/2000/svg">
<rect x="325.5" y="371.5" width="247" height="97" fill="url(#paint0_linear_56_69)" stroke="#E9F0FA"/>
<rect y="273" width="167" height="57" rx="12" fill="white"/>
<rect y="702" width="175" height="106" rx="12" fill="white"/>
<rect x="204" y="702" width="176" height="106" rx="12" fill="white"/>
<rect x="410" y="702" width="174" height="106" rx="12" fill="white"/>
<rect y="702" width="175" height="106" rx="12" fill="white"/>
<rect x="204" y="702" width="176" height="106" rx="12" fill="white"/>
<rect x="410" y="702" width="174" height="106" rx="12" fill="white"/>
<rect y="355" width="296" height="135" rx="12" fill="white"/>
<rect y="525" width="584" height="38" rx="8" fill="white"/>
<rect y="578" width="584" height="38" rx="8" fill="white"/>
<rect y="631" width="584" height="38" rx="8" fill="white"/>
<rect x="206" y="273" width="167" height="57" rx="12" fill="white"/>
<rect x="206" y="207" width="167" height="57" rx="12" fill="white"/>
<rect x="418" y="207" width="166" height="57" rx="12" fill="white"/>
<rect x="418" y="273" width="166" height="57" rx="12" fill="white"/>
<rect x="3" y="277" width="57" height="50" rx="12" fill="#3CE9CA"/>
<rect x="13" y="710" width="30" height="27" rx="8" fill="#D2E3FB"/>
<rect x="218" y="710" width="29" height="27" rx="8" fill="#D2E3FB"/>
<rect x="422" y="710" width="31" height="27" rx="8" fill="#D2E3FB"/>
<rect x="209" y="210" width="57" height="51" rx="12" fill="#F4768B"/>
<rect x="209" y="277" width="57" height="50" rx="12" fill="#787BE5"/>
<rect x="420" y="210" width="58" height="51" rx="12" fill="#46DBA8"/>
<rect x="420" y="277" width="58" height="50" rx="12" fill="#FFE252"/>
<ellipse cx="32" cy="301.5" rx="16" ry="15.5" fill="white"/>
<ellipse cx="237" cy="235.5" rx="16" ry="15.5" fill="white"/>
<g clip-path="url(#clip0_56_69)">
<path d="M231.132 230.046L244.646 230.412L244.231 228.402L243.44 227.928L236.266 227.512H232.616C231.891 228.198 231.377 229.077 231.132 230.046V230.046Z" fill="#F78BA2"/>
<path d="M242.502 241.32H231.541C230.866 241.318 230.219 241.049 229.742 240.569C229.265 240.09 228.996 239.44 228.994 238.763V229.686C228.994 229.008 229.262 228.356 229.74 227.876C230.217 227.395 230.865 227.125 231.541 227.123H242.502C243.179 227.125 243.827 227.395 244.306 227.876C244.784 228.356 245.054 229.007 245.055 229.686V238.763C245.054 239.441 244.784 240.092 244.305 240.571C243.827 241.051 243.178 241.32 242.502 241.32V241.32ZM231.541 227.928C231.089 227.928 230.655 228.109 230.335 228.43C230.015 228.751 229.836 229.186 229.836 229.641V238.763C229.836 239.217 230.015 239.652 230.335 239.974C230.655 240.295 231.089 240.475 231.541 240.475H242.502C242.955 240.475 243.389 240.295 243.708 239.974C244.028 239.652 244.208 239.217 244.208 238.763V229.686C244.208 229.232 244.028 228.797 243.708 228.475C243.389 228.154 242.955 227.974 242.502 227.974L231.541 227.928Z" fill="#F26173"/>
<path d="M232.155 230.029C231.834 230.029 231.526 229.901 231.299 229.673C231.072 229.445 230.944 229.136 230.944 228.813V226.21C230.944 226.051 230.976 225.893 231.037 225.746C231.098 225.599 231.187 225.465 231.299 225.352C231.412 225.24 231.545 225.151 231.692 225.09C231.839 225.03 231.997 224.999 232.155 225C232.476 225 232.783 225.127 233.01 225.354C233.236 225.581 233.365 225.889 233.366 226.21V228.813C233.365 229.135 233.237 229.444 233.01 229.671C232.783 229.899 232.476 230.028 232.155 230.029V230.029Z" fill="white"/>
<path d="M232.155 229.361C232.005 229.361 231.86 229.301 231.753 229.194C231.647 229.087 231.587 228.942 231.587 228.79V226.187C231.587 226.036 231.647 225.891 231.753 225.784C231.86 225.677 232.005 225.616 232.155 225.616C232.306 225.616 232.451 225.677 232.557 225.784C232.664 225.891 232.724 226.036 232.724 226.187V228.79C232.724 228.942 232.664 229.087 232.557 229.194C232.451 229.301 232.306 229.361 232.155 229.361Z" fill="#F26173"/>
<path d="M241.934 230.029C241.613 230.029 241.305 229.901 241.078 229.673C240.851 229.445 240.723 229.136 240.723 228.813V226.21C240.723 226.051 240.754 225.893 240.815 225.746C240.876 225.599 240.965 225.465 241.078 225.352C241.191 225.24 241.324 225.151 241.471 225.09C241.618 225.03 241.775 224.999 241.934 225C242.254 225 242.56 225.128 242.786 225.354C243.012 225.581 243.139 225.889 243.139 226.21V228.813C243.139 229.135 243.012 229.443 242.786 229.671C242.561 229.899 242.254 230.028 241.934 230.029V230.029Z" fill="white"/>
<path d="M241.934 229.361C241.783 229.361 241.638 229.301 241.532 229.194C241.425 229.087 241.365 228.942 241.365 228.79V226.187C241.365 226.036 241.425 225.891 241.532 225.784C241.638 225.677 241.783 225.616 241.934 225.616C242.085 225.616 242.229 225.677 242.336 225.784C242.443 225.891 242.502 226.036 242.502 226.187V228.79C242.502 228.942 242.443 229.087 242.336 229.194C242.229 229.301 242.085 229.361 241.934 229.361Z" fill="#F26173"/>
<path d="M233.946 232.392H232.155V234.002H233.946V232.392Z" fill="#F26173"/>
<path d="M234.492 234.55H231.604V231.839H234.492V234.55ZM232.701 233.443H233.395V232.94H232.701V233.443Z" fill="#F26173"/>
<path d="M237.926 232.392H236.135V234.002H237.926V232.392Z" fill="#F26173"/>
<path d="M238.472 234.55H235.583V231.839H238.472V234.55ZM236.681 233.443H237.374V232.94H236.681V233.443Z" fill="#F26173"/>
<path d="M233.946 236.217H232.155V237.827H233.946V236.217Z" fill="#F26173"/>
<path d="M234.492 238.375H231.604V235.663H234.492V238.375ZM232.701 237.273H233.395V236.765H232.701V237.273Z" fill="#F26173"/>
<path d="M242.065 232.392H240.274V234.002H242.065V232.392Z" fill="#F26173"/>
<path d="M242.616 234.55H239.722V231.839H242.616V234.55ZM240.825 233.443H241.513V232.94H240.825V233.443Z" fill="#F26173"/>
<path d="M242.065 236.217H240.274V237.827H242.065V236.217Z" fill="#F26173"/>
<path d="M242.616 238.375H239.722V235.663H242.616V238.375ZM240.825 237.273H241.513V236.765H240.825V237.273Z" fill="#F26173"/>
<path d="M237.926 236.217H236.135V237.827H237.926V236.217Z" fill="#5C77BC"/>
<path d="M238.472 238.375H235.583V235.663H238.472V238.375ZM236.681 237.273H237.374V236.765H236.681V237.273Z" fill="#F26173"/>
<path d="M245.123 237.678C244.919 237.441 244.635 237.288 244.326 237.248C244.017 237.208 243.703 237.284 243.446 237.461C243.276 237.588 243.144 237.76 243.065 237.958C242.878 237.791 242.639 237.694 242.388 237.683C242.138 237.671 241.891 237.746 241.689 237.895C241.491 238.033 241.345 238.234 241.274 238.466C240.177 237.969 239.927 239.065 239.853 239.237L238.085 236.736C238 236.618 237.892 236.518 237.768 236.441C237.644 236.364 237.506 236.313 237.363 236.29C237.219 236.268 237.072 236.274 236.931 236.308C236.789 236.342 236.656 236.405 236.539 236.491V236.491C236.421 236.576 236.322 236.684 236.246 236.808C236.171 236.932 236.12 237.07 236.097 237.214C236.075 237.357 236.08 237.504 236.114 237.645C236.148 237.787 236.209 237.92 236.294 238.038L238.568 241.143C238.825 241.61 239.006 242.115 239.103 242.639C239.302 245.773 243.577 245.944 243.577 245.944L246.613 243.832C247.977 241.263 245.123 237.678 245.123 237.678Z" fill="white"/>
<path d="M243.548 246.994H243.509C242.65 246.935 241.807 246.743 241.007 246.423C239.211 245.71 238.165 244.391 238.051 242.713C237.963 242.378 237.845 242.051 237.698 241.737L235.464 238.643C235.298 238.416 235.179 238.159 235.114 237.885C235.048 237.612 235.038 237.328 235.083 237.05C235.127 236.772 235.225 236.506 235.371 236.266C235.517 236.026 235.709 235.817 235.936 235.652C236.301 235.39 236.738 235.248 237.187 235.247C237.298 235.238 237.411 235.238 237.522 235.247C237.8 235.29 238.066 235.389 238.305 235.537C238.544 235.685 238.751 235.879 238.915 236.108L239.899 237.501L240.058 237.427C240.276 237.331 240.513 237.283 240.751 237.284V237.284C240.844 237.185 240.947 237.095 241.058 237.016C241.42 236.747 241.859 236.603 242.309 236.605C242.452 236.604 242.595 236.618 242.736 236.645L242.815 236.582C243.203 236.308 243.666 236.162 244.14 236.166C244.479 236.159 244.815 236.231 245.122 236.377C245.428 236.523 245.698 236.737 245.908 237.005C246.266 237.461 249.103 241.235 247.46 244.294C247.384 244.438 247.275 244.561 247.142 244.654L244.106 246.766C243.947 246.896 243.753 246.975 243.548 246.994V246.994ZM237.187 237.33C237.172 237.325 237.156 237.325 237.141 237.33C237.138 237.338 237.136 237.347 237.136 237.356C237.136 237.365 237.138 237.373 237.141 237.381C237.137 237.39 237.135 237.4 237.135 237.41C237.135 237.42 237.137 237.43 237.141 237.439L239.415 240.544C239.785 241.168 240.032 241.858 240.143 242.576C240.2 243.449 240.712 244.083 241.792 244.505C242.282 244.695 242.794 244.823 243.315 244.888L245.823 243.175C246.471 241.554 245.004 239.145 244.362 238.335C244.321 238.314 244.276 238.304 244.231 238.306C244.189 238.304 244.148 238.314 244.111 238.335C244.108 238.346 244.108 238.358 244.111 238.369C244.051 238.522 243.955 238.659 243.832 238.767C243.708 238.875 243.56 238.952 243.401 238.991C243.32 239.003 243.237 239.003 243.156 238.991C242.908 238.993 242.667 238.904 242.48 238.74C242.463 238.734 242.445 238.734 242.429 238.74H242.383C242.369 238.749 242.359 238.764 242.355 238.78C242.314 238.925 242.242 239.059 242.143 239.172C242.045 239.285 241.923 239.376 241.786 239.436C241.651 239.5 241.503 239.533 241.354 239.533C241.218 239.532 241.082 239.505 240.956 239.454C240.949 239.485 240.937 239.516 240.922 239.545C240.922 239.608 240.888 239.653 240.871 239.688C240.797 239.854 240.68 239.997 240.534 240.105C240.387 240.212 240.215 240.279 240.035 240.298H239.933C239.768 240.298 239.605 240.258 239.459 240.181C239.313 240.105 239.186 239.994 239.091 239.859L237.323 237.359C237.323 237.359 237.323 237.359 237.283 237.359L237.187 237.33Z" fill="white"/>
<path d="M245.493 237.393C245.214 237.06 244.822 236.844 244.393 236.787C243.963 236.73 243.528 236.836 243.173 237.085C243.078 237.154 242.991 237.232 242.912 237.319C242.667 237.221 242.401 237.188 242.139 237.222C241.878 237.256 241.629 237.356 241.417 237.513C241.264 237.623 241.133 237.76 241.03 237.918C240.777 237.865 240.513 237.889 240.274 237.987C240.085 238.072 239.92 238.201 239.791 238.363L238.46 236.48C238.34 236.312 238.187 236.17 238.011 236.062C237.836 235.955 237.64 235.883 237.437 235.852C237.233 235.818 237.024 235.826 236.823 235.874C236.622 235.922 236.433 236.009 236.266 236.131C235.93 236.378 235.704 236.748 235.639 237.161C235.574 237.574 235.675 237.996 235.919 238.335L238.165 241.44C238.366 241.836 238.515 242.256 238.608 242.69C238.705 244.163 239.603 245.282 241.212 245.921C241.772 246.14 242.356 246.293 242.952 246.378C242.872 246.047 242.792 245.722 242.736 245.39C242.326 245.311 241.924 245.195 241.536 245.042C240.285 244.54 239.609 243.729 239.54 242.628C239.43 242.026 239.22 241.447 238.921 240.915L236.647 237.81C236.55 237.67 236.509 237.499 236.533 237.33C236.562 237.164 236.654 237.015 236.789 236.914C236.898 236.834 237.029 236.79 237.164 236.788H237.266C237.432 236.815 237.581 236.905 237.681 237.039L239.449 239.539C239.496 239.609 239.56 239.664 239.635 239.699C239.71 239.734 239.793 239.748 239.876 239.739C239.958 239.73 240.036 239.699 240.103 239.65C240.17 239.601 240.223 239.535 240.257 239.459C240.257 239.459 240.257 239.402 240.297 239.357C240.336 239.311 240.444 238.934 240.615 238.86C240.766 238.829 240.923 238.853 241.058 238.929C241.12 238.957 241.187 238.971 241.255 238.971C241.322 238.971 241.389 238.957 241.451 238.929C241.511 238.9 241.565 238.859 241.608 238.807C241.651 238.756 241.683 238.696 241.701 238.632C241.74 238.492 241.824 238.37 241.94 238.284C242.057 238.199 242.2 238.157 242.344 238.165C242.489 238.172 242.627 238.228 242.736 238.323C242.793 238.372 242.861 238.406 242.934 238.424C243.007 238.442 243.083 238.443 243.156 238.426C243.229 238.408 243.296 238.372 243.352 238.322C243.408 238.273 243.452 238.211 243.48 238.141C243.524 238.027 243.599 237.928 243.696 237.855C243.852 237.75 244.041 237.703 244.228 237.723C244.415 237.743 244.589 237.828 244.72 237.964V237.964C244.72 237.998 246.931 240.784 246.374 243.01L247.113 243.752C248.284 241.012 245.68 237.633 245.493 237.393Z" fill="#F26173"/>
<path d="M244.646 230.828H229.426C229.372 230.828 229.318 230.817 229.268 230.796C229.218 230.775 229.173 230.745 229.135 230.706C229.097 230.667 229.067 230.621 229.047 230.571C229.026 230.52 229.016 230.466 229.017 230.412C229.017 230.303 229.06 230.198 229.137 230.121C229.214 230.044 229.318 230 229.426 230H244.663C244.772 230 244.877 230.044 244.954 230.121C245.032 230.197 245.076 230.302 245.078 230.412C245.078 230.468 245.067 230.523 245.045 230.575C245.023 230.627 244.991 230.673 244.95 230.712C244.91 230.751 244.862 230.782 244.81 230.802C244.757 230.821 244.702 230.831 244.646 230.828V230.828Z" fill="#F26173"/>
</g>
<ellipse cx="237" cy="301.5" rx="16" ry="15.5" fill="white"/>
<circle cx="449.5" cy="235.5" r="15.5" fill="white"/>
<circle cx="449.5" cy="301.5" r="15.5" fill="white"/>
<rect y="207" width="167" height="57" rx="12" fill="white"/>
<rect x="2" width="143" height="194" rx="12" fill="white"/>
<rect x="158" width="427" height="194" rx="12" fill="white"/>
<rect x="3" y="210" width="57" height="51" rx="12" fill="#81D3F7"/>
<ellipse cx="32" cy="235.5" rx="16" ry="15.5" fill="white"/>
<g clip-path="url(#clip1_56_69)">
<path d="M24.2401 242.924C24.2401 242.924 23.9856 238.441 28.1117 236.868L29.771 236.62L31.0819 238.244L31.8784 236.62L35.4845 236.908C35.4845 236.908 31.3142 239.986 32.719 243.324L24.2401 242.924Z" fill="#87E1FF"/>
<path d="M26.7622 229.759C26.7622 229.759 27.5531 226.505 30.7611 225.677L33.4823 226.206L35.6947 229.15L35.8385 229.759C35.8385 229.759 31.9668 228.422 31.7179 226.939C31.7124 226.939 28.7589 229.691 26.7622 229.759Z" fill="#87E1FF"/>
<path d="M30.7611 236.321C29.2942 236.321 27.8873 235.727 26.85 234.67C25.8128 233.613 25.2301 232.179 25.2301 230.683C25.2301 229.188 25.8128 227.754 26.85 226.697C27.8873 225.639 29.2942 225.045 30.7611 225.045C32.228 225.045 33.6348 225.639 34.6721 226.697C35.7093 227.754 36.292 229.188 36.292 230.683C36.292 232.179 35.7093 233.613 34.6721 234.67C33.6348 235.727 32.228 236.321 30.7611 236.321ZM30.7611 225.834C29.5059 225.836 28.3025 226.345 27.4149 227.25C26.5273 228.155 26.028 229.381 26.0265 230.661C26.028 231.94 26.5273 233.167 27.4149 234.072C28.3025 234.977 29.5059 235.485 30.7611 235.487C32.0163 235.485 33.2197 234.977 34.1073 234.072C34.9949 233.167 35.4941 231.94 35.4956 230.661C35.4941 229.381 34.9949 228.155 34.1073 227.25C33.2197 226.345 32.0163 225.836 30.7611 225.834V225.834Z" fill="#5C77BC"/>
<path d="M24.865 230.503C24.7611 230.503 24.661 230.463 24.585 230.391C24.509 230.318 24.4628 230.219 24.4557 230.114C24.452 230.059 24.4589 230.004 24.4761 229.952C24.4932 229.9 24.5203 229.852 24.5557 229.81C24.5912 229.769 24.6343 229.735 24.6827 229.711C24.731 229.686 24.7835 229.672 24.8373 229.668C24.8927 229.668 29.3949 229.291 31.3916 226.686C31.4338 226.631 31.4888 226.588 31.5516 226.56C31.6144 226.533 31.683 226.521 31.7511 226.528C31.8191 226.534 31.8847 226.557 31.9417 226.596C31.9987 226.634 32.0454 226.686 32.0774 226.748C32.0774 226.748 33.4491 229.33 35.4955 229.144C35.549 229.139 35.603 229.144 35.6544 229.16C35.7058 229.176 35.7535 229.203 35.7947 229.238C35.8359 229.273 35.8698 229.316 35.8944 229.365C35.919 229.414 35.9339 229.467 35.938 229.522C35.9473 229.632 35.9134 229.741 35.844 229.825C35.7746 229.91 35.6751 229.963 35.5674 229.973C35.468 229.978 35.3682 229.978 35.2688 229.973C33.4712 229.973 32.2102 228.456 31.6571 227.633C29.3175 230.131 25.0808 230.452 24.8927 230.486L24.865 230.503Z" fill="#5C77BC"/>
<path d="M30.761 238.87C30.6994 238.87 30.6384 238.856 30.5829 238.828C30.5273 238.801 30.4786 238.761 30.4402 238.712L29.0298 236.88C28.9697 236.794 28.9437 236.688 28.957 236.583C28.9703 236.479 29.0221 236.383 29.1018 236.316C29.1848 236.253 29.2886 236.224 29.3915 236.237C29.4945 236.249 29.5888 236.302 29.6549 236.383L31.0597 238.216C31.1218 238.301 31.1495 238.406 31.1372 238.511C31.1248 238.616 31.0733 238.712 30.9933 238.78C30.9269 238.834 30.8458 238.865 30.761 238.87V238.87Z" fill="#5C77BC"/>
<path d="M39.1128 242.862C39.0043 242.862 38.9001 242.818 38.8234 242.739C38.7466 242.661 38.7036 242.555 38.7036 242.444C38.7036 239.462 36.4912 237.037 33.7865 237.037H27.7411C25.0254 237.037 22.8186 239.462 22.8186 242.444C22.8186 242.555 22.7755 242.661 22.6987 242.739C22.6219 242.818 22.5178 242.862 22.4093 242.862C22.3007 242.862 22.1966 242.818 22.1199 242.739C22.0431 242.661 22 242.555 22 242.444C22 239.005 24.5719 236.203 27.7411 236.203H33.7865C36.9502 236.203 39.5221 239.022 39.5221 242.444C39.5221 242.555 39.479 242.661 39.4022 242.739C39.3255 242.818 39.2214 242.862 39.1128 242.862V242.862Z" fill="#5C77BC"/>
<path d="M28.9912 242.861C28.9275 242.863 28.8647 242.847 28.8087 242.816C28.7596 242.792 28.7158 242.759 28.6798 242.717C28.6439 242.675 28.6166 242.627 28.5996 242.574C28.5825 242.521 28.5761 242.466 28.5807 242.411C28.5852 242.355 28.6007 242.302 28.6262 242.253L31.469 236.428C31.4931 236.379 31.5266 236.335 31.5675 236.299C31.6085 236.262 31.656 236.235 31.7075 236.218C31.7589 236.2 31.8132 236.194 31.8672 236.198C31.9213 236.202 31.9739 236.217 32.0221 236.242C32.0707 236.267 32.1139 236.301 32.1495 236.343C32.185 236.384 32.212 236.433 32.229 236.485C32.246 236.538 32.2525 236.593 32.2484 236.648C32.2442 236.703 32.2294 236.757 32.2047 236.806L29.3562 242.63C29.3224 242.7 29.2703 242.758 29.2059 242.799C29.1414 242.84 29.067 242.861 28.9912 242.861V242.861Z" fill="#5C77BC"/>
<path d="M29.052 231.45C28.9434 231.45 28.8393 231.406 28.7626 231.328C28.6858 231.25 28.6427 231.143 28.6427 231.033V230.469C28.6427 230.358 28.6858 230.252 28.7626 230.174C28.8393 230.096 28.9434 230.052 29.052 230.052C29.1605 230.052 29.2646 230.096 29.3414 230.174C29.4182 230.252 29.4612 230.358 29.4612 230.469V231.033C29.4612 231.143 29.4182 231.25 29.3414 231.328C29.2646 231.406 29.1605 231.45 29.052 231.45V231.45Z" fill="#5C77BC"/>
<path d="M32.4757 231.45C32.3671 231.45 32.263 231.406 32.1862 231.328C32.1095 231.25 32.0664 231.143 32.0664 231.033V230.469C32.0664 230.358 32.1095 230.252 32.1862 230.174C32.263 230.096 32.3671 230.052 32.4757 230.052C32.5842 230.052 32.6883 230.096 32.765 230.174C32.8418 230.252 32.8849 230.358 32.8849 230.469V231.033C32.8849 231.143 32.8418 231.25 32.765 231.328C32.6883 231.406 32.5842 231.45 32.4757 231.45V231.45Z" fill="#5C77BC"/>
<path d="M30.7611 233.846C30.3463 233.846 28.9635 233.773 28.6095 232.798C28.5874 232.745 28.5762 232.687 28.5766 232.63C28.5769 232.572 28.5889 232.515 28.6117 232.462C28.6345 232.409 28.6676 232.362 28.7091 232.323C28.7506 232.283 28.7995 232.253 28.8529 232.234C28.905 232.211 28.9611 232.2 29.0177 232.2C29.0743 232.201 29.1302 232.213 29.182 232.236C29.2338 232.259 29.2804 232.293 29.3189 232.335C29.3574 232.378 29.3871 232.428 29.406 232.482C29.5332 232.826 30.2135 232.984 30.7887 232.984C31.3418 232.984 32.0498 232.826 32.1714 232.482C32.1903 232.428 32.22 232.378 32.2585 232.335C32.297 232.293 32.3436 232.259 32.3954 232.236C32.4472 232.213 32.5032 232.201 32.5598 232.2C32.6164 232.2 32.6724 232.211 32.7245 232.234C32.7784 232.252 32.8279 232.282 32.8698 232.321C32.9118 232.36 32.9452 232.408 32.9681 232.461C32.991 232.514 33.0028 232.571 33.0028 232.629C33.0027 232.687 32.9909 232.745 32.9679 232.798C32.5642 233.773 31.1814 233.846 30.7611 233.846Z" fill="#5C77BC"/>
<path d="M36.7622 246.047C39.1387 246.047 41.0653 244.083 41.0653 241.661C41.0653 239.238 39.1387 237.274 36.7622 237.274C34.3856 237.274 32.4591 239.238 32.4591 241.661C32.4591 244.083 34.3856 246.047 36.7622 246.047Z" fill="white"/>
<path d="M36.7677 246.994C35.3795 246.994 34.0481 246.433 33.066 245.432C32.0839 244.432 31.5314 243.076 31.5299 241.661C31.5314 240.245 32.0837 238.888 33.0656 237.887C34.0476 236.886 35.379 236.323 36.7677 236.321C38.1555 236.324 39.4855 236.888 40.4662 237.889C41.447 238.89 41.9985 240.246 42 241.661C41.9985 243.075 41.4468 244.431 40.4659 245.43C39.485 246.43 38.155 246.993 36.7677 246.994V246.994ZM36.7677 238.227C35.8744 238.227 35.0176 238.589 34.3859 239.233C33.7542 239.877 33.3994 240.75 33.3994 241.661C33.3994 242.111 33.4865 242.558 33.6557 242.975C33.825 243.391 34.0732 243.77 34.3859 244.089C34.6987 244.407 35.07 244.66 35.4787 244.833C35.8874 245.005 36.3254 245.094 36.7677 245.094C37.6606 245.093 38.5165 244.731 39.1479 244.087C39.7793 243.443 40.1346 242.571 40.1361 241.661C40.1346 240.75 39.7793 239.878 39.1479 239.234C38.5165 238.591 37.6606 238.228 36.7677 238.227V238.227Z" fill="white"/>
<path d="M36.7677 236.857C35.5183 236.858 34.3206 237.365 33.4372 238.266C32.5537 239.166 32.0568 240.387 32.0553 241.661C32.0568 242.934 32.5537 244.155 33.4372 245.056C34.3206 245.956 35.5183 246.463 36.7677 246.464C38.0161 246.461 39.2124 245.954 40.0947 245.054C40.9769 244.153 41.4731 242.933 41.4746 241.661C41.4746 240.388 40.9788 239.167 40.0963 238.266C39.2137 237.365 38.0165 236.858 36.7677 236.857ZM36.7677 245.63C35.7431 245.622 34.7625 245.204 34.038 244.466C33.3135 243.727 32.9033 242.728 32.896 241.683C32.9033 240.639 33.3135 239.639 34.038 238.901C34.7625 238.162 35.7431 237.744 36.7677 237.736C37.7945 237.736 38.7793 238.152 39.5054 238.892C40.2314 239.633 40.6394 240.636 40.6394 241.683C40.6394 242.201 40.5392 242.715 40.3447 243.194C40.1501 243.672 39.8649 244.107 39.5054 244.474C39.1458 244.84 38.719 245.131 38.2493 245.329C37.7796 245.528 37.2761 245.63 36.7677 245.63V245.63Z" fill="#5C77BC"/>
<path d="M34.7766 242.242L36.1427 243.324L38.8529 240.544" fill="white"/>
<path d="M36.1427 243.741C36.0523 243.74 35.9648 243.708 35.8937 243.651L34.5221 242.568C34.4424 242.501 34.3907 242.406 34.3773 242.301C34.364 242.196 34.39 242.09 34.4502 242.005C34.5169 241.925 34.6106 241.873 34.7129 241.859C34.8151 241.846 34.9186 241.871 35.0033 241.931L36.1095 242.788L38.5597 240.268C38.6352 240.198 38.7339 240.158 38.8363 240.158C38.9387 240.158 39.0373 240.198 39.1128 240.268C39.1832 240.344 39.2224 240.445 39.2224 240.55C39.2224 240.655 39.1832 240.756 39.1128 240.832L36.4026 243.617C36.3335 243.689 36.2412 243.733 36.1427 243.741V243.741Z" fill="#5C77BC"/>
</g>
<g clip-path="url(#clip2_56_69)">
<path d="M443.555 232.65L456.035 233.063L455.653 230.8L454.922 230.264L448.294 229.798H444.921C444.229 230.617 443.759 231.599 443.555 232.65V232.65Z" fill="#82F4C8"/>
<path d="M454.314 241.918H444.329C443.715 241.916 443.126 241.673 442.691 241.24C442.257 240.807 442.012 240.22 442.011 239.607V231.856C442.012 231.244 442.257 230.657 442.691 230.224C443.126 229.791 443.715 229.548 444.329 229.546H454.314C454.929 229.546 455.518 229.79 455.953 230.223C456.388 230.656 456.632 231.244 456.632 231.856V239.607C456.632 240.22 456.388 240.808 455.953 241.241C455.518 241.674 454.929 241.918 454.314 241.918V241.918ZM444.329 230.297C443.914 230.297 443.516 230.461 443.222 230.753C442.929 231.046 442.764 231.443 442.764 231.856V239.607C442.764 240.022 442.929 240.419 443.222 240.712C443.515 241.006 443.914 241.171 444.329 241.173H454.314C454.73 241.173 455.13 241.008 455.425 240.714C455.719 240.421 455.885 240.023 455.885 239.607V231.856C455.885 231.651 455.844 231.448 455.765 231.258C455.686 231.069 455.57 230.896 455.424 230.752C455.278 230.607 455.105 230.492 454.915 230.414C454.724 230.336 454.52 230.296 454.314 230.297H444.329Z" fill="#34D195"/>
<path d="M456.25 233.191H442.377C442.277 233.191 442.181 233.152 442.11 233.081C442.04 233.011 442 232.915 442 232.816C442 232.716 442.04 232.621 442.11 232.551C442.181 232.48 442.277 232.441 442.377 232.441H456.25C456.349 232.442 456.444 232.482 456.513 232.552C456.583 232.623 456.622 232.717 456.622 232.816C456.622 232.865 456.613 232.914 456.595 232.959C456.577 233.005 456.549 233.046 456.515 233.081C456.48 233.116 456.439 233.144 456.394 233.162C456.348 233.181 456.3 233.191 456.25 233.191V233.191Z" fill="#34D195"/>
<path d="M444.996 231.546C444.713 231.539 444.443 231.424 444.243 231.224C444.043 231.024 443.927 230.756 443.92 230.474V228.126C443.92 227.839 444.033 227.563 444.234 227.358C444.435 227.153 444.709 227.034 444.996 227.027C445.284 227.034 445.558 227.153 445.759 227.358C445.96 227.563 446.072 227.839 446.072 228.126V230.474C446.065 230.756 445.95 231.024 445.75 231.224C445.549 231.424 445.28 231.539 444.996 231.546V231.546Z" fill="white"/>
<path d="M444.996 230.945C444.93 230.946 444.865 230.934 444.803 230.909C444.742 230.884 444.686 230.847 444.639 230.801C444.592 230.755 444.555 230.7 444.529 230.639C444.504 230.578 444.491 230.513 444.491 230.447V228.099C444.492 227.966 444.546 227.839 444.641 227.746C444.735 227.653 444.863 227.6 444.996 227.6C445.129 227.6 445.256 227.653 445.35 227.746C445.444 227.84 445.497 227.967 445.497 228.099V230.447C445.497 230.579 445.444 230.706 445.35 230.799C445.256 230.893 445.129 230.945 444.996 230.945V230.945Z" fill="#34D195"/>
<path d="M453.873 231.546C453.589 231.539 453.32 231.424 453.119 231.224C452.919 231.024 452.804 230.756 452.797 230.474V228.126C452.797 227.839 452.909 227.563 453.11 227.358C453.311 227.153 453.585 227.034 453.873 227.027C454.165 227.027 454.446 227.143 454.652 227.349C454.859 227.555 454.975 227.834 454.975 228.126V230.474C454.968 230.76 454.849 231.033 454.643 231.233C454.437 231.434 454.161 231.546 453.873 231.546V231.546Z" fill="white"/>
<path d="M453.873 230.945C453.807 230.946 453.741 230.934 453.68 230.909C453.619 230.884 453.564 230.847 453.517 230.801C453.471 230.754 453.434 230.699 453.409 230.638C453.384 230.577 453.372 230.512 453.372 230.447V228.099C453.372 227.967 453.425 227.84 453.519 227.746C453.613 227.653 453.74 227.6 453.873 227.6C454.005 227.6 454.133 227.653 454.226 227.746C454.32 227.84 454.373 227.967 454.373 228.099V230.447C454.373 230.579 454.32 230.706 454.226 230.799C454.133 230.893 454.005 230.945 453.873 230.945V230.945Z" fill="#34D195"/>
<path d="M446.427 234.633H444.797V236.086H446.427V234.633Z" fill="#34D195"/>
<path d="M446.928 236.59H444.297V234.14H446.928V236.59ZM445.314 235.593H445.943V235.153H445.314V235.593Z" fill="#34D195"/>
<path d="M449.94 234.633H448.31V236.086H449.94V234.633Z" fill="#34D195"/>
<path d="M450.446 236.59H447.81V234.14H450.446V236.59ZM448.832 235.593H449.456V235.153H448.832V235.593Z" fill="#34D195"/>
<path d="M453.458 234.633H451.828V236.086H453.458V234.633Z" fill="#34D195"/>
<path d="M453.959 236.59H451.328V234.14H453.959V236.59ZM452.345 235.593H452.974V235.153H452.345V235.593Z" fill="#34D195"/>
<path d="M446.427 238.107H444.797V239.559H446.427V238.107Z" fill="#34D195"/>
<path d="M446.928 240.063H444.297V237.608H446.928V240.063ZM445.314 239.061H445.943V238.611H445.314V239.061Z" fill="#34D195"/>
<path d="M449.94 238.107H448.31V239.559H449.94V238.107Z" fill="#34D195"/>
<path d="M450.446 240.063H447.81V237.608H450.446V240.063ZM448.832 239.061H449.456V238.611H448.832V239.061Z" fill="#34D195"/>
<path d="M453.458 238.107H451.828V239.559H453.458V238.107Z" fill="#34D195"/>
<path d="M453.959 240.063H451.328V237.608H453.959V240.063ZM452.345 239.061H452.974V238.611H452.345V239.061Z" fill="#34D195"/>
<path d="M455.551 244.678C457.88 244.678 459.769 242.797 459.769 240.476C459.769 238.155 457.88 236.273 455.551 236.273C453.222 236.273 451.334 238.155 451.334 240.476C451.334 242.797 453.222 244.678 455.551 244.678Z" fill="white"/>
<path d="M456.051 244.212C457.902 244.212 459.403 242.717 459.403 240.873C459.403 239.028 457.902 237.533 456.051 237.533C454.2 237.533 452.7 239.028 452.7 240.873C452.7 242.717 454.2 244.212 456.051 244.212Z" fill="#82F4C8"/>
<path d="M454.981 242.556C454.87 242.556 454.762 242.521 454.674 242.454L453.415 241.484C453.311 241.401 453.244 241.282 453.228 241.15C453.212 241.019 453.248 240.886 453.329 240.781C453.37 240.73 453.42 240.686 453.478 240.654C453.535 240.621 453.598 240.6 453.664 240.592C453.729 240.584 453.796 240.589 453.859 240.607C453.923 240.625 453.982 240.655 454.034 240.696L454.938 241.393L457.09 239.211C457.136 239.164 457.191 239.126 457.252 239.1C457.313 239.075 457.378 239.061 457.445 239.061C457.511 239.061 457.576 239.075 457.637 239.1C457.698 239.126 457.754 239.164 457.8 239.211C457.893 239.304 457.945 239.43 457.945 239.562C457.945 239.693 457.893 239.82 457.8 239.913L455.314 242.411C455.225 242.499 455.106 242.551 454.981 242.556V242.556Z" fill="white"/>
<path d="M455.551 245C454.966 245.001 454.386 244.888 453.844 244.666C453.303 244.444 452.811 244.117 452.396 243.706C451.982 243.294 451.653 242.805 451.428 242.266C451.203 241.728 451.087 241.15 451.086 240.567C451.087 239.392 451.557 238.265 452.391 237.434C453.225 236.603 454.355 236.135 455.535 236.134C456.714 236.135 457.845 236.603 458.679 237.434C459.513 238.265 459.982 239.392 459.984 240.567C459.982 241.739 459.515 242.864 458.685 243.694C457.854 244.525 456.728 244.994 455.551 245V245ZM455.551 237.131C454.637 237.132 453.761 237.495 453.114 238.139C452.468 238.783 452.104 239.656 452.103 240.567C452.104 241.478 452.468 242.351 453.114 242.995C453.761 243.639 454.637 244.002 455.551 244.003C456.465 244.002 457.341 243.639 457.988 242.995C458.634 242.351 458.998 241.478 458.999 240.567C458.998 239.656 458.634 238.783 457.988 238.139C457.341 237.495 456.465 237.132 455.551 237.131V237.131Z" fill="#34D195"/>
</g>
<g clip-path="url(#clip3_56_69)">
<path d="M24.4211 310.374C24.4211 310.374 24.1502 305.781 28.5805 304.168L30.3413 303.911L31.7578 305.551L32.61 303.911L36.5042 304.211C36.5042 304.211 31.9892 307.367 33.4904 310.774L24.4211 310.374Z" fill="#69F7DC"/>
<path d="M27.1357 296.878C27.1357 296.878 27.9822 293.548 31.4474 292.7L34.3765 293.247L36.7581 296.26L36.9105 296.883C36.9105 296.883 32.7624 295.516 32.469 294.001C32.469 293.996 29.286 296.812 27.1357 296.878Z" fill="#69F7DC"/>
<path d="M31.4475 303.626C30.9176 303.625 30.3902 303.557 29.8786 303.424C29.82 303.41 29.765 303.384 29.7172 303.348C29.6694 303.312 29.6297 303.267 29.6006 303.216C29.5715 303.165 29.5535 303.108 29.548 303.05C29.5424 302.992 29.5493 302.933 29.5681 302.877C29.5829 302.82 29.6096 302.767 29.6465 302.721C29.6835 302.675 29.7299 302.636 29.7828 302.608C29.8358 302.58 29.8941 302.562 29.9543 302.557C30.0145 302.551 30.0751 302.558 30.1325 302.576C30.5685 302.691 31.0184 302.748 31.4701 302.746C31.5868 302.746 31.6988 302.791 31.7813 302.871C31.8639 302.951 31.9103 303.059 31.9103 303.172C31.9144 303.233 31.9052 303.293 31.8835 303.349C31.8617 303.406 31.8279 303.457 31.7841 303.5C31.7404 303.543 31.6878 303.576 31.6297 303.598C31.5717 303.62 31.5096 303.63 31.4475 303.626V303.626ZM28.6256 302.888C28.5481 302.887 28.4723 302.866 28.4056 302.828C27.9482 302.568 27.5287 302.25 27.1583 301.882C27.0763 301.802 27.0302 301.694 27.0302 301.581C27.0302 301.468 27.0763 301.36 27.1583 301.28C27.2417 301.201 27.3543 301.156 27.4716 301.156C27.5888 301.156 27.7013 301.201 27.7847 301.28C28.0996 301.593 28.4565 301.864 28.8457 302.084C28.8959 302.112 28.9398 302.15 28.9749 302.195C29.01 302.24 29.0356 302.291 29.0503 302.345C29.065 302.399 29.0685 302.456 29.0605 302.512C29.0525 302.567 29.0332 302.621 29.0038 302.669C28.9646 302.73 28.9107 302.78 28.8466 302.815C28.7826 302.851 28.7106 302.87 28.6369 302.872L28.6256 302.888ZM26.5939 300.876C26.5156 300.876 26.4385 300.856 26.3709 300.818C26.3034 300.779 26.2479 300.724 26.2102 300.657C25.9585 300.207 25.7688 299.727 25.6458 299.23C25.6184 299.119 25.6368 299.003 25.697 298.906C25.7571 298.809 25.8543 298.739 25.9675 298.71C26.0257 298.693 26.0869 298.687 26.1474 298.694C26.2079 298.7 26.2663 298.719 26.3192 298.748C26.3721 298.777 26.4183 298.816 26.4548 298.863C26.4914 298.911 26.5176 298.965 26.5319 299.022C26.6392 299.447 26.8063 299.855 27.0285 300.236C27.0855 300.335 27.0997 300.453 27.068 300.562C27.0363 300.672 26.9612 300.765 26.8592 300.821C26.7807 300.859 26.6919 300.872 26.6052 300.859L26.5939 300.876ZM25.8885 298.141C25.8309 298.141 25.7741 298.129 25.7213 298.107C25.6685 298.085 25.6207 298.052 25.5808 298.012C25.5409 297.972 25.5097 297.925 25.4888 297.873C25.468 297.821 25.4581 297.765 25.4596 297.709C25.4671 297.195 25.5469 296.683 25.6966 296.189C25.7127 296.133 25.7402 296.081 25.7777 296.036C25.8152 295.991 25.8617 295.954 25.9145 295.927C25.9673 295.9 26.0253 295.883 26.0848 295.878C26.1444 295.874 26.2043 295.881 26.261 295.899C26.3181 295.915 26.3713 295.943 26.4174 295.979C26.4636 296.016 26.5017 296.061 26.5296 296.112C26.5575 296.163 26.5745 296.218 26.5797 296.276C26.585 296.333 26.5783 296.391 26.5601 296.446C26.4358 296.868 26.3676 297.304 26.3569 297.742C26.3455 297.85 26.2918 297.95 26.2068 298.022C26.1218 298.093 26.012 298.13 25.8998 298.125L25.8885 298.141ZM26.7012 295.44C26.6193 295.439 26.5391 295.417 26.4698 295.374C26.3714 295.315 26.3013 295.219 26.2748 295.11C26.2484 295 26.2678 294.885 26.3287 294.789C26.6055 294.351 26.9414 293.95 27.3276 293.597C27.4101 293.518 27.5217 293.473 27.638 293.473C27.7543 293.473 27.8659 293.518 27.9484 293.597C28.0304 293.677 28.0765 293.785 28.0765 293.898C28.0765 294.011 28.0304 294.119 27.9484 294.199C27.6189 294.499 27.3322 294.841 27.0962 295.216C27.0567 295.28 27.0004 295.333 26.933 295.369C26.8657 295.406 26.7897 295.424 26.7125 295.424L26.7012 295.44ZM28.8176 293.51C28.7371 293.51 28.658 293.489 28.5893 293.448C28.5205 293.408 28.4647 293.349 28.4281 293.28C28.3738 293.18 28.3623 293.063 28.3961 292.954C28.4299 292.846 28.5063 292.755 28.6088 292.7C29.0765 292.455 29.5756 292.271 30.093 292.153C30.2075 292.129 30.3273 292.149 30.4266 292.209C30.5259 292.27 30.5966 292.365 30.6235 292.476C30.6488 292.586 30.6279 292.702 30.5655 292.797C30.5031 292.892 30.4042 292.96 30.2906 292.985C29.8499 293.082 29.4248 293.237 29.0264 293.444C28.966 293.477 28.898 293.493 28.8289 293.493L28.8176 293.51Z" fill="#21CCAB"/>
<path d="M25.0871 297.644C24.9754 297.643 24.8683 297.601 24.7868 297.527C24.7053 297.453 24.6553 297.352 24.6468 297.244C24.639 297.132 24.6772 297.02 24.7531 296.934C24.8291 296.848 24.9369 296.795 25.0532 296.785C25.1153 296.785 29.9688 296.402 32.1247 293.734L32.5423 293.214L32.8583 293.794C32.8583 293.821 34.3483 296.441 36.5493 296.249C36.6071 296.244 36.6655 296.25 36.721 296.266C36.7764 296.283 36.828 296.31 36.8726 296.346C36.9172 296.383 36.954 296.427 36.9808 296.477C37.0077 296.527 37.024 296.581 37.029 296.637C37.0384 296.75 37.0017 296.862 36.9268 296.949C36.8519 297.036 36.7446 297.091 36.6283 297.102H36.3066C34.3652 297.102 33.0051 295.544 32.4125 294.702C29.8898 297.266 25.3241 297.616 25.1209 297.627L25.0871 297.644Z" fill="#21CCAB"/>
<path d="M22.4402 310.309C22.3235 310.309 22.2115 310.264 22.129 310.184C22.0464 310.104 22 309.995 22 309.882C22 306.355 24.7767 303.484 28.208 303.484H32.627C32.7438 303.484 32.8557 303.529 32.9383 303.609C33.0208 303.689 33.0672 303.797 33.0672 303.91C33.0679 303.967 33.0571 304.023 33.0353 304.075C33.0135 304.128 32.9812 304.175 32.9403 304.216C32.8993 304.256 32.8505 304.288 32.7968 304.309C32.743 304.331 32.6853 304.342 32.627 304.342H28.208C25.2846 304.342 22.903 306.825 22.903 309.882C22.9031 309.94 22.891 309.997 22.8675 310.051C22.844 310.104 22.8095 310.152 22.7662 310.192C22.7229 310.232 22.6716 310.263 22.6156 310.283C22.5596 310.303 22.4999 310.312 22.4402 310.309V310.309Z" fill="#21CCAB"/>
<path d="M29.5343 310.309C29.4658 310.309 29.3981 310.294 29.3367 310.265C29.2397 310.214 29.1659 310.129 29.1294 310.028C29.0929 309.927 29.0964 309.817 29.1392 309.718L32.2094 303.746C32.2623 303.652 32.3493 303.581 32.4536 303.546C32.5578 303.51 32.6719 303.514 32.7738 303.555C32.8708 303.606 32.9446 303.691 32.9811 303.792C33.0176 303.893 33.0141 304.003 32.9713 304.102L29.9011 310.074C29.8666 310.14 29.8146 310.197 29.7502 310.239C29.6858 310.28 29.6114 310.304 29.5343 310.309V310.309Z" fill="#21CCAB"/>
<path d="M40.4491 310.309C40.3323 310.309 40.2204 310.264 40.1378 310.184C40.0553 310.104 40.0088 309.995 40.0088 309.882C40.009 309.626 39.992 309.371 39.9581 309.117C39.9437 309.004 39.9759 308.89 40.0478 308.8C40.1196 308.709 40.2253 308.65 40.3418 308.635C40.3993 308.629 40.4576 308.633 40.5133 308.648C40.5691 308.663 40.6213 308.688 40.6669 308.723C40.7125 308.757 40.7507 308.8 40.7791 308.849C40.8076 308.898 40.8258 308.952 40.8328 309.007C40.8713 309.298 40.8902 309.59 40.8893 309.882C40.8893 309.995 40.8429 310.104 40.7603 310.184C40.6778 310.264 40.5658 310.309 40.4491 310.309V310.309ZM40.0483 308.121C39.9575 308.122 39.8687 308.096 39.7939 308.046C39.7191 307.996 39.6621 307.925 39.6307 307.843C39.4725 307.429 39.2661 307.035 39.0156 306.667C38.9827 306.621 38.9597 306.569 38.9479 306.514C38.9361 306.459 38.9357 306.402 38.9467 306.347C38.9578 306.292 38.98 306.24 39.0122 306.193C39.0444 306.147 39.0858 306.107 39.1341 306.076C39.2316 306.013 39.3508 305.99 39.466 306.011C39.5811 306.033 39.6829 306.097 39.7493 306.191C40.0395 306.615 40.2782 307.07 40.4604 307.547C40.499 307.653 40.4935 307.77 40.445 307.872C40.3965 307.974 40.3089 308.054 40.2007 308.094C40.1509 308.106 40.0994 308.109 40.0483 308.105V308.121ZM38.4286 305.775C38.3181 305.778 38.211 305.738 38.1295 305.666C37.7886 305.368 37.4092 305.115 37.0008 304.911C36.8977 304.859 36.8202 304.769 36.7853 304.662C36.7504 304.554 36.7609 304.437 36.8145 304.337C36.8674 304.243 36.9551 304.172 37.0599 304.139C37.1647 304.105 37.2788 304.112 37.3789 304.157C37.8487 304.392 38.2834 304.689 38.6713 305.037C38.7145 305.075 38.7495 305.12 38.7744 305.171C38.7992 305.221 38.8134 305.276 38.8161 305.332C38.8187 305.388 38.8097 305.444 38.7897 305.497C38.7697 305.549 38.7391 305.598 38.6996 305.639C38.6273 305.709 38.531 305.752 38.4286 305.759V305.775ZM35.8495 304.474C35.8177 304.479 35.7853 304.479 35.7535 304.474C35.4084 304.403 35.0565 304.369 34.7038 304.37H34.3878C34.3295 304.37 34.2718 304.359 34.218 304.337C34.1642 304.315 34.1154 304.283 34.0745 304.243C34.0335 304.203 34.0013 304.155 33.9795 304.103C33.9577 304.051 33.9468 303.994 33.9476 303.938C33.9476 303.825 33.9939 303.716 34.0765 303.636C34.159 303.556 34.2711 303.511 34.3878 303.511H34.7038C35.1214 303.511 35.5378 303.555 35.9455 303.643C36.0021 303.654 36.0558 303.677 36.1034 303.709C36.1509 303.741 36.1914 303.782 36.2224 303.829C36.2534 303.876 36.2744 303.929 36.284 303.985C36.2936 304.04 36.2917 304.097 36.2784 304.151C36.2513 304.241 36.1947 304.319 36.1172 304.374C36.0397 304.43 35.9457 304.459 35.8495 304.458V304.474ZM32.9148 304.359H31.4474C31.3292 304.359 31.2158 304.314 31.1322 304.233C31.0486 304.152 31.0016 304.042 31.0016 303.927C31.0016 303.871 31.0132 303.815 31.0357 303.763C31.0581 303.71 31.091 303.663 31.1325 303.623C31.174 303.584 31.2232 303.553 31.2773 303.531C31.3313 303.51 31.3891 303.5 31.4474 303.501H32.9148C33.0316 303.501 33.1435 303.545 33.2261 303.625C33.3086 303.705 33.355 303.814 33.355 303.927C33.352 304.038 33.3044 304.144 33.2221 304.222C33.1399 304.299 33.0296 304.343 32.9148 304.343V304.359Z" fill="#21CCAB"/>
<path d="M29.602 298.617C29.5437 298.618 29.4859 298.607 29.4318 298.586C29.3777 298.565 29.3285 298.534 29.2871 298.494C29.2456 298.454 29.2127 298.407 29.1902 298.355C29.1677 298.303 29.1562 298.247 29.1562 298.19V297.611C29.1562 297.554 29.1677 297.498 29.1902 297.446C29.2127 297.394 29.2456 297.347 29.2871 297.307C29.3285 297.267 29.3777 297.236 29.4318 297.215C29.4859 297.194 29.5437 297.183 29.602 297.184C29.7188 297.184 29.8307 297.229 29.9133 297.309C29.9958 297.389 30.0422 297.498 30.0422 297.611V298.218C30.035 298.326 29.9855 298.428 29.9037 298.502C29.8219 298.576 29.714 298.617 29.602 298.617V298.617Z" fill="#21CCAB"/>
<path d="M33.2929 298.617C33.1762 298.617 33.0642 298.572 32.9817 298.492C32.8991 298.412 32.8527 298.303 32.8527 298.19V297.611C32.8527 297.498 32.8991 297.389 32.9817 297.309C33.0642 297.229 33.1762 297.184 33.2929 297.184C33.4097 297.184 33.5216 297.229 33.6042 297.309C33.6867 297.389 33.7331 297.498 33.7331 297.611V298.218C33.726 298.326 33.6764 298.428 33.5947 298.502C33.5129 298.576 33.4049 298.617 33.2929 298.617V298.617Z" fill="#21CCAB"/>
<path d="M31.4475 301.072C30.996 301.072 29.506 300.99 29.1279 299.979C29.1073 299.926 29.0976 299.87 29.0995 299.814C29.1015 299.758 29.1149 299.703 29.1391 299.652C29.1633 299.601 29.1977 299.556 29.2404 299.518C29.283 299.48 29.3331 299.451 29.3876 299.432C29.4969 299.393 29.6176 299.397 29.7234 299.445C29.8291 299.492 29.9113 299.578 29.9519 299.683C30.0874 300.039 30.821 300.197 31.4475 300.197C32.0683 300.197 32.8019 300.039 32.9374 299.683C32.978 299.578 33.0602 299.492 33.166 299.445C33.2717 299.397 33.3925 299.393 33.5017 299.432C33.5563 299.451 33.6065 299.48 33.6493 299.518C33.6922 299.555 33.7269 299.601 33.7516 299.652C33.7762 299.703 33.7902 299.758 33.7929 299.814C33.7955 299.87 33.7868 299.926 33.7671 299.979C33.3889 300.99 31.8989 301.072 31.4475 301.072Z" fill="#21CCAB"/>
<path d="M37.9207 313.573C40.4828 313.573 42.5598 311.561 42.5598 309.078C42.5598 306.596 40.4828 304.583 37.9207 304.583C35.3586 304.583 33.2816 306.596 33.2816 309.078C33.2816 311.561 35.3586 313.573 37.9207 313.573Z" fill="white"/>
<path d="M37.9207 314.016C36.5736 314.016 35.2817 313.498 34.3291 312.575C33.3766 311.652 32.8415 310.4 32.8415 309.095C32.8415 307.789 33.3766 306.538 34.3291 305.615C35.2817 304.692 36.5736 304.173 37.9207 304.173C39.2678 304.173 40.5597 304.692 41.5123 305.615C42.4648 306.538 43 307.789 43 309.095C43 310.4 42.4648 311.652 41.5123 312.575C40.5597 313.498 39.2678 314.016 37.9207 314.016V314.016ZM37.9207 305.026C36.8076 305.028 35.7404 305.457 34.9533 306.219C34.1662 306.982 33.7233 308.016 33.7218 309.095C33.7233 310.173 34.1663 311.206 34.9536 311.968C35.7409 312.73 36.8081 313.158 37.9207 313.158C39.0329 313.158 40.0994 312.73 40.8858 311.968C41.6722 311.206 42.1139 310.172 42.1139 309.095C42.1162 308.56 42.0094 308.029 41.7997 307.534C41.59 307.039 41.2816 306.589 40.8921 306.209C40.5026 305.83 40.0396 305.528 39.5297 305.323C39.0198 305.117 38.4731 305.011 37.9207 305.01V305.026Z" fill="#21CCAB"/>
<path d="M35.7761 309.669L37.2491 310.779L40.1669 307.93" fill="white"/>
<path d="M37.2491 311.211C37.1506 311.21 37.0553 311.177 36.9782 311.118L35.4996 310.024C35.4079 309.955 35.3482 309.854 35.3334 309.742C35.3186 309.63 35.3499 309.518 35.4206 309.428C35.456 309.383 35.5002 309.346 35.5506 309.318C35.6011 309.29 35.6567 309.272 35.7145 309.264C35.7722 309.257 35.8309 309.261 35.887 309.276C35.9431 309.291 35.9955 309.317 36.0414 309.352L37.2096 310.227L39.8565 307.645C39.8969 307.605 39.9452 307.574 39.9985 307.552C40.0518 307.53 40.1091 307.519 40.1669 307.519C40.2247 307.519 40.2819 307.53 40.3352 307.552C40.3885 307.574 40.4368 307.605 40.4773 307.645C40.5593 307.725 40.6053 307.833 40.6053 307.946C40.6053 308.059 40.5593 308.167 40.4773 308.247L37.5539 311.096C37.5135 311.134 37.4657 311.163 37.4134 311.183C37.3611 311.203 37.3052 311.212 37.2491 311.211V311.211Z" fill="#21CCAB"/>
<path d="M32.1811 292.902H32.119C31.8962 292.876 31.6719 292.863 31.4474 292.864C31.3292 292.864 31.2158 292.818 31.1322 292.737C31.0486 292.656 31.0016 292.547 31.0016 292.432C31.0016 292.375 31.0132 292.32 31.0357 292.267C31.0581 292.215 31.091 292.168 31.1325 292.128C31.174 292.089 31.2232 292.057 31.2773 292.036C31.3313 292.015 31.3891 292.005 31.4474 292.005C31.7116 292.005 31.9755 292.022 32.2375 292.055C32.295 292.062 32.3505 292.08 32.4007 292.109C32.4508 292.137 32.4947 292.174 32.5299 292.219C32.565 292.264 32.5907 292.315 32.6054 292.369C32.6202 292.424 32.6236 292.48 32.6157 292.536C32.6008 292.637 32.5486 292.73 32.4688 292.797C32.389 292.865 32.2869 292.902 32.1811 292.902V292.902Z" fill="#21CCAB"/>
<path d="M33.5808 303.194C33.494 303.193 33.4094 303.168 33.3373 303.121C33.2651 303.075 33.2085 303.009 33.1745 302.932C33.133 302.828 33.1346 302.714 33.1788 302.612C33.223 302.51 33.3065 302.428 33.4115 302.385C33.814 302.214 34.1931 301.995 34.5402 301.734C34.6334 301.665 34.7506 301.635 34.8668 301.649C34.983 301.663 35.0887 301.721 35.161 301.81C35.232 301.901 35.2635 302.014 35.2487 302.127C35.2339 302.239 35.1741 302.342 35.082 302.412C34.6665 302.718 34.2134 302.974 33.7332 303.172C33.6839 303.187 33.6325 303.195 33.5808 303.194V303.194ZM35.8382 301.499C35.7398 301.498 35.6444 301.465 35.5674 301.406C35.5213 301.372 35.4827 301.33 35.4538 301.281C35.4248 301.233 35.4061 301.179 35.3988 301.124C35.3914 301.068 35.3955 301.012 35.4109 300.958C35.4263 300.904 35.4526 300.854 35.4883 300.81C35.7551 300.474 35.977 300.106 36.1487 299.716C36.1937 299.614 36.2773 299.533 36.3824 299.489C36.4874 299.445 36.6058 299.442 36.713 299.481C36.8181 299.524 36.9019 299.606 36.9471 299.707C36.9922 299.809 36.9953 299.924 36.9557 300.028C36.7563 300.496 36.4945 300.938 36.1768 301.34C36.1374 301.387 36.0884 301.425 36.0331 301.452C35.9777 301.479 35.9172 301.495 35.8552 301.499H35.8382ZM36.9331 298.929H36.8711C36.8138 298.922 36.7585 298.904 36.7084 298.876C36.6582 298.849 36.6143 298.812 36.5791 298.767C36.5439 298.723 36.5181 298.673 36.5033 298.619C36.4885 298.564 36.485 298.508 36.4929 298.453C36.5203 298.239 36.5335 298.023 36.5324 297.807C36.5333 297.592 36.5201 297.376 36.4929 297.162C36.485 297.107 36.4885 297.05 36.5032 296.995C36.5179 296.941 36.5436 296.89 36.5788 296.845C36.6139 296.801 36.6578 296.763 36.7079 296.735C36.7581 296.707 36.8136 296.688 36.8711 296.681C36.9869 296.667 37.1037 296.697 37.1966 296.766C37.2894 296.834 37.3508 296.935 37.3676 297.047C37.4014 297.299 37.4184 297.553 37.4185 297.807C37.4186 298.06 37.4016 298.312 37.3676 298.562C37.3532 298.661 37.3035 298.752 37.2272 298.819C37.1509 298.885 37.0529 298.924 36.95 298.929H36.9331ZM36.555 296.194C36.4679 296.195 36.3826 296.17 36.3102 296.124C36.2377 296.077 36.1815 296.01 36.1487 295.932C35.9764 295.541 35.7525 295.173 35.4827 294.838C35.4117 294.748 35.3802 294.634 35.395 294.522C35.4098 294.409 35.4697 294.307 35.5617 294.237C35.6555 294.168 35.7733 294.139 35.8895 294.154C36.0057 294.169 36.1109 294.228 36.1825 294.319C36.5001 294.719 36.762 295.159 36.9613 295.626C37.0043 295.729 37.0034 295.844 36.959 295.946C36.9147 296.049 36.8303 296.13 36.7243 296.172C36.6739 296.181 36.6224 296.181 36.5719 296.172L36.555 296.194ZM34.8111 294.007C34.7132 294.008 34.6178 293.977 34.5402 293.919C34.1943 293.658 33.8149 293.441 33.4115 293.274C33.3074 293.229 33.2249 293.148 33.1808 293.046C33.1367 292.945 33.1345 292.83 33.1745 292.727C33.2205 292.626 33.3046 292.546 33.4095 292.504C33.5144 292.461 33.6323 292.459 33.7388 292.498C34.2216 292.695 34.6767 292.95 35.0933 293.258C35.1854 293.328 35.2452 293.43 35.26 293.543C35.2748 293.655 35.2433 293.769 35.1723 293.859C35.126 293.9 35.0715 293.93 35.0122 293.949C34.9529 293.968 34.8901 293.975 34.828 293.969L34.8111 294.007Z" fill="#21CCAB"/>
<path d="M31.4474 303.626C31.3292 303.626 31.2158 303.581 31.1322 303.5C31.0486 303.418 31.0016 303.309 31.0016 303.194C31.0016 303.138 31.0132 303.082 31.0357 303.03C31.0581 302.977 31.091 302.93 31.1325 302.89C31.174 302.851 31.2232 302.819 31.2773 302.798C31.3313 302.777 31.3891 302.767 31.4474 302.767C31.6721 302.769 31.8967 302.755 32.119 302.724C32.2357 302.71 32.3533 302.741 32.4464 302.811C32.5394 302.88 32.6002 302.983 32.6157 303.096C32.6236 303.151 32.6201 303.207 32.6053 303.261C32.5905 303.315 32.5647 303.366 32.5295 303.41C32.4943 303.455 32.4504 303.492 32.4003 303.519C32.3501 303.547 32.2948 303.565 32.2375 303.571C31.9757 303.606 31.7117 303.624 31.4474 303.626V303.626Z" fill="#21CCAB"/>
<path d="M25.0871 297.644C24.9754 297.643 24.8683 297.601 24.7868 297.527C24.7053 297.453 24.6553 297.352 24.6468 297.244C24.639 297.132 24.6772 297.02 24.7531 296.934C24.8291 296.848 24.9369 296.795 25.0532 296.785C25.1096 296.785 29.9688 296.408 32.1247 293.734C32.1595 293.689 32.2033 293.652 32.2532 293.624C32.3032 293.596 32.3584 293.577 32.4157 293.57C32.4729 293.563 32.5311 293.567 32.5867 293.582C32.6424 293.597 32.6944 293.623 32.7398 293.657C32.786 293.691 32.8247 293.734 32.8538 293.783C32.8828 293.832 32.9015 293.886 32.9089 293.942C32.9162 293.998 32.912 294.055 32.8965 294.109C32.8811 294.163 32.8547 294.214 32.8188 294.259C30.4203 297.234 25.3354 297.627 25.1209 297.638L25.0871 297.644Z" fill="#21CCAB"/>
</g>
<g clip-path="url(#clip4_56_69)">
<path d="M233.667 305.969V309.457L240.793 309.073L240.502 306.283L233.836 305.969" fill="#D7DCFF"/>
<path d="M231.664 294.045L231.733 299.328L232.713 299.631L233.1 298.737V294.045H231.664Z" fill="#D7DCFF"/>
<path d="M230.684 300.617C230.684 300.617 231.775 301.197 232.188 301C232.188 301 232.416 306.288 237.089 305.825L241.169 305.969L244.078 303.716L244.608 297.139L242.897 295.813L241.975 292.927H239.384L237.98 292.453L236.046 292.927L234.483 293.385L234.573 299.637L233.513 299.211L232.384 299.514L230.927 299.349L230.684 300.617Z" fill="#D7DCFF"/>
<path d="M239.368 295.792C239.368 295.792 238.562 297.799 241.323 298.747L239.956 299.093L238.313 297.885L237.783 295.792L238.684 295.355L239.368 295.792Z" fill="white"/>
<path d="M241.143 309.867H231.918V305.607C231.922 305.553 231.913 305.499 231.892 305.45C231.871 305.401 231.838 305.358 231.796 305.324C231.266 304.852 230.843 304.272 230.556 303.621C230.269 302.97 230.125 302.266 230.133 301.554C230.133 300.963 230.133 300.372 230.133 299.781C230.122 299.662 230.122 299.542 230.133 299.424C230.212 299.116 230.212 298.794 230.133 298.486C230.119 298.373 230.119 298.259 230.133 298.146V294.908C230.121 294.71 230.151 294.512 230.221 294.327C230.291 294.142 230.399 293.974 230.538 293.833C230.677 293.693 230.844 293.584 231.028 293.513C231.212 293.442 231.409 293.411 231.606 293.422C232.008 293.401 232.411 293.401 232.814 293.422C232.916 293.45 233.026 293.441 233.123 293.396C233.219 293.351 233.298 293.274 233.343 293.177C233.462 292.992 233.627 292.842 233.821 292.74C234.015 292.638 234.232 292.589 234.451 292.597C234.854 292.597 235.256 292.597 235.659 292.597C235.827 292.616 235.993 292.646 236.157 292.687C236.182 292.691 236.208 292.69 236.232 292.683C236.257 292.677 236.28 292.665 236.3 292.65C236.442 292.477 236.621 292.339 236.824 292.247C237.027 292.154 237.248 292.11 237.471 292.117C237.831 292.117 238.192 292.117 238.531 292.117C238.733 292.114 238.932 292.157 239.116 292.241C239.299 292.326 239.461 292.451 239.59 292.607C239.601 292.624 239.614 292.639 239.63 292.65C239.646 292.662 239.664 292.67 239.684 292.675C239.703 292.679 239.723 292.68 239.742 292.676C239.762 292.673 239.78 292.666 239.797 292.655C239.87 292.62 239.949 292.6 240.03 292.597C240.584 292.562 241.14 292.562 241.694 292.597C242.025 292.641 242.327 292.809 242.542 293.066C242.756 293.323 242.868 293.651 242.854 293.986C242.854 294.583 242.854 295.185 242.854 295.781C242.854 295.904 242.854 295.962 243.013 295.989C243.495 296.09 243.978 296.202 244.46 296.314C244.516 296.317 244.572 296.333 244.622 296.359C244.672 296.386 244.717 296.423 244.752 296.467C244.787 296.512 244.813 296.563 244.828 296.618C244.842 296.674 244.845 296.731 244.836 296.788C244.836 298.385 244.836 299.983 244.836 301.581C244.836 302.659 244.49 303.708 243.848 304.572C243.207 305.436 242.304 306.068 241.275 306.373C241.148 306.411 241.122 306.469 241.122 306.592C241.122 307.609 241.122 308.626 241.122 309.649L241.143 309.867ZM238.398 295.792C238.311 296.174 238.318 296.571 238.419 296.95C238.52 297.329 238.711 297.677 238.976 297.965C239.26 298.249 239.604 298.467 239.983 298.601C240.361 298.736 240.765 298.784 241.164 298.742C241.503 298.742 241.662 298.87 241.694 299.211C241.694 299.397 241.694 299.583 241.694 299.743C241.7 299.797 241.696 299.851 241.682 299.902C241.667 299.954 241.642 300.002 241.608 300.044C241.575 300.086 241.533 300.12 241.486 300.145C241.439 300.171 241.387 300.186 241.334 300.191C241.116 300.239 240.899 300.286 240.682 300.356C240.013 300.531 239.388 300.846 238.846 301.279C238.305 301.711 237.86 302.253 237.54 302.869C237.118 303.75 236.916 304.72 236.952 305.697C236.952 305.836 237.031 305.825 237.121 305.825H239.898C240.057 305.825 240.216 305.814 240.375 305.793C241.398 305.67 242.342 305.174 243.025 304.399C243.709 303.623 244.086 302.622 244.084 301.586C244.084 300.132 244.084 298.678 244.084 297.219C244.084 297.102 244.083 297.054 243.93 297.022C242.446 296.692 240.963 296.351 239.474 296.01L238.398 295.792ZM230.933 299.834C230.933 299.887 230.933 299.924 230.933 299.962C230.933 300.553 230.933 301.144 230.933 301.735C230.938 301.991 230.969 302.246 231.023 302.497C231.219 303.399 231.703 304.212 232.399 304.814C233.096 305.417 233.968 305.775 234.885 305.836C235.299 305.862 235.712 305.836 236.136 305.836C236.136 302.64 237.561 300.51 240.65 299.546C240.401 299.493 240.152 299.456 239.914 299.392C239.792 299.36 239.733 299.392 239.67 299.488C239.514 299.748 239.301 299.969 239.048 300.134C238.794 300.299 238.506 300.404 238.206 300.44C237.905 300.476 237.601 300.442 237.316 300.342C237.03 300.242 236.772 300.077 236.56 299.86C236.528 299.823 236.491 299.791 236.454 299.754C236.259 299.949 236.026 300.101 235.77 300.2C235.513 300.299 235.239 300.343 234.965 300.329C234.693 300.319 234.425 300.252 234.18 300.133C233.935 300.013 233.717 299.845 233.54 299.637C233.193 299.966 232.743 300.164 232.267 300.195C231.791 300.226 231.319 300.089 230.933 299.807V299.834ZM236.136 306.629C234.957 306.769 233.764 306.548 232.713 305.995V309.105H240.359V306.64H236.936V308.237C236.936 308.53 236.788 308.701 236.549 308.701C236.311 308.701 236.152 308.53 236.152 308.227C236.152 307.923 236.152 307.518 236.152 307.162L236.136 306.629ZM235.971 296.09C235.971 295.281 235.971 294.492 235.971 293.656C235.971 293.518 235.919 293.454 235.797 293.433C235.737 293.427 235.676 293.427 235.617 293.433H234.461C234.379 293.43 234.298 293.444 234.221 293.473C234.145 293.503 234.075 293.549 234.017 293.606C233.958 293.664 233.912 293.733 233.881 293.81C233.85 293.886 233.835 293.968 233.836 294.05C233.836 295.499 233.836 296.944 233.836 298.385C233.84 298.625 233.916 298.859 234.054 299.054C234.192 299.25 234.386 299.399 234.61 299.482C234.83 299.567 235.069 299.585 235.299 299.533C235.529 299.482 235.739 299.365 235.903 299.195C235.953 299.155 235.99 299.1 236.009 299.038C236.028 298.976 236.028 298.91 236.009 298.849C235.978 298.703 235.965 298.555 235.971 298.407C235.971 297.592 235.971 296.857 235.971 296.063V296.09ZM233.052 296.452C233.052 295.792 233.052 295.126 233.052 294.466C233.056 294.441 233.054 294.415 233.048 294.39C233.042 294.365 233.031 294.342 233.016 294.322C233 294.302 232.981 294.285 232.959 294.272C232.937 294.259 232.913 294.251 232.888 294.247C232.833 294.242 232.778 294.242 232.724 294.247H231.516C231.436 294.246 231.357 294.261 231.283 294.291C231.21 294.321 231.143 294.366 231.087 294.422C231.031 294.479 230.987 294.547 230.958 294.621C230.929 294.695 230.915 294.775 230.917 294.854C230.917 295.994 230.917 297.134 230.917 298.273C230.921 298.519 231.002 298.757 231.147 298.955C231.292 299.152 231.495 299.299 231.727 299.376C231.958 299.457 232.208 299.465 232.443 299.398C232.678 299.332 232.887 299.194 233.041 299.003C233.081 298.937 233.1 298.861 233.094 298.785C233.094 298.636 233.052 298.481 233.052 298.332C233.052 297.666 233.052 297.043 233.052 296.425V296.452ZM239.172 295.158V293.598C239.177 293.511 239.163 293.424 239.132 293.343C239.1 293.262 239.052 293.189 238.991 293.128C238.929 293.067 238.855 293.02 238.774 292.99C238.693 292.959 238.606 292.947 238.52 292.953H237.413C237.328 292.947 237.243 292.959 237.163 292.988C237.083 293.017 237.01 293.063 236.948 293.122C236.887 293.181 236.838 293.253 236.806 293.332C236.774 293.411 236.759 293.496 236.761 293.582C236.761 295.208 236.761 296.832 236.761 298.454C236.753 298.695 236.821 298.933 236.955 299.133C237.089 299.332 237.283 299.485 237.508 299.568C237.779 299.685 238.084 299.695 238.362 299.596C238.64 299.498 238.87 299.297 239.008 299.035C238.838 298.902 238.663 298.774 238.509 298.63C238.071 298.192 237.765 297.637 237.627 297.032C237.488 296.426 237.522 295.793 237.725 295.206C237.758 295.112 237.825 295.034 237.912 294.986C237.999 294.939 238.101 294.926 238.197 294.95L239.172 295.158ZM239.956 295.339L242.075 295.824C242.075 295.179 242.075 294.567 242.075 293.96C242.062 293.806 241.989 293.664 241.872 293.564C241.755 293.465 241.603 293.415 241.45 293.427H240.306C240.214 293.428 240.124 293.448 240.041 293.486C240.016 293.498 239.995 293.516 239.98 293.538C239.964 293.561 239.954 293.587 239.951 293.614C239.956 294.146 239.956 294.727 239.956 295.312V295.339Z" fill="#787BE5" stroke="#787BE5" stroke-width="0.5" stroke-miterlimit="10"/>
</g>
<g clip-path="url(#clip5_56_69)">
<path d="M452.742 309.391H442.75C442.286 309.391 441.841 309.203 441.513 308.868C441.185 308.533 441.001 308.08 441 307.606V296.099C441.001 295.626 441.185 295.172 441.513 294.838C441.841 294.503 442.286 294.315 442.75 294.314H452.742C453.205 294.315 453.65 294.503 453.978 294.838C454.306 295.172 454.491 295.626 454.491 296.099V307.606C454.491 308.08 454.306 308.533 453.978 308.868C453.65 309.203 453.206 309.391 452.742 309.391ZM442.75 295.188C442.513 295.188 442.286 295.284 442.119 295.455C441.951 295.626 441.857 295.858 441.857 296.099V307.606C441.857 307.848 441.951 308.079 442.119 308.25C442.286 308.421 442.513 308.517 442.75 308.517H452.742C452.978 308.517 453.205 308.421 453.373 308.25C453.54 308.079 453.634 307.848 453.635 307.606V296.099C453.634 295.858 453.54 295.626 453.373 295.455C453.205 295.284 452.978 295.188 452.742 295.188H442.75Z" fill="#FFD629"/>
<path d="M451.733 299.973H446.088C445.936 299.973 445.791 299.912 445.684 299.802C445.577 299.693 445.516 299.545 445.516 299.39C445.516 299.236 445.577 299.087 445.684 298.978C445.791 298.869 445.936 298.807 446.088 298.807H451.733C451.885 298.807 452.03 298.869 452.137 298.978C452.244 299.087 452.305 299.236 452.305 299.39C452.305 299.545 452.244 299.693 452.137 299.802C452.03 299.912 451.885 299.973 451.733 299.973Z" fill="#FFD629"/>
<path d="M451.733 302.956H446.088C445.936 302.956 445.791 302.894 445.684 302.785C445.577 302.676 445.516 302.527 445.516 302.373C445.516 302.218 445.577 302.07 445.684 301.961C445.791 301.851 445.936 301.79 446.088 301.79H451.733C451.885 301.79 452.03 301.851 452.137 301.961C452.244 302.07 452.305 302.218 452.305 302.373C452.305 302.527 452.244 302.676 452.137 302.785C452.03 302.894 451.885 302.956 451.733 302.956V302.956Z" fill="#FFD629"/>
<path d="M451.733 306.349H446.088C445.936 306.349 445.791 306.288 445.684 306.179C445.577 306.069 445.516 305.921 445.516 305.767C445.516 305.612 445.577 305.464 445.684 305.355C445.791 305.245 445.936 305.184 446.088 305.184H451.733C451.885 305.184 452.03 305.245 452.137 305.355C452.244 305.464 452.305 305.612 452.305 305.767C452.305 305.921 452.244 306.069 452.137 306.179C452.03 306.288 451.885 306.349 451.733 306.349Z" fill="#FFD629"/>
<path d="M454.926 312.417C457.412 312.417 459.428 310.361 459.428 307.824C459.428 305.287 457.412 303.231 454.926 303.231C452.439 303.231 450.423 305.287 450.423 307.824C450.423 310.361 452.439 312.417 454.926 312.417Z" fill="white"/>
<path d="M452.843 308.432L454.274 309.565L457.111 306.651" fill="white"/>
<path d="M443.736 300.11C444.126 300.11 444.442 299.788 444.442 299.39C444.442 298.993 444.126 298.67 443.736 298.67C443.347 298.67 443.031 298.993 443.031 299.39C443.031 299.788 443.347 300.11 443.736 300.11Z" fill="#FFD629"/>
<path d="M443.736 303.093C444.126 303.093 444.442 302.771 444.442 302.373C444.442 301.976 444.126 301.653 443.736 301.653C443.347 301.653 443.031 301.976 443.031 302.373C443.031 302.771 443.347 303.093 443.736 303.093Z" fill="#FFD629"/>
<path d="M443.736 306.486C444.126 306.486 444.442 306.164 444.442 305.767C444.442 305.369 444.126 305.047 443.736 305.047C443.347 305.047 443.031 305.369 443.031 305.767C443.031 306.164 443.347 306.486 443.736 306.486Z" fill="#FFD629"/>
<path d="M450.982 293.288H449.548C449.548 293.288 449.548 293.28 449.548 293.277C449.538 292.796 449.343 292.339 449.006 292.003C448.669 291.666 448.216 291.478 447.745 291.478C447.273 291.478 446.821 291.666 446.484 292.003C446.147 292.339 445.952 292.796 445.941 293.277C445.941 293.277 445.941 293.284 445.941 293.288H444.506C444.346 293.288 444.192 293.353 444.079 293.469C443.966 293.585 443.902 293.741 443.902 293.905V296.031C443.902 296.195 443.966 296.351 444.079 296.467C444.193 296.583 444.346 296.648 444.506 296.648H450.98C451.141 296.648 451.295 296.583 451.408 296.467C451.522 296.352 451.586 296.195 451.586 296.031V293.905C451.586 293.742 451.522 293.585 451.409 293.469C451.296 293.354 451.142 293.289 450.982 293.288Z" fill="#FFD629"/>
<path d="M450.982 297.085H444.508C444.235 297.085 443.972 296.974 443.778 296.776C443.585 296.578 443.476 296.311 443.475 296.031V293.905C443.476 293.626 443.585 293.358 443.778 293.161C443.972 292.963 444.235 292.852 444.508 292.851H445.556C445.652 292.33 445.924 291.86 446.325 291.522C446.725 291.184 447.228 290.999 447.748 290.999C448.268 290.999 448.771 291.184 449.172 291.522C449.572 291.86 449.844 292.33 449.941 292.851H450.988C451.262 292.852 451.525 292.963 451.718 293.16C451.912 293.358 452.021 293.626 452.022 293.905V296.031C452.022 296.17 451.995 296.308 451.942 296.436C451.89 296.564 451.813 296.68 451.716 296.778C451.62 296.876 451.505 296.954 451.379 297.006C451.253 297.059 451.118 297.086 450.982 297.085V297.085ZM444.508 293.725C444.462 293.725 444.417 293.744 444.384 293.778C444.351 293.812 444.332 293.858 444.332 293.905V296.031C444.332 296.079 444.351 296.125 444.384 296.158C444.417 296.192 444.462 296.211 444.508 296.211H450.982C451.005 296.211 451.028 296.207 451.05 296.198C451.071 296.189 451.091 296.175 451.107 296.159C451.124 296.142 451.137 296.122 451.146 296.1C451.155 296.078 451.159 296.055 451.159 296.031V293.905C451.159 293.881 451.155 293.858 451.146 293.836C451.137 293.814 451.124 293.794 451.107 293.778C451.091 293.761 451.071 293.748 451.05 293.739C451.028 293.73 451.005 293.725 450.982 293.725H449.548C449.491 293.725 449.435 293.714 449.382 293.691C449.33 293.668 449.282 293.635 449.242 293.593C449.202 293.552 449.171 293.502 449.15 293.448C449.129 293.394 449.119 293.336 449.12 293.278C449.12 293.274 449.12 293.271 449.12 293.267C449.111 292.901 448.962 292.554 448.705 292.299C448.448 292.043 448.103 291.9 447.745 291.9C447.386 291.9 447.042 292.043 446.785 292.299C446.528 292.554 446.379 292.901 446.37 293.267C446.37 293.274 446.37 293.282 446.37 293.289C446.37 293.405 446.324 293.516 446.244 293.598C446.164 293.68 446.055 293.726 445.941 293.726L444.508 293.725Z" fill="white"/>
<path d="M455.391 311.635C457.411 311.635 459.049 309.965 459.049 307.904C459.049 305.843 457.411 304.172 455.391 304.172C453.371 304.172 451.733 305.843 451.733 307.904C451.733 309.965 453.371 311.635 455.391 311.635Z" fill="#FFE67D"/>
<path d="M454.274 310.147C454.147 310.148 454.024 310.105 453.924 310.025L452.496 308.892C452.434 308.846 452.382 308.788 452.343 308.721C452.304 308.655 452.278 308.58 452.268 308.503C452.257 308.426 452.262 308.348 452.281 308.272C452.301 308.197 452.335 308.127 452.382 308.065C452.429 308.004 452.487 307.952 452.554 307.914C452.62 307.876 452.694 307.852 452.77 307.843C452.845 307.834 452.922 307.841 452.995 307.863C453.069 307.885 453.137 307.922 453.196 307.972L454.228 308.788L456.708 306.24C456.761 306.185 456.823 306.141 456.893 306.111C456.962 306.081 457.037 306.065 457.112 306.065C457.187 306.064 457.262 306.079 457.332 306.108C457.402 306.137 457.465 306.18 457.519 306.234C457.572 306.288 457.615 306.353 457.643 306.424C457.672 306.495 457.687 306.571 457.687 306.648C457.687 306.725 457.672 306.801 457.643 306.872C457.614 306.943 457.572 307.007 457.518 307.061L454.682 309.975C454.628 310.03 454.565 310.074 454.495 310.103C454.425 310.133 454.35 310.148 454.274 310.147V310.147Z" fill="white"/>
<path d="M454.926 313C453.922 313 452.941 312.696 452.106 312.128C451.272 311.559 450.621 310.75 450.237 309.804C449.853 308.858 449.753 307.817 449.949 306.813C450.145 305.808 450.628 304.886 451.338 304.162C452.047 303.438 452.952 302.945 453.936 302.745C454.921 302.546 455.941 302.648 456.868 303.04C457.795 303.432 458.588 304.096 459.145 304.948C459.703 305.799 460 306.8 460 307.824C459.998 309.196 459.463 310.512 458.512 311.482C457.56 312.453 456.271 312.999 454.926 313ZM454.926 303.813C454.148 303.813 453.388 304.048 452.741 304.489C452.094 304.929 451.59 305.556 451.293 306.289C450.995 307.022 450.917 307.828 451.069 308.607C451.221 309.385 451.595 310.1 452.145 310.661C452.695 311.222 453.396 311.604 454.158 311.758C454.921 311.913 455.712 311.834 456.43 311.53C457.149 311.227 457.763 310.712 458.195 310.053C458.627 309.393 458.858 308.617 458.858 307.824C458.856 306.76 458.442 305.741 457.704 304.989C456.967 304.237 455.968 303.814 454.926 303.813V303.813Z" fill="#FFD629"/>
</g>
<path d="M284 50V165" stroke="#F3F8FF"/>
<path d="M379 50V165" stroke="#F3F8FF"/>
<path d="M473 50V165" stroke="#F3F8FF"/>
<path d="M190 50V165" stroke="#E9F0FA"/>
<path d="M190 135.718L209.245 129.358C217.108 126.758 225.48 127.218 233.1 130.669L244.947 136.042C251.397 138.952 258.406 139.734 265.209 138.303L287.596 133.593C289.794 133.133 292.022 132.901 294.254 132.9H357.146C359.335 132.899 361.52 132.675 363.675 132.229L390.234 126.811C394.87 125.853 399.618 125.922 404.232 127.014L421.983 131.212C426.81 132.357 431.783 132.38 436.618 131.28L457.344 126.577C460.893 125.77 464.523 125.567 468.122 125.974L489.608 128.393C495.229 129.024 500.899 128.169 506.2 125.891L526.997 116.946C530.023 115.648 533.177 114.808 536.384 114.444L567 111" stroke="#DDEBEF" stroke-width="3" stroke-miterlimit="10"/>
<path d="M190 146L248.995 108.155C254.224 104.791 260.08 102.906 266.075 102.656L285.169 101.92C288.762 101.762 292.317 101.018 295.727 99.7112L320.229 90.3695C324.069 88.9065 328.091 88.1608 332.139 88.161H389.396C392.781 88.1634 396.15 87.6434 399.413 86.6151L419.022 80.4315C425.955 78.2403 433.292 78.368 440.164 80.7996L457.546 86.939C461.149 88.2126 464.899 88.8602 468.67 88.8604H490.797C495.651 88.861 500.46 87.7912 504.96 85.7097L567 57" stroke="#4D8BE8" stroke-width="3" stroke-miterlimit="10"/>
<path d="M190 146.319C190 146.319 199.87 143.583 208.607 141.306C216.391 139.308 224.42 138.763 232.365 139.695L286.383 146.068C289.383 146.069 292.372 146.468 295.287 147.257L315.813 152.814C321.542 154.363 327.518 154.395 333.261 152.907L355.46 147.178C358.257 146.455 361.12 146.092 363.991 146.097H391.966C393.459 146.097 394.952 146.197 396.434 146.398L423.932 150.05C426.926 150.45 429.952 150.45 432.946 150.05L450.781 147.644C458.152 146.648 465.094 143.255 470.74 137.89L480.03 129.053C485.452 123.898 492.078 120.561 499.137 119.429C506.196 118.297 513.4 119.416 519.91 122.658L567 146.111" stroke="#FFE252" stroke-width="3" stroke-miterlimit="10"/>
<path opacity="0.25" d="M566.5 57.7851L505.171 86.4033L504.96 85.9502L505.171 86.4033C500.606 88.5324 495.726 89.6279 490.797 89.6273H468.67C464.841 89.6271 461.034 88.9639 457.378 87.6608L439.996 81.4699L439.996 81.4698C433.227 79.0546 426.002 78.9279 419.174 81.1042L419.174 81.1043L399.564 87.3397L399.413 86.8632L399.564 87.3397C396.253 88.392 392.832 88.9245 389.396 88.922M566.5 57.7851L332.139 88.422C328.091 88.4218 324.069 89.1737 320.229 90.649M566.5 57.7851V154.5H190.5V147.018L249.267 109.003L249.267 109.003C254.424 105.658 260.193 103.786 266.095 103.538L266.094 103.538L266.075 103.038L266.096 103.538L285.188 102.795L285.191 102.795C288.839 102.634 292.448 101.872 295.907 100.535M566.5 57.7851L295.907 100.535M389.396 88.922L389.396 88.422V88.922H389.396ZM389.396 88.922H332.139C328.153 88.9218 324.192 89.6621 320.408 91.1157M320.408 91.1157L320.408 91.1157L320.229 90.649M320.408 91.1157L295.907 100.535M320.408 91.1157L320.229 90.649M320.229 90.649L295.907 100.535M295.907 100.535L295.727 100.069L295.906 100.536L295.907 100.535Z" fill="url(#paint1_linear_56_69)" fill-opacity="0.3" stroke="#E9F0FA"/>
<path d="M75.1263 41.8702C84.408 41.8564 93.4346 44.9077 100.805 50.5502C107.844 55.9225 113.022 63.3672 115.61 71.8367C118.198 80.3061 118.065 89.3738 115.23 97.7638C112.395 106.154 107.001 113.443 99.8072 118.607C92.6131 123.771 83.9812 126.548 75.1263 126.548" stroke="#DDEBEF" stroke-width="18" stroke-miterlimit="10"/>
<path d="M75.1262 126.548C68.3154 126.56 61.6033 124.919 55.565 121.769" stroke="#FFE252" stroke-width="18" stroke-miterlimit="10" stroke-linecap="round"/>
<path d="M55.565 121.769C47.1592 117.39 40.4657 110.317 36.5559 101.682C32.6461 93.0473 31.7462 83.3503 34.0003 74.1434C36.2543 64.9366 41.532 56.7523 48.9884 50.901C56.4447 45.0497 65.6485 41.8697 75.1262 41.8701" stroke="#5081F0" stroke-width="18" stroke-miterlimit="10" stroke-linecap="round"/>
<circle cx="16" cy="145" r="3" fill="#5081F0"/>
<ellipse cx="16" cy="160.5" rx="3" ry="2.5" fill="#DDEBEF"/>
<ellipse cx="16" cy="176.5" rx="3" ry="2.5" fill="#FFE252"/>
<rect x="10" y="10" width="42" height="9" rx="2" fill="#E0EBFA"/>
<rect x="169" y="24" width="92" height="10" rx="2" fill="#E0EBFA"/>
<rect x="54" y="73" width="42" height="9" rx="2" fill="#E0EBFA"/>
<rect x="69" y="243" width="26" height="11" rx="2" fill="#E0EBFA"/>
<rect x="69" y="306" width="26" height="11" rx="2" fill="#E0EBFA"/>
<rect x="69" y="240" width="26" height="14" rx="2" fill="#E0EBFA"/>
<rect x="69" y="303" width="26" height="14" rx="2" fill="#E0EBFA"/>
<rect x="59" y="726" width="27" height="15" rx="2" fill="#E0EBFA"/>
<rect x="264" y="726" width="27" height="15" rx="2" fill="#E0EBFA"/>
<rect x="468" y="726" width="28" height="15" rx="2" fill="#E0EBFA"/>
<rect x="123" y="787" width="32" height="14" rx="2" fill="#C7DEFB"/>
<rect x="327" y="787" width="33" height="14" rx="2" fill="#C7DEFB"/>
<rect x="533" y="787" width="32" height="14" rx="2" fill="#C7DEFB"/>
<rect x="59" y="747" width="78" height="5" rx="2" fill="#E0EBFA"/>
<rect x="264" y="747" width="77" height="5" rx="2" fill="#E0EBFA"/>
<rect x="468" y="747" width="78" height="5" rx="2" fill="#E0EBFA"/>
<rect x="59" y="759" width="78" height="6" rx="2" fill="#E0EBFA"/>
<rect x="264" y="759" width="77" height="6" rx="2" fill="#E0EBFA"/>
<rect x="468" y="759" width="78" height="6" rx="2" fill="#E0EBFA"/>
<rect x="59" y="770" width="48" height="6" rx="2" fill="#E0EBFA"/>
<rect x="264" y="770" width="49" height="6" rx="2" fill="#E0EBFA"/>
<rect x="468" y="770" width="49" height="6" rx="2" fill="#E0EBFA"/>
<rect x="43" y="539" width="237" height="14" rx="2" fill="#E0EBFA"/>
<rect x="43" y="592" width="237" height="14" rx="2" fill="#E0EBFA"/>
<rect x="43" y="645" width="237" height="14" rx="2" fill="#E0EBFA"/>
<rect x="322" y="539" width="99" height="14" rx="2" fill="#E0EBFA"/>
<rect x="322" y="592" width="99" height="14" rx="2" fill="#E0EBFA"/>
<rect x="322" y="645" width="99" height="14" rx="2" fill="#E0EBFA"/>
<rect x="509" y="539" width="58" height="14" rx="2" fill="#E0EBFA"/>
<rect x="509" y="592" width="58" height="14" rx="2" fill="#E0EBFA"/>
<rect x="509" y="645" width="58" height="14" rx="2" fill="#E0EBFA"/>
<rect x="487" y="239" width="25" height="15" rx="2" fill="#E0EBFA"/>
<rect x="325" y="247" width="13" height="11" rx="2" fill="#E0EBFA"/>
<rect x="325" y="307" width="13" height="11" rx="2" fill="#E0EBFA"/>
<rect x="537" y="307" width="13" height="11" rx="2" fill="#E0EBFA"/>
<rect x="276" y="247" width="19" height="11" rx="2" fill="#E0EBFA"/>
<rect x="276" y="307" width="19" height="11" rx="2" fill="#E0EBFA"/>
<rect x="488" y="307" width="19" height="11" rx="2" fill="#E0EBFA"/>
<rect x="325" y="234" width="26" height="7" rx="2" fill="#E0EBFA"/>
<rect x="325" y="295" width="26" height="6" rx="2" fill="#E0EBFA"/>
<rect x="537" y="295" width="26" height="6" rx="2" fill="#E0EBFA"/>
<rect x="274" y="234" width="26" height="7" rx="2" fill="#E0EBFA"/>
<rect x="274" y="295" width="26" height="6" rx="2" fill="#E0EBFA"/>
<rect x="487" y="295" width="26" height="6" rx="2" fill="#E0EBFA"/>
<rect x="69" y="220" width="78" height="6" rx="2" fill="#E0EBFA"/>
<rect x="69" y="283" width="78" height="6" rx="2" fill="#E0EBFA"/>
<rect x="59" y="714" width="81" height="6" rx="2" fill="#E0EBFA"/>
<rect x="264" y="714" width="81" height="6" rx="2" fill="#E0EBFA"/>
<rect x="468" y="714" width="82" height="6" rx="2" fill="#E0EBFA"/>
<rect x="487" y="220" width="77" height="6" rx="2" fill="#E0EBFA"/>
<rect x="275" y="220" width="78" height="6" rx="2" fill="#E0EBFA"/>
<rect x="275" y="280" width="78" height="7" rx="2" fill="#E0EBFA"/>
<rect x="487" y="280" width="78" height="7" rx="2" fill="#E0EBFA"/>
<rect x="63" y="13" width="43" height="6" rx="2" fill="#E0EBFA"/>
<rect x="54" y="85" width="42" height="7" rx="2" fill="#E0EBFA"/>
<rect x="27" y="141" width="42" height="7" rx="2" fill="#E0EBFA"/>
<rect x="27" y="156" width="42" height="7" rx="2" fill="#E0EBFA"/>
<rect x="27" y="174" width="42" height="5" rx="2" fill="#E0EBFA"/>
<rect x="108" y="141" width="19" height="7" rx="2" fill="#E0EBFA"/>
<rect x="171" y="50" width="12" height="5" rx="2" fill="#E0EBFA"/>
<rect x="181" y="174" width="24" height="5" rx="2" fill="#E0EBFA"/>
<rect x="272" y="174" width="24" height="5" rx="2" fill="#E0EBFA"/>
<rect x="367" y="174" width="24" height="5" rx="2" fill="#E0EBFA"/>
<rect x="462" y="174" width="25" height="5" rx="2" fill="#E0EBFA"/>
<rect x="499.291" y="253.358" width="21.7729" height="4.45354" rx="2" fill="#E0EBFA"/>
<rect x="171" y="77" width="12" height="5" rx="2" fill="#E0EBFA"/>
<rect x="171" y="103" width="12" height="5" rx="2" fill="#E0EBFA"/>
<rect x="171" y="130" width="12" height="4" rx="2" fill="#E0EBFA"/>
<rect x="171" y="157" width="12" height="5" rx="2" fill="#E0EBFA"/>
<rect x="108" y="156" width="19" height="7" rx="2" fill="#E0EBFA"/>
<rect x="108" y="174" width="19" height="5" rx="2" fill="#E0EBFA"/>
<path d="M334 457L370.931 428.51C374.204 425.978 377.869 424.558 381.622 424.37L393.575 423.816C395.825 423.697 398.05 423.137 400.184 422.153L415.523 415.121C417.927 414.019 420.444 413.458 422.978 413.458H458.821C460.94 413.46 463.049 413.069 465.091 412.295L477.367 407.639C481.707 405.99 486.3 406.086 490.601 407.917L501.482 412.538C503.738 413.497 506.085 413.985 508.446 413.985H522.297C525.336 413.985 528.346 413.18 531.163 411.613L570 390" stroke="#4D8BE8" stroke-width="3" stroke-miterlimit="10"/>
<path opacity="0.25" d="M334 457.767L370.931 428.951C374.204 426.39 377.869 424.954 381.622 424.764L393.575 424.203C395.825 424.083 398.05 423.516 400.184 422.521L415.523 415.408C417.927 414.294 420.444 413.727 422.978 413.727H458.821C460.94 413.729 463.049 413.333 465.091 412.55L477.367 407.841C481.707 406.173 486.3 406.27 490.601 408.122L501.482 412.796C503.738 413.766 506.085 414.259 508.446 414.259H522.297C525.336 414.26 528.346 413.445 531.163 411.86L570 390V464H334V457.767Z" fill="url(#paint2_linear_56_69)" fill-opacity="0.7"/>
<path d="M334 462L371.244 448.818C374.544 447.646 378.241 446.99 382.026 446.903L394.08 446.646C396.349 446.591 398.593 446.332 400.745 445.877L416.213 442.623C418.638 442.113 421.177 441.854 423.732 441.854H459.879C462.015 441.855 464.142 441.674 466.202 441.315L478.582 439.162C482.959 438.398 487.59 438.443 491.928 439.29L502.902 441.428C505.176 441.872 507.544 442.097 509.924 442.097H523.893C526.957 442.098 529.993 441.725 532.834 441L572 431" stroke="#3CE9CA" stroke-width="3" stroke-miterlimit="10"/>
<rect x="19" y="371" width="257" height="98" fill="url(#paint3_linear_56_69)"/>
<rect x="27" y="431" width="11" height="38" fill="#5081F0"/>
<rect x="64" y="456" width="10" height="13" fill="#5081F0"/>
<rect x="101" y="446" width="11" height="23" fill="#5081F0"/>
<rect x="137" y="451" width="11" height="18" fill="#5081F0"/>
<rect x="172" y="428" width="13" height="41" fill="#5081F0"/>
<rect x="210" y="412" width="11" height="57" fill="#5081F0"/>
<rect x="247" y="451" width="12" height="18" fill="#5081F0"/>
<rect x="38" y="456" width="11" height="13" fill="#3CE9CA"/>
<rect x="74" y="422" width="12" height="47" fill="#3CE9CA"/>
<rect x="112" y="428" width="11" height="41" fill="#3CE9CA"/>
<rect x="148" y="437" width="12" height="32" fill="#3CE9CA"/>
<rect x="185" y="451" width="11" height="18" fill="#3CE9CA"/>
<rect x="221" y="462" width="11" height="7" fill="#3CE9CA"/>
<rect x="259" y="428" width="9" height="41" fill="#3CE9CA"/>
<path d="M19 469V371" stroke="#E9F0FA"/>
<path d="M56 469V371" stroke="#E9F0FA"/>
<path d="M92 469V371" stroke="#E9F0FA"/>
<path d="M129 469V371" stroke="#E9F0FA"/>
<path d="M167 469V371" stroke="#E9F0FA"/>
<path d="M203 469V371" stroke="#E9F0FA"/>
<path d="M241 469V371" stroke="#E9F0FA"/>
<path d="M276 469V371" stroke="#E9F0FA"/>
<circle cx="20" cy="545" r="11" fill="#5081F0"/>
<circle cx="20" cy="598" r="11" fill="#3CE9CA"/>
<circle cx="20" cy="651" r="11" fill="#FFE252"/>
<defs>
<linearGradient id="paint0_linear_56_69" x1="454.093" y1="463.72" x2="453.086" y2="330.659" gradientUnits="userSpaceOnUse">
<stop stop-color="#F5F9FF"/>
<stop offset="0.870136" stop-color="#F5F9FF" stop-opacity="0"/>
</linearGradient>
<linearGradient id="paint1_linear_56_69" x1="378.477" y1="59.0636" x2="378.477" y2="138.187" gradientUnits="userSpaceOnUse">
<stop stop-color="#4D8BE8"/>
<stop offset="1" stop-color="#4D8BE8" stop-opacity="0"/>
</linearGradient>
<linearGradient id="paint2_linear_56_69" x1="451.986" y1="391.558" x2="451.986" y2="451.304" gradientUnits="userSpaceOnUse">
<stop stop-color="#65E3FF"/>
<stop offset="1" stop-color="#80C9FF" stop-opacity="0"/>
</linearGradient>
<linearGradient id="paint3_linear_56_69" x1="152.778" y1="463.72" x2="151.806" y2="330.658" gradientUnits="userSpaceOnUse">
<stop stop-color="#F5F9FF"/>
<stop offset="0.870136" stop-color="#F5F9FF" stop-opacity="0"/>
</linearGradient>
<clipPath id="clip0_56_69">
<rect width="19" height="22" fill="white" transform="translate(229 225)"/>
</clipPath>
<clipPath id="clip1_56_69">
<rect width="20" height="22" fill="white" transform="translate(22 225)"/>
</clipPath>
<clipPath id="clip2_56_69">
<rect width="18" height="18" fill="white" transform="translate(442 227)"/>
</clipPath>
<clipPath id="clip3_56_69">
<rect width="21" height="22" fill="white" transform="translate(22 292)"/>
</clipPath>
<clipPath id="clip4_56_69">
<rect width="15" height="18" fill="white" transform="translate(230 292)"/>
</clipPath>
<clipPath id="clip5_56_69">
<rect width="19" height="22" fill="white" transform="translate(441 291)"/>
</clipPath>
</defs>
</svg>
