<svg width="42" height="42" viewBox="0 0 42 42" fill="none" xmlns="http://www.w3.org/2000/svg">
<path d="M5.52734 15.8426C5.52734 14.9306 5.88962 14.056 6.53449 13.4111C7.17935 12.7663 8.05397 12.404 8.96594 12.404H10.5649C11.1309 12.4041 11.6881 12.2645 12.1872 11.9975C12.6862 11.7306 13.1117 11.3446 13.4258 10.8738L14.8219 8.77627C15.136 8.30547 15.5614 7.91948 16.0605 7.65255C16.5596 7.38562 17.1168 7.24601 17.6828 7.24609H24.3193C24.8852 7.24601 25.4425 7.38562 25.9415 7.65255C26.4406 7.91948 26.8661 8.30547 27.1802 8.77627L28.5763 10.8738C28.8904 11.3446 29.3158 11.7306 29.8149 11.9975C30.314 12.2645 30.8712 12.4041 31.4372 12.404H33.0361C33.9481 12.404 34.8227 12.7663 35.4676 13.4111C36.1124 14.056 36.4747 14.9306 36.4747 15.8426V31.3163C36.4747 32.2282 36.1124 33.1029 35.4676 33.7477C34.8227 34.3926 33.9481 34.7549 33.0361 34.7549H8.96594C8.05397 34.7549 7.17935 34.3926 6.53449 33.7477C5.88962 33.1029 5.52734 32.2282 5.52734 31.3163V15.8426Z" stroke="#4D8BE8" stroke-width="2" stroke-linecap="round" stroke-linejoin="round"/>
<path d="M26.1591 22.7204C26.1591 24.0884 25.6156 25.4003 24.6483 26.3676C23.681 27.3349 22.3691 27.8783 21.0012 27.8783C19.6332 27.8783 18.3213 27.3349 17.354 26.3676C16.3867 25.4003 15.8433 24.0884 15.8433 22.7204C15.8433 21.3524 16.3867 20.0405 17.354 19.0732C18.3213 18.1059 19.6332 17.5625 21.0012 17.5625C22.3691 17.5625 23.681 18.1059 24.6483 19.0732C25.6156 20.0405 26.1591 21.3524 26.1591 22.7204V22.7204Z" stroke="#5081F0" stroke-width="2" stroke-linecap="round" stroke-linejoin="round"/>
</svg>
