<svg width="224" height="80" viewBox="0 0 224 80" fill="none" xmlns="http://www.w3.org/2000/svg">
<path d="M74.5564 63.8293H78.0668L78.5247 71.1408L81.8951 63.8293H85.4054L83.3705 74.0289H80.9539L82.7854 65.9375L78.9698 74.0289H76.9603L76.3879 65.9375L74.9126 74.0289H72.496L74.5564 63.8293Z" fill="white"/>
<path d="M92.4133 63.8293H94.9571L96.6614 74.0289H94.1176L93.876 72.201H90.442L89.4499 74.0289H86.779L92.4133 63.8293ZM91.345 70.2391H93.5835L93.2146 66.5833L91.345 70.2391Z" fill="white"/>
<path d="M101.749 63.8293H106.544C108.324 63.8293 109.672 64.3046 109.672 66.4737C109.767 67.1339 109.587 67.8033 109.17 68.3369C108.754 68.8706 108.134 69.2256 107.447 69.3252C108.172 69.5079 108.439 70.0319 108.439 71.019C108.439 71.7623 108.439 72.3351 108.439 72.92C108.408 73.2878 108.46 73.6576 108.591 74.0045H106.048C105.992 73.8139 105.962 73.6174 105.959 73.4196C105.959 72.8956 106.035 72.3472 106.035 71.6648C106.035 70.7631 105.653 70.3 104.763 70.3H103.021L102.283 73.9558H99.7393L101.749 63.8293ZM103.389 68.3503H105.412C106.34 68.3503 107.129 68.0456 107.129 66.9489C107.129 66.0715 106.429 65.8888 105.755 65.8888H103.835L103.389 68.3503Z" fill="white"/>
<path d="M121.005 66.1203H118.118L116.515 74.0289H113.971L115.574 66.1203H112.7L113.196 63.8293H121.501L121.005 66.1203Z" fill="white"/>
<path d="M125.011 63.8293H127.555L125.52 74.0289H122.976L125.011 63.8293Z" fill="white"/>
<path d="M134.525 63.8293H137.068L138.671 74.0289H136.127L135.886 72.201H132.452L131.459 74.0289H128.789L134.525 63.8293ZM133.456 70.2391H135.682L135.313 66.5833L133.456 70.2391Z" fill="white"/>
<path d="M143.898 63.8293H146.442L144.852 71.7501H149.431L148.96 74.0289H141.851L143.898 63.8293Z" fill="white"/>
<path d="M164.07 63.8293H166.614L168.216 74.0289H165.672L165.444 72.201H161.997L161.017 74.0289H158.347L164.07 63.8293ZM163.002 70.2391H165.227L164.858 66.5833L163.002 70.2391Z" fill="white"/>
<path d="M173.278 63.8293H178.06C179.841 63.8293 181.202 64.3046 181.202 66.4737C181.296 67.1357 181.114 67.8067 180.695 68.3407C180.276 68.8747 179.654 69.2285 178.963 69.3252C179.688 69.5079 179.968 70.0319 179.968 71.019C179.968 71.7623 179.968 72.3351 179.968 72.92C179.94 73.2868 179.987 73.6554 180.108 74.0045H177.564C177.515 73.8127 177.485 73.6169 177.475 73.4196C177.475 72.8956 177.552 72.3472 177.552 71.6648C177.552 70.7631 177.183 70.3 176.28 70.3H174.576L173.838 73.9558H171.294L173.278 63.8293ZM174.919 68.3503H176.954C177.87 68.3503 178.658 68.0456 178.658 66.9489C178.658 66.0715 177.959 65.8888 177.297 65.8888H175.415L174.919 68.3503Z" fill="white"/>
<path d="M192.585 66.1203H189.711L188.108 74.0289H185.564L187.167 66.1203H184.293L184.725 63.8293H193.03L192.585 66.1203Z" fill="white"/>
<path d="M197.215 70.6048C197.215 71.7015 197.8 72.0671 199.008 72.0671C200.216 72.0671 200.458 71.604 200.458 71.0435C200.458 70.0321 198.983 69.9224 197.914 69.5446C197.292 69.4119 196.735 69.0803 196.335 68.6041C195.935 68.128 195.716 67.5358 195.714 66.9247C195.714 64.6094 197.723 63.6223 199.682 63.6223C201.641 63.6223 203.498 64.4144 203.498 66.9003H200.954C200.964 66.7465 200.938 66.5925 200.879 66.4493C200.819 66.306 200.728 66.1771 200.61 66.0717C200.31 65.8703 199.946 65.7755 199.58 65.8036C198.957 65.8036 198.308 66.0717 198.308 66.7175C198.308 67.3634 198.715 67.3999 200.089 67.7899C201.463 68.1798 203.014 68.911 203.014 70.9094C203.014 72.9079 201.463 74.2484 198.601 74.2484C198.08 74.3059 197.551 74.252 197.055 74.0904C196.558 73.9288 196.104 73.6637 195.727 73.314C195.35 72.9643 195.059 72.5389 194.874 72.0683C194.689 71.5977 194.615 71.0937 194.658 70.5926L197.215 70.6048Z" fill="white"/>
<path d="M111.542 17.7547H100.591C98.653 17.7481 96.7529 18.2722 95.1149 19.2652C93.4768 20.2583 92.1689 21.679 91.345 23.3602L74.2767 57.8217H89.6916L91.9428 52.2284H101.227L101.647 57.8217H111.924L116.846 51.1073L111.542 17.7547ZM95.3895 42.76L100.121 31.5369L100.782 42.76H95.3895Z" fill="white"/>
<path d="M166.334 17.6938H147.943L142.181 28.0274L139.752 17.6694H121.374L129.806 36.984L117.278 53.837L116.083 55.4577L114.328 57.8218H132.719L139.205 46.0137L141.876 57.8218H160.254L151.58 37.0084L166.334 17.6938Z" fill="white"/>
<path d="M167.784 17.6938H183.262L176.649 57.8096H161.17L167.784 17.6938Z" fill="white"/>
<path d="M179.434 53.508L187.269 42.6504C190.22 45.2764 194.044 46.8211 198.067 47.0129C199.771 47.0129 200.674 46.5986 200.674 45.7944C200.674 45.2216 199.822 44.8073 197.278 44.4661C191.453 43.6496 184.725 39.9817 184.725 33.6451C184.725 23.7624 193.628 17.2551 204.68 17.2551C210.391 17.2551 215.606 18.9977 218.824 22.0198L211.536 31.7685C208.898 29.6055 205.545 28.4094 202.073 28.393C200.623 28.393 199.402 28.7464 199.402 29.5019C199.402 30.0746 200.191 30.3062 202.315 30.5986C205.185 31.0367 207.932 32.0274 210.391 33.511C213.482 35.4851 215.122 37.7517 215.122 41.1881C215.122 51.5948 206.041 58.492 194.595 58.492C189.063 58.7429 183.64 56.9601 179.434 53.508Z" fill="white"/>
<path d="M77.8887 13.4044C77.5742 11.3611 76.5352 9.48386 74.9463 8.08804C73.3574 6.69222 71.3155 5.86293 69.1637 5.7395H67.8919C66.2043 5.88679 64.584 6.44421 63.184 7.359C61.7841 8.2738 60.651 9.51572 59.8919 10.9672C57.3482 14.7814 55.8219 19.0221 53.6343 22.9581C51.9809 25.5049 49.4372 28.6854 45.9141 28.0274C45.1827 27.8889 44.4934 27.5939 43.8977 27.1643C43.3021 26.7347 42.8154 26.1817 42.4742 25.5466C42.133 24.9114 41.946 24.2106 41.9272 23.4965C41.9084 22.7824 42.0583 22.0735 42.3656 21.4227C42.5674 20.9598 42.8711 20.5442 43.2559 20.2041C44.1034 19.5747 44.7569 18.7368 45.1466 17.7797C45.5363 16.8226 45.6477 15.7822 45.469 14.7692C45.2682 13.5255 44.6541 12.377 43.7179 11.4942C42.7817 10.6115 41.5733 10.0416 40.2722 9.86916C38.9711 9.69674 37.6466 9.93099 36.4954 10.5371C35.3443 11.1433 34.4279 12.089 33.8823 13.2338C32.9284 15.281 33.5644 17.6572 32.6105 19.741C31.5332 23.0955 29.2066 25.9536 26.0731 27.7715C24.1653 29.0144 21.6216 29.246 19.9682 31.0495C14.0922 36.7159 19.3068 46.4889 27.5994 45.1485C28.9385 44.9683 30.2137 44.4853 31.3195 43.7394C32.4253 42.9935 33.3299 42.0062 33.9587 40.8591C34.5089 39.9688 35.3675 39.2915 36.3851 38.945C37.4027 38.5985 38.5149 38.6048 39.5281 38.9627C40.5414 39.3206 41.3917 40.0075 41.931 40.9039C42.4704 41.8003 42.6647 42.8495 42.4801 43.869C40.9539 48.329 37.2909 51.7288 35.4594 56.0548C34.0986 58.8819 32.814 62.0015 33.6025 65.1454C34.1389 67.5126 35.5597 69.6102 37.5976 71.0438C39.6355 72.4773 42.1499 73.1478 44.6678 72.9292C47.1856 72.7106 49.5332 71.6179 51.2689 69.8567C53.0046 68.0955 54.0087 65.7872 54.0922 63.3663C53.5952 55.5503 55.0834 47.7353 58.4292 40.591C61.3882 34.3925 65.6839 28.8648 71.0334 24.3716C72.1272 23.4455 73.2973 22.6169 74.4292 21.7395C75.4474 20.961 76.2853 19.9881 76.8897 18.8824C77.494 17.7768 77.8516 16.5628 77.9396 15.3176V14.099C77.9014 13.9162 77.9141 13.6725 77.8887 13.4044ZM18.1113 26.1264C16.6609 26.4234 15.1622 26.4299 13.7091 26.1455C12.256 25.8611 10.8799 25.292 9.66733 24.4739C8.45472 23.6557 7.43173 22.6062 6.66259 21.3913C5.89345 20.1763 5.39475 18.8222 5.19782 17.4138C5.00089 16.0054 5.10997 14.5732 5.51821 13.2071C5.92645 11.841 6.62504 10.5706 7.57012 9.47546C8.51521 8.38036 9.68637 7.48427 11.0101 6.84346C12.3338 6.20265 13.7815 5.83095 15.2623 5.75169H16.5342C29.151 6.81186 30.3466 23.5065 18.0858 26.1386L18.1113 26.1264Z" fill="url(#paint0_linear_111_3)"/>
<defs>
<linearGradient id="paint0_linear_111_3" x1="25.0684" y1="-10.9551" x2="82.4932" y2="91.1032" gradientUnits="userSpaceOnUse">
<stop stop-color="#39D0B5"/>
<stop offset="1" stop-color="#527AF5"/>
</linearGradient>
</defs>
</svg>
