<svg width="17" height="22" viewBox="0 0 17 22" fill="none" xmlns="http://www.w3.org/2000/svg">
<path d="M7.0001 0C6.62879 0 6.2727 0.142232 6.01015 0.395406C5.7476 0.64858 5.6001 0.991958 5.6001 1.35C5.6001 1.70804 5.7476 2.05142 6.01015 2.30459C6.2727 2.55777 6.62879 2.7 7.0001 2.7H9.8001C10.1714 2.7 10.5275 2.55777 10.79 2.30459C11.0526 2.05142 11.2001 1.70804 11.2001 1.35C11.2001 0.991958 11.0526 0.64858 10.79 0.395406C10.5275 0.142232 10.1714 0 9.8001 0H7.0001Z" fill="#46DBA8"/>
<path fill-rule="evenodd" clip-rule="evenodd" d="M0 4.04961C0 3.33352 0.294999 2.64677 0.820101 2.14042C1.3452 1.63407 2.05739 1.34961 2.8 1.34961C2.8 2.42374 3.2425 3.45387 4.03015 4.21339C4.8178 4.97291 5.88609 5.39961 7 5.39961H9.8C10.9139 5.39961 11.9822 4.97291 12.7698 4.21339C13.5575 3.45387 14 2.42374 14 1.34961C14.7426 1.34961 15.4548 1.63407 15.9799 2.14042C16.505 2.64677 16.8 3.33352 16.8 4.04961V18.8996C16.8 19.6157 16.505 20.3025 15.9799 20.8088C15.4548 21.3151 14.7426 21.5996 14 21.5996H2.8C2.05739 21.5996 1.3452 21.3151 0.820101 20.8088C0.294999 20.3025 0 19.6157 0 18.8996V4.04961ZM13.5898 11.7541C13.8448 11.4994 13.9859 11.1584 13.9827 10.8045C13.9796 10.4505 13.8323 10.1119 13.5727 9.8616C13.3132 9.6113 12.962 9.46933 12.595 9.46625C12.2279 9.46317 11.8742 9.59925 11.6102 9.84516L7 14.2907L5.1898 12.5452C4.92576 12.2992 4.57211 12.1632 4.20504 12.1663C3.83796 12.1693 3.48683 12.3113 3.22725 12.5616C2.96768 12.8119 2.82045 13.1505 2.81726 13.5045C2.81407 13.8584 2.95518 14.1994 3.2102 14.4541L6.0102 17.1541C6.27274 17.4071 6.62877 17.5493 7 17.5493C7.37123 17.5493 7.72726 17.4071 7.9898 17.1541L13.5898 11.7541Z" fill="#46DBA8"/>
</svg>
