<svg width="18" height="18" viewBox="0 0 18 18" fill="none" xmlns="http://www.w3.org/2000/svg">
<g clip-path="url(#clip0_201_14362)">
<path d="M17.9977 3.97947C17.9943 2.97853 17.3474 2.16212 16.3876 1.94782C16.2021 1.91091 16.0132 1.89338 15.824 1.89552C15.4066 1.89169 14.9964 1.89212 14.5624 1.89297H14.2058C14.2058 1.81218 14.2058 1.73224 14.2058 1.65272C14.2058 1.3623 14.2058 1.08804 14.2028 0.80953C14.1943 0.343925 13.8691 0.00163052 13.43 -0.000920747C12.9833 -0.00602327 12.6496 0.339247 12.6411 0.816758C12.6373 1.03787 12.6377 1.26238 12.6386 1.47966C12.6386 1.59872 12.6386 1.7182 12.6386 1.83726C12.6386 1.85215 12.6386 1.86703 12.6386 1.88191H5.35859V1.8024C5.35859 1.69779 5.35859 1.59319 5.35859 1.48859C5.35859 1.25005 5.36242 1.00343 5.35179 0.759355C5.33266 0.324791 4.99899 -0.000920747 4.57435 -0.000920747H4.56883C4.15227 0.00163052 3.82752 0.315436 3.79692 0.744473C3.78927 0.852901 3.79012 0.960905 3.79139 1.06551C3.79139 1.10378 3.79139 1.14204 3.79139 1.18031C3.79139 1.37846 3.79139 1.57661 3.79139 1.78029V1.89297H3.23924C2.87369 1.89297 2.50814 1.89297 2.14259 1.89297C0.882712 1.89764 0.00241421 2.7774 0.00198915 4.0322C0.00198915 8.34468 0.00198915 12.2218 0.00198915 15.8845C0.000964638 16.0687 0.0217949 16.2524 0.0640462 16.4318C0.294854 17.3834 1.10502 17.9982 2.12771 17.9982H15.8304C16.4654 17.9982 17.0078 17.7916 17.3993 17.4C17.7907 17.0083 17.9982 16.4645 17.9982 15.8309V8.55389C17.9982 8.11082 17.9982 7.66775 17.9982 7.22468C18.0003 6.16165 18.0007 5.06163 17.9977 3.97947ZM4.05238 5.1556C4.12142 5.22168 4.20288 5.27341 4.29204 5.30779C4.3812 5.34216 4.47629 5.35851 4.5718 5.35588H4.58158C5.067 5.35035 5.35731 4.99105 5.35859 4.39448C5.35859 4.08748 5.35972 3.78033 5.36199 3.47305H12.6407V3.57892C12.6407 3.77962 12.6407 3.98713 12.6407 4.1908C12.6407 4.22524 12.6407 4.25969 12.6407 4.29455C12.637 4.43335 12.6438 4.57222 12.6611 4.70998C12.6898 4.89424 12.7849 5.0616 12.9286 5.18045C13.0722 5.2993 13.2544 5.3614 13.4407 5.35503C13.8411 5.34397 14.1633 5.05058 14.1884 4.67469C14.2062 4.41064 14.2054 4.14403 14.2045 3.88593C14.2045 3.7758 14.2045 3.66567 14.2045 3.55596C14.2045 3.52407 14.2045 3.49261 14.2045 3.45987H14.2355H14.4379C14.9054 3.45987 15.3887 3.45987 15.8644 3.45987C16.2469 3.45987 16.4352 3.64951 16.4361 4.03432C16.4361 4.70743 16.4361 5.39202 16.4361 6.05365V6.29347C16.4361 6.30112 16.4361 6.3092 16.4361 6.31728H1.55898C1.55898 6.3024 1.55898 6.28836 1.55898 6.27476V6.19312C1.55898 5.47338 1.55898 4.75378 1.55898 4.03432C1.55898 3.65164 1.74643 3.46242 2.13111 3.46072C2.54257 3.46072 2.95403 3.46072 3.37229 3.46072H3.79182C3.79182 3.48155 3.79182 3.50324 3.79437 3.5211C3.79437 3.72576 3.79437 3.93043 3.79437 4.1351V4.39023C3.79182 4.72189 3.88278 4.98807 4.05238 5.1556ZM1.56111 7.91947C1.56111 7.91224 1.56111 7.90459 1.56111 7.89693H16.4382V10.0591C16.4382 11.9867 16.4382 13.9144 16.4382 15.842C16.4382 16.2536 16.2571 16.4373 15.8512 16.4373H2.14939C1.74813 16.4373 1.56111 16.254 1.56111 15.8611C1.56026 13.2146 1.56026 10.5671 1.56111 7.91862V7.91947Z" fill="#9FB5D1"/>
<path d="M4.71171 12.7611C5.31317 13.3717 5.92951 13.987 6.52544 14.5819L7.09205 15.1482C7.3084 15.3643 7.52178 15.4723 7.73559 15.4723C7.94939 15.4723 8.16532 15.363 8.3838 15.1448L13.2541 10.2732L13.2784 10.2494C13.3237 10.2064 13.3663 10.1605 13.4059 10.1121C13.5 9.9908 13.5565 9.84459 13.5684 9.69154C13.5802 9.53848 13.5469 9.38531 13.4726 9.251C13.3056 8.95335 12.9834 8.79517 12.6888 8.86831C12.4971 8.91674 12.3213 9.01435 12.1787 9.1515C10.8377 10.4816 9.48131 11.8405 8.16957 13.1549L7.78957 13.5375C7.77076 13.5564 7.75328 13.5766 7.73729 13.5979L7.45377 13.3126C7.15623 13.015 6.87654 12.7305 6.5943 12.4469L6.4077 12.2538C6.19517 12.0412 5.97499 11.8171 5.75311 11.6037C5.49169 11.352 5.13634 11.3039 4.82605 11.4783C4.67904 11.5575 4.56256 11.6834 4.49499 11.8361C4.42741 11.9889 4.41259 12.1598 4.45285 12.3219C4.50102 12.4877 4.59002 12.6387 4.71171 12.7611Z" fill="#9FB5D1"/>
</g>
<defs>
<clipPath id="clip0_201_14362">
<rect width="18" height="18" fill="white"/>
</clipPath>
</defs>
</svg>
