<svg width="24" height="20" viewBox="0 0 24 20" fill="none" xmlns="http://www.w3.org/2000/svg">
<path d="M21.5375 19.75H2.8375C2.53009 19.7516 2.22541 19.6926 1.94111 19.5764C1.6568 19.4601 1.39852 19.289 1.18121 19.0729C0.749321 18.6318 0.505304 18.0421 0.5 17.4267V1.49569C0.5 1.23162 0.605545 0.978358 0.793416 0.79163C0.981287 0.604902 1.2361 0.5 1.50179 0.5H22.8732C23.1389 0.5 23.3937 0.604902 23.5816 0.79163C23.7695 0.978358 23.875 1.23162 23.875 1.49569V17.4267C23.8697 18.0421 23.6257 18.6318 23.1938 19.0729C22.9765 19.289 22.7182 19.4601 22.4339 19.5764C22.1496 19.6926 21.8449 19.7516 21.5375 19.75ZM13.1893 17.7586H21.5375C21.626 17.7558 21.7108 17.723 21.7779 17.6657C21.8339 17.5979 21.8667 17.5142 21.8714 17.4267V9.38154H13.1893V17.7586ZM2.50357 9.32843V17.4267C2.50834 17.5142 2.5411 17.5979 2.59707 17.6657C2.66418 17.723 2.74903 17.7558 2.8375 17.7586H11.1857V9.38154H2.82414C2.71551 9.37687 2.60786 9.35904 2.50357 9.32843V9.32843ZM2.50357 2.49138V7.44326C2.60956 7.42409 2.71816 7.42409 2.82414 7.44326H21.8714V2.49138H2.50357Z" fill="#163BC1"/>
</svg>
