<svg width="129" height="40" viewBox="0 0 129 40" fill="none" xmlns="http://www.w3.org/2000/svg">
<path d="M22.017 26H19.767L23.8636 14.3636H26.4659L30.5682 26H28.3182L25.2102 16.75H25.1193L22.017 26ZM22.0909 21.4375H28.2273V23.1307H22.0909V21.4375ZM34.983 26.1534C34.2973 26.1534 33.6837 25.9773 33.142 25.625C32.6004 25.2727 32.1723 24.7614 31.858 24.0909C31.5436 23.4205 31.3864 22.6061 31.3864 21.6477C31.3864 20.678 31.5455 19.8598 31.8636 19.1932C32.1856 18.5227 32.6193 18.017 33.1648 17.6761C33.7102 17.3314 34.3182 17.1591 34.9886 17.1591C35.5 17.1591 35.9205 17.2462 36.25 17.4205C36.5795 17.5909 36.8409 17.7973 37.0341 18.0398C37.2273 18.2784 37.3769 18.5038 37.483 18.7159H37.5682V14.3636H39.6307V26H37.608V24.625H37.483C37.3769 24.8371 37.2235 25.0625 37.0227 25.3011C36.822 25.536 36.5568 25.7367 36.2273 25.9034C35.8977 26.0701 35.483 26.1534 34.983 26.1534ZM35.5568 24.4659C35.9924 24.4659 36.3636 24.3485 36.6705 24.1136C36.9773 23.875 37.2102 23.5436 37.3693 23.1193C37.5284 22.6951 37.608 22.2008 37.608 21.6364C37.608 21.072 37.5284 20.5814 37.3693 20.1648C37.214 19.7481 36.983 19.4242 36.6761 19.1932C36.3731 18.9621 36 18.8466 35.5568 18.8466C35.0985 18.8466 34.7159 18.9659 34.4091 19.2045C34.1023 19.4432 33.8712 19.7727 33.7159 20.1932C33.5606 20.6136 33.483 21.0947 33.483 21.6364C33.483 22.1818 33.5606 22.6686 33.7159 23.0966C33.875 23.5208 34.108 23.8561 34.4148 24.1023C34.7254 24.3447 35.1061 24.4659 35.5568 24.4659ZM45.0611 26.1534C44.3755 26.1534 43.7618 25.9773 43.2202 25.625C42.6785 25.2727 42.2505 24.7614 41.9361 24.0909C41.6217 23.4205 41.4645 22.6061 41.4645 21.6477C41.4645 20.678 41.6236 19.8598 41.9418 19.1932C42.2637 18.5227 42.6974 18.017 43.2429 17.6761C43.7884 17.3314 44.3963 17.1591 45.0668 17.1591C45.5781 17.1591 45.9986 17.2462 46.3281 17.4205C46.6577 17.5909 46.919 17.7973 47.1122 18.0398C47.3054 18.2784 47.455 18.5038 47.5611 18.7159H47.6463V14.3636H49.7088V26H47.6861V24.625H47.5611C47.455 24.8371 47.3016 25.0625 47.1009 25.3011C46.9001 25.536 46.6349 25.7367 46.3054 25.9034C45.9759 26.0701 45.5611 26.1534 45.0611 26.1534ZM45.6349 24.4659C46.0705 24.4659 46.4418 24.3485 46.7486 24.1136C47.0554 23.875 47.2884 23.5436 47.4474 23.1193C47.6065 22.6951 47.6861 22.2008 47.6861 21.6364C47.6861 21.072 47.6065 20.5814 47.4474 20.1648C47.2921 19.7481 47.0611 19.4242 46.7543 19.1932C46.4512 18.9621 46.0781 18.8466 45.6349 18.8466C45.1766 18.8466 44.794 18.9659 44.4872 19.2045C44.1804 19.4432 43.9493 19.7727 43.794 20.1932C43.6387 20.6136 43.5611 21.0947 43.5611 21.6364C43.5611 22.1818 43.6387 22.6686 43.794 23.0966C43.9531 23.5208 44.1861 23.8561 44.4929 24.1023C44.8035 24.3447 45.1842 24.4659 45.6349 24.4659ZM63.2955 14.3636H65.4034V21.9659C65.4034 22.7992 65.2064 23.5322 64.8125 24.1648C64.4223 24.7973 63.8731 25.2917 63.1648 25.6477C62.4564 26 61.6288 26.1761 60.6818 26.1761C59.7311 26.1761 58.9015 26 58.1932 25.6477C57.4848 25.2917 56.9356 24.7973 56.5455 24.1648C56.1553 23.5322 55.9602 22.7992 55.9602 21.9659V14.3636H58.0682V21.7898C58.0682 22.2746 58.1742 22.7064 58.3864 23.0852C58.6023 23.464 58.9053 23.7614 59.2955 23.9773C59.6856 24.1894 60.1477 24.2955 60.6818 24.2955C61.2159 24.2955 61.678 24.1894 62.0682 23.9773C62.4621 23.7614 62.7652 23.464 62.9773 23.0852C63.1894 22.7064 63.2955 22.2746 63.2955 21.7898V14.3636ZM69.6605 20.8864V26H67.6037V17.2727H69.5696V18.7557H69.6719C69.8726 18.267 70.1927 17.8788 70.6321 17.5909C71.0753 17.303 71.6226 17.1591 72.2741 17.1591C72.8764 17.1591 73.401 17.2879 73.848 17.5455C74.2988 17.803 74.6473 18.1761 74.8935 18.6648C75.1435 19.1534 75.2666 19.7462 75.2628 20.4432V26H73.206V20.7614C73.206 20.178 73.0545 19.7216 72.7514 19.392C72.4522 19.0625 72.0374 18.8977 71.5071 18.8977C71.1473 18.8977 70.8272 18.9773 70.5469 19.1364C70.2704 19.2917 70.0526 19.517 69.8935 19.8125C69.7382 20.108 69.6605 20.4659 69.6605 20.8864ZM77.3537 26V17.2727H79.4105V26H77.3537ZM78.3878 16.0341C78.062 16.0341 77.7817 15.9261 77.5469 15.7102C77.312 15.4905 77.1946 15.2273 77.1946 14.9205C77.1946 14.6098 77.312 14.3466 77.5469 14.1307C77.7817 13.911 78.062 13.8011 78.3878 13.8011C78.7173 13.8011 78.9976 13.911 79.2287 14.1307C79.4635 14.3466 79.581 14.6098 79.581 14.9205C79.581 15.2273 79.4635 15.4905 79.2287 15.7102C78.9976 15.9261 78.7173 16.0341 78.3878 16.0341ZM85.946 17.2727V18.8636H80.7869V17.2727H85.946ZM82.0767 26V16.4489C82.0767 15.8617 82.1979 15.3731 82.4403 14.983C82.6866 14.5928 83.0161 14.3011 83.429 14.108C83.8419 13.9148 84.3002 13.8182 84.804 13.8182C85.16 13.8182 85.4763 13.8466 85.7528 13.9034C86.0294 13.9602 86.2339 14.0114 86.3665 14.0568L85.9574 15.6477C85.8703 15.6212 85.7604 15.5947 85.6278 15.5682C85.4953 15.5379 85.3475 15.5227 85.1847 15.5227C84.8021 15.5227 84.5313 15.6155 84.3722 15.8011C84.2169 15.983 84.1392 16.2443 84.1392 16.5852V26H82.0767ZM91.0355 26.1705C90.1832 26.1705 89.4446 25.983 88.8196 25.608C88.1946 25.233 87.7098 24.7083 87.3651 24.0341C87.0241 23.3598 86.8537 22.572 86.8537 21.6705C86.8537 20.7689 87.0241 19.9792 87.3651 19.3011C87.7098 18.6231 88.1946 18.0966 88.8196 17.7216C89.4446 17.3466 90.1832 17.1591 91.0355 17.1591C91.8878 17.1591 92.6264 17.3466 93.2514 17.7216C93.8764 18.0966 94.3594 18.6231 94.7003 19.3011C95.045 19.9792 95.2173 20.7689 95.2173 21.6705C95.2173 22.572 95.045 23.3598 94.7003 24.0341C94.3594 24.7083 93.8764 25.233 93.2514 25.608C92.6264 25.983 91.8878 26.1705 91.0355 26.1705ZM91.0469 24.5227C91.509 24.5227 91.8954 24.3958 92.206 24.142C92.5166 23.8845 92.7476 23.5398 92.8991 23.108C93.0545 22.6761 93.1321 22.1951 93.1321 21.6648C93.1321 21.1307 93.0545 20.6477 92.8991 20.2159C92.7476 19.7803 92.5166 19.4337 92.206 19.1761C91.8954 18.9186 91.509 18.7898 91.0469 18.7898C90.5734 18.7898 90.1795 18.9186 89.8651 19.1761C89.5545 19.4337 89.3215 19.7803 89.1662 20.2159C89.0147 20.6477 88.9389 21.1307 88.9389 21.6648C88.9389 22.1951 89.0147 22.6761 89.1662 23.108C89.3215 23.5398 89.5545 23.8845 89.8651 24.142C90.1795 24.3958 90.5734 24.5227 91.0469 24.5227ZM96.9631 26V17.2727H98.9574V18.7273H99.0483C99.2074 18.2235 99.4801 17.8352 99.8665 17.5625C100.257 17.286 100.702 17.1477 101.202 17.1477C101.315 17.1477 101.442 17.1534 101.582 17.1648C101.726 17.1723 101.846 17.1856 101.94 17.2045V19.0966C101.853 19.0663 101.715 19.0398 101.526 19.017C101.34 18.9905 101.16 18.9773 100.986 18.9773C100.611 18.9773 100.274 19.0587 99.9744 19.2216C99.679 19.3807 99.446 19.6023 99.2756 19.8864C99.1051 20.1705 99.0199 20.4981 99.0199 20.8693V26H96.9631ZM103.307 26V17.2727H105.273V18.7557H105.375C105.557 18.2557 105.858 17.8655 106.278 17.5852C106.699 17.3011 107.201 17.1591 107.784 17.1591C108.375 17.1591 108.873 17.303 109.278 17.5909C109.688 17.875 109.975 18.2633 110.142 18.7557H110.233C110.426 18.2708 110.752 17.8845 111.21 17.5966C111.672 17.3049 112.22 17.1591 112.852 17.1591C113.655 17.1591 114.311 17.4129 114.818 17.9205C115.326 18.428 115.58 19.1686 115.58 20.142V26H113.517V20.4602C113.517 19.9186 113.373 19.5227 113.085 19.2727C112.797 19.0189 112.445 18.892 112.028 18.892C111.532 18.892 111.144 19.0473 110.864 19.358C110.587 19.6648 110.449 20.0644 110.449 20.5568V26H108.432V20.375C108.432 19.9242 108.295 19.5644 108.023 19.2955C107.754 19.0265 107.402 18.892 106.966 18.892C106.67 18.892 106.402 18.9678 106.159 19.1193C105.917 19.267 105.723 19.4773 105.58 19.75C105.436 20.0189 105.364 20.3333 105.364 20.6932V26H103.307Z" fill="#9FB5D1"/>
<path d="M10.75 19.25H1M5.875 14.75V23.75V14.75Z" stroke="#9FB5D1" stroke-width="2" stroke-linecap="round" stroke-linejoin="round"/>
</svg>
