<svg width="112" height="112" viewBox="0 0 112 112" fill="none" xmlns="http://www.w3.org/2000/svg">
<ellipse cx="55.4955" cy="55" rx="55.4955" ry="55" fill="#527AF5"/>
<path fill-rule="evenodd" clip-rule="evenodd" d="M93.8887 31.8457C94.9196 32.8677 95.4987 34.2537 95.4987 35.6988C95.4987 37.144 94.9196 38.53 93.8887 39.552L49.8959 83.152C48.8646 84.1737 47.4662 84.7477 46.008 84.7477C44.5498 84.7477 43.1514 84.1737 42.1201 83.152L20.1237 61.352C19.122 60.3241 18.5678 58.9474 18.5803 57.5185C18.5928 56.0895 19.1711 54.7226 20.1907 53.7121C21.2103 52.7016 22.5895 52.1284 24.0314 52.116C25.4732 52.1036 26.8623 52.6529 27.8995 53.6457L46.008 71.5925L86.1129 31.8457C87.1442 30.824 88.5426 30.25 90.0008 30.25C91.459 30.25 92.8574 30.824 93.8887 31.8457Z" fill="white"/>
</svg>
