<svg width="24" height="24" viewBox="0 0 24 24" fill="none" xmlns="http://www.w3.org/2000/svg">
<circle cx="12" cy="12" r="12" fill="#41DB65"/>
<path fill-rule="evenodd" clip-rule="evenodd" d="M17.767 8.79619C17.9164 8.94086 18.0003 9.13705 18.0003 9.34161C18.0003 9.54617 17.9164 9.74236 17.767 9.88703L11.394 16.0587C11.2446 16.2034 11.042 16.2846 10.8308 16.2846C10.6195 16.2846 10.417 16.2034 10.2676 16.0587L7.08105 12.9729C6.93593 12.8274 6.85564 12.6325 6.85745 12.4302C6.85927 12.228 6.94305 12.0345 7.09075 11.8914C7.23845 11.7484 7.43826 11.6673 7.64713 11.6655C7.856 11.6637 8.05723 11.7415 8.20748 11.882L10.8308 14.4225L16.6406 8.79619C16.79 8.65156 16.9926 8.57031 17.2038 8.57031C17.4151 8.57031 17.6176 8.65156 17.767 8.79619Z" fill="white"/>
</svg>
