<svg width="24" height="27" viewBox="0 0 24 27" fill="none" xmlns="http://www.w3.org/2000/svg">
<path d="M19.5433 19.2089L13.886 24.8663C13.6386 25.1139 13.3448 25.3104 13.0214 25.4444C12.698 25.5785 12.3514 25.6475 12.0013 25.6475C11.6513 25.6475 11.3046 25.5785 10.9812 25.4444C10.6579 25.3104 10.3641 25.1139 10.1167 24.8663L4.45799 19.2089C2.96628 17.7172 1.95044 15.8165 1.53891 13.7474C1.12737 11.6783 1.33864 9.53363 2.14599 7.58458C2.95334 5.63554 4.32052 3.96966 6.07463 2.79762C7.82874 1.62558 9.89101 1 12.0007 1C14.1103 1 16.1726 1.62558 17.9267 2.79762C19.6808 3.96966 21.048 5.63554 21.8553 7.58458C22.6627 9.53363 22.8739 11.6783 22.4624 13.7474C22.0509 15.8165 21.035 17.7172 19.5433 19.2089V19.2089Z" stroke="#5081F0" stroke-width="1.5" stroke-linecap="round" stroke-linejoin="round"/>
<path d="M16 11.666C16 12.7269 15.5786 13.7443 14.8284 14.4944C14.0783 15.2446 13.0609 15.666 12 15.666C10.9391 15.666 9.92172 15.2446 9.17157 14.4944C8.42143 13.7443 8 12.7269 8 11.666C8 10.6051 8.42143 9.58773 9.17157 8.83759C9.92172 8.08744 10.9391 7.66602 12 7.66602C13.0609 7.66602 14.0783 8.08744 14.8284 8.83759C15.5786 9.58773 16 10.6051 16 11.666V11.666Z" stroke="#5081F0" stroke-width="1.5" stroke-linecap="round" stroke-linejoin="round"/>
</svg>
