<svg width="50" height="49" viewBox="0 0 50 49" fill="none" xmlns="http://www.w3.org/2000/svg">
<path d="M0.0205855 24.5788C0.0205855 18.2119 0.0205855 11.847 0.0205855 5.48402C0.0205855 1.79138 1.82016 0.00528715 5.51339 0.00234949C14.9229 0.00234949 24.3325 -0.012337 33.7567 0.0317279C34.3977 0.0317279 35.0387 0.454748 35.6797 0.680947C35.3857 1.34192 35.2504 2.1674 34.7711 2.64036C29.6371 7.7137 31.8307 6.92053 24.5677 6.97341C19.5424 7.00866 14.5201 6.97341 9.49479 6.97341C7.50409 6.97341 7.01597 7.48456 7.01597 9.51742C7.01597 19.4584 7.01597 29.4005 7.01597 39.3434C7.01597 41.3792 7.56879 41.9345 9.63595 41.9345C19.5395 41.9345 29.4391 41.9345 39.3348 41.9345C41.3049 41.9345 41.8577 41.3704 41.8606 39.4081C41.8606 33.1391 41.8812 26.8702 41.8606 20.6071C41.8606 19.1941 42.2458 18.0396 43.2662 17.0554C44.3924 15.9715 45.4157 14.7788 46.5683 13.7241C46.9388 13.3834 47.6651 13.0779 48.0386 13.2218C48.412 13.3658 48.7943 14.1031 48.7972 14.5849C48.8384 24.4769 48.8384 34.3671 48.7972 44.2552C48.7972 47.1047 46.7389 48.9555 43.7278 48.979C39.7788 49.0142 35.8268 48.979 31.8748 48.979C23.1435 48.979 14.4123 48.979 5.681 48.979C1.71724 48.979 0.00294048 47.2369 0 43.2241L0.0205855 24.5788Z" fill="white"/>
<path d="M43.5256 10.3572L20.784 33.7762C19.0991 32.0988 17.5259 30.5272 15.7852 28.7969L38.6944 5.39844C40.3264 7.06409 41.8672 8.65336 43.5256 10.3572Z" fill="white"/>
<path d="M45.3248 8.55375L40.373 3.69193C41.5022 2.652 42.5784 1.23899 43.9987 0.442881C46.107 -0.732182 46.8392 1.61794 48.0889 2.57562C48.9416 3.22484 49.3944 4.22952 48.6593 5.13432C47.6331 6.41514 46.3804 7.49326 45.3248 8.55375Z" fill="white"/>
<path d="M18.9314 35.5903C18.1551 35.8841 17.3377 36.2043 16.4967 36.454C15.437 36.7939 14.3566 37.0657 13.2622 37.2677C12.9211 37.3235 12.1566 36.8711 12.1772 36.7742C12.6094 34.6209 13.1299 32.4852 13.6239 30.3789L18.9314 35.5903Z" fill="white"/>
</svg>
