<svg width="112" height="112" viewBox="0 0 112 112" fill="none" xmlns="http://www.w3.org/2000/svg">
<ellipse cx="55.4955" cy="55" rx="55.4955" ry="55" fill="#48D380"/>
<path fill-rule="evenodd" clip-rule="evenodd" d="M93.8892 31.8457C94.9201 32.8677 95.4992 34.2537 95.4992 35.6988C95.4992 37.144 94.9201 38.53 93.8892 39.552L49.8964 83.152C48.8651 84.1737 47.4667 84.7477 46.0085 84.7477C44.5503 84.7477 43.1519 84.1737 42.1206 83.152L20.1242 61.352C19.1225 60.3241 18.5682 58.9474 18.5808 57.5185C18.5933 56.0895 19.1716 54.7226 20.1912 53.7121C21.2108 52.7016 22.59 52.1284 24.0319 52.116C25.4737 52.1036 26.8628 52.6529 27.9 53.6457L46.0085 71.5925L86.1134 31.8457C87.1447 30.824 88.5431 30.25 90.0013 30.25C91.4594 30.25 92.8579 30.824 93.8892 31.8457Z" fill="white"/>
</svg>
