<svg width="138" height="132" viewBox="0 0 138 132" fill="none" xmlns="http://www.w3.org/2000/svg">
<g clip-path="url(#clip0_1039_5183)">
<path d="M138 0H0V131.705H138V0Z" fill="#89E3FE"/>
<path d="M54.23 89.712C54.23 89.712 68.8915 81.4224 83.0064 89.2962L78.9289 99.8638L59.5567 98.963L54.23 89.712Z" fill="#334D9B"/>
<path d="M113.926 112.433C112.537 107.253 108.182 104.213 105.484 102.697C104.174 102.004 100.852 100.349 100.852 100.349L82.9369 90.752L72.3529 113.403L70.6265 120.584L71.3205 131.775C91.8639 131.498 116.693 132.399 116.693 131.775C116.762 128.18 113.926 112.442 113.926 112.442V112.433Z" fill="white"/>
<path d="M24.1439 112.433C25.5233 107.253 29.887 104.213 32.5851 102.697C33.8951 102.004 37.2177 100.349 37.2177 100.349L55.1325 90.752L65.7165 113.403L67.4429 120.584L74.2184 131.775C53.675 131.498 21.2983 132.399 21.2983 131.775C21.2983 128.18 24.1352 112.442 24.1352 112.442L24.1439 112.433Z" fill="white"/>
<path d="M93.4517 96.9619L83.2147 91.2276C83.2147 91.2276 80.8637 90.0496 80.3779 88.8109C78.8597 85.2162 79.7532 77.0046 79.7532 77.0046L72.2143 72.7256L72.4225 69.2002L69.2386 70.9932L66.0547 69.2002L66.2629 72.7256L58.724 77.0046C58.724 77.0046 59.6262 85.7792 57.9606 89.1574C57.4227 89.7118 56.8501 90.2142 56.2342 90.6733L45.1643 96.8926L44.4009 113.749L57.3359 124.871H81.3408L94.2759 113.749L93.4431 96.9619H93.4517Z" fill="white"/>
<path d="M69.5857 124.941L65.7771 114.512L56.2342 90.8213L53.0503 92.545L71.3815 131.775C72.6915 131.775 74.9124 131.775 76.1529 131.706L70.6874 120.584L69.577 124.932L69.5857 124.941Z" fill="#334D9B"/>
<path d="M68.6918 117.89C69.4553 119.129 70.1233 120.419 70.6958 121.762L85.4267 91.3757C84.6199 90.3536 83.5788 89.548 82.3816 89.0283L68.6831 117.76C68.6369 117.806 68.6369 117.853 68.6831 117.899L68.6918 117.89Z" fill="#334D9B"/>
<path d="M65.7856 114.512L69.5941 124.941L70.6352 120.593L55.5573 89.0283C54.3514 89.5221 53.293 90.3363 52.5122 91.3757L53.0674 92.4845L56.2513 90.7607L65.7943 114.521L65.7856 114.512Z" fill="#334D9B"/>
<path d="M58.9323 82.5312C69.0305 91.505 78.2352 83.432 79.4757 82.6698C79.4757 79.4215 79.7534 76.5891 79.7534 76.5891L72.2144 71.6171L72.4226 67.6152L69.2387 69.6854L66.0549 67.6152L66.2631 71.6171L58.7241 76.5891C58.9237 78.564 58.9931 80.5476 58.9323 82.5312Z" fill="#89E3FE"/>
<path d="M92.4802 59.4648C92.4802 73.757 81.8962 82.9474 68.8917 82.9474C55.8872 82.9474 45.3032 73.6964 45.3032 59.4648C45.3032 45.2331 55.8872 33.5654 68.8917 33.5654C81.8962 33.5654 92.4802 45.1725 92.4802 59.4648Z" fill="white"/>
<path d="M47.1075 69.0616C50.0832 69.0616 52.5037 65.7874 52.5037 61.7422C52.5037 57.6971 50.0919 54.4229 47.1075 54.4229C44.1232 54.4229 41.7114 57.6971 41.7114 61.7422C41.7114 65.7874 44.1232 69.0616 47.1075 69.0616Z" fill="white"/>
<path d="M90.7535 69.0616C93.7292 69.0616 96.1497 65.7874 96.1497 61.7422C96.1497 57.6971 93.7379 54.4229 90.7535 54.4229C87.7692 54.4229 85.3574 57.6971 85.3574 61.7422C85.3574 65.7874 87.7692 69.0616 90.7535 69.0616Z" fill="white"/>
<path d="M88.1945 34.2585C88.1945 34.2585 83.076 18.6496 62.602 23.1365C62.602 23.1365 46.9689 26.4541 43.0997 36.5366C43.8284 36.2161 44.6005 35.9823 45.3813 35.8437C43.5508 39.5077 42.5791 43.5355 42.5444 47.6326C42.5097 51.7211 43.4033 55.7749 45.1731 59.4649C45.1731 59.4649 51.671 48.828 51.402 44.6183C50.6733 45.8656 50.0747 47.1909 49.6062 48.5508C49.6062 48.5508 57.631 46.5499 61.1619 42.678C61.1619 42.678 59.6437 46.5499 57.0844 47.0956C57.0844 47.0956 79.2849 47.4421 83.9956 40.7377L88.2119 34.2499L88.1945 34.2585Z" fill="#334D9B"/>
<path d="M87.2228 34.0504L84.1083 40.339C84.1083 40.339 81.0633 43.7259 89.8515 58.0874C90.0597 58.3646 90.6149 58.9883 90.8925 58.919C91.7948 58.5725 93.5212 57.4031 93.8682 52.769C94.1458 49.0356 94.4928 43.3794 93.313 39.3689C93.3824 39.2996 90.4761 32.5346 87.2228 34.0504Z" fill="#334D9B"/>
</g>
<defs>
<clipPath id="clip0_1039_5183">
<rect width="138" height="132" rx="66" fill="white"/>
</clipPath>
</defs>
</svg>
