<svg width="46" height="46" viewBox="0 0 46 46" fill="none" xmlns="http://www.w3.org/2000/svg">
<rect width="46" height="46" rx="8" fill="#76F2B7"/>
<path d="M40.9749 10.8783C40.8194 9.84495 40.3059 8.89557 39.5206 8.18967C38.7353 7.48377 37.7261 7.06437 36.6625 7.00195H36.0339C35.1998 7.07644 34.3989 7.35834 33.707 7.82098C33.0151 8.28361 32.4551 8.91168 32.0799 9.64574C30.8226 11.5747 30.0683 13.7193 28.987 15.7098C28.1698 16.9978 26.9126 18.6063 25.1713 18.2735C24.8098 18.2035 24.4691 18.0543 24.1747 17.837C23.8803 17.6197 23.6397 17.3401 23.4711 17.0189C23.3024 16.6977 23.21 16.3433 23.2007 15.9821C23.1914 15.621 23.2655 15.2624 23.4174 14.9333C23.5172 14.6992 23.6673 14.489 23.8575 14.3171C24.2764 13.9988 24.5993 13.575 24.7919 13.091C24.9846 12.607 25.0396 12.0808 24.9513 11.5685C24.8521 10.9395 24.5485 10.3587 24.0858 9.91226C23.6231 9.46583 23.0258 9.17762 22.3827 9.09042C21.7397 9.00322 21.085 9.12169 20.5161 9.42823C19.9471 9.73477 19.4942 10.213 19.2245 10.792C18.7531 11.8273 19.0674 13.0291 18.5959 14.0829C18.0635 15.7793 16.9135 17.2247 15.3648 18.1441C14.4219 18.7727 13.1646 18.8898 12.3474 19.8018C9.44318 22.6675 12.0205 27.6099 16.1191 26.9321C16.781 26.8409 17.4113 26.5966 17.9578 26.2194C18.5044 25.8422 18.9515 25.3429 19.2623 24.7628C19.5342 24.3125 19.9586 23.97 20.4615 23.7948C20.9645 23.6196 21.5142 23.6227 22.015 23.8037C22.5158 23.9847 22.9361 24.3321 23.2026 24.7854C23.4692 25.2388 23.5652 25.7694 23.474 26.285C22.7197 28.5405 20.9092 30.2599 20.004 32.4476C19.3314 33.8774 18.6965 35.455 19.0862 37.045C19.3514 38.2421 20.0536 39.303 21.0608 40.0279C22.0681 40.7529 23.3108 41.092 24.5553 40.9814C25.7997 40.8709 26.9601 40.3183 27.8179 39.4276C28.6758 38.5369 29.1721 37.3696 29.2133 36.1453C28.9677 32.1925 29.7032 28.2403 31.3569 24.6272C32.8194 21.4925 34.9426 18.697 37.5866 16.4247C38.1272 15.9563 38.7055 15.5373 39.265 15.0935C39.7682 14.6999 40.1824 14.2078 40.4811 13.6487C40.7798 13.0895 40.9565 12.4756 41 11.8458V11.2295C40.9811 11.1371 40.9874 11.0139 40.9749 10.8783ZM11.4296 17.3121C10.7128 17.4623 9.97201 17.4656 9.25382 17.3218C8.53562 17.178 7.8555 16.8901 7.25617 16.4764C6.65683 16.0626 6.15121 15.5319 5.77106 14.9174C5.39091 14.303 5.14443 13.6182 5.04709 12.9059C4.94976 12.1937 5.00367 11.4694 5.20545 10.7785C5.40722 10.0876 5.7525 9.44514 6.21961 8.89132C6.68673 8.3375 7.26558 7.88433 7.91984 7.56025C8.57409 7.23618 9.28962 7.0482 10.0215 7.00812H10.6501C16.8861 7.54427 17.477 15.9871 11.417 17.3183L11.4296 17.3121Z" fill="url(#paint0_linear_106_10393)"/>
<defs>
<linearGradient id="paint0_linear_106_10393" x1="14.8682" y1="-1.44091" x2="44.2516" y2="49.5963" gradientUnits="userSpaceOnUse">
<stop stop-color="white"/>
<stop offset="1" stop-color="#CAD7FF"/>
</linearGradient>
</defs>
</svg>
