<svg width="125" height="27" viewBox="0 0 125 27" fill="none" xmlns="http://www.w3.org/2000/svg">
<g clip-path="url(#clip0_24_13)">
<path d="M13.4765 6.66797C11.3665 6.66797 9.61967 8.19468 9.34704 10.1675C8.84032 10.3312 8.39848 10.6513 8.0849 11.0817C7.77133 11.5121 7.60212 12.0308 7.60156 12.5633V17.9791C7.60226 18.6465 7.8677 19.2864 8.33965 19.7583C8.8116 20.2303 9.4515 20.4957 10.1189 20.4964H16.7967C17.4641 20.4957 18.104 20.2303 18.576 19.7583C19.0479 19.2864 19.3134 18.6465 19.314 17.9791V12.5633C19.3132 12.0377 19.1482 11.5254 18.8419 11.0982C18.5357 10.671 18.1036 10.3501 17.606 10.1806C17.3406 8.20125 15.5905 6.66797 13.4765 6.66797ZM13.4765 8.50738C14.5165 8.50738 15.3994 9.15512 15.697 10.0459H11.2554C11.553 9.15512 12.4359 8.50738 13.4765 8.50738ZM17.4746 17.9791C17.4745 18.1588 17.403 18.3311 17.2759 18.4583C17.1488 18.5854 16.9764 18.6568 16.7967 18.657H10.1189C9.93919 18.6568 9.76685 18.5854 9.63974 18.4583C9.51264 18.3311 9.44115 18.1588 9.44098 17.9791V12.5633C9.44115 12.3835 9.51264 12.2112 9.63974 12.0841C9.76685 11.957 9.93919 11.8855 10.1189 11.8853H16.7967C16.9764 11.8855 17.1488 11.957 17.2759 12.0841C17.403 12.2112 17.4745 12.3835 17.4746 12.5633V17.9791Z" fill="white"/>
<path d="M26.0803 12.5804C25.8364 12.5804 25.6024 12.6773 25.43 12.8498C25.2575 13.0223 25.1606 13.2562 25.1606 13.5001C25.1606 19.9296 19.9294 25.1607 13.5 25.1607C7.07058 25.1607 1.83942 19.9296 1.83942 13.5001C1.83942 7.07073 7.07058 1.83957 13.5 1.83957C15.0467 1.84093 16.5777 2.14941 18.0043 2.74709C19.4308 3.34477 20.7245 4.21977 21.8102 5.32132H20.4307C20.1867 5.32132 19.9528 5.41821 19.7803 5.59069C19.6078 5.76317 19.5109 5.9971 19.5109 6.24102C19.5109 6.48495 19.6078 6.71888 19.7803 6.89136C19.9528 7.06384 20.1867 7.16073 20.4307 7.16073H23.6825C23.9264 7.16073 24.1603 7.06384 24.3328 6.89136C24.5053 6.71888 24.6022 6.48495 24.6022 6.24102V2.9892C24.6022 2.74528 24.5053 2.51134 24.3328 2.33887C24.1603 2.16639 23.9264 2.06949 23.6825 2.06949C23.4386 2.06949 23.2046 2.16639 23.0321 2.33887C22.8597 2.51134 22.7628 2.74528 22.7628 2.9892V3.6803C20.2561 1.31957 16.9433 0.00386306 13.5 0.00146484C6.05628 0.00146484 0 6.05774 0 13.5015C0 20.9452 6.05628 27.0015 13.5 27.0015C20.9437 27.0015 27 20.9452 27 13.5015C27.0002 13.3806 26.9765 13.2608 26.9304 13.1491C26.8842 13.0374 26.8165 12.9358 26.7311 12.8503C26.6457 12.7647 26.5442 12.6969 26.4326 12.6506C26.3209 12.6043 26.2012 12.5804 26.0803 12.5804V12.5804Z" fill="white"/>
</g>
<g clip-path="url(#clip1_24_13)">
<path d="M107.048 13.2061C108.022 13.2061 108.811 12.4112 108.811 11.4307C108.811 10.4502 108.022 9.65535 107.048 9.65535C106.075 9.65535 105.286 10.4502 105.286 11.4307C105.286 12.4112 106.075 13.2061 107.048 13.2061Z" fill="white"/>
<path d="M113.231 13.1132C114.163 12.8289 114.69 11.8378 114.407 10.8994C114.125 9.96098 113.141 9.43065 112.209 9.71487C111.278 9.99909 110.751 10.9902 111.033 11.9286C111.316 12.8671 112.3 13.3974 113.231 13.1132Z" fill="white"/>
<path d="M118.896 13.1121C119.828 12.8279 120.355 11.8368 120.072 10.8984C119.79 9.95994 118.806 9.42961 117.874 9.71383C116.943 9.99805 116.416 10.9892 116.698 11.9276C116.981 12.866 117.965 13.3963 118.896 13.1121Z" fill="white"/>
<path d="M120.349 2H105.651C104.418 2.00161 103.236 2.49565 102.364 3.37376C101.492 4.25187 101.002 5.44238 101 6.68422V16.5144C100.997 17.4956 101.327 18.4484 101.935 19.2147C102.543 19.9811 103.393 20.5148 104.345 20.7274V24.683C104.344 24.9298 104.412 25.1718 104.542 25.381C104.672 25.5902 104.858 25.7581 105.079 25.8653C105.298 25.9746 105.545 26.0188 105.789 25.9928C106.032 25.9668 106.264 25.8716 106.456 25.7183L112.655 20.831H120.349C121.582 20.8296 122.764 20.3356 123.636 19.4574C124.508 18.5793 124.999 17.3887 125 16.1468V6.68422C124.998 5.44238 124.508 4.25187 123.636 3.37376C122.764 2.49565 121.582 2.00161 120.349 2ZM123.118 16.1468C123.117 16.8861 122.825 17.5949 122.306 18.1176C121.787 18.6404 121.083 18.9344 120.349 18.9351H112.456C112.164 18.9351 111.88 19.0335 111.649 19.2147L106.225 23.4913V20.2324C106.225 19.905 106.104 19.5893 105.885 19.3471C105.667 19.1049 105.366 18.9536 105.042 18.9229C104.449 18.8649 103.898 18.5858 103.498 18.1403C103.098 17.6948 102.878 17.115 102.88 16.5144V6.68422C102.881 5.94493 103.173 5.23612 103.692 4.71336C104.211 4.19061 104.915 3.89661 105.649 3.89589H120.347C121.081 3.89661 121.785 4.19061 122.304 4.71336C122.823 5.23612 123.115 5.94493 123.116 6.68422L123.118 16.1468Z" fill="white"/>
</g>
<g clip-path="url(#clip2_24_13)">
<path d="M74.709 3H56.291C55.4185 3.00095 54.5819 3.34451 53.965 3.95531C53.348 4.5661 53.001 5.39423 53 6.25802V18.742C53.001 19.6058 53.348 20.4339 53.965 21.0447C54.5819 21.6555 55.4185 21.999 56.291 22H74.709C75.5815 21.999 76.418 21.6555 77.035 21.0447C77.652 20.4339 77.999 19.6058 78 18.742V6.25802C77.999 5.39423 77.652 4.5661 77.035 3.95531C76.418 3.34451 75.5815 3.00095 74.709 3ZM56.291 5.01157H74.709C74.9266 5.01172 75.1405 5.06782 75.3296 5.17435C75.5188 5.28089 75.6768 5.43423 75.7881 5.61935L65.6284 12.0851C65.5388 12.1414 65.4349 12.1713 65.3287 12.1713C65.2226 12.1713 65.1187 12.1414 65.029 12.0851L55.3171 6.00011L55.0305 6.44841V6.26018C55.0304 6.09625 55.0629 5.9339 55.1262 5.78241C55.1895 5.63093 55.2824 5.49328 55.3994 5.37732C55.5165 5.26137 55.6555 5.16938 55.8084 5.10663C55.9614 5.04387 56.1254 5.01157 56.291 5.01157V5.01157ZM74.709 19.9906H56.291C55.9572 19.9902 55.6372 19.8588 55.4011 19.6251C55.1651 19.3914 55.0323 19.0746 55.0319 18.7441V8.19919L63.9441 13.7827C64.3613 14.0429 64.8447 14.1802 65.3377 14.1786C65.8308 14.1769 66.3132 14.0364 66.7286 13.7734L75.9681 7.89602V18.7441C75.9677 19.0746 75.8349 19.3914 75.5989 19.6251C75.3628 19.8588 75.0428 19.9902 74.709 19.9906V19.9906Z" fill="white"/>
</g>
<defs>
<clipPath id="clip0_24_13">
<rect width="27" height="27" fill="white"/>
</clipPath>
<clipPath id="clip1_24_13">
<rect width="24" height="24" fill="white" transform="translate(101 2)"/>
</clipPath>
<clipPath id="clip2_24_13">
<rect width="25" height="19" fill="white" transform="translate(53 3)"/>
</clipPath>
</defs>
</svg>
