<svg width="226" height="38" viewBox="0 0 226 38" fill="none" xmlns="http://www.w3.org/2000/svg">
<rect x="1" y="1" width="224" height="36" rx="8" stroke="white" stroke-width="2"/>
<path d="M17.1378 26V12.9091H22.3026C23.2912 12.9091 24.1349 13.0859 24.8338 13.4396C25.5369 13.7891 26.0717 14.2855 26.4382 14.929C26.8089 15.5682 26.9943 16.3203 26.9943 17.1854C26.9943 18.0547 26.8068 18.8026 26.4318 19.429C26.0568 20.0511 25.5135 20.5284 24.8018 20.8608C24.0945 21.1932 23.2379 21.3594 22.2322 21.3594H18.7741V19.1349H21.7848C22.3132 19.1349 22.7521 19.0625 23.1016 18.9176C23.451 18.7727 23.7109 18.5554 23.8814 18.2656C24.0561 17.9759 24.1435 17.6158 24.1435 17.1854C24.1435 16.7507 24.0561 16.3842 23.8814 16.0859C23.7109 15.7876 23.4489 15.5618 23.0952 15.4084C22.7457 15.2507 22.3047 15.1719 21.772 15.1719H19.9055V26H17.1378ZM24.2074 20.0426L27.4609 26H24.4055L21.2223 20.0426H24.2074ZM33.2154 26.1918C32.2054 26.1918 31.3361 25.9872 30.6074 25.5781C29.883 25.1648 29.3248 24.581 28.9327 23.8267C28.5407 23.0682 28.3446 22.1712 28.3446 21.1357C28.3446 20.1257 28.5407 19.2393 28.9327 18.4766C29.3248 17.7138 29.8766 17.1193 30.5882 16.6932C31.3042 16.267 32.1436 16.054 33.1067 16.054C33.7544 16.054 34.3574 16.1584 34.9157 16.3672C35.4782 16.5717 35.9682 16.8807 36.3858 17.294C36.8077 17.7074 37.1358 18.2273 37.3702 18.8537C37.6046 19.4759 37.7218 20.2045 37.7218 21.0398V21.7876H29.4313V20.1001H35.1586C35.1586 19.7081 35.0733 19.3608 34.9029 19.0582C34.7324 18.7557 34.4959 18.5192 34.1934 18.3487C33.8951 18.174 33.5478 18.0866 33.1515 18.0866C32.7381 18.0866 32.3716 18.1825 32.052 18.3743C31.7367 18.5618 31.4895 18.8153 31.3105 19.1349C31.1316 19.4503 31.04 19.8018 31.0357 20.1896V21.794C31.0357 22.2798 31.1252 22.6996 31.3042 23.0533C31.4874 23.407 31.7452 23.6797 32.0776 23.8714C32.41 24.0632 32.8042 24.1591 33.2601 24.1591C33.5627 24.1591 33.8397 24.1165 34.0911 24.0312C34.3425 23.946 34.5577 23.8182 34.7367 23.6477C34.9157 23.4773 35.052 23.2685 35.1458 23.0213L37.6642 23.1875C37.5364 23.7926 37.2743 24.321 36.878 24.7727C36.486 25.2202 35.9789 25.5696 35.3567 25.821C34.7388 26.0682 34.025 26.1918 33.2154 26.1918ZM47.6678 18.9815L45.1749 19.1349C45.1323 18.9219 45.0407 18.7301 44.9 18.5597C44.7594 18.3849 44.574 18.2464 44.3439 18.1442C44.1181 18.0376 43.8475 17.9844 43.5321 17.9844C43.1103 17.9844 42.7544 18.0739 42.4647 18.2528C42.1749 18.4276 42.03 18.6619 42.03 18.956C42.03 19.1903 42.1238 19.3885 42.3113 19.5504C42.4988 19.7124 42.8205 19.8423 43.2765 19.9403L45.0534 20.2983C46.008 20.4943 46.7196 20.8097 47.1884 21.2443C47.6571 21.679 47.8915 22.25 47.8915 22.9574C47.8915 23.6009 47.7019 24.1655 47.3226 24.6513C46.9476 25.1371 46.432 25.5163 45.7757 25.7891C45.1238 26.0575 44.3716 26.1918 43.5194 26.1918C42.2196 26.1918 41.1841 25.9212 40.4128 25.38C39.6458 24.8345 39.1962 24.093 39.0641 23.1555L41.7424 23.0149C41.8233 23.4112 42.0194 23.7138 42.3304 23.9226C42.6415 24.1271 43.04 24.2294 43.5257 24.2294C44.003 24.2294 44.3865 24.1378 44.6763 23.9545C44.9703 23.767 45.1195 23.5263 45.1238 23.2322C45.1195 22.9851 45.0151 22.7827 44.8105 22.625C44.606 22.4631 44.2907 22.3395 43.8645 22.2543L42.1642 21.9155C41.2054 21.7237 40.4917 21.3913 40.0229 20.9183C39.5584 20.4453 39.3262 19.8423 39.3262 19.1094C39.3262 18.4787 39.4966 17.9354 39.8375 17.4794C40.1827 17.0234 40.6664 16.6719 41.2885 16.4247C41.915 16.1776 42.6479 16.054 43.4874 16.054C44.7275 16.054 45.7033 16.3161 46.415 16.8402C47.1309 17.3643 47.5485 18.0781 47.6678 18.9815ZM54.0806 26.1918C53.0707 26.1918 52.2013 25.9872 51.4727 25.5781C50.7482 25.1648 50.19 24.581 49.7979 23.8267C49.4059 23.0682 49.2099 22.1712 49.2099 21.1357C49.2099 20.1257 49.4059 19.2393 49.7979 18.4766C50.19 17.7138 50.7418 17.1193 51.4535 16.6932C52.1694 16.267 53.0089 16.054 53.9719 16.054C54.6197 16.054 55.2227 16.1584 55.7809 16.3672C56.3434 16.5717 56.8335 16.8807 57.2511 17.294C57.6729 17.7074 58.0011 18.2273 58.2354 18.8537C58.4698 19.4759 58.587 20.2045 58.587 21.0398V21.7876H50.2965V20.1001H56.0238C56.0238 19.7081 55.9386 19.3608 55.7681 19.0582C55.5977 18.7557 55.3612 18.5192 55.0586 18.3487C54.7603 18.174 54.413 18.0866 54.0167 18.0866C53.6033 18.0866 53.2369 18.1825 52.9173 18.3743C52.6019 18.5618 52.3548 18.8153 52.1758 19.1349C51.9968 19.4503 51.9052 19.8018 51.9009 20.1896V21.794C51.9009 22.2798 51.9904 22.6996 52.1694 23.0533C52.3526 23.407 52.6104 23.6797 52.9428 23.8714C53.2752 24.0632 53.6694 24.1591 54.1254 24.1591C54.4279 24.1591 54.7049 24.1165 54.9563 24.0312C55.2077 23.946 55.4229 23.8182 55.6019 23.6477C55.7809 23.4773 55.9173 23.2685 56.011 23.0213L58.5295 23.1875C58.4016 23.7926 58.1396 24.321 57.7433 24.7727C57.3512 25.2202 56.8441 25.5696 56.2219 25.821C55.604 26.0682 54.8903 26.1918 54.0806 26.1918ZM63.087 20.3239V26H60.364V16.1818H62.9592V17.9141H63.0742C63.2915 17.343 63.6559 16.8913 64.1673 16.5589C64.6786 16.2223 65.2987 16.054 66.0273 16.054C66.7092 16.054 67.3036 16.2031 67.8107 16.5014C68.3178 16.7997 68.712 17.2259 68.9933 17.7798C69.2745 18.3295 69.4151 18.9858 69.4151 19.7486V26H66.6921V20.2344C66.6964 19.6335 66.543 19.1648 66.2319 18.8281C65.9208 18.4872 65.4925 18.3168 64.9471 18.3168C64.5806 18.3168 64.2567 18.3956 63.9755 18.5533C63.6985 18.7109 63.4812 18.9411 63.3235 19.2436C63.1701 19.5419 63.0913 19.902 63.087 20.3239ZM75.1792 26.1598C74.4334 26.1598 73.758 25.968 73.1529 25.5845C72.552 25.1967 72.0748 24.6278 71.7211 23.8778C71.3716 23.1236 71.1969 22.1989 71.1969 21.1037C71.1969 19.9787 71.378 19.0433 71.7402 18.2976C72.1025 17.5476 72.584 16.9872 73.1848 16.6165C73.79 16.2415 74.4526 16.054 75.1728 16.054C75.7225 16.054 76.1806 16.1477 76.5471 16.3352C76.9178 16.5185 77.2161 16.7486 77.4419 17.0256C77.6721 17.2983 77.8468 17.5668 77.9661 17.831H78.0492V12.9091H80.7658V26H78.0811V24.4276H77.9661C77.8382 24.7003 77.6571 24.9709 77.4228 25.2393C77.1926 25.5036 76.8922 25.723 76.5215 25.8977C76.155 26.0724 75.7076 26.1598 75.1792 26.1598ZM76.0421 23.9929C76.481 23.9929 76.8517 23.8736 77.1543 23.6349C77.4611 23.392 77.6955 23.0533 77.8574 22.6186C78.0236 22.1839 78.1067 21.6747 78.1067 21.0909C78.1067 20.5071 78.0257 20 77.8638 19.5696C77.7019 19.1392 77.4675 18.8068 77.1607 18.5724C76.8539 18.3381 76.481 18.2209 76.0421 18.2209C75.5946 18.2209 75.2175 18.3423 74.9107 18.5852C74.6039 18.8281 74.3716 19.1648 74.214 19.5952C74.0563 20.0256 73.9775 20.5241 73.9775 21.0909C73.9775 21.6619 74.0563 22.1669 74.214 22.6058C74.3759 23.0405 74.6081 23.3814 74.9107 23.6286C75.2175 23.8714 75.5946 23.9929 76.0421 23.9929ZM95.3077 12.9091H98.0755V21.4105C98.0755 22.3651 97.8475 23.2003 97.3915 23.9162C96.9398 24.6321 96.307 25.1903 95.4931 25.5909C94.6792 25.9872 93.731 26.1854 92.6486 26.1854C91.562 26.1854 90.6117 25.9872 89.7978 25.5909C88.9838 25.1903 88.351 24.6321 87.8993 23.9162C87.4476 23.2003 87.2218 22.3651 87.2218 21.4105V12.9091H89.9895V21.174C89.9895 21.6726 90.0982 22.1158 90.3155 22.5036C90.5371 22.8913 90.8482 23.196 91.2488 23.4176C91.6493 23.6392 92.1159 23.75 92.6486 23.75C93.1855 23.75 93.6522 23.6392 94.0485 23.4176C94.449 23.196 94.758 22.8913 94.9753 22.5036C95.1969 22.1158 95.3077 21.6726 95.3077 21.174V12.9091ZM108.471 18.9815L105.978 19.1349C105.935 18.9219 105.843 18.7301 105.703 18.5597C105.562 18.3849 105.377 18.2464 105.147 18.1442C104.921 18.0376 104.65 17.9844 104.335 17.9844C103.913 17.9844 103.557 18.0739 103.267 18.2528C102.978 18.4276 102.833 18.6619 102.833 18.956C102.833 19.1903 102.926 19.3885 103.114 19.5504C103.301 19.7124 103.623 19.8423 104.079 19.9403L105.856 20.2983C106.811 20.4943 107.522 20.8097 107.991 21.2443C108.46 21.679 108.694 22.25 108.694 22.9574C108.694 23.6009 108.505 24.1655 108.125 24.6513C107.75 25.1371 107.235 25.5163 106.578 25.7891C105.926 26.0575 105.174 26.1918 104.322 26.1918C103.022 26.1918 101.987 25.9212 101.216 25.38C100.449 24.8345 99.9989 24.093 99.8668 23.1555L102.545 23.0149C102.626 23.4112 102.822 23.7138 103.133 23.9226C103.444 24.1271 103.843 24.2294 104.328 24.2294C104.806 24.2294 105.189 24.1378 105.479 23.9545C105.773 23.767 105.922 23.5263 105.926 23.2322C105.922 22.9851 105.818 22.7827 105.613 22.625C105.409 22.4631 105.093 22.3395 104.667 22.2543L102.967 21.9155C102.008 21.7237 101.294 21.3913 100.826 20.9183C100.361 20.4453 100.129 19.8423 100.129 19.1094C100.129 18.4787 100.299 17.9354 100.64 17.4794C100.985 17.0234 101.469 16.6719 102.091 16.4247C102.718 16.1776 103.451 16.054 104.29 16.054C105.53 16.054 106.506 16.3161 107.218 16.8402C107.934 17.3643 108.351 18.0781 108.471 18.9815ZM114.883 26.1918C113.873 26.1918 113.004 25.9872 112.275 25.5781C111.551 25.1648 110.993 24.581 110.601 23.8267C110.209 23.0682 110.013 22.1712 110.013 21.1357C110.013 20.1257 110.209 19.2393 110.601 18.4766C110.993 17.7138 111.545 17.1193 112.256 16.6932C112.972 16.267 113.812 16.054 114.775 16.054C115.422 16.054 116.025 16.1584 116.584 16.3672C117.146 16.5717 117.636 16.8807 118.054 17.294C118.476 17.7074 118.804 18.2273 119.038 18.8537C119.273 19.4759 119.39 20.2045 119.39 21.0398V21.7876H111.099V20.1001H116.827C116.827 19.7081 116.741 19.3608 116.571 19.0582C116.4 18.7557 116.164 18.5192 115.861 18.3487C115.563 18.174 115.216 18.0866 114.819 18.0866C114.406 18.0866 114.04 18.1825 113.72 18.3743C113.405 18.5618 113.157 18.8153 112.979 19.1349C112.8 19.4503 112.708 19.8018 112.704 20.1896V21.794C112.704 22.2798 112.793 22.6996 112.972 23.0533C113.155 23.407 113.413 23.6797 113.746 23.8714C114.078 24.0632 114.472 24.1591 114.928 24.1591C115.231 24.1591 115.508 24.1165 115.759 24.0312C116.01 23.946 116.226 23.8182 116.405 23.6477C116.584 23.4773 116.72 23.2685 116.814 23.0213L119.332 23.1875C119.204 23.7926 118.942 24.321 118.546 24.7727C118.154 25.2202 117.647 25.5696 117.025 25.821C116.407 26.0682 115.693 26.1918 114.883 26.1918ZM121.167 26V16.1818H123.807V17.8949H123.909C124.088 17.2855 124.388 16.8253 124.81 16.5142C125.232 16.1989 125.718 16.0412 126.268 16.0412C126.404 16.0412 126.551 16.0497 126.709 16.0668C126.866 16.0838 127.005 16.1072 127.124 16.1371V18.5533C126.996 18.5149 126.819 18.4808 126.594 18.451C126.368 18.4212 126.161 18.4062 125.974 18.4062C125.573 18.4062 125.215 18.4936 124.9 18.6683C124.589 18.8388 124.341 19.0774 124.158 19.3842C123.979 19.6911 123.89 20.0447 123.89 20.4453V26H121.167ZM135.517 12.9091V26H132.749V12.9091H135.517ZM140.466 20.3239V26H137.743V16.1818H140.338V17.9141H140.453C140.67 17.343 141.035 16.8913 141.546 16.5589C142.058 16.2223 142.678 16.054 143.406 16.054C144.088 16.054 144.683 16.2031 145.19 16.5014C145.697 16.7997 146.091 17.2259 146.372 17.7798C146.653 18.3295 146.794 18.9858 146.794 19.7486V26H144.071V20.2344C144.075 19.6335 143.922 19.1648 143.611 18.8281C143.3 18.4872 142.871 18.3168 142.326 18.3168C141.96 18.3168 141.636 18.3956 141.354 18.5533C141.077 18.7109 140.86 18.9411 140.702 19.2436C140.549 19.5419 140.47 19.902 140.466 20.3239ZM157.742 16.1818L154.309 26H151.241L147.809 16.1818H150.685L152.724 23.2067H152.827L154.859 16.1818H157.742ZM159.135 26V16.1818H161.858V26H159.135ZM160.503 14.9162C160.099 14.9162 159.751 14.782 159.461 14.5135C159.176 14.2408 159.033 13.9148 159.033 13.5355C159.033 13.1605 159.176 12.8388 159.461 12.5703C159.751 12.2976 160.099 12.1612 160.503 12.1612C160.908 12.1612 161.253 12.2976 161.539 12.5703C161.829 12.8388 161.974 13.1605 161.974 13.5355C161.974 13.9148 161.829 14.2408 161.539 14.5135C161.253 14.782 160.908 14.9162 160.503 14.9162ZM169.262 16.1818V18.2273H163.349V16.1818H169.262ZM164.692 13.8295H167.415V22.983C167.415 23.2344 167.453 23.4304 167.53 23.571C167.607 23.7074 167.713 23.8033 167.849 23.8587C167.99 23.9141 168.152 23.9418 168.335 23.9418C168.463 23.9418 168.591 23.9311 168.719 23.9098C168.847 23.8842 168.945 23.8651 169.013 23.8523L169.441 25.8786C169.305 25.9212 169.113 25.9702 168.866 26.0256C168.619 26.0852 168.318 26.1214 167.964 26.1342C167.308 26.1598 166.733 26.0724 166.239 25.8722C165.749 25.6719 165.367 25.3608 165.094 24.9389C164.822 24.517 164.688 23.9844 164.692 23.3409V13.8295ZM175.405 26.1918C174.395 26.1918 173.526 25.9872 172.797 25.5781C172.072 25.1648 171.514 24.581 171.122 23.8267C170.73 23.0682 170.534 22.1712 170.534 21.1357C170.534 20.1257 170.73 19.2393 171.122 18.4766C171.514 17.7138 172.066 17.1193 172.778 16.6932C173.494 16.267 174.333 16.054 175.296 16.054C175.944 16.054 176.547 16.1584 177.105 16.3672C177.668 16.5717 178.158 16.8807 178.575 17.294C178.997 17.7074 179.325 18.2273 179.56 18.8537C179.794 19.4759 179.911 20.2045 179.911 21.0398V21.7876H171.621V20.1001H177.348C177.348 19.7081 177.263 19.3608 177.092 19.0582C176.922 18.7557 176.685 18.5192 176.383 18.3487C176.085 18.174 175.737 18.0866 175.341 18.0866C174.928 18.0866 174.561 18.1825 174.241 18.3743C173.926 18.5618 173.679 18.8153 173.5 19.1349C173.321 19.4503 173.229 19.8018 173.225 20.1896V21.794C173.225 22.2798 173.315 22.6996 173.494 23.0533C173.677 23.407 173.935 23.6797 174.267 23.8714C174.599 24.0632 174.994 24.1591 175.45 24.1591C175.752 24.1591 176.029 24.1165 176.281 24.0312C176.532 23.946 176.747 23.8182 176.926 23.6477C177.105 23.4773 177.241 23.2685 177.335 23.0213L179.854 23.1875C179.726 23.7926 179.464 24.321 179.067 24.7727C178.675 25.2202 178.168 25.5696 177.546 25.821C176.928 26.0682 176.214 26.1918 175.405 26.1918Z" fill="white"/>
<path d="M204.655 24.6281V20.7916C202.83 20.8583 201.026 20.576 199.304 21.2643C197.642 21.9281 196.481 23.0629 195.579 24.4459C195.309 24.8823 195.064 25.3312 194.846 25.7906C194.742 25.998 194.644 26.2299 194.351 26.116C194.212 26.0623 194.081 25.8573 194.064 25.7092C193.809 23.9195 194.345 22.2828 195.201 20.6956C196.949 17.4497 199.952 16.0001 203.801 15.7414C204.071 15.7235 204.335 15.7137 204.645 15.6983V11.8008L214 18.378L204.655 24.6281Z" fill="white"/>
</svg>
