<svg width="12" height="15" viewBox="0 0 12 15" fill="none" xmlns="http://www.w3.org/2000/svg">
<path d="M0.100852 15V0.454545H6.16619C7.25521 0.454545 8.16667 0.608428 8.90057 0.916193C9.6392 1.22396 10.1932 1.65483 10.5625 2.20881C10.9366 2.76278 11.1236 3.40436 11.1236 4.13352C11.1236 4.6875 11.0076 5.18229 10.7756 5.6179C10.5436 6.04877 10.224 6.40625 9.81676 6.69034C9.40956 6.97443 8.93845 7.1733 8.40341 7.28693V7.42898C8.99053 7.45739 9.53267 7.616 10.0298 7.90483C10.5317 8.19366 10.9342 8.59612 11.2372 9.11222C11.5402 9.62358 11.6918 10.2296 11.6918 10.9304C11.6918 11.7116 11.4929 12.41 11.0952 13.0256C10.6974 13.6364 10.1222 14.1193 9.36932 14.4744C8.61648 14.8248 7.70265 15 6.62784 15H0.100852ZM3.61648 12.1662H5.78977C6.55208 12.1662 7.11316 12.0218 7.47301 11.733C7.8376 11.4441 8.01989 11.0417 8.01989 10.5256C8.01989 10.1515 7.93229 9.82955 7.7571 9.55966C7.58191 9.28504 7.33333 9.07434 7.01136 8.92756C6.68939 8.77604 6.3035 8.70028 5.85369 8.70028H3.61648V12.1662ZM3.61648 6.43466H5.5625C5.94602 6.43466 6.28693 6.37074 6.58523 6.2429C6.88352 6.11506 7.11553 5.9304 7.28125 5.68892C7.4517 5.44744 7.53693 5.15625 7.53693 4.81534C7.53693 4.32765 7.36411 3.94413 7.01847 3.66477C6.67282 3.38542 6.20644 3.24574 5.61932 3.24574H3.61648V6.43466Z" fill="#2E304F"/>
</svg>
