<svg width="23" height="17" viewBox="0 0 23 17" fill="none" xmlns="http://www.w3.org/2000/svg">
<path d="M22.0225 1.50977H7.07504C6.53511 1.50977 6.09741 1.9453 6.09741 2.48257C6.09741 3.01983 6.53511 3.45537 7.07504 3.45537H22.0225C22.5624 3.45537 23.0001 3.01983 23.0001 2.48257C23.0001 1.9453 22.5624 1.50977 22.0225 1.50977Z" fill="black"/>
<path d="M22.0225 13.0039H7.07504C6.53511 13.0039 6.09741 13.4394 6.09741 13.9767C6.09741 14.514 6.53511 14.9495 7.07504 14.9495H22.0225C22.5624 14.9495 23.0001 14.514 23.0001 13.9767C23.0001 13.4394 22.5624 13.0039 22.0225 13.0039Z" fill="black"/>
<path d="M4.06488 2.0224C4.06488 0.905459 3.15492 0 2.03244 0C0.909954 0 0 0.905459 0 2.0224C0 3.13934 0.909954 4.0448 2.03244 4.0448C3.15492 4.0448 4.06488 3.13934 4.06488 2.0224Z" fill="black"/>
<path d="M4.06488 14.0029C4.06488 12.8859 3.15492 11.9805 2.03244 11.9805C0.909954 11.9805 0 12.8859 0 14.0029C0 15.1198 0.909954 16.0253 2.03244 16.0253C3.15492 16.0253 4.06488 15.1198 4.06488 14.0029Z" fill="black"/>
</svg>
