<svg width="11" height="14" viewBox="0 0 11 14" fill="none" xmlns="http://www.w3.org/2000/svg">
<path d="M0 13.8067C0.112097 13.4484 0.224009 13.0898 0.33518 12.7343C0.731875 12.6947 1.12561 12.6637 1.5173 12.6144C2.15486 12.534 2.54785 12.178 2.7072 11.5237C3.32179 9.00024 3.94861 6.47999 4.57061 3.95822C4.68845 3.48105 4.81148 3.00484 4.91635 2.52463C5.02919 2.00919 4.90468 1.74567 4.42479 1.57658C4.02476 1.43549 3.60565 1.35228 3.15336 1.23252L3.45075 0H11C10.8962 0.431847 10.7984 0.837798 10.7022 1.23766C10.1625 1.31553 9.63815 1.38122 9.1175 1.46938C8.58981 1.55849 8.26667 1.89323 8.13382 2.42009C7.81266 3.69431 7.49391 4.96916 7.17757 6.24464C6.75623 7.94563 6.33705 9.64776 5.92004 11.351C5.73475 12.1069 5.90392 12.4047 6.64877 12.5674C7.03286 12.6511 7.42696 12.6862 7.85312 12.7486C7.76288 13.1599 7.67061 13.5798 7.57816 13.9996C5.0521 13.9996 2.52605 13.9996 0 13.9996V13.8067Z" fill="black"/>
</svg>
