<svg width="112" height="39" viewBox="0 0 112 39" fill="none" xmlns="http://www.w3.org/2000/svg">
<path d="M110.5 18.5L107 22L103.5 18.5" stroke="#2E304F" stroke-width="2" stroke-linecap="round" stroke-linejoin="round"/>
<path d="M1.14773 25V13.3636H5.51136C6.4053 13.3636 7.1553 13.5303 7.76136 13.8636C8.37121 14.197 8.83144 14.6553 9.14205 15.2386C9.45644 15.8182 9.61364 16.4773 9.61364 17.2159C9.61364 17.9621 9.45644 18.625 9.14205 19.2045C8.82765 19.7841 8.36364 20.2405 7.75 20.5739C7.13636 20.9034 6.38068 21.0682 5.48295 21.0682H2.59091V19.3352H5.19886C5.72159 19.3352 6.14962 19.2443 6.48295 19.0625C6.81629 18.8807 7.0625 18.6307 7.22159 18.3125C7.38447 17.9943 7.46591 17.6288 7.46591 17.2159C7.46591 16.803 7.38447 16.4394 7.22159 16.125C7.0625 15.8106 6.81439 15.5663 6.47727 15.392C6.14394 15.214 5.71402 15.125 5.1875 15.125H3.25568V25H1.14773ZM13.7088 25.1761C13.1558 25.1761 12.6577 25.0777 12.2145 24.8807C11.7751 24.6799 11.4266 24.3845 11.169 23.9943C10.9152 23.6042 10.7884 23.1231 10.7884 22.5511C10.7884 22.0587 10.8793 21.6515 11.0611 21.3295C11.2429 21.0076 11.491 20.75 11.8054 20.5568C12.1198 20.3636 12.474 20.2178 12.8679 20.1193C13.2656 20.017 13.6766 19.9432 14.1009 19.8977C14.6122 19.8447 15.027 19.7973 15.3452 19.7557C15.6634 19.7102 15.8944 19.642 16.0384 19.5511C16.1861 19.4564 16.2599 19.3106 16.2599 19.1136V19.0795C16.2599 18.6515 16.133 18.3201 15.8793 18.0852C15.6255 17.8504 15.2599 17.733 14.7827 17.733C14.2789 17.733 13.8793 17.8428 13.5838 18.0625C13.2921 18.2822 13.0952 18.5417 12.9929 18.8409L11.0724 18.5682C11.224 18.0379 11.474 17.5947 11.8224 17.2386C12.1709 16.8788 12.5971 16.6098 13.1009 16.4318C13.6046 16.25 14.1615 16.1591 14.7713 16.1591C15.1918 16.1591 15.6103 16.2083 16.027 16.3068C16.4437 16.4053 16.8243 16.5682 17.169 16.7955C17.5137 17.0189 17.7902 17.3239 17.9986 17.7102C18.2107 18.0966 18.3168 18.5795 18.3168 19.1591V25H16.3395V23.8011H16.2713C16.1463 24.0436 15.9702 24.2708 15.7429 24.483C15.5194 24.6913 15.2372 24.8598 14.8963 24.9886C14.5592 25.1136 14.1634 25.1761 13.7088 25.1761ZM14.2429 23.6648C14.6558 23.6648 15.0137 23.5833 15.3168 23.4205C15.6198 23.2538 15.8527 23.0341 16.0156 22.7614C16.1823 22.4886 16.2656 22.1913 16.2656 21.8693V20.8409C16.2012 20.8939 16.0914 20.9432 15.9361 20.9886C15.7846 21.0341 15.6141 21.0739 15.4247 21.108C15.2353 21.142 15.0478 21.1723 14.8622 21.1989C14.6766 21.2254 14.5156 21.2481 14.3793 21.267C14.0724 21.3087 13.7978 21.3769 13.5554 21.4716C13.313 21.5663 13.1217 21.6989 12.9815 21.8693C12.8414 22.036 12.7713 22.2519 12.7713 22.517C12.7713 22.8958 12.9096 23.1818 13.1861 23.375C13.4626 23.5682 13.8149 23.6648 14.2429 23.6648ZM20.3849 25V16.2727H22.3793V17.7273H22.4702C22.6293 17.2235 22.902 16.8352 23.2884 16.5625C23.6785 16.286 24.1236 16.1477 24.6236 16.1477C24.7372 16.1477 24.8641 16.1534 25.0043 16.1648C25.1482 16.1723 25.2675 16.1856 25.3622 16.2045V18.0966C25.2751 18.0663 25.1368 18.0398 24.9474 18.017C24.7618 17.9905 24.5819 17.9773 24.4077 17.9773C24.0327 17.9773 23.6955 18.0587 23.3963 18.2216C23.1009 18.3807 22.8679 18.6023 22.6974 18.8864C22.527 19.1705 22.4418 19.4981 22.4418 19.8693V25H20.3849ZM29.0838 25.1761C28.5308 25.1761 28.0327 25.0777 27.5895 24.8807C27.1501 24.6799 26.8016 24.3845 26.544 23.9943C26.2902 23.6042 26.1634 23.1231 26.1634 22.5511C26.1634 22.0587 26.2543 21.6515 26.4361 21.3295C26.6179 21.0076 26.866 20.75 27.1804 20.5568C27.4948 20.3636 27.849 20.2178 28.2429 20.1193C28.6406 20.017 29.0516 19.9432 29.4759 19.8977C29.9872 19.8447 30.402 19.7973 30.7202 19.7557C31.0384 19.7102 31.2694 19.642 31.4134 19.5511C31.5611 19.4564 31.6349 19.3106 31.6349 19.1136V19.0795C31.6349 18.6515 31.508 18.3201 31.2543 18.0852C31.0005 17.8504 30.6349 17.733 30.1577 17.733C29.6539 17.733 29.2543 17.8428 28.9588 18.0625C28.6671 18.2822 28.4702 18.5417 28.3679 18.8409L26.4474 18.5682C26.599 18.0379 26.849 17.5947 27.1974 17.2386C27.5459 16.8788 27.9721 16.6098 28.4759 16.4318C28.9796 16.25 29.5365 16.1591 30.1463 16.1591C30.5668 16.1591 30.9853 16.2083 31.402 16.3068C31.8187 16.4053 32.1993 16.5682 32.544 16.7955C32.8887 17.0189 33.1652 17.3239 33.3736 17.7102C33.5857 18.0966 33.6918 18.5795 33.6918 19.1591V25H31.7145V23.8011H31.6463C31.5213 24.0436 31.3452 24.2708 31.1179 24.483C30.8944 24.6913 30.6122 24.8598 30.2713 24.9886C29.9342 25.1136 29.5384 25.1761 29.0838 25.1761ZM29.6179 23.6648C30.0308 23.6648 30.3887 23.5833 30.6918 23.4205C30.9948 23.2538 31.2277 23.0341 31.3906 22.7614C31.5573 22.4886 31.6406 22.1913 31.6406 21.8693V20.8409C31.5762 20.8939 31.4664 20.9432 31.3111 20.9886C31.1596 21.0341 30.9891 21.0739 30.7997 21.108C30.6103 21.142 30.4228 21.1723 30.2372 21.1989C30.0516 21.2254 29.8906 21.2481 29.7543 21.267C29.4474 21.3087 29.1728 21.3769 28.9304 21.4716C28.688 21.5663 28.4967 21.6989 28.3565 21.8693C28.2164 22.036 28.1463 22.2519 28.1463 22.517C28.1463 22.8958 28.2846 23.1818 28.5611 23.375C28.8376 23.5682 29.1899 23.6648 29.6179 23.6648ZM39.5554 28.4545C38.8168 28.4545 38.1823 28.3542 37.652 28.1534C37.1217 27.9564 36.6955 27.6913 36.3736 27.358C36.0516 27.0246 35.8281 26.6553 35.7031 26.25L37.5554 25.8011C37.6387 25.9716 37.7599 26.1402 37.919 26.3068C38.0781 26.4773 38.2921 26.6174 38.5611 26.7273C38.8338 26.8409 39.1766 26.8977 39.5895 26.8977C40.1728 26.8977 40.6558 26.7557 41.0384 26.4716C41.4209 26.1913 41.6122 25.7292 41.6122 25.0852V23.4318H41.5099C41.4039 23.6439 41.2486 23.8617 41.044 24.0852C40.8433 24.3087 40.5762 24.4962 40.2429 24.6477C39.9134 24.7992 39.4986 24.875 38.9986 24.875C38.3281 24.875 37.7202 24.7178 37.1747 24.4034C36.633 24.0852 36.2012 23.6117 35.8793 22.983C35.5611 22.3504 35.402 21.5587 35.402 20.608C35.402 19.6496 35.5611 18.8409 35.8793 18.1818C36.2012 17.5189 36.6349 17.017 37.1804 16.6761C37.7259 16.3314 38.3338 16.1591 39.0043 16.1591C39.5156 16.1591 39.9361 16.2462 40.2656 16.4205C40.599 16.5909 40.8641 16.7973 41.0611 17.0398C41.258 17.2784 41.4077 17.5038 41.5099 17.7159H41.6236V16.2727H43.652V25.142C43.652 25.8883 43.474 26.5057 43.1179 26.9943C42.7618 27.483 42.2751 27.8485 41.6577 28.0909C41.0402 28.3333 40.3395 28.4545 39.5554 28.4545ZM39.5724 23.2614C40.008 23.2614 40.3793 23.1553 40.6861 22.9432C40.9929 22.7311 41.2259 22.4261 41.3849 22.0284C41.544 21.6307 41.6236 21.1534 41.6236 20.5966C41.6236 20.0473 41.544 19.5663 41.3849 19.1534C41.2296 18.7405 40.9986 18.4205 40.6918 18.1932C40.3887 17.9621 40.0156 17.8466 39.5724 17.8466C39.1141 17.8466 38.7315 17.9659 38.4247 18.2045C38.1179 18.4432 37.8868 18.7708 37.7315 19.1875C37.5762 19.6004 37.4986 20.0701 37.4986 20.5966C37.4986 21.1307 37.5762 21.5985 37.7315 22C37.8906 22.3977 38.1236 22.7083 38.4304 22.9318C38.741 23.1515 39.1217 23.2614 39.5724 23.2614ZM45.7599 25V16.2727H47.7543V17.7273H47.8452C48.0043 17.2235 48.277 16.8352 48.6634 16.5625C49.0535 16.286 49.4986 16.1477 49.9986 16.1477C50.1122 16.1477 50.2391 16.1534 50.3793 16.1648C50.5232 16.1723 50.6425 16.1856 50.7372 16.2045V18.0966C50.6501 18.0663 50.5118 18.0398 50.3224 18.017C50.1368 17.9905 49.9569 17.9773 49.7827 17.9773C49.4077 17.9773 49.0705 18.0587 48.7713 18.2216C48.4759 18.3807 48.2429 18.6023 48.0724 18.8864C47.902 19.1705 47.8168 19.4981 47.8168 19.8693V25H45.7599ZM54.4588 25.1761C53.9058 25.1761 53.4077 25.0777 52.9645 24.8807C52.5251 24.6799 52.1766 24.3845 51.919 23.9943C51.6652 23.6042 51.5384 23.1231 51.5384 22.5511C51.5384 22.0587 51.6293 21.6515 51.8111 21.3295C51.9929 21.0076 52.241 20.75 52.5554 20.5568C52.8698 20.3636 53.224 20.2178 53.6179 20.1193C54.0156 20.017 54.4266 19.9432 54.8509 19.8977C55.3622 19.8447 55.777 19.7973 56.0952 19.7557C56.4134 19.7102 56.6444 19.642 56.7884 19.5511C56.9361 19.4564 57.0099 19.3106 57.0099 19.1136V19.0795C57.0099 18.6515 56.883 18.3201 56.6293 18.0852C56.3755 17.8504 56.0099 17.733 55.5327 17.733C55.0289 17.733 54.6293 17.8428 54.3338 18.0625C54.0421 18.2822 53.8452 18.5417 53.7429 18.8409L51.8224 18.5682C51.974 18.0379 52.224 17.5947 52.5724 17.2386C52.9209 16.8788 53.3471 16.6098 53.8509 16.4318C54.3546 16.25 54.9115 16.1591 55.5213 16.1591C55.9418 16.1591 56.3603 16.2083 56.777 16.3068C57.1937 16.4053 57.5743 16.5682 57.919 16.7955C58.2637 17.0189 58.5402 17.3239 58.7486 17.7102C58.9607 18.0966 59.0668 18.5795 59.0668 19.1591V25H57.0895V23.8011H57.0213C56.8963 24.0436 56.7202 24.2708 56.4929 24.483C56.2694 24.6913 55.9872 24.8598 55.6463 24.9886C55.3092 25.1136 54.9134 25.1761 54.4588 25.1761ZM54.9929 23.6648C55.4058 23.6648 55.7637 23.5833 56.0668 23.4205C56.3698 23.2538 56.6027 23.0341 56.7656 22.7614C56.9323 22.4886 57.0156 22.1913 57.0156 21.8693V20.8409C56.9512 20.8939 56.8414 20.9432 56.6861 20.9886C56.5346 21.0341 56.3641 21.0739 56.1747 21.108C55.9853 21.142 55.7978 21.1723 55.6122 21.1989C55.4266 21.2254 55.2656 21.2481 55.1293 21.267C54.8224 21.3087 54.5478 21.3769 54.3054 21.4716C54.063 21.5663 53.8717 21.6989 53.7315 21.8693C53.5914 22.036 53.5213 22.2519 53.5213 22.517C53.5213 22.8958 53.6596 23.1818 53.9361 23.375C54.2126 23.5682 54.5649 23.6648 54.9929 23.6648ZM61.1349 28.2727V16.2727H63.1577V17.7159H63.277C63.383 17.5038 63.5327 17.2784 63.7259 17.0398C63.919 16.7973 64.1804 16.5909 64.5099 16.4205C64.8395 16.2462 65.2599 16.1591 65.7713 16.1591C66.4455 16.1591 67.0535 16.3314 67.5952 16.6761C68.1406 17.017 68.5724 17.5227 68.8906 18.1932C69.2126 18.8598 69.3736 19.678 69.3736 20.6477C69.3736 21.6061 69.2164 22.4205 68.902 23.0909C68.5876 23.7614 68.1596 24.2727 67.6179 24.625C67.0762 24.9773 66.4626 25.1534 65.777 25.1534C65.277 25.1534 64.8622 25.0701 64.5327 24.9034C64.2031 24.7367 63.938 24.536 63.7372 24.3011C63.5402 24.0625 63.3868 23.8371 63.277 23.625H63.1918V28.2727H61.1349ZM63.152 20.6364C63.152 21.2008 63.2315 21.6951 63.3906 22.1193C63.5535 22.5436 63.7865 22.875 64.0895 23.1136C64.3963 23.3485 64.7675 23.4659 65.2031 23.4659C65.6577 23.4659 66.0384 23.3447 66.3452 23.1023C66.652 22.8561 66.883 22.5208 67.0384 22.0966C67.1974 21.6686 67.277 21.1818 67.277 20.6364C67.277 20.0947 67.1993 19.6136 67.044 19.1932C66.8887 18.7727 66.6577 18.4432 66.3509 18.2045C66.044 17.9659 65.6615 17.8466 65.2031 17.8466C64.7637 17.8466 64.3906 17.9621 64.0838 18.1932C63.777 18.4242 63.544 18.7481 63.3849 19.1648C63.2296 19.5814 63.152 20.072 63.152 20.6364ZM73.1918 19.8864V25H71.1349V13.3636H73.1463V17.7557H73.2486C73.4531 17.2633 73.7694 16.875 74.1974 16.5909C74.6293 16.303 75.1785 16.1591 75.8452 16.1591C76.4512 16.1591 76.9796 16.286 77.4304 16.5398C77.8812 16.7936 78.2296 17.1648 78.4759 17.6534C78.7259 18.142 78.8509 18.7386 78.8509 19.4432V25H76.794V19.7614C76.794 19.1742 76.6425 18.7178 76.3395 18.392C76.0402 18.0625 75.6198 17.8977 75.0781 17.8977C74.7145 17.8977 74.3887 17.9773 74.1009 18.1364C73.8168 18.2917 73.5933 18.517 73.4304 18.8125C73.2713 19.108 73.1918 19.4659 73.1918 19.8864Z" fill="#2E304F"/>
</svg>
