<svg width="144" height="24" viewBox="0 0 144 24" fill="none" xmlns="http://www.w3.org/2000/svg">
<g clip-path="url(#clip0_18_27)">
<path d="M6.15 4.28L6.93 21.03H18.21L19.47 7.36L10.1 2.97L6.15 4.28Z" fill="white"/>
<path d="M12.36 23.85C10.81 23.85 9.25 23.84 7.7 23.81C4.72 23.76 2.47 21.55 2.46 18.66C2.46 17.09 2.46 11.93 2.46 11.93V9.89C2.46 8.32 2.46 6.76 2.46 5.19C2.47 2.32 4.76 0.1 7.77 0.04C8.73 0.02 9.69 0 10.65 0C11.61 0 12.59 0.02 13.55 0.06C14.48 0.1 15.5 0.51 16.23 1.12C17.4 2.1 18.53 3.12 19.66 4.14L21.08 5.42C21.97 6.21 22.41 7.2 22.41 8.36C22.41 10.1 22.41 11.84 22.41 13.58C22.41 15.28 22.41 16.98 22.41 18.69C22.4 21.53 20.08 23.79 17.13 23.83C15.54 23.85 13.95 23.86 12.37 23.86L12.36 23.85ZM7.91 4.29C7.18 4.29 6.93 4.52 6.93 5.21C6.93 9.69 6.93 14.17 6.93 18.65C6.93 19.29 7.23 19.57 7.93 19.57H16.88C17.62 19.57 17.92 19.29 17.92 18.6C17.92 16.63 17.92 9.61 17.92 9.61H16.06C13.59 9.61 11.99 8.09 11.98 5.76V4.28H7.91V4.29Z" fill="white"/>
<path d="M3.99 11.93C3.99 9.69 3.99 7.45 3.99 5.21C3.99 3.12 5.6 1.54 7.8 1.5C9.69 1.46 11.59 1.44 13.47 1.52C14.07 1.55 14.76 1.84 15.22 2.22C16.87 3.59 18.43 5.06 20.03 6.49C20.6 7 20.88 7.61 20.87 8.36C20.86 11.8 20.87 15.24 20.87 18.68C20.87 20.69 19.22 22.34 17.1 22.37C13.98 22.41 10.85 22.42 7.72 22.37C5.57 22.33 3.99 20.71 3.99 18.67C3.99 16.43 3.99 14.19 3.99 11.95V11.93ZM19.47 8.15C18.26 8.15 17.17 8.15 16.08 8.15C14.44 8.15 13.54 7.3 13.53 5.76C13.53 4.81 13.53 3.85 13.53 2.83C11.57 2.83 9.74 2.83 7.91 2.83C6.34 2.83 5.4 3.71 5.4 5.2C5.4 9.68 5.4 14.16 5.4 18.64C5.4 20.09 6.39 21.01 7.93 21.02C10.92 21.02 13.9 21.02 16.89 21.02C18.47 21.02 19.46 20.09 19.46 18.6C19.46 15.71 19.46 12.82 19.46 9.93C19.46 9.39 19.46 8.84 19.46 8.15H19.47Z" fill="#1376D8"/>
<path d="M12.45 11.42C11.14 11.42 9.82 11.42 8.51 11.42C7.89 11.42 7.3 11.3 7.3 10.57C7.3 9.82 7.91 9.76 8.53 9.76C11.19 9.76 13.84 9.76 16.5 9.76C17.14 9.76 17.73 9.88 17.72 10.58C17.72 11.28 17.1 11.41 16.48 11.41C15.14 11.41 13.8 11.41 12.46 11.41L12.45 11.42Z" fill="#1376D8"/>
<path d="M12.44 14.54C11.15 14.54 9.87 14.57 8.58 14.52C8.2 14.51 7.78 14.36 7.48 14.14C7.32 14.02 7.24 13.55 7.36 13.38C7.53 13.14 7.9 12.92 8.2 12.91C9.84 12.87 11.48 12.89 13.12 12.89C14.27 12.89 15.42 12.91 16.57 12.89C17.16 12.88 17.66 13.01 17.71 13.63C17.77 14.31 17.2 14.52 16.63 14.53C15.24 14.56 13.84 14.54 12.44 14.54V14.54Z" fill="#1376D8"/>
<path d="M12.56 16.01C13.93 16.01 15.3 16.01 16.67 16.01C17.24 16.01 17.7 16.17 17.72 16.75C17.75 17.37 17.29 17.58 16.68 17.57C13.89 17.57 11.09 17.57 8.3 17.57C7.74 17.57 7.3 17.4 7.3 16.79C7.3 16.19 7.72 16.01 8.29 16.01C9.71 16.01 11.14 16.01 12.56 16.01V16.01Z" fill="#1376D8"/>
</g>
<g clip-path="url(#clip1_18_27)">
<path d="M51.53 24L51.05 23.71L49.7 22.94C48.59 22.3 47.49 21.66 46.39 21.02C45.46 20.49 44.59 19.82 43.83 19.06C42.82 18.05 42.18 16.79 42 15.41C41.94 14.99 41.91 14.56 41.91 14.14V4.6C41.91 3.58 42.57 2.9 43.6 2.87C43.6 2.87 44.76 2.83 45.1 2.81C46.65 2.73 48.13 2.27 49.4 1.46C49.83 1.18 50.24 0.89 50.65 0.59L51.38 0.05L52 0C52.26 0 52.66 0.07 53.06 0.38C54.09 1.19 54.98 1.75 55.88 2.13C56.62 2.45 57.42 2.66 58.25 2.75C58.95 2.83 59.67 2.87 60.39 2.87C61.42 2.89 62.1 3.58 62.1 4.58V14.15C62.1 15.29 61.9 16.28 61.5 17.15C61.06 18.11 60.37 18.97 59.38 19.77C58.41 20.56 57.36 21.18 56.27 21.81L52.52 23.96L52.02 23.99H51.55L51.53 24Z" fill="white"/>
<path d="M60.56 4.58C60.56 4.42 60.56 4.41 60.38 4.41C59.61 4.41 58.84 4.36 58.07 4.28C57.1 4.17 56.16 3.92 55.28 3.54C54.12 3.04 53.09 2.36 52.13 1.59C52.03 1.52 51.98 1.52 51.88 1.59C51.33 1.98 50.79 2.39 50.22 2.75C48.73 3.7 46.99 4.26 45.18 4.35C44.67 4.38 44.15 4.39 43.64 4.41C43.5067 4.41 43.44 4.47667 43.44 4.61V14.12C43.44 14.48 43.47 14.84 43.52 15.2C43.66 16.24 44.14 17.21 44.91 17.97C45.58 18.64 46.34 19.21 47.17 19.69C48.74 20.62 50.32 21.52 51.9 22.44C51.93 22.46 51.96 22.47 52 22.47C52.04 22.47 52.07 22.46 52.1 22.44C53.23 21.79 54.37 21.15 55.5 20.5C56.51 19.92 57.51 19.33 58.41 18.6C59.13 18.02 59.73 17.35 60.1 16.53C60.44 15.77 60.56 14.98 60.56 14.16V4.58V4.58ZM57.1 9.6C56.68 9.99 56.26 10.38 55.84 10.77L51.35 14.95C51.22 15.07 51.09 15.19 50.97 15.31C50.9 15.38 50.85 15.38 50.77 15.31C49.96 14.55 49.14 13.79 48.32 13.03C48 12.73 47.67 12.42 47.34 12.13C47.26 12.05 47.25 12.01 47.34 11.93C47.8 11.51 48.25 11.09 48.7 10.66C48.79 10.58 48.84 10.61 48.9 10.68C49.51 11.25 50.12 11.82 50.73 12.39C50.77 12.42 50.81 12.46 50.85 12.5C50.9 12.46 50.94 12.43 50.97 12.39C52.25 11.2 53.52 10.01 54.8 8.83C55.04 8.61 55.28 8.39 55.51 8.16C55.59 8.08 55.64 8.09 55.72 8.16C56.17 8.59 56.62 9.01 57.08 9.43C57.15 9.5 57.15 9.54 57.08 9.61L57.1 9.6Z" fill="#A85CEA"/>
</g>
<g clip-path="url(#clip2_18_27)">
<path d="M142.98 5.22C141.83 2.57 139.39 0.93 136.6 0.93C135.9 0.93 135.2 1.04 134.52 1.25C133.76 1.49 133.07 1.85 132.42 2.35C132.15 2.56 131.79 2.55 131.53 2.35C130.35 1.43 128.9 0.92 127.38 0.92C124.79 0.92 122.5 2.35 121.25 4.76C119.82 7.53 119.98 10.48 121.74 13.53C121.89 13.79 123.1 15.03 123.1 15.03L131.46 22.9C131.73 23.15 132.15 23.16 132.42 22.9C133.88 21.56 138.27 17.52 140.51 15.43C141.29 14.7 142.42 13.24 142.65 12.79C143.94 10.24 144.05 7.7 142.98 5.23V5.22Z" fill="white"/>
<path d="M133.2 12.73C133.01 12.42 132.85 12.15 132.67 11.89C132.37 11.45 132.12 11.45 131.85 11.91C131.37 12.72 130.91 13.54 130.41 14.42C130.02 13.46 129.65 12.55 129.28 11.65C129 10.99 128.74 10.33 128.45 9.68C128.38 9.53 128.2 9.32 128.1 9.34C128.01 9.37 127.93 9.41 127.86 9.47C127.79 9.53 127.73 9.6 127.69 9.68C127.14 10.81 126.61 11.95 126.1 13.1C125.97 13.38 125.82 13.49 125.52 13.46C125.15 13.42 124.78 13.42 124.42 13.46C123.78 13.56 123.44 13.26 123.13 12.73C121.78 10.39 121.38 7.98 122.67 5.49C124.59 1.8 129.19 1.61 131.46 4.5C131.46 4.51 131.48 4.52 131.49 4.53C131.797 4.89 132.1 4.89667 132.4 4.55C133.11 3.73 133.95 3.09 135 2.76C137.64 1.94 140.38 3.22 141.52 5.84C142.68 8.5 142.07 10.93 140.53 13.24C140.49 13.29 140.44 13.33 140.39 13.36C140.33 13.39 140.27 13.41 140.21 13.42C138.96 13.43 137.7 13.42 136.41 13.42C136.24 12.39 136.08 11.38 135.92 10.36C135.73 9.15 135.55 7.93 135.34 6.72C135.31 6.54 135.08 6.4 134.94 6.24C134.8 6.4 134.59 6.53 134.55 6.71C134.1 8.66 133.69 10.62 133.26 12.57C133.26 12.6 133.26 12.61 133.22 12.7L133.2 12.73Z" fill="#01D7D7"/>
<path d="M132.27 12.74C132.55 13.18 132.77 13.56 133.03 13.91C133.13 14.04 133.34 14.18 133.49 14.16C133.6 14.16 133.75 13.92 133.78 13.77C134.15 12.18 134.49 10.58 134.87 8.85C135.11 10.32 135.32 11.67 135.55 13.01C135.78 14.35 135.52 14.17 136.9 14.19C137.8 14.2 138.7 14.19 139.61 14.19L139.68 14.35L131.96 21.2L124.33 14.31L124.36 14.18C124.89 14.18 125.41 14.16 125.94 14.18C126.31 14.2 126.49 14.05 126.63 13.73C127.08 12.74 127.56 11.75 128.07 10.67C128.32 11.27 128.53 11.79 128.75 12.31C129.14 13.26 129.53 14.22 129.94 15.17C130.02 15.36 130.2 15.51 130.34 15.67C130.51 15.52 130.73 15.4 130.84 15.21C131.33 14.42 131.78 13.6 132.28 12.72L132.27 12.74Z" fill="#01D7D7"/>
</g>
<g clip-path="url(#clip3_18_27)">
<path d="M100.23 1.58H83.77C82.11 1.58 80.95 2.79 80.95 4.52V19.48C80.95 21.21 82.11 22.42 83.77 22.42H100.23C101.89 22.42 103.05 21.21 103.05 19.48V4.52C103.05 2.79 101.89 1.58 100.23 1.58V1.58Z" fill="white"/>
<path d="M92 20.92C89.26 20.92 86.52 20.92 83.77 20.92C82.93 20.92 82.45 20.39 82.45 19.48C82.45 14.49 82.45 9.51 82.45 4.52C82.45 3.61 82.93 3.08 83.77 3.08C89.25 3.08 94.74 3.08 100.22 3.08C101.06 3.08 101.54 3.61 101.54 4.52C101.54 9.51 101.54 14.49 101.54 19.48C101.54 20.39 101.05 20.92 100.22 20.92C97.48 20.92 94.74 20.92 91.99 20.92H92ZM100.18 17.22C100.18 17.1 100.18 17.04 100.18 16.98C100.18 13.08 100.18 9.18 100.18 5.28C100.18 4.79 99.97 4.57 99.51 4.57C94.51 4.57 89.51 4.57 84.51 4.57C84.03 4.57 83.82 4.79 83.82 5.32C83.82 9.19 83.82 13.06 83.82 16.93V17.21C83.92 17.08 83.98 17 84.04 16.92C85.73 14.7 87.41 12.49 89.1 10.27C89.62 9.59 90.19 9.58 90.74 10.22C91.46 11.07 92.18 11.93 92.91 12.78C93.37 13.31 93.69 13.33 94.19 12.87C94.43 12.65 94.66 12.42 94.91 12.21C95.31 11.87 95.65 11.9 96 12.3C96.57 12.96 97.13 13.63 97.7 14.29C98.52 15.25 99.33 16.21 100.19 17.22H100.18Z" fill="#34CE2C"/>
<path d="M96.77 10.51C95.65 10.51 94.73 9.5 94.73 8.27C94.73 7.04 95.66 6.05 96.78 6.05C97.91 6.05 98.82 7.06 98.82 8.29C98.82 9.52 97.89 10.51 96.77 10.51Z" fill="#34CE2C"/>
</g>
<defs>
<clipPath id="clip0_18_27">
<rect width="24" height="24" fill="white"/>
</clipPath>
<clipPath id="clip1_18_27">
<rect width="24" height="24" fill="white" transform="translate(40)"/>
</clipPath>
<clipPath id="clip2_18_27">
<rect width="24" height="24" fill="white" transform="translate(120)"/>
</clipPath>
<clipPath id="clip3_18_27">
<rect width="24" height="24" fill="white" transform="translate(80)"/>
</clipPath>
</defs>
</svg>
