<svg width="96" height="96" viewBox="0 0 96 96" fill="none" xmlns="http://www.w3.org/2000/svg">
<rect width="96" height="96" rx="8" fill="white"/>
<rect x="3.88672" y="3.30469" width="88.903" height="88.903" rx="6" fill="#76F2B7"/>
<path d="M57.2207 32.631C56.9783 30.4795 55.9783 28.8129 54.2207 27.631C52.4631 26.4341 50.251 25.8356 47.5843 25.8356C45.6752 25.8356 44.0237 26.1386 42.6298 26.7447C41.2359 27.3356 40.1525 28.1538 39.3798 29.1992C38.6222 30.2295 38.2434 31.4038 38.2434 32.7219C38.2434 33.828 38.501 34.7826 39.0162 35.5856C39.5465 36.3886 40.2359 37.0629 41.0843 37.6083C41.948 38.1386 42.8722 38.5856 43.8571 38.9492C44.8419 39.2977 45.7889 39.5856 46.698 39.8129L51.2434 40.9947C52.7283 41.3583 54.251 41.8507 55.8116 42.4719C57.3722 43.0932 58.8192 43.9113 60.1525 44.9265C61.4859 45.9416 62.5616 47.1992 63.3798 48.6992C64.2131 50.1992 64.6298 51.9947 64.6298 54.0856C64.6298 56.7219 63.948 59.0629 62.5843 61.1083C61.2359 63.1538 59.2737 64.7674 56.698 65.9492C54.1374 67.131 51.0389 67.7219 47.4025 67.7219C43.9177 67.7219 40.9025 67.1689 38.3571 66.0629C35.8116 64.9568 33.8192 63.3886 32.3798 61.3583C30.9404 59.3129 30.1449 56.8886 29.9934 54.0856H37.0389C37.1752 55.7674 37.7207 57.1689 38.6752 58.2901C39.6449 59.3962 40.8798 60.2219 42.3798 60.7674C43.8949 61.2977 45.554 61.5629 47.3571 61.5629C49.3419 61.5629 51.1071 61.2522 52.6525 60.631C54.2131 59.9947 55.4404 59.1159 56.3343 57.9947C57.2283 56.8583 57.6752 55.5326 57.6752 54.0174C57.6752 52.6386 57.2813 51.5098 56.4934 50.631C55.7207 49.7522 54.6677 49.025 53.3343 48.4492C52.0162 47.8735 50.5237 47.3659 48.8571 46.9265L43.3571 45.4265C39.6298 44.4113 36.6752 42.9189 34.4934 40.9492C32.3268 38.9795 31.2434 36.3735 31.2434 33.131C31.2434 30.4492 31.9707 28.1083 33.4252 26.1083C34.8798 24.1083 36.8495 22.5553 39.3343 21.4492C41.8192 20.328 44.6222 19.7674 47.7434 19.7674C50.8949 19.7674 53.6752 20.3204 56.0843 21.4265C58.5086 22.5326 60.4177 24.0553 61.8116 25.9947C63.2056 27.9189 63.9328 30.131 63.9934 32.631H57.2207Z" fill="white"/>
</svg>
