<svg width="36" height="36" viewBox="0 0 36 36" fill="none" xmlns="http://www.w3.org/2000/svg">
<circle cx="18" cy="18" r="18" fill="#5081F0"/>
<path d="M25.1436 13.7004L24.3145 25.2353C24.2801 25.7146 24.0642 26.1633 23.7102 26.4908C23.3563 26.8183 22.8905 27.0004 22.4068 27.0004H14.4928C14.0091 27.0004 13.5433 26.8183 13.1894 26.4908C12.8354 26.1633 12.6195 25.7146 12.5851 25.2353L11.7561 13.7004H25.1436ZM16.5373 17.5004V23.2004V17.5004ZM20.3623 17.5004V23.2004V17.5004ZM21.3186 13.7004V10.8504C21.3186 10.5984 21.2178 10.3568 21.0385 10.1786C20.8591 10.0005 20.6159 9.90039 20.3623 9.90039H16.5373C16.2837 9.90039 16.0405 10.0005 15.8611 10.1786C15.6818 10.3568 15.5811 10.5984 15.5811 10.8504V13.7004H21.3186ZM10.7998 13.7004H26.0998H10.7998Z" fill="#5081F0"/>
<path d="M10.7998 13.7004H26.0998M25.1436 13.7004L24.3145 25.2353C24.2801 25.7146 24.0642 26.1633 23.7102 26.4908C23.3563 26.8183 22.8905 27.0004 22.4068 27.0004H14.4928C14.0091 27.0004 13.5433 26.8183 13.1894 26.4908C12.8354 26.1633 12.6195 25.7146 12.5851 25.2353L11.7561 13.7004H25.1436ZM16.5373 17.5004V23.2004V17.5004ZM20.3623 17.5004V23.2004V17.5004ZM21.3186 13.7004V10.8504C21.3186 10.5984 21.2178 10.3568 21.0385 10.1786C20.8591 10.0005 20.6159 9.90039 20.3623 9.90039H16.5373C16.2837 9.90039 16.0405 10.0005 15.8611 10.1786C15.6818 10.3568 15.5811 10.5984 15.5811 10.8504V13.7004H21.3186Z" stroke="white" stroke-width="1.5" stroke-linecap="round" stroke-linejoin="round"/>
</svg>
