<svg width="54" height="54" viewBox="0 0 54 54" fill="none" xmlns="http://www.w3.org/2000/svg">
<circle cx="27" cy="27" r="25.5" fill="#FFE252" stroke="white" stroke-width="3"/>
<path d="M20.224 23.4594H33.7759H20.224ZM20.224 28.9676H25.6448H20.224ZM26.9999 39.984L21.5792 34.4758H17.5136C16.7948 34.4758 16.1054 34.1856 15.5971 33.6691C15.0888 33.1526 14.8032 32.4521 14.8032 31.7217V20.7053C14.8032 19.9748 15.0888 19.2743 15.5971 18.7578C16.1054 18.2413 16.7948 17.9512 17.5136 17.9512H36.4863C37.2051 17.9512 37.8945 18.2413 38.4028 18.7578C38.9111 19.2743 39.1967 19.9748 39.1967 20.7053V31.7217C39.1967 32.4521 38.9111 33.1526 38.4028 33.6691C37.8945 34.1856 37.2051 34.4758 36.4863 34.4758H32.4207L26.9999 39.984Z" stroke="white" stroke-width="3" stroke-linecap="round" stroke-linejoin="round"/>
</svg>
