<svg width="54" height="55" viewBox="0 0 54 55" fill="none" xmlns="http://www.w3.org/2000/svg">
<path d="M27 52.6672C41.0882 52.6672 52.5 41.2081 52.5 27.0836C52.5 12.9591 41.0882 1.5 27 1.5C12.9118 1.5 1.5 12.9591 1.5 27.0836C1.5 41.2081 12.9118 52.6672 27 52.6672Z" fill="#48EDA8" stroke="white" stroke-width="3"/>
<g clip-path="url(#clip0_211_4070)">
<path d="M31.0255 14.0412C31.5151 14.476 31.9395 14.9417 32.4562 15.2853C33.4926 15.9872 34.5735 16.6256 35.6354 17.2802C35.9676 17.4838 36.1122 17.6776 35.9851 18.1172C34.9407 21.8286 33.9345 25.548 32.8838 29.3831H32.2479C29.0942 29.3831 25.9388 29.3652 22.7851 29.3994C22.1747 29.4075 21.9442 29.2105 21.8536 28.6503C21.7169 27.7986 21.2066 26.8589 21.4323 26.1359C21.6453 25.4487 22.6054 24.9862 23.2302 24.4178C26.4252 21.511 29.037 18.1791 30.8888 14.2936C30.9651 14.1633 31.0271 14.0363 31.0255 14.0412Z" fill="white"/>
<path d="M11 34.6646L16.6383 19.2461C17.2455 21.5032 17.8035 23.5648 18.3503 25.6297C18.3889 25.7881 18.3783 25.9549 18.3201 26.1069C17.0039 29.315 15.6782 32.5215 14.3286 35.7898L11 34.6646Z" fill="white"/>
<path d="M44.0001 35.3641L40.6842 36.4942C40.2566 35.4683 39.8338 34.4668 39.4125 33.4604C38.5398 31.3515 37.664 29.2426 36.8056 27.1272C36.7134 26.8992 36.6148 26.6126 36.6705 26.3944C37.203 24.3262 37.7673 22.2662 38.3777 19.9961L44.0001 35.3641Z" fill="white"/>
<path d="M20.3851 24.4021C19.7747 22.1222 19.1802 19.9465 18.6286 17.7595C18.5825 17.5787 18.7573 17.2367 18.929 17.1179C19.8144 16.5007 20.7555 15.9616 21.6313 15.3265C22.1623 14.9471 22.6153 14.4537 23.0445 14.0645C23.8138 15.39 24.6913 16.8866 25.5433 18.3995C25.5752 18.488 25.5866 18.5829 25.5767 18.6767C25.5668 18.7705 25.5358 18.8607 25.4861 18.9401C24.009 20.9666 22.296 22.8008 20.3851 24.4021Z" fill="white"/>
<path d="M32.8888 38.1229H21.9604C21.2101 38.1229 20.6235 37.5188 20.703 36.8201L21.1926 32.5551C21.261 31.9575 21.803 31.5048 22.45 31.5048H32.2037C32.4941 31.4938 32.7788 31.5883 33.0077 31.7715C33.2366 31.9548 33.395 32.215 33.4547 32.5063L34.1446 36.7762C34.2543 37.4862 33.6677 38.1229 32.8888 38.1229Z" fill="white"/>
</g>
<defs>
<clipPath id="clip0_211_4070">
<rect width="33" height="24.0836" fill="white" transform="translate(11 14.0391)"/>
</clipPath>
</defs>
</svg>
