<svg width="54" height="54" viewBox="0 0 54 54" fill="none" xmlns="http://www.w3.org/2000/svg">
<circle cx="27" cy="27" r="25.5" fill="#01D7D7" stroke="white" stroke-width="3"/>
<path d="M28.3999 29.8979C28.1386 29.4775 27.9222 29.1054 27.6822 28.7495C27.2795 28.153 26.9319 28.1554 26.573 28.7743C25.9266 29.8781 25.3001 30.9943 24.6161 32.1923C24.0822 30.8851 23.5833 29.6524 23.0768 28.4208C22.7017 27.5254 22.3441 26.6263 21.9439 25.7445C21.8539 25.546 21.6026 25.2571 21.4675 25.2782C21.3463 25.3123 21.2337 25.3712 21.1368 25.4511C21.0399 25.531 20.9609 25.6301 20.9048 25.742C20.1546 27.2836 19.4318 28.8338 18.7366 30.3977C18.5653 30.7847 18.3615 30.9273 17.9451 30.8938C17.4465 30.8383 16.9432 30.8383 16.4446 30.8938C15.5693 31.0302 15.1066 30.6234 14.694 29.9016C12.8533 26.7131 12.3182 23.4439 14.0688 20.0606C16.6734 15.0378 22.9318 14.7774 26.0278 18.7113C26.0403 18.7274 26.0541 18.7435 26.0679 18.7584C26.6931 19.4914 26.6931 19.4914 27.307 18.7882C28.2761 17.672 29.409 16.8039 30.847 16.3537C34.4432 15.2375 38.162 16.9837 39.71 20.5455C41.2831 24.1645 40.4603 27.4746 38.3621 30.611C38.3103 30.6804 38.2446 30.7383 38.169 30.781C38.0934 30.8237 38.0097 30.8503 37.9232 30.8591C36.2176 30.8764 34.512 30.8702 32.7539 30.8702C32.5276 29.4663 32.3012 28.0909 32.0837 26.7143C31.8223 25.0648 31.5835 23.4117 31.2896 21.7684C31.2459 21.5203 30.9333 21.3318 30.7457 21.1148C30.5606 21.3256 30.2643 21.5104 30.2093 21.751C29.6041 24.4026 29.0364 27.0628 28.4587 29.7218C28.4562 29.759 28.4462 29.7776 28.3999 29.8979Z" fill="white"/>
<path d="M27.1342 29.9066C27.5093 30.5019 27.8094 31.0228 28.1658 31.504C28.3009 31.6838 28.586 31.8661 28.791 31.85C28.9411 31.8376 29.1412 31.5263 29.1887 31.3192C29.6888 29.1525 30.1553 26.9785 30.6729 24.6221C30.998 26.625 31.2844 28.4531 31.597 30.2774C31.9096 32.1017 31.562 31.8487 33.4301 31.8797C34.6568 31.8996 35.8835 31.8797 37.1101 31.8797L37.2039 32.0918L26.7003 41.4144L16.3218 32.0422L16.3693 31.8698C17.0845 31.8698 17.801 31.8363 18.5125 31.881C19.0127 31.9132 19.2628 31.7012 19.4528 31.2733C20.0693 29.9227 20.7158 28.5858 21.411 27.1174C21.7474 27.9359 22.0362 28.6465 22.3338 29.3497C22.8678 30.647 23.3892 31.9541 23.9469 33.2378C24.0582 33.4945 24.3033 33.6954 24.4871 33.9224C24.7196 33.7152 25.0185 33.5503 25.171 33.2948C25.8338 32.2183 26.454 31.1021 27.1342 29.9066Z" fill="white"/>
</svg>
