<svg width="56" height="56" viewBox="0 0 56 56" fill="none" xmlns="http://www.w3.org/2000/svg">
<circle cx="28" cy="28" r="26.5" fill="#33C1FF" stroke="white" stroke-width="3"/>
<g clip-path="url(#clip0_2_1778)">
<path d="M24.7129 42.2919C23.9733 42.0453 23.1469 41.9318 22.514 41.523C21.3418 40.766 21.219 39.5567 21.526 38.2959C22.1696 35.6583 22.8304 33.0207 23.4833 30.3831C23.761 29.2569 23.4726 28.7518 22.3525 28.4049C22.0988 28.3271 21.8358 28.281 21.5808 28.2111C20.98 28.0476 20.8291 27.6348 21.2043 27.131C21.3381 26.9563 21.5016 26.8059 21.6876 26.6865C23.6902 25.3823 25.8505 24.5527 28.2817 24.5277C30.8291 24.5013 32.0828 26.0535 31.486 28.5052C30.8585 31.057 30.2163 33.605 29.5901 36.1542C29.2817 37.415 29.6075 37.9425 30.8651 38.2761C30.9742 38.2971 31.081 38.328 31.1842 38.3685C31.4806 38.5135 31.7704 38.6731 32.0627 38.8261C31.8705 39.1716 31.765 39.6384 31.4713 39.8429C29.5205 41.2405 27.1921 42.0317 24.7837 42.1151L24.7129 42.2919Z" fill="white"/>
<path d="M34.0013 16.3036C33.9933 17.1474 33.732 17.9699 33.2505 18.6669C32.7689 19.364 32.0888 19.9042 31.2962 20.2192C30.5037 20.5342 29.6343 20.6098 28.7982 20.4364C27.9621 20.263 27.1969 19.8484 26.5995 19.2452C26.0021 18.642 25.5994 17.8772 25.4423 17.0477C25.2852 16.2182 25.3808 15.3613 25.717 14.5856C26.0533 13.8098 26.615 13.1501 27.3311 12.6899C28.0471 12.2296 28.8854 11.9897 29.7396 12.0003C32.1335 12.0188 34.0053 13.9086 34.0013 16.3036Z" fill="white"/>
</g>
<defs>
<clipPath id="clip0_2_1778">
<rect width="13" height="30" fill="white" transform="translate(21 12)"/>
</clipPath>
</defs>
</svg>
