<svg width="105" height="24" viewBox="0 0 105 24" fill="none" xmlns="http://www.w3.org/2000/svg">
<rect x="0.5" y="0.5" width="104" height="23" rx="11.5" fill="#FFE4B4" stroke="#FF7E21"/>
<path d="M27.3188 6.81818H29.1831L32.4246 14.733H32.5439L35.7854 6.81818H37.6498V17H36.1881V9.6321H36.0937L33.0908 16.9851H31.8778L28.8749 9.62713H28.7805V17H27.3188V6.81818ZM42.9806 17.1541C42.2646 17.1541 41.6399 16.9901 41.1063 16.6619C40.5727 16.3338 40.1584 15.8748 39.8634 15.2848C39.5684 14.6948 39.4209 14.0054 39.4209 13.2166C39.4209 12.4245 39.5684 11.7318 39.8634 11.1385C40.1584 10.5452 40.5727 10.0845 41.1063 9.75639C41.6399 9.42827 42.2646 9.2642 42.9806 9.2642C43.6965 9.2642 44.3212 9.42827 44.8548 9.75639C45.3885 10.0845 45.8028 10.5452 46.0977 11.1385C46.3927 11.7318 46.5402 12.4245 46.5402 13.2166C46.5402 14.0054 46.3927 14.6948 46.0977 15.2848C45.8028 15.8748 45.3885 16.3338 44.8548 16.6619C44.3212 16.9901 43.6965 17.1541 42.9806 17.1541ZM42.9855 15.9062C43.4495 15.9062 43.834 15.7836 44.1389 15.5384C44.4439 15.2931 44.6692 14.9666 44.8151 14.5589C44.9642 14.1513 45.0388 13.7022 45.0388 13.2116C45.0388 12.7244 44.9642 12.277 44.8151 11.8693C44.6692 11.4583 44.4439 11.1286 44.1389 10.88C43.834 10.6314 43.4495 10.5071 42.9855 10.5071C42.5182 10.5071 42.1304 10.6314 41.8222 10.88C41.5173 11.1286 41.2902 11.4583 41.1411 11.8693C40.9952 12.277 40.9223 12.7244 40.9223 13.2116C40.9223 13.7022 40.9952 14.1513 41.1411 14.5589C41.2902 14.9666 41.5173 15.2931 41.8222 15.5384C42.1304 15.7836 42.5182 15.9062 42.9855 15.9062ZM51.0581 17.1491C50.4417 17.1491 49.8915 16.9917 49.4076 16.6768C48.927 16.3587 48.5492 15.9062 48.2741 15.3196C48.0023 14.7296 47.8664 14.022 47.8664 13.1967C47.8664 12.3714 48.0039 11.6655 48.279 11.0788C48.5574 10.4922 48.9386 10.0431 49.4225 9.73153C49.9064 9.41998 50.4549 9.2642 51.0681 9.2642C51.5421 9.2642 51.9232 9.34375 52.2116 9.50284C52.5032 9.65862 52.7286 9.84091 52.8877 10.0497C53.0501 10.2585 53.176 10.4425 53.2655 10.6016H53.355V6.81818H54.8415V17H53.3898V15.8118H53.2655C53.176 15.9742 53.0468 16.1598 52.8778 16.3686C52.712 16.5774 52.4833 16.7597 52.1917 16.9155C51.9 17.0713 51.5222 17.1491 51.0581 17.1491ZM51.3863 15.8814C51.8138 15.8814 52.1751 15.7687 52.4701 15.5433C52.7684 15.3146 52.9938 14.9981 53.1462 14.5938C53.302 14.1894 53.3799 13.7187 53.3799 13.1818C53.3799 12.6515 53.3037 12.1875 53.1512 11.7898C52.9987 11.392 52.775 11.0821 52.48 10.8601C52.185 10.638 51.8205 10.527 51.3863 10.527C50.9388 10.527 50.566 10.643 50.2677 10.875C49.9694 11.107 49.744 11.4235 49.5915 11.8246C49.4424 12.2256 49.3678 12.678 49.3678 13.1818C49.3678 13.6922 49.444 14.1513 49.5965 14.5589C49.749 14.9666 49.9743 15.2898 50.2726 15.5284C50.5742 15.7637 50.9455 15.8814 51.3863 15.8814ZM60.2544 17.1541C59.502 17.1541 58.854 16.9934 58.3105 16.6719C57.7702 16.3471 57.3526 15.8913 57.0576 15.3047C56.766 14.7147 56.6201 14.0237 56.6201 13.2315C56.6201 12.4493 56.766 11.7599 57.0576 11.1634C57.3526 10.5668 57.7636 10.1011 58.2906 9.76633C58.8209 9.43158 59.4407 9.2642 60.1499 9.2642C60.5808 9.2642 60.9984 9.33546 61.4028 9.47798C61.8071 9.6205 62.1701 9.84422 62.4916 10.1491C62.8131 10.4541 63.0666 10.8501 63.2522 11.3374C63.4378 11.8213 63.5306 12.4096 63.5306 13.1023V13.6293H57.4603V12.5156H62.074C62.074 12.1245 61.9944 11.7782 61.8353 11.4766C61.6762 11.1716 61.4525 10.9313 61.1642 10.7557C60.8791 10.58 60.5444 10.4922 60.1599 10.4922C59.7423 10.4922 59.3777 10.5949 59.0661 10.8004C58.7579 11.0026 58.5193 11.2678 58.3502 11.5959C58.1845 11.9207 58.1017 12.2737 58.1017 12.6548V13.5249C58.1017 14.0353 58.1911 14.4695 58.3701 14.8274C58.5524 15.1854 58.806 15.4588 59.1308 15.6477C59.4556 15.8333 59.8351 15.9261 60.2693 15.9261C60.551 15.9261 60.8079 15.8864 61.0399 15.8068C61.2719 15.724 61.4724 15.6013 61.6414 15.4389C61.8105 15.2765 61.9397 15.076 62.0292 14.8374L63.4362 15.0909C63.3235 15.5052 63.1213 15.8681 62.8296 16.1797C62.5413 16.4879 62.1784 16.7282 61.7409 16.9006C61.3067 17.0696 60.8112 17.1541 60.2544 17.1541ZM65.18 17V9.36364H66.6167V10.5767H66.6963C66.8355 10.1657 67.0808 9.84257 67.4321 9.60724C67.7867 9.36861 68.1878 9.24929 68.6352 9.24929C68.728 9.24929 68.8374 9.2526 68.9633 9.25923C69.0926 9.26586 69.1937 9.27415 69.2666 9.28409V10.706C69.2069 10.6894 69.1009 10.6712 68.9484 10.6513C68.796 10.6281 68.6435 10.6165 68.491 10.6165C68.1397 10.6165 67.8265 10.6911 67.5514 10.8402C67.2796 10.986 67.0642 11.1899 66.9051 11.4517C66.746 11.7102 66.6665 12.0052 66.6665 12.3366V17H65.18ZM72.7069 17.169C72.223 17.169 71.7855 17.0795 71.3944 16.9006C71.0033 16.7183 70.6934 16.4548 70.4648 16.1101C70.2394 15.7654 70.1267 15.3428 70.1267 14.8423C70.1267 14.4115 70.2095 14.0568 70.3753 13.7784C70.541 13.5 70.7647 13.2796 71.0464 13.1172C71.3282 12.9548 71.643 12.8321 71.991 12.7493C72.339 12.6664 72.6937 12.6035 73.055 12.5604C73.5123 12.5073 73.8836 12.4643 74.1686 12.4311C74.4536 12.3946 74.6608 12.3366 74.79 12.2571C74.9193 12.1776 74.9839 12.0483 74.9839 11.8693V11.8345C74.9839 11.4003 74.8613 11.0639 74.616 10.8253C74.3741 10.5866 74.0128 10.4673 73.5322 10.4673C73.0318 10.4673 72.6373 10.5784 72.349 10.8004C72.064 11.0192 71.8667 11.2628 71.7574 11.5312L70.3604 11.2131C70.5261 10.7491 70.768 10.3745 71.0862 10.0895C71.4077 9.80114 71.7773 9.59233 72.1949 9.46307C72.6125 9.33049 73.0516 9.2642 73.5123 9.2642C73.8173 9.2642 74.1404 9.30066 74.4818 9.37358C74.8265 9.44318 75.148 9.57244 75.4463 9.76136C75.7479 9.95028 75.9948 10.2204 76.1871 10.5717C76.3793 10.9197 76.4754 11.3722 76.4754 11.929V17H75.0237V15.956H74.964C74.8679 16.1482 74.7238 16.3371 74.5315 16.5227C74.3393 16.7083 74.0924 16.8625 73.7907 16.9851C73.4891 17.1077 73.1279 17.169 72.7069 17.169ZM73.0301 15.9759C73.4411 15.9759 73.7924 15.8946 74.0841 15.7322C74.3791 15.5698 74.6028 15.3577 74.7552 15.0959C74.911 14.8307 74.9889 14.5473 74.9889 14.2457V13.2614C74.9359 13.3144 74.8331 13.3641 74.6807 13.4105C74.5315 13.4536 74.3608 13.4917 74.1686 13.5249C73.9764 13.5547 73.7891 13.5829 73.6068 13.6094C73.4245 13.6326 73.272 13.6525 73.1494 13.669C72.8611 13.7055 72.5976 13.7668 72.3589 13.853C72.1236 13.9392 71.9347 14.0634 71.7922 14.2259C71.653 14.3849 71.5834 14.5971 71.5834 14.8622C71.5834 15.2301 71.7193 15.5085 71.991 15.6974C72.2628 15.883 72.6092 15.9759 73.0301 15.9759ZM82.02 9.36364V10.5568H77.8488V9.36364H82.02ZM78.9674 7.53409H80.4539V14.7578C80.4539 15.0462 80.497 15.2633 80.5832 15.4091C80.6694 15.5516 80.7804 15.6494 80.9163 15.7024C81.0555 15.7521 81.2063 15.777 81.3687 15.777C81.488 15.777 81.5924 15.7687 81.6819 15.7521C81.7714 15.7356 81.841 15.7223 81.8907 15.7124L82.1592 16.9403C82.073 16.9735 81.9504 17.0066 81.7913 17.0398C81.6322 17.0762 81.4333 17.0961 81.1947 17.0994C80.8036 17.1061 80.439 17.0365 80.1009 16.8906C79.7629 16.7448 79.4894 16.5194 79.2806 16.2145C79.0718 15.9096 78.9674 15.5268 78.9674 15.0661V7.53409ZM86.8735 17.1541C86.1211 17.1541 85.4732 16.9934 84.9296 16.6719C84.3894 16.3471 83.9717 15.8913 83.6768 15.3047C83.3851 14.7147 83.2393 14.0237 83.2393 13.2315C83.2393 12.4493 83.3851 11.7599 83.6768 11.1634C83.9717 10.5668 84.3827 10.1011 84.9097 9.76633C85.44 9.43158 86.0598 9.2642 86.7691 9.2642C87.2 9.2642 87.6176 9.33546 88.0219 9.47798C88.4263 9.6205 88.7892 9.84422 89.1107 10.1491C89.4322 10.4541 89.6858 10.8501 89.8714 11.3374C90.057 11.8213 90.1498 12.4096 90.1498 13.1023V13.6293H84.0795V12.5156H88.6931C88.6931 12.1245 88.6135 11.7782 88.4545 11.4766C88.2954 11.1716 88.0716 10.9313 87.7833 10.7557C87.4983 10.58 87.1635 10.4922 86.779 10.4922C86.3614 10.4922 85.9968 10.5949 85.6853 10.8004C85.377 11.0026 85.1384 11.2678 84.9694 11.5959C84.8037 11.9207 84.7208 12.2737 84.7208 12.6548V13.5249C84.7208 14.0353 84.8103 14.4695 84.9893 14.8274C85.1715 15.1854 85.4251 15.4588 85.7499 15.6477C86.0747 15.8333 86.4542 15.9261 86.8884 15.9261C87.1701 15.9261 87.427 15.8864 87.659 15.8068C87.891 15.724 88.0915 15.6013 88.2606 15.4389C88.4296 15.2765 88.5589 15.076 88.6483 14.8374L90.0553 15.0909C89.9426 15.5052 89.7404 15.8681 89.4488 16.1797C89.1604 16.4879 88.7975 16.7282 88.36 16.9006C87.9258 17.0696 87.4303 17.1541 86.8735 17.1541Z" fill="#FF7E21"/>
<path d="M23.0001 14.0231V9.97692H19.0232V7.65116V6H14.9771V9.94526L20.4829 14.0231H23.0001Z" fill="#FFA400"/>
<path d="M11 9.97698V14.0231H13.9967H14.9769V18.0001H19.0231V14.0231H20.4828L14.9769 9.94531V9.97698H11Z" fill="#FF8B00"/>
</svg>
