<svg width="54" height="54" viewBox="0 0 54 54" fill="none" xmlns="http://www.w3.org/2000/svg">
<circle cx="27" cy="27" r="25.5" fill="#787BE5" stroke="white" stroke-width="3"/>
<path d="M25 27C27.7614 27 30 24.7614 30 22C30 19.2386 27.7614 17 25 17C22.2386 17 20 19.2386 20 22C20 24.7614 22.2386 27 25 27Z" fill="white"/>
<path d="M33 37.2538V35.8681C33.0008 35.0972 32.8358 34.3337 32.5145 33.6214C32.1933 32.9091 31.722 32.2618 31.1278 31.7168C30.5335 31.1717 29.828 30.7395 29.0514 30.445C28.2749 30.1504 27.4426 29.9992 26.6023 30H23.3907C22.551 30 21.7195 30.1518 20.9437 30.4468C20.168 30.7418 19.4632 31.1741 18.8697 31.719C18.2762 32.264 17.8056 32.911 17.4848 33.6229C17.164 34.3348 16.9992 35.0977 17 35.8681V37.2538C17 37.4517 17.0857 37.6415 17.2382 37.7814C17.3908 37.9214 17.5976 38 17.8134 38H32.1843C32.2913 38.0003 32.3973 37.9812 32.4963 37.9438C32.5952 37.9064 32.6852 37.8515 32.7609 37.7822C32.8367 37.7129 32.8968 37.6305 32.9379 37.5399C32.9789 37.4492 33 37.352 33 37.2538V37.2538Z" fill="white"/>
<path d="M34.744 29C34.6263 28.9999 34.5098 28.9752 34.4015 28.9272C34.2932 28.8793 34.1954 28.8091 34.1138 28.7209L32.2445 26.7059C32.1647 26.6195 32.1021 26.5178 32.0602 26.4063C32.0183 26.2948 31.9979 26.1759 32.0002 26.0562C32.0025 25.9365 32.0274 25.8185 32.0736 25.7089C32.1198 25.5993 32.1863 25.5002 32.2693 25.4172C32.3523 25.3343 32.4502 25.2692 32.5574 25.2256C32.6647 25.182 32.7791 25.1609 32.8942 25.1632C33.0093 25.1656 33.1228 25.1916 33.2283 25.2396C33.3337 25.2876 33.4291 25.3567 33.5088 25.443L34.7829 26.8181L38.5321 23.2399C38.7032 23.0766 38.9296 22.9906 39.1616 23.0008C39.3936 23.0111 39.6122 23.1167 39.7693 23.2945C39.9263 23.4723 40.0091 23.7076 39.9992 23.9488C39.9894 24.19 39.8878 24.4173 39.7167 24.5806L35.3402 28.7604C35.1776 28.9155 34.9647 29.0011 34.744 29Z" fill="white"/>
</svg>
