<svg width="54" height="54" viewBox="0 0 54 54" fill="none" xmlns="http://www.w3.org/2000/svg">
<circle cx="27" cy="27" r="25.5" fill="#FF9839" stroke="white" stroke-width="3"/>
<g clip-path="url(#clip0_1_24)">
<path d="M29.1952 21.8268C32.103 24.3347 34.9546 26.7856 37.7915 29.247C38.1994 29.5926 38.4755 30.0722 38.5721 30.6027C38.6686 31.1333 38.5795 31.6815 38.3201 32.1523C37.8771 32.9383 37.0944 33.2353 35.9204 33.0748C35.8905 33.0704 35.8601 33.078 35.8356 33.0959C35.8111 33.1138 35.7944 33.1406 35.789 33.1708C35.4818 34.9122 35.0432 35.3607 33.4867 35.5362C33.4628 35.539 33.4402 35.5491 33.422 35.5652C33.4039 35.5812 33.3909 35.6025 33.3848 35.6262C33.0067 37.2161 32.6051 37.5971 31.1002 37.7906C31.075 37.7939 31.0515 37.8055 31.0334 37.8237C31.0153 37.8418 31.0035 37.8655 30.9998 37.8911C30.7045 40.1125 28.6193 40.633 27.2178 39.1915C27.1983 39.1695 27.1875 39.1409 27.1875 39.1113C27.1875 39.0816 27.1983 39.0531 27.2178 39.031C27.6904 38.4746 28.157 37.8986 28.6562 37.3541C29.337 36.6116 29.6574 35.7837 29.1819 34.8327C28.7212 33.9118 27.9459 33.5068 26.9402 33.6328C26.9158 33.636 26.8909 33.6313 26.8692 33.6195C26.8475 33.6077 26.83 33.5892 26.8191 33.5668C26.0172 31.8448 25.5594 31.5239 23.9246 31.5344C23.9005 31.5346 23.8769 31.5272 23.8571 31.5133C23.8372 31.4993 23.8221 31.4794 23.8139 31.4564C23.0962 29.4375 22.4434 28.9875 20.3952 29.1015C20.3691 29.1027 20.3434 29.0951 20.322 29.0799C20.3007 29.0647 20.2848 29.0428 20.277 29.0175C19.7085 27.1651 18.4311 26.2951 16.8923 26.8321C16.3621 27.0166 15.9029 27.4695 15.4657 27.8625C15.0929 28.2301 14.7418 28.6198 14.4143 29.0295C14.4032 29.042 14.3897 29.052 14.3745 29.0589C14.3594 29.0657 14.343 29.0693 14.3264 29.0693C14.3098 29.0693 14.2935 29.0657 14.2783 29.0589C14.2632 29.052 14.2496 29.042 14.2385 29.0295C13.1649 27.78 12.112 26.5741 11.0989 25.3366C10.9734 25.1866 10.9793 24.7802 11.0886 24.5867C12.3842 22.3628 13.7025 20.1524 15.0434 17.9555C15.1497 17.7815 15.5322 17.6 15.6902 17.6645C17.6248 18.4534 19.6169 18.2944 21.6194 18.14C22.2441 18.0905 22.8747 18.1234 23.6057 18.1294C23.6276 18.1298 23.649 18.1364 23.6674 18.1485C23.6858 18.1606 23.7005 18.1778 23.7097 18.198C23.719 18.2182 23.7224 18.2406 23.7197 18.2627C23.717 18.2848 23.7082 18.3057 23.6943 18.3229C23.3044 18.7984 22.9559 19.2334 22.5867 19.6624C22.0462 20.3029 21.485 20.9268 20.9504 21.5733C19.7543 23.0222 19.8827 24.9527 21.2458 26.1706C22.538 27.3255 24.4341 27.1321 25.6849 25.7041C26.7984 24.4337 27.9001 23.1542 29.0387 21.8358C29.059 21.8148 29.0863 21.8023 29.1152 21.8006C29.1442 21.7989 29.1727 21.8083 29.1952 21.8268V21.8268Z" fill="white"/>
<path d="M42.9719 25.0367L39.4617 29.1225C39.4414 29.146 39.4129 29.1605 39.3821 29.1628C39.3514 29.165 39.3211 29.1548 39.2978 29.1345C35.916 26.1856 32.5519 23.2547 29.1184 20.2594C29.0949 20.2394 29.0647 20.2294 29.0341 20.2317C29.0035 20.2339 28.9749 20.2481 28.9545 20.2714L25.9818 23.7032C25.552 24.1982 25.14 24.7112 24.6881 25.1851C24.319 25.5853 23.8096 25.8217 23.2701 25.8434C22.7307 25.865 22.2045 25.67 21.8055 25.3006C20.9342 24.5177 20.7954 23.4137 21.5648 22.4853C22.9027 20.8713 24.2909 19.2964 25.679 17.726C26.2387 17.093 26.9564 16.874 27.8012 17.0675C29.5733 17.4725 31.3454 17.8955 33.1323 18.2314C34.7951 18.5449 36.4446 18.3709 38.0706 17.885C38.2936 17.8175 38.7233 17.885 38.8222 18.05C40.2207 20.2999 41.5808 22.5738 42.9838 24.8972C42.9964 24.9187 43.0021 24.9438 43 24.9688C42.9978 24.9939 42.988 25.0176 42.9719 25.0367V25.0367Z" fill="white"/>
<path d="M14.9267 34.2912C14.9068 34.3022 14.8842 34.307 14.8617 34.3052C14.8391 34.3033 14.8176 34.2948 14.7997 34.2808C14.3729 33.9403 13.8531 33.6808 13.6759 33.2803C13.4987 32.8798 13.4839 32.1088 13.7409 31.7639C14.6482 30.5762 15.6236 29.4438 16.6619 28.3725C17.2984 27.699 18.1387 27.735 18.7574 28.329C18.9031 28.462 19.0215 28.6228 19.106 28.8023C19.1904 28.9818 19.2391 29.1765 19.2494 29.3751C19.2597 29.5738 19.2313 29.7726 19.1659 29.9601C19.1005 30.1476 18.9993 30.3202 18.8682 30.4679C17.9821 31.5389 17.0665 32.5858 16.114 33.5953C15.8438 33.8758 15.42 34.0258 14.9267 34.2912Z" fill="white"/>
<path d="M22.6768 31.9873C22.6766 32.0055 22.6725 32.0234 22.665 32.0398C22.5616 32.3263 22.4205 32.5973 22.2456 32.8453C21.5205 33.7453 20.7688 34.6152 19.9935 35.4717C19.3201 36.2217 18.4621 36.2907 17.7784 35.7042C17.0946 35.1177 17.04 34.2342 17.675 33.4633C18.4458 32.5363 19.2344 31.6214 20.0378 30.7289C20.2418 30.483 20.5203 30.3127 20.8297 30.2446C21.1391 30.1765 21.462 30.2144 21.7479 30.3524C22.346 30.6089 22.6664 31.0919 22.6768 31.9873Z" fill="white"/>
<path d="M25.7676 33.8188C25.7807 33.8361 25.7888 33.8568 25.7908 33.8786C25.7929 33.9003 25.789 33.9222 25.7795 33.9418C25.5845 34.3482 25.4841 34.6632 25.2921 34.9017C24.5656 35.7917 23.8193 36.6646 23.0533 37.5206C22.5261 38.1101 21.7833 38.1851 21.2517 37.7546C21.1198 37.6464 21.0106 37.5124 20.9306 37.3605C20.8507 37.2086 20.8016 37.0419 20.7863 36.8704C20.7711 36.6989 20.7899 36.526 20.8416 36.362C20.8934 36.198 20.9771 36.0462 21.0878 35.9157C21.8454 34.92 22.6688 33.9778 23.5525 33.0958C23.8478 32.8153 24.536 32.7583 24.9599 32.8873C25.2936 32.9878 25.5077 33.4708 25.7676 33.8188Z" fill="white"/>
<path d="M28.3121 35.6757C28.325 35.6928 28.333 35.7132 28.3354 35.7346C28.3377 35.756 28.3343 35.7776 28.3254 35.7972C28.1777 36.1227 28.1024 36.3972 27.9414 36.5892C27.3301 37.3391 26.6877 38.0651 26.0497 38.7941C25.6288 39.2755 25.1371 39.394 24.6113 38.9816C24.1196 38.5961 24.0782 38.0051 24.5286 37.4501C25.1563 36.6776 25.778 35.8902 26.4942 35.2092C26.7526 34.9647 27.302 34.8897 27.6756 34.9647C27.9208 35.0112 28.0994 35.3967 28.3121 35.6757Z" fill="white"/>
</g>
<defs>
<clipPath id="clip0_1_24">
<rect width="32" height="23" fill="white" transform="translate(11 17)"/>
</clipPath>
</defs>
</svg>
