<svg width="14" height="10" viewBox="0 0 14 10" fill="none" xmlns="http://www.w3.org/2000/svg">
<g clip-path="url(#clip0_104_10)">
<path d="M13.0273 0H4.29211C3.75478 0 3.31918 0.416254 3.31918 0.92973C3.31918 1.44321 3.75478 1.85946 4.29211 1.85946H13.0273C13.5646 1.85946 14.0002 1.44321 14.0002 0.92973C14.0002 0.416254 13.5646 0 13.0273 0Z" fill="#527AF5"/>
<path d="M13.0273 4.07029H4.29211C3.75478 4.07029 3.31918 4.48654 3.31918 5.00002C3.31918 5.5135 3.75478 5.92975 4.29211 5.92975H13.0273C13.5646 5.92975 14.0002 5.5135 14.0002 5.00002C14.0002 4.48654 13.5646 4.07029 13.0273 4.07029Z" fill="#527AF5"/>
<path d="M13.0273 8.14042H4.29211C3.75478 8.14042 3.31918 8.55667 3.31918 9.07015C3.31918 9.58362 3.75478 9.99988 4.29211 9.99988H13.0273C13.5646 9.99988 14.0002 9.58362 14.0002 9.07015C14.0002 8.55667 13.5646 8.14042 13.0273 8.14042Z" fill="#527AF5"/>
<path d="M0.960202 1.84743C1.49051 1.84743 1.9204 1.43662 1.9204 0.929864C1.9204 0.423106 1.49051 0.0122967 0.960202 0.0122967C0.429897 0.0122967 0 0.423106 0 0.929864C0 1.43662 0.429897 1.84743 0.960202 1.84743Z" fill="#527AF5"/>
<path d="M0.960202 5.75799C1.49051 5.75799 1.9204 5.34718 1.9204 4.84043C1.9204 4.33367 1.49051 3.92286 0.960202 3.92286C0.429897 3.92286 0 4.33367 0 4.84043C0 5.34718 0.429897 5.75799 0.960202 5.75799Z" fill="#527AF5"/>
<path d="M0.960202 9.98777C1.49051 9.98777 1.9204 9.57696 1.9204 9.07021C1.9204 8.56345 1.49051 8.15264 0.960202 8.15264C0.429897 8.15264 0 8.56345 0 9.07021C0 9.57696 0.429897 9.98777 0.960202 9.98777Z" fill="#527AF5"/>
</g>
<defs>
<clipPath id="clip0_104_10">
<rect width="14" height="10" fill="white"/>
</clipPath>
</defs>
</svg>
