<svg width="17" height="18" viewBox="0 0 17 18" fill="none" xmlns="http://www.w3.org/2000/svg">
<g clip-path="url(#clip0_225_17653)">
<path d="M15.9991 8.90199H6.28061C6.13613 8.9015 5.99466 8.94252 5.87364 9.02002C5.75262 9.09751 5.65734 9.20809 5.59955 9.33811L2.4548 16.5413H1.86257C1.76112 16.5413 1.66381 16.5018 1.59194 16.4315C1.52006 16.3612 1.47949 16.2658 1.4791 16.1662V6.60075C1.47949 6.50101 1.52001 6.40546 1.59184 6.33493C1.66367 6.26441 1.76099 6.22461 1.86257 6.22423H5.00139C5.06867 6.22453 5.1347 6.24213 5.19289 6.27529C5.25108 6.30845 5.2994 6.35601 5.33304 6.41322L5.59955 6.87114C5.76324 7.15011 5.99882 7.38187 6.28261 7.54314C6.56641 7.70441 6.88844 7.78951 7.21634 7.78989H9.62376C9.8201 7.78989 10.0084 7.71331 10.1472 7.577C10.2861 7.44069 10.364 7.25581 10.364 7.06303C10.364 6.87025 10.2861 6.68537 10.1472 6.54906C10.0084 6.41275 9.8201 6.33617 9.62376 6.33617H7.21782C7.15054 6.33587 7.08451 6.31827 7.02632 6.28511C6.96813 6.25195 6.91981 6.20439 6.88617 6.14718L6.61819 5.69071C6.45492 5.41159 6.21968 5.1796 5.93613 5.01806C5.65257 4.85653 5.3307 4.77115 5.00287 4.77051H1.86405C1.36991 4.77128 0.896239 4.96435 0.546832 5.30742C0.197425 5.65049 0.000783101 6.11557 0 6.60075V16.1706C0.000783972 16.6556 0.197474 17.1206 0.546923 17.4634C0.896373 17.8063 1.37005 17.999 1.86405 17.9994H12.7078C12.8428 17.999 12.9751 17.9617 13.0898 17.8918C13.1105 17.8918 13.1312 17.8918 13.152 17.8918C13.3032 17.8919 13.4507 17.8465 13.5749 17.7618C13.699 17.6771 13.7938 17.5571 13.8464 17.4179L16.6935 9.87453C16.7348 9.76467 16.7484 9.64664 16.7332 9.5305C16.718 9.41435 16.6745 9.30353 16.6063 9.20746C16.5381 9.11139 16.4473 9.03292 16.3416 8.97872C16.2359 8.92452 16.1184 8.8962 15.9991 8.89617V8.90199ZM12.5938 16.5457H4.06567L6.76772 10.3557H14.9361L12.5938 16.5457Z" fill="#527AF5"/>
</g>
<defs>
<clipPath id="clip0_225_17653">
<rect width="17" height="18" fill="white"/>
</clipPath>
</defs>
</svg>
