<svg width="29" height="29" viewBox="0 0 29 29" fill="none" xmlns="http://www.w3.org/2000/svg">
<path fill-rule="evenodd" clip-rule="evenodd" d="M26.0999 14.4984C26.0999 17.5749 24.8778 20.5255 22.7023 22.7009C20.5269 24.8763 17.5764 26.0984 14.4999 26.0984C11.4234 26.0984 8.47289 24.8763 6.29746 22.7009C4.12204 20.5255 2.8999 17.5749 2.8999 14.4984C2.8999 11.4219 4.12204 8.47142 6.29746 6.296C8.47289 4.12058 11.4234 2.89844 14.4999 2.89844C17.5764 2.89844 20.5269 4.12058 22.7023 6.296C24.8778 8.47142 26.0999 11.4219 26.0999 14.4984ZM15.9499 8.69844C15.9499 9.083 15.7971 9.45181 15.5252 9.72374C15.2533 9.99567 14.8845 10.1484 14.4999 10.1484C14.1153 10.1484 13.7465 9.99567 13.4746 9.72374C13.2027 9.45181 13.0499 9.083 13.0499 8.69844C13.0499 8.31387 13.2027 7.94506 13.4746 7.67313C13.7465 7.40121 14.1153 7.24844 14.4999 7.24844C14.8845 7.24844 15.2533 7.40121 15.5252 7.67313C15.7971 7.94506 15.9499 8.31387 15.9499 8.69844ZM13.0499 13.0484C12.6653 13.0484 12.2965 13.2012 12.0246 13.4731C11.7527 13.7451 11.5999 14.1139 11.5999 14.4984C11.5999 14.883 11.7527 15.2518 12.0246 15.5237C12.2965 15.7957 12.6653 15.9484 13.0499 15.9484V20.2984C13.0499 20.683 13.2027 21.0518 13.4746 21.3237C13.7465 21.5957 14.1153 21.7484 14.4999 21.7484H15.9499C16.3345 21.7484 16.7033 21.5957 16.9752 21.3237C17.2471 21.0518 17.3999 20.683 17.3999 20.2984C17.3999 19.9139 17.2471 19.5451 16.9752 19.2731C16.7033 19.0012 16.3345 18.8484 15.9499 18.8484V14.4984C15.9499 14.1139 15.7971 13.7451 15.5252 13.4731C15.2533 13.2012 14.8845 13.0484 14.4999 13.0484H13.0499Z" fill="#00CA69"/>
</svg>
