<svg width="18" height="17" viewBox="0 0 18 17" fill="none" xmlns="http://www.w3.org/2000/svg">
<path d="M3.67785 8.49748H5.04859L3.02239 11.2257L1 8.50132H1.89389C2.32326 8.50132 2.33085 8.50132 2.35935 8.06661C2.45416 6.52807 3.01357 5.05587 3.96218 3.84842C4.91079 2.64098 6.20302 1.75632 7.66468 1.31368C8.76341 0.975422 9.92665 0.909587 11.0559 1.12175C12.7724 1.41937 14.3285 2.32336 15.4464 3.67245C16.2438 4.6094 16.7906 5.73691 17.0347 6.94768C17.3862 8.67501 17.181 10.3333 16.3783 11.9023C15.6213 13.4158 14.3733 14.6213 12.8427 15.3176C11.2801 16.045 9.66046 16.1726 7.9924 15.7763C7.27472 15.5981 6.58712 15.3135 5.95196 14.9318C5.57864 14.713 5.44756 14.3023 5.64419 13.9645C5.85032 13.6104 6.23695 13.5202 6.62357 13.7495C7.72833 14.4059 8.91857 14.7255 10.1962 14.618C12.116 14.4578 13.6482 13.573 14.7559 11.9848C15.3518 11.1161 15.7151 10.1064 15.8103 9.05388C15.9054 8.00135 15.7292 6.94186 15.2989 5.97851C14.8685 5.01516 14.1986 4.18077 13.3544 3.55654C12.5101 2.9323 11.5203 2.53947 10.4812 2.4163C8.32772 2.18119 6.53712 2.9201 5.12078 4.55627C4.37856 5.41841 3.90878 6.48524 3.77189 7.61942C3.7339 7.89483 3.7111 8.17696 3.67785 8.49748Z" fill="#9FB5D1" stroke="#9FB5D1"/>
</svg>
