<svg width="34" height="33" viewBox="0 0 34 33" fill="none" xmlns="http://www.w3.org/2000/svg">
<path d="M18.617 2.59217L18.617 2.59201C18.1196 1.05996 15.9854 1.02645 15.4176 2.49668L15.3858 2.59437L13.0318 9.83677L13.0317 9.83722C12.8551 10.379 12.5115 10.851 12.0503 11.1856C11.5891 11.5202 11.0339 11.7003 10.4641 11.7002C10.4641 11.7002 10.464 11.7002 10.464 11.7002H2.84993C1.20564 11.7002 0.518736 13.8079 1.85017 14.7777L18.617 2.59217ZM18.617 2.59217L20.971 9.83457L20.9712 9.83502M18.617 2.59217L20.9712 9.83502M20.9712 9.83502C21.1477 10.3763 21.4908 10.848 21.9515 11.1826C22.4121 11.5172 22.9668 11.6976 23.5362 11.698H23.5365M20.9712 9.83502L23.5365 11.698M23.5365 11.698H31.1529M23.5365 11.698H31.1529M31.1529 11.698C32.7988 11.698 33.4847 13.8053 32.1527 14.7755L31.1529 11.698ZM8.00773 19.2501L1.8506 14.778L32.1523 14.7758L25.9929 19.2501C25.9928 19.2502 25.9928 19.2502 25.9927 19.2503C25.5312 19.5852 25.1876 20.0575 25.011 20.5997C24.8345 21.142 24.8342 21.7262 25.0101 22.2687L25.0102 22.269L27.3642 29.5114L27.3643 29.5117C27.8739 31.076 26.0816 32.3819 24.7456 31.4119C24.7456 31.4119 24.7455 31.4118 24.7455 31.4118L18.5856 26.9371L18.5855 26.937C18.1243 26.6022 17.5691 26.4219 16.9992 26.4219C16.4294 26.4219 15.8741 26.6022 15.413 26.937L15.4129 26.9371L9.25287 31.4119L9.25271 31.412C7.92071 32.3804 6.12802 31.0779 6.63645 29.5114C6.63646 29.5113 6.63648 29.5113 6.6365 29.5112L8.99045 22.269L8.99054 22.2687C9.16651 21.7262 9.16619 21.142 8.98964 20.5997C8.81311 20.0575 8.46947 19.5851 8.00797 19.2503C8.00789 19.2502 8.00781 19.2502 8.00773 19.2501Z" fill="#FFE252" stroke="#334D9B"/>
</svg>
