<svg width="304" height="200" viewBox="0 0 304 200" fill="none" xmlns="http://www.w3.org/2000/svg">
<g clip-path="url(#clip0_305_8878)">
<path d="M212.983 150.296C245.442 140.645 271.072 116.156 291.535 89.755C297.722 81.7778 303.806 72.8866 304.001 62.8794C304.138 55.8519 301.308 49.0855 297.928 42.8889C294.17 35.9801 289.553 29.3443 283.183 24.6078C269.021 14.0784 249.543 14.85 232.22 10.7902C215.882 6.96776 200.059 -1.53177 183.365 0.26073C164.197 2.30252 149.543 17.2123 132.517 26.0798C117.439 33.8436 100.528 36.9663 83.7888 35.0779C76.5707 34.2588 69.3525 32.5138 62.1114 33.1905C53.2319 34.0333 45.1429 38.4611 37.6842 43.2569C25.081 51.3885 13.1309 61.1344 5.38566 73.8006C2.25778 78.9051 -0.194115 84.6506 0.012119 90.5979C0.287097 99.0737 5.74084 106.41 11.0456 113.152C15.7203 119.088 20.4407 125.178 26.284 130.08C39.3455 141.049 57.4253 145.904 68.5734 158.737C72.7439 163.544 75.7572 169.29 80.3288 173.741C89.2083 182.383 102.877 184.864 115.308 183.238C127.74 181.612 139.369 176.495 150.826 171.676C180.206 159.372 210.226 148.775 240.744 139.933" fill="#E9F0FA"/>
<path d="M152.841 10.4706L159.716 24.9649C159.788 25.1161 159.895 25.2469 160.026 25.3462C160.158 25.4454 160.311 25.5101 160.472 25.5347L175.917 27.9089C176.103 27.9367 176.278 28.0179 176.422 28.1433C176.566 28.2687 176.673 28.4333 176.731 28.6185C176.79 28.8037 176.797 29.0022 176.752 29.1915C176.707 29.3807 176.613 29.5533 176.478 29.6895L165.307 40.9787C165.188 41.0956 165.098 41.2414 165.046 41.4029C164.994 41.5645 164.981 41.7368 165.009 41.9046L167.656 57.8353C167.686 58.0287 167.663 58.2268 167.591 58.4076C167.518 58.5884 167.399 58.7448 167.245 58.8593C167.092 58.9738 166.911 59.0419 166.722 59.0561C166.534 59.0702 166.345 59.0298 166.178 58.9393L152.406 51.3776C152.26 51.3014 152.099 51.2617 151.936 51.2617C151.773 51.2617 151.612 51.3014 151.466 51.3776L137.718 58.9037C137.551 58.9957 137.362 59.0372 137.174 59.0236C136.985 59.01 136.804 58.9417 136.651 58.8266C136.498 58.7115 136.38 58.5542 136.309 58.3726C136.238 58.1911 136.218 57.9925 136.251 57.7997L138.829 41.8809C138.856 41.7141 138.844 41.5429 138.795 41.3818C138.745 41.2206 138.658 41.0743 138.543 40.955L127.372 29.6658C127.233 29.5315 127.134 29.3589 127.086 29.1683C127.039 28.9777 127.045 28.777 127.104 28.5899C127.163 28.4028 127.272 28.2371 127.419 28.1122C127.566 27.9873 127.744 27.9086 127.933 27.8852L143.366 25.511C143.528 25.4894 143.682 25.4259 143.815 25.3263C143.947 25.2267 144.053 25.0943 144.122 24.9412L150.997 10.4469C151.078 10.2627 151.209 10.1068 151.374 9.99836C151.539 9.8899 151.731 9.8335 151.927 9.83602C152.122 9.83853 152.313 9.89986 152.475 10.0125C152.637 10.1252 152.765 10.2844 152.841 10.4706Z" fill="#5081F1"/>
<path d="M148.625 10.4699L155.5 24.9642C155.573 25.1168 155.681 25.2486 155.815 25.3479C155.949 25.4473 156.104 25.5111 156.267 25.534L171.701 27.9081C171.887 27.9359 172.062 28.0171 172.206 28.1425C172.35 28.2679 172.457 28.4325 172.515 28.6177C172.574 28.803 172.581 29.0014 172.536 29.1907C172.491 29.38 172.397 29.5525 172.262 29.6888L161.114 40.9304C160.996 41.0479 160.908 41.1941 160.858 41.3558C160.808 41.5175 160.797 41.6895 160.828 41.8564L163.463 57.7871C163.496 57.9799 163.476 58.1784 163.405 58.36C163.334 58.5416 163.215 58.6989 163.063 58.814C162.91 58.9291 162.729 58.9973 162.54 59.011C162.352 59.0246 162.163 58.983 161.996 58.891L148.247 51.3649C148.1 51.2886 147.937 51.2489 147.772 51.2489C147.607 51.2489 147.444 51.2886 147.296 51.3649L133.547 58.891C133.381 58.983 133.192 59.0246 133.004 59.011C132.815 58.9973 132.634 58.9291 132.481 58.814C132.328 58.6989 132.21 58.5416 132.139 58.36C132.068 58.1784 132.048 57.9799 132.081 57.7871L134.647 41.8801C134.678 41.7133 134.667 41.5412 134.617 41.3796C134.567 41.2179 134.479 41.0717 134.361 40.9542L123.19 29.6413C123.051 29.507 122.952 29.3344 122.905 29.1438C122.857 28.9532 122.863 28.7525 122.922 28.5654C122.981 28.3783 123.091 28.2125 123.238 28.0877C123.384 27.9628 123.563 27.8841 123.751 27.8607L139.184 25.4865C139.348 25.4636 139.503 25.3998 139.637 25.3004C139.77 25.2011 139.879 25.0694 139.952 24.9167L146.827 10.4224C146.918 10.2558 147.051 10.118 147.212 10.0237C147.372 9.92942 147.555 9.88218 147.74 9.88706C147.924 9.89194 148.104 9.94874 148.26 10.0514C148.416 10.154 148.543 10.2987 148.625 10.4699V10.4699Z" stroke="#2E304F" stroke-width="0.75" stroke-miterlimit="10"/>
<path d="M85.5985 26.8293L90.1814 36.4447C90.2299 36.5453 90.301 36.6323 90.3887 36.6984C90.4765 36.7645 90.5783 36.8078 90.6856 36.8246L100.917 38.3203C101.042 38.3372 101.16 38.3906 101.257 38.4743C101.354 38.5581 101.426 38.6687 101.464 38.7932C101.503 38.9177 101.506 39.051 101.474 39.1775C101.442 39.3039 101.376 39.4184 101.284 39.5074L93.8822 46.986C93.8048 47.0655 93.7468 47.163 93.7129 47.2703C93.6791 47.3776 93.6703 47.4918 93.6874 47.6033L95.4404 58.1683C95.4624 58.2962 95.4489 58.4279 95.4017 58.5482C95.3545 58.6685 95.2754 58.7725 95.1736 58.8482C95.0717 58.9239 94.9513 58.9682 94.8262 58.9761C94.7011 58.9839 94.5764 58.9549 94.4665 58.8925L85.3006 53.9067C85.2017 53.8598 85.0943 53.8355 84.9855 53.8355C84.8768 53.8355 84.7693 53.8598 84.6704 53.9067L75.5045 58.8925C75.3946 58.9549 75.2699 58.9839 75.1447 58.9761C75.0196 58.9682 74.8992 58.9239 74.7974 58.8482C74.6956 58.7725 74.6165 58.6685 74.5693 58.5482C74.5221 58.4279 74.5087 58.2962 74.5306 58.1683L76.2836 47.6033C76.3007 47.4918 76.2919 47.3776 76.258 47.2703C76.2242 47.163 76.1662 47.0655 76.0888 46.986L68.7102 39.5074C68.6178 39.4184 68.5517 39.3039 68.5197 39.1775C68.4878 39.051 68.4912 38.9177 68.5297 38.7932C68.5681 38.6687 68.64 38.5581 68.7369 38.4743C68.8338 38.3906 68.9517 38.3372 69.0769 38.3203L79.3083 36.789C79.4174 36.773 79.5211 36.7302 79.6108 36.6641C79.7005 36.598 79.7736 36.5106 79.8239 36.4091L84.4069 26.7937C84.4677 26.6837 84.5562 26.5928 84.6629 26.5309C84.7697 26.4689 84.8907 26.438 85.013 26.4417C85.1353 26.4454 85.2544 26.4833 85.3575 26.5516C85.4606 26.6199 85.5439 26.7159 85.5985 26.8293Z" fill="white"/>
<path d="M82.8021 26.8289L87.385 36.4443C87.435 36.5437 87.5065 36.6298 87.594 36.6957C87.6815 36.7616 87.7825 36.8056 87.8892 36.8242L98.1092 38.3199C98.2328 38.3392 98.3489 38.3936 98.4444 38.4771C98.54 38.5606 98.6113 38.67 98.6505 38.793C98.6897 38.916 98.6952 39.0479 98.6664 39.1739C98.6376 39.3 98.5756 39.4153 98.4873 39.507L91.1087 47.0212C91.0289 47.0989 90.9692 47.1962 90.9351 47.3041C90.9011 47.4119 90.8938 47.527 90.914 47.6385L92.6554 58.2036C92.6774 58.3314 92.664 58.4631 92.6168 58.5834C92.5695 58.7037 92.4905 58.8077 92.3886 58.8834C92.2868 58.9591 92.1664 59.0035 92.0413 59.0113C91.9162 59.0191 91.7915 58.9901 91.6816 58.9277L82.5156 53.9419C82.4187 53.8952 82.3131 53.871 82.2063 53.871C82.0994 53.871 81.9939 53.8952 81.897 53.9419L72.731 58.9277C72.6211 58.9901 72.4964 59.0191 72.3713 59.0113C72.2462 59.0035 72.1258 58.9591 72.0239 58.8834C71.9221 58.8077 71.843 58.7037 71.7958 58.5834C71.7486 58.4631 71.7352 58.3314 71.7571 58.2036L73.5101 47.6385C73.5245 47.5271 73.5145 47.4137 73.4807 47.3068C73.447 47.2 73.3905 47.1023 73.3153 47.0212L65.9024 39.507C65.8141 39.4153 65.7521 39.3 65.7233 39.1739C65.6945 39.0479 65.7 38.916 65.7391 38.793C65.7783 38.67 65.8497 38.5606 65.9452 38.4771C66.0408 38.3936 66.1568 38.3392 66.2805 38.3199L76.512 36.7886C76.6192 36.7718 76.7211 36.7285 76.8088 36.6624C76.8966 36.5963 76.9676 36.5093 77.0161 36.4087L81.5991 26.7933C81.6589 26.6802 81.7477 26.5865 81.8557 26.5224C81.9637 26.4583 82.0867 26.4263 82.2111 26.43C82.3355 26.4337 82.4565 26.4729 82.5607 26.5432C82.665 26.6136 82.7486 26.7125 82.8021 26.8289V26.8289Z" stroke="#2E304F" stroke-width="0.75" stroke-miterlimit="10"/>
<path d="M215.399 26.8265L219.982 36.4419C220.031 36.5425 220.102 36.6295 220.189 36.6956C220.277 36.7617 220.379 36.805 220.486 36.8218L230.718 38.3175C230.841 38.3368 230.957 38.3912 231.053 38.4747C231.149 38.5582 231.22 38.6676 231.259 38.7906C231.298 38.9136 231.304 39.0454 231.275 39.1715C231.246 39.2975 231.184 39.4128 231.096 39.5046L223.683 46.9832C223.606 47.0627 223.548 47.1602 223.514 47.2675C223.48 47.3748 223.471 47.489 223.488 47.6005L225.241 58.1655C225.263 58.2934 225.25 58.4251 225.202 58.5454C225.155 58.6657 225.076 58.7697 224.974 58.8454C224.872 58.9211 224.752 58.9654 224.627 58.9733C224.502 58.9811 224.377 58.9521 224.267 58.8897L215.101 53.9039C215.002 53.857 214.895 53.8327 214.786 53.8327C214.677 53.8327 214.57 53.857 214.471 53.9039L205.305 58.8897C205.195 58.9521 205.071 58.9811 204.946 58.9733C204.82 58.9654 204.7 58.9211 204.598 58.8454C204.496 58.7697 204.417 58.6657 204.37 58.5454C204.323 58.4251 204.309 58.2934 204.331 58.1655L206.073 47.6005C206.09 47.489 206.081 47.3748 206.047 47.2675C206.013 47.1602 205.955 47.0627 205.878 46.9832L198.511 39.5046C198.419 39.4156 198.352 39.3011 198.321 39.1747C198.289 39.0482 198.292 38.9149 198.33 38.7904C198.369 38.6659 198.441 38.5553 198.538 38.4715C198.635 38.3878 198.752 38.3344 198.878 38.3175L209.121 36.8218C209.227 36.8032 209.328 36.7592 209.416 36.6933C209.503 36.6274 209.575 36.5413 209.625 36.4419L214.208 26.8265C214.265 26.7149 214.351 26.6215 214.456 26.5565C214.561 26.4914 214.681 26.457 214.803 26.457C214.926 26.457 215.046 26.4914 215.151 26.5565C215.255 26.6215 215.341 26.7149 215.399 26.8265Z" fill="white"/>
<path d="M212.558 26.8293L217.141 36.4447C217.191 36.5441 217.263 36.6301 217.35 36.6961C217.438 36.762 217.539 36.806 217.646 36.8245L227.923 38.3203C228.048 38.3371 228.166 38.3906 228.263 38.4743C228.36 38.5581 228.432 38.6687 228.47 38.7932C228.508 38.9177 228.512 39.051 228.48 39.1774C228.448 39.3039 228.382 39.4183 228.289 39.5073L220.888 46.986C220.811 47.0655 220.753 47.163 220.719 47.2703C220.685 47.3776 220.676 47.4917 220.693 47.6033L222.435 58.1683C222.457 58.2962 222.443 58.4278 222.396 58.5481C222.349 58.6684 222.27 58.7724 222.168 58.8482C222.066 58.9239 221.946 58.9682 221.821 58.976C221.695 58.9839 221.571 58.9549 221.461 58.8924L212.295 53.9067C212.196 53.8597 212.089 53.8354 211.98 53.8354C211.871 53.8354 211.764 53.8597 211.665 53.9067L202.499 58.8924C202.389 58.9549 202.264 58.9839 202.139 58.976C202.014 58.9682 201.894 58.9239 201.792 58.8482C201.69 58.7724 201.611 58.6684 201.564 58.5481C201.516 58.4278 201.503 58.2962 201.525 58.1683L203.278 47.6033C203.295 47.4917 203.286 47.3776 203.252 47.2703C203.218 47.163 203.16 47.0655 203.083 46.986L195.716 39.5073C195.624 39.4183 195.558 39.3039 195.526 39.1774C195.494 39.051 195.497 38.9177 195.536 38.7932C195.574 38.6687 195.646 38.5581 195.743 38.4743C195.84 38.3906 195.958 38.3371 196.083 38.3203L206.314 36.7889C206.421 36.7722 206.523 36.7289 206.611 36.6628C206.699 36.5967 206.77 36.5096 206.818 36.4091L211.401 26.7937C211.464 26.6922 211.552 26.6094 211.655 26.5532C211.758 26.497 211.873 26.4694 211.99 26.473C212.106 26.4765 212.22 26.5112 212.319 26.5737C212.419 26.6361 212.501 26.7241 212.558 26.8293V26.8293Z" stroke="#2E304F" stroke-width="0.75" stroke-miterlimit="10"/>
<path d="M60.174 72.9125C57.0984 79.3381 55.7263 86.4952 56.1983 93.6509C56.1983 93.6509 54.8005 107.813 108.169 100.773L116.121 101.213C116.121 101.213 71.9523 152.613 65.5476 170.194L91.1091 198.34C91.1091 198.34 105.912 135.781 135.449 110.496L143.584 103.017C146.17 105.055 148.932 106.843 151.833 108.359L164.906 111.279C164.906 111.279 169.604 110.709 169.799 106.792C169.799 106.792 222.434 150.951 220.211 192.962C220.211 192.962 251.272 182.279 243.481 165.137C243.481 165.137 216.82 118.58 194.948 100.18C194.948 100.18 262.913 106.59 267.405 88.2259L265.113 71.2031C265.113 71.2031 225.688 84.3798 184.751 81.1272C184.751 81.1272 170.738 71.2981 154.56 78.931C154.56 78.931 140.651 72.7819 134.968 79.4296C134.945 79.394 76.2832 86.7539 60.174 72.9125Z" fill="white"/>
<path d="M60.174 72.9125C57.0984 79.3381 55.7263 86.4952 56.1983 93.6509C56.1983 93.6509 54.8005 107.813 108.169 100.773L116.121 101.213C116.121 101.213 71.9523 152.613 65.5476 170.194L91.1091 198.34C91.1091 198.34 105.912 135.781 135.449 110.496L143.584 103.017C146.17 105.055 148.932 106.843 151.833 108.359L164.906 111.279C164.906 111.279 169.604 110.709 169.799 106.792C169.799 106.792 222.434 150.951 220.211 192.962C220.211 192.962 251.272 182.279 243.481 165.137C243.481 165.137 216.82 118.58 194.948 100.18C194.948 100.18 262.913 106.59 267.405 88.2259L265.113 71.2031C265.113 71.2031 225.688 84.3798 184.751 81.1272C184.751 81.1272 170.738 71.2981 154.56 78.931C154.56 78.931 140.651 72.7819 134.968 79.4296C134.945 79.394 76.2832 86.7539 60.174 72.9125Z" fill="white"/>
<path d="M131.405 79.5013C133.977 84.616 136.272 89.875 138.28 95.2539C139.116 97.4738 139.735 99.7886 140.571 101.985C141.072 103.27 141.924 104.375 143.023 105.166C144.615 106.223 146.941 106.436 148.752 106.745C151.765 107.255 154.813 107.6 157.918 107.813C160.358 108.08 162.817 108.104 165.262 107.884C165.823 107.897 166.373 107.722 166.831 107.386C167.473 106.662 166.465 105.439 166.167 104.798C163.875 99.7886 161.424 94.8266 159.052 89.8408C157.253 86.0659 155.615 81.46 152.441 78.7059C150.619 77.1509 147.732 76.5455 145.452 76.2012C143.191 75.8746 140.896 75.9106 138.646 76.308C136.134 76.6952 133.716 77.5734 131.52 78.8959C131.05 79.1927 131.52 79.9643 131.955 79.6675C137.031 76.3793 143.985 76.1062 149.485 78.1599C151.429 78.8932 153.077 80.2864 154.16 82.1129C155.162 83.7032 156.047 85.3699 156.806 87.0986C158.903 91.5621 161.045 95.9899 163.165 100.441C163.681 101.522 164.185 102.59 164.689 103.67C164.941 104.193 165.182 104.715 165.422 105.237C165.663 105.76 166.259 106.531 166.201 106.923C166.201 106.579 166.201 106.923 165.892 106.923C165.583 106.923 165.216 107.054 164.872 107.089C162.651 107.242 160.421 107.21 158.204 106.994C155.408 106.792 152.601 106.496 149.84 106.056C147.803 105.891 145.8 105.419 143.894 104.656C142.634 103.897 141.694 102.677 141.258 101.237C140.456 98.9339 139.712 96.6072 138.841 94.328C136.853 89.1329 134.605 84.0492 132.104 79.0977C131.886 78.5516 131.142 78.9908 131.405 79.5013Z" fill="black"/>
<path d="M133.685 83.5238C117.906 96.351 103.115 110.433 89.4479 125.642C82.9014 132.847 76.7797 140.454 71.116 148.422C68.294 152.437 65.6929 156.614 63.325 160.934C62.4428 162.548 60.8158 164.72 61.0335 166.691C61.2512 168.661 63.3937 170.43 64.5968 171.843L88.5428 199.87C88.6042 199.93 88.6811 199.97 88.764 199.985C88.8469 200 88.9324 199.991 89.01 199.957C89.0876 199.923 89.154 199.866 89.2013 199.794C89.2485 199.722 89.2745 199.637 89.2761 199.549C89.2761 183.785 95.7839 169.184 102.727 155.497C109.063 143.009 115.468 130.319 123.946 119.208C128.703 112.903 134.279 107.311 140.514 102.588C140.949 102.256 140.514 101.473 140.078 101.817C128.919 110.126 120.498 121.51 113.44 133.631C109.808 139.875 106.485 146.297 103.185 152.731C99.5049 159.656 96.2373 166.807 93.4007 174.146C90.2569 182.227 88.5752 190.838 88.4397 199.549L89.173 199.241L68.8131 175.404L63.7146 169.469C62.6949 168.282 61.6064 167.095 62.0647 165.397C62.5174 164.145 63.1054 162.95 63.8177 161.836C66.0875 157.657 68.5776 153.611 71.2765 149.716C82.287 133.702 95.7152 119.303 109.613 105.96C117.542 98.3465 125.757 91.0736 134.258 84.1411C134.693 83.7849 134.086 83.1558 133.651 83.5119L133.685 83.5238Z" fill="black"/>
<path d="M131.657 79.6283C120.387 81.2576 108.997 81.8099 97.6289 81.2784C91.7856 80.9935 85.9423 80.4237 80.1563 79.569C75.3209 78.9532 70.5345 77.9772 65.8345 76.6487C60.8505 75.1174 55.9925 72.6245 52.9219 68.1255C52.7272 67.8406 52.2116 67.8168 52.1428 68.2204C50.9069 74.6645 50.1941 81.2044 50.0118 87.7717C49.8847 88.8806 50.0279 90.0049 50.4281 91.0417C50.8284 92.0785 51.4731 92.9949 52.3033 93.7071C54.2497 95.3921 56.3987 96.8087 58.6965 97.9213C68.7562 102.883 80.2021 102.563 91.0523 101.898C98.3278 101.447 105.603 100.913 112.821 101.744C113.371 101.803 113.36 100.913 112.821 100.853C101.169 99.5238 89.5399 101.791 77.8763 101.34C72.8187 101.226 67.8029 100.363 62.9816 98.776C60.5749 97.9493 58.2682 96.838 56.1071 95.464C53.8157 94.0276 50.9857 92.2352 50.7909 89.2081C50.7051 85.9503 50.8776 82.6907 51.3065 79.4621C51.6617 75.7822 52.2002 72.1259 52.8761 68.4816L52.0856 68.5884C57.5622 76.6369 67.8166 78.465 76.5586 79.937C88.2328 81.896 100.061 82.691 111.882 82.3111C118.546 82.0922 125.193 81.4978 131.795 80.5305C132.345 80.4474 132.104 79.5927 131.566 79.6758L131.657 79.6283Z" fill="black"/>
<path d="M151.479 78.8922C161.367 75.9958 172.4 75.4141 181.337 81.4682L181.44 80.6491C173.464 82.023 166.156 86.1074 160.668 92.2588C160.278 92.6743 160.885 93.3035 161.275 92.888C166.656 86.8428 173.836 82.8391 181.669 81.5157C182.059 81.4445 182.047 80.8865 181.772 80.6966C172.606 74.5238 161.344 75.0698 151.25 78.0257C151.148 78.0651 151.064 78.1425 151.015 78.2428C150.965 78.343 150.954 78.4588 150.982 78.5674C151.011 78.676 151.078 78.7695 151.17 78.8296C151.262 78.8897 151.372 78.9121 151.479 78.8922Z" fill="black"/>
<path d="M173.832 84.4966C175.73 85.6701 177.488 87.0728 179.068 88.6751C181.921 91.2986 184.659 94.0645 187.363 96.866C194.776 104.558 201.879 112.583 208.765 120.786C215.995 129.392 223.041 138.224 229.48 147.483C232.122 151.223 234.58 155.098 236.847 159.093C238.559 161.905 239.896 164.944 240.823 168.127C241.889 172.388 239.586 176.531 236.893 179.653C232.161 185.114 225.527 188.438 219.512 192.118C218.057 193.008 216.614 193.922 215.193 194.907L215.823 195.168C213.955 186.218 212.099 177.362 209.029 168.697C204.138 155.411 197.36 142.956 188.921 131.743C182.214 122.751 174.865 114.295 166.934 106.446C166.85 106.384 166.748 106.355 166.645 106.364C166.543 106.372 166.446 106.419 166.374 106.494C166.301 106.57 166.256 106.669 166.248 106.776C166.239 106.882 166.267 106.988 166.327 107.075C179.022 119.789 190.697 133.82 199.554 149.739C205.14 159.851 209.38 170.701 212.157 181.992C213.302 186.432 214.116 190.919 215.055 195.406C215.074 195.47 215.107 195.53 215.151 195.579C215.195 195.629 215.25 195.668 215.31 195.693C215.371 195.718 215.436 195.729 215.501 195.724C215.566 195.72 215.629 195.7 215.686 195.667C221.62 191.583 228.186 188.545 233.788 183.903C236.424 181.854 238.637 179.279 240.296 176.329C241.372 174.542 241.987 172.498 242.083 170.394C241.814 167.622 240.982 164.94 239.643 162.524C237.758 158.687 235.618 154.99 233.238 151.46C227.008 142.151 220.296 133.199 213.131 124.644C205.924 115.871 198.465 107.312 190.697 99.074C187.718 95.9163 184.682 92.7824 181.531 89.7791C179.587 87.823 177.503 86.0214 175.298 84.3897C174.983 84.1616 174.654 83.9554 174.313 83.7725C173.82 83.4994 173.385 84.271 173.877 84.5322L173.832 84.4966Z" fill="black"/>
<path d="M191.728 100.582C209.487 101.84 227.693 101.769 245.177 97.8756C249.683 96.9377 254.103 95.5993 258.387 93.8751C260.003 93.2103 262.466 92.4387 263.68 91.0498C263.859 90.8563 263.978 90.6128 264.024 90.3495C264.661 87.5194 264.866 84.6033 264.631 81.7075C264.554 78.8156 264.17 75.9414 263.486 73.1367C263.291 72.3533 262.924 70.7626 261.939 70.7626C261.206 70.6913 260.117 71.4392 259.464 71.7004C252.943 74.1136 246.207 75.8552 239.356 76.8998C222.651 79.8082 205.614 80.7459 188.703 81.0902C185.793 81.1535 182.883 81.1931 179.972 81.2089C179.87 81.2262 179.778 81.2805 179.711 81.362C179.644 81.4436 179.607 81.5471 179.607 81.6541C179.607 81.7611 179.644 81.8646 179.711 81.9461C179.778 82.0277 179.87 82.0819 179.972 82.0992C197.823 81.9805 215.765 81.2683 233.467 78.7279C241.596 77.7268 249.616 75.9424 257.425 73.3979C258.788 72.9231 260.117 72.3651 261.469 71.8309C261.596 71.7622 261.731 71.7103 261.87 71.6766C261.912 71.6713 261.954 71.6713 261.996 71.6766C261.996 71.6766 261.87 71.6766 261.927 71.6766C261.504 71.5935 262.157 72.0327 262.283 72.2346C262.792 73.4771 263.109 74.7952 263.222 76.1401C263.508 77.824 263.692 79.5249 263.772 81.2327C263.841 82.6088 263.841 83.9876 263.772 85.3637C263.772 86.0997 263.715 86.8357 263.6 87.5717C263.596 88.5486 263.457 89.52 263.188 90.4563C263.268 90.2782 263.188 90.4563 262.993 90.5869C262.784 90.7509 262.566 90.9016 262.34 91.038C261.44 91.5881 260.506 92.0759 259.544 92.4981C255.91 94.1101 252.145 95.3853 248.293 96.3086C232.722 100.285 216.373 100.879 200.412 100.25C197.537 100.131 194.684 99.9648 191.796 99.763C191.247 99.763 191.247 100.618 191.796 100.653L191.728 100.582Z" fill="black"/>
<path d="M163.578 100.224C163.578 100.224 169.994 85.742 176.823 85.0772L174.428 83.3203C174.428 83.3203 163.234 86.656 160.393 93.5767L163.578 100.224Z" fill="black"/>
<path d="M176.823 85.0802L184.065 81.5664L178.21 81.792L172.596 84.4273L176.823 85.0802Z" fill="black"/>
<path d="M132.883 85.0785L136.217 105.461L140.96 101.543L135.736 87.7019L133.994 83.832L132.883 85.0785Z" fill="black"/>
</g>
<defs>
<clipPath id="clip0_305_8878">
<rect width="304" height="200" fill="white"/>
</clipPath>
</defs>
</svg>
