<svg width="32" height="32" viewBox="0 0 32 32" fill="none" xmlns="http://www.w3.org/2000/svg">
<circle cx="16" cy="16" r="16" fill="#5081F0"/>
<path d="M9.33398 10.499V13.7781H9.85132M9.85132 13.7781C10.4414 12.3187 11.499 11.0963 12.8585 10.3025C14.2179 9.50865 15.8023 9.18829 17.3633 9.39161C18.9243 9.59492 20.3738 10.3104 21.4845 11.4259C22.5953 12.5415 23.3045 13.994 23.5011 15.5559M9.85132 13.7781H12.8585M23.5562 22.499V19.1115H23.0398M23.0398 19.1115C22.4488 20.5701 21.3909 21.7915 20.0316 22.5846C18.6723 23.3777 17.0884 23.6977 15.5279 23.4945C13.9673 23.2912 12.5182 22.5763 11.4073 21.4615C10.2965 20.3467 9.58674 18.895 9.3891 17.3337M23.0398 19.1115H20.0005" stroke="white" stroke-width="1.2" stroke-linecap="round" stroke-linejoin="round"/>
</svg>
