<svg width="22" height="21" viewBox="0 0 22 21" fill="none" xmlns="http://www.w3.org/2000/svg">
<path d="M17.2575 20.9892H4.27952C4.03058 20.9906 3.78382 20.9429 3.55355 20.8487C3.32328 20.7546 3.11407 20.6159 2.93804 20.4407C2.762 20.2655 2.62265 20.0572 2.52804 19.828C2.43344 19.5989 2.38546 19.3533 2.3869 19.1055V10.3005L1.57577 11.0647C1.50121 11.1409 1.41207 11.2014 1.31363 11.2428C1.21518 11.2841 1.10942 11.3054 1.00258 11.3054C0.895731 11.3054 0.789967 11.2841 0.691522 11.2428C0.593078 11.2014 0.503945 11.1409 0.42938 11.0647C0.353056 10.9906 0.292624 10.9018 0.25173 10.8037C0.210837 10.7057 0.190331 10.6004 0.19145 10.4942C0.199152 10.3834 0.230072 10.2754 0.282224 10.1771C0.334376 10.0789 0.406606 9.99256 0.49427 9.92375L10.2278 0.236099C10.3799 0.0849171 10.586 0 10.801 0C11.0159 0 11.2221 0.0849171 11.3742 0.236099L21.1077 9.92375C21.1835 9.99829 21.2436 10.0871 21.2845 10.1851C21.3253 10.2831 21.3461 10.3882 21.3456 10.4942C21.3467 10.6004 21.3262 10.7057 21.2853 10.8037C21.2444 10.9018 21.184 10.9906 21.1077 11.0647C21.0331 11.1409 20.944 11.2014 20.8455 11.2428C20.7471 11.2841 20.6413 11.3054 20.5345 11.3054C20.4276 11.3054 20.3219 11.2841 20.2234 11.2428C20.125 11.2014 20.0359 11.1409 19.9613 11.0647L19.1502 10.3005V19.1163C19.1516 19.364 19.1036 19.6096 19.009 19.8388C18.9144 20.068 18.7751 20.2762 18.599 20.4514C18.423 20.6266 18.2138 20.7653 17.9835 20.8595C17.7532 20.9536 17.5065 21.0014 17.2575 21V20.9892ZM13.8941 19.3746H17.1386C17.2496 19.3793 17.3593 19.3492 17.4522 19.2885C17.4989 19.2344 17.5257 19.166 17.5279 19.0947V9.14874H4.00915V19.1055C4.0114 19.1768 4.03812 19.2452 4.08485 19.2992C4.11029 19.3245 4.14073 19.3443 4.17424 19.3573C4.20775 19.3702 4.2436 19.3761 4.27952 19.3746H7.64299C7.66543 19.3468 7.69081 19.3216 7.7187 19.2992C7.76543 19.2452 7.79215 19.1768 7.7944 19.1055V14.7999C7.81077 14.3224 8.00778 13.8687 8.34597 13.5297C8.5199 13.3511 8.72841 13.2094 8.9589 13.1131C9.1894 13.0169 9.43709 12.9682 9.68703 12.97H11.85C12.1 12.9682 12.3477 13.0169 12.5782 13.1131C12.8087 13.2094 13.0172 13.3511 13.1911 13.5297C13.5421 13.8821 13.7401 14.3575 13.7427 14.8537V19.1593C13.7449 19.2306 13.7716 19.299 13.8184 19.3531C13.8441 19.3582 13.8694 19.3654 13.8941 19.3746V19.3746ZM9.39502 19.3746H12.142C12.1364 19.285 12.1364 19.1951 12.142 19.1055V14.7999C12.14 14.7317 12.1131 14.6667 12.0663 14.6169C12.0414 14.5902 12.0113 14.5687 11.9779 14.5539C11.9444 14.5391 11.9083 14.5313 11.8717 14.5308H9.70866C9.67204 14.5313 9.63591 14.5391 9.60244 14.5539C9.56898 14.5687 9.53889 14.5902 9.51399 14.6169C9.46721 14.6667 9.44029 14.7317 9.43828 14.7999V19.1055C9.42959 19.196 9.41514 19.2859 9.39502 19.3746ZM5.15554 7.53413H16.3815L10.7685 1.94758L5.15554 7.53413Z" fill="#81D3F7"/>
</svg>
