<svg width="18" height="17" viewBox="0 0 18 17" fill="none" xmlns="http://www.w3.org/2000/svg">
<path d="M13.0935 16.9774C12.7617 16.9782 12.438 16.8712 12.1683 16.6715L8.75461 14.1287L5.32238 16.6906C5.05987 16.8905 4.7426 16.9989 4.41652 17C4.09043 17.0011 3.77247 16.895 3.50866 16.6969C3.24486 16.4989 3.04891 16.2192 2.9492 15.8984C2.84948 15.5776 2.85118 15.2323 2.95404 14.9126L4.23072 10.8403C4.23072 10.7161 4.23072 10.6874 4.17521 10.6683L0.835491 8.1446C0.572681 7.94609 0.377718 7.66642 0.278747 7.34596C0.179776 7.02551 0.181918 6.68084 0.284863 6.36173C0.387808 6.04261 0.58623 5.76555 0.851485 5.57054C1.11674 5.37554 1.43511 5.27268 1.76062 5.27681H5.87746H5.96072C5.98665 5.2581 6.0061 5.2313 6.01622 5.20033L7.29291 1.09939C7.39016 0.778352 7.58477 0.498157 7.84799 0.300197C8.11121 0.102236 8.42907 -0.00298976 8.75461 6.4664e-05C9.08016 -0.00298976 9.39802 0.102236 9.66123 0.300197C9.92445 0.498157 10.1191 0.778352 10.2163 1.09939L11.493 5.16209C11.5031 5.19306 11.5226 5.21986 11.5485 5.23857C11.5786 5.24815 11.6109 5.24815 11.641 5.23857H15.7764C16.1019 5.23444 16.4202 5.3373 16.6855 5.53231C16.9508 5.72731 17.1492 6.00437 17.2521 6.32349C17.3551 6.64261 17.3572 6.98727 17.2582 7.30773C17.1593 7.62818 16.9643 7.90785 16.7015 8.10636L13.3525 10.6109L13.3063 10.783L14.5829 14.8552C14.6988 15.1853 14.7034 15.5462 14.596 15.8794C14.4885 16.2125 14.2753 16.4984 13.9909 16.6906C13.7281 16.8807 13.4142 16.981 13.0935 16.9774ZM8.75461 12.6948C9.08521 12.6925 9.40839 12.796 9.67974 12.9912L13.0287 15.5053C13.0511 15.5275 13.0809 15.5399 13.112 15.5399C13.143 15.5399 13.1728 15.5275 13.1952 15.5053C13.2237 15.489 13.2452 15.4623 13.2555 15.4304C13.2658 15.3986 13.2641 15.3638 13.2508 15.3332L11.9926 11.2705C11.8969 10.9595 11.8969 10.6255 11.9926 10.3146C12.0953 9.99798 12.2889 9.72124 12.5477 9.52114L15.8966 7.00704C15.9116 6.99994 15.9249 6.98974 15.9359 6.97708C15.9469 6.96442 15.9553 6.94956 15.9605 6.93344C15.9657 6.91731 15.9676 6.90025 15.9662 6.88331C15.9647 6.86638 15.96 6.84992 15.9521 6.83497C15.9438 6.80387 15.9256 6.77657 15.9004 6.75749C15.8752 6.73841 15.8446 6.72866 15.8134 6.72982H11.6318C11.3006 6.73606 10.9763 6.63217 10.7066 6.43348C10.4425 6.23899 10.2475 5.96023 10.1516 5.64006L8.89338 1.53911C8.89476 1.51992 8.89212 1.50064 8.88564 1.4826C8.87915 1.46455 8.86898 1.44816 8.8558 1.43455C8.84263 1.42094 8.82677 1.41043 8.80931 1.40373C8.79185 1.39703 8.77319 1.3943 8.75461 1.39572C8.72303 1.39265 8.69146 1.40166 8.66588 1.42104C8.64031 1.44043 8.6225 1.46883 8.61584 1.50088L7.36692 5.60182C7.27559 5.92433 7.07958 6.20451 6.81184 6.39524C6.54455 6.59985 6.21929 6.7074 5.88671 6.70114H1.73287C1.70166 6.69998 1.67099 6.70973 1.6458 6.72881C1.62062 6.74789 1.60241 6.77519 1.5941 6.80629C1.58626 6.82125 1.58148 6.8377 1.58005 6.85463C1.57862 6.87157 1.58056 6.88863 1.58576 6.90476C1.59097 6.92089 1.59932 6.93574 1.6103 6.9484C1.62128 6.96106 1.63466 6.97126 1.64961 6.97836L4.99858 9.49246C5.25728 9.69256 5.4509 9.96931 5.55366 10.2859C5.64936 10.5969 5.64936 10.9308 5.55366 11.2418L4.27698 15.3332C4.26363 15.3638 4.26194 15.3986 4.27222 15.4304C4.2825 15.4623 4.30402 15.489 4.33249 15.5053C4.35488 15.5275 4.38471 15.5399 4.41575 15.5399C4.44678 15.5399 4.47662 15.5275 4.49901 15.5053L7.84798 12.9912C8.11416 12.7998 8.43033 12.6964 8.75461 12.6948Z" fill="#81D3F7"/>
</svg>
