<svg width="226" height="80" viewBox="0 0 226 80" fill="none" xmlns="http://www.w3.org/2000/svg">
<path d="M75.3978 63.8281H78.9339L79.3952 71.1396L82.7904 63.8281H86.3265L84.2766 74.0277H81.8423L83.6872 65.9363L79.8436 74.0277H77.8193L77.2428 65.9363L75.7566 74.0277H73.3223L75.3978 63.8281Z" fill="white"/>
<path d="M93.3857 63.8281H95.9481L97.6649 74.0277H95.1025L94.8591 72.1998H91.3998L90.4005 74.0277H87.71L93.3857 63.8281ZM92.3095 70.2379H94.5644L94.1928 66.5821L92.3095 70.2379Z" fill="white"/>
<path d="M102.79 63.8281H107.62C109.414 63.8281 110.772 64.3034 110.772 66.4725C110.867 67.1327 110.685 67.802 110.266 68.3357C109.846 68.8694 109.223 69.2244 108.53 69.3239C109.26 69.5067 109.529 70.0307 109.529 71.0178C109.529 71.7611 109.529 72.3338 109.529 72.9188C109.498 73.2866 109.551 73.6564 109.683 74.0033H107.12C107.065 73.8127 107.034 73.6162 107.031 73.4184C107.031 72.8944 107.108 72.346 107.108 71.6636C107.108 70.7619 106.723 70.2988 105.826 70.2988H104.071L103.328 73.9546H100.766L102.79 63.8281ZM104.443 68.3491H106.48C107.415 68.3491 108.209 68.0444 108.209 66.9477C108.209 66.0703 107.505 65.8875 106.826 65.8875H104.891L104.443 68.3491Z" fill="white"/>
<path d="M122.188 66.1191H119.279L117.665 74.0277H115.102L116.717 66.1191H113.821L114.321 63.8281H122.687L122.188 66.1191Z" fill="white"/>
<path d="M126.224 63.8281H128.786L126.736 74.0277H124.174L126.224 63.8281Z" fill="white"/>
<path d="M135.807 63.8281H138.369L139.983 74.0277H137.421L137.177 72.1998H133.718L132.719 74.0277H130.028L135.807 63.8281ZM134.73 70.2379H136.972L136.601 66.5821L134.73 70.2379Z" fill="white"/>
<path d="M145.249 63.8281H147.812L146.21 71.7489H150.823L150.348 74.0277H143.187L145.249 63.8281Z" fill="white"/>
<path d="M165.569 63.8281H168.132L169.746 74.0277H167.183L166.953 72.1998H163.481L162.494 74.0277H159.804L165.569 63.8281ZM164.493 70.2379H166.735L166.363 66.5821L164.493 70.2379Z" fill="white"/>
<path d="M174.844 63.8281H179.662C181.455 63.8281 182.826 64.3034 182.826 66.4725C182.921 67.1345 182.738 67.8055 182.316 68.3395C181.893 68.8735 181.267 69.2273 180.571 69.3239C181.302 69.5067 181.584 70.0307 181.584 71.0178C181.584 71.7611 181.584 72.3338 181.584 72.9188C181.555 73.2856 181.603 73.6542 181.724 74.0033H179.162C179.113 73.8115 179.082 73.6156 179.072 73.4184C179.072 72.8944 179.149 72.346 179.149 71.6636C179.149 70.7619 178.778 70.2988 177.868 70.2988H176.151L175.408 73.9546H172.846L174.844 63.8281ZM176.497 68.3491H178.547C179.47 68.3491 180.264 68.0444 180.264 66.9477C180.264 66.0703 179.559 65.8875 178.893 65.8875H176.997L176.497 68.3491Z" fill="white"/>
<path d="M194.293 66.1191H191.397L189.783 74.0277H187.221L188.835 66.1191H185.939L186.375 63.8281H194.741L194.293 66.1191Z" fill="white"/>
<path d="M198.957 70.6075C198.957 71.7042 199.547 72.0698 200.764 72.0698C201.981 72.0698 202.224 71.6067 202.224 71.0462C202.224 70.0348 200.738 69.9251 199.662 69.5473C199.035 69.4146 198.474 69.0829 198.071 68.6068C197.668 68.1307 197.448 67.5385 197.446 66.9274C197.446 64.6121 199.47 63.625 201.443 63.625C203.416 63.625 205.286 64.4171 205.286 66.903H202.724C202.734 66.7492 202.708 66.5952 202.648 66.4519C202.589 66.3087 202.496 66.1798 202.378 66.0744C202.075 65.873 201.709 65.7782 201.34 65.8063C200.713 65.8063 200.059 66.0744 200.059 66.7202C200.059 67.3661 200.469 67.4026 201.853 67.7926C203.237 68.1825 204.8 68.9137 204.8 70.9121C204.8 72.9106 203.237 74.2511 200.354 74.2511C199.829 74.3086 199.297 74.2547 198.796 74.0931C198.295 73.9315 197.839 73.6664 197.459 73.3167C197.079 72.967 196.785 72.5416 196.599 72.071C196.413 71.6004 196.339 71.0964 196.382 70.5953L198.957 70.6075Z" fill="white"/>
<path d="M112.655 17.7579H101.624C99.6716 17.7513 97.7576 18.2753 96.1075 19.2684C94.4573 20.2615 93.1398 21.6822 92.3099 23.3634L75.1162 57.8249H90.6444L92.9121 52.2316H102.265L102.688 57.8249H113.04L117.998 51.1105L112.655 17.7579ZM96.3842 42.7632L101.15 31.5401L101.816 42.7632H96.3842Z" fill="white"/>
<path d="M167.849 17.6962H149.323L143.519 28.0298L141.072 17.6719H122.559L131.053 36.9864L118.433 53.8394L117.229 55.4601L115.461 57.8242H133.987L140.521 46.0161L143.212 57.8242H161.725L152.987 37.0108L167.849 17.6962Z" fill="white"/>
<path d="M169.311 17.6953H184.903L178.241 57.8111H162.648L169.311 17.6953Z" fill="white"/>
<path d="M181.046 53.5107L188.938 42.6531C191.911 45.2791 195.763 46.8238 199.815 47.0156C201.532 47.0156 202.442 46.6013 202.442 45.797C202.442 45.2243 201.584 44.81 199.021 44.4688C193.153 43.6523 186.376 39.9844 186.376 33.6478C186.376 23.765 195.344 17.2578 206.478 17.2578C212.23 17.2578 217.483 19.0004 220.725 22.0225L213.383 31.7711C210.726 29.6082 207.349 28.4121 203.851 28.3957C202.391 28.3957 201.161 28.7491 201.161 29.5046C201.161 30.0773 201.955 30.3088 204.095 30.6013C206.986 31.0394 209.753 32.0301 212.23 33.5137C215.344 35.4878 216.996 37.7544 216.996 41.1908C216.996 51.5975 207.849 58.4947 196.318 58.4947C190.745 58.7456 185.282 56.9628 181.046 53.5107Z" fill="white"/>
<path d="M78.7544 13.4071C78.4375 11.3638 77.3909 9.48655 75.7904 8.09073C74.1898 6.69491 72.1329 5.86561 69.9653 5.74219H68.6841C66.9842 5.88948 65.3519 6.44689 63.9417 7.36169C62.5315 8.27649 61.3901 9.5184 60.6254 10.9699C58.063 14.7841 56.5255 19.0247 54.3218 22.9608C52.6563 25.5076 50.0939 28.6881 46.545 28.0301C45.8082 27.8916 45.1138 27.5966 44.5137 27.167C43.9137 26.7374 43.4235 26.1844 43.0798 25.5492C42.736 24.9141 42.5476 24.2133 42.5287 23.4992C42.5098 22.7851 42.6608 22.0762 42.9704 21.4254C43.1737 20.9625 43.4796 20.5469 43.8672 20.2068C44.721 19.5774 45.3792 18.7395 45.7718 17.7824C46.1644 16.8253 46.2766 15.7849 46.0965 14.7719C45.8943 13.5282 45.2757 12.3797 44.3326 11.4969C43.3895 10.6142 42.1723 10.0443 40.8616 9.87184C39.5509 9.69942 38.2167 9.93367 37.0571 10.5398C35.8975 11.146 34.9744 12.0917 34.4248 13.2365C33.4639 15.2837 34.1045 17.6599 33.1436 19.7437C32.0584 23.0982 29.7147 25.9563 26.5582 27.7742C24.6364 29.0171 22.074 29.2487 20.4084 31.0522C14.4893 36.7186 19.7422 46.4916 28.0956 45.1512C29.4447 44.971 30.7292 44.488 31.8431 43.7421C32.9571 42.9962 33.8683 42.0089 34.5017 40.8618C35.056 39.9715 35.9209 39.2942 36.946 38.9477C37.971 38.6012 39.0913 38.6074 40.1121 38.9653C41.1328 39.3232 41.9893 40.0101 42.5326 40.9066C43.0759 41.803 43.2716 42.8522 43.0857 43.8717C41.5483 48.3317 37.8584 51.7315 36.0135 56.0575C34.6426 58.8846 33.3486 62.0042 34.1429 65.1481C34.6833 67.5152 36.1145 69.6129 38.1674 71.0464C40.2202 72.48 42.7531 73.1505 45.2894 72.9319C47.8258 72.7133 50.1906 71.6206 51.9391 69.8594C53.6875 68.0982 54.699 65.7899 54.7831 63.369C54.2825 55.553 55.7816 47.738 59.152 40.5937C62.1327 34.3952 66.4599 28.8675 71.8487 24.3743C72.9505 23.4482 74.1292 22.6196 75.2695 21.7422C76.2952 20.9637 77.1392 19.9907 77.748 18.8851C78.3568 17.7795 78.717 16.5655 78.8056 15.3203V14.1017C78.7672 13.9189 78.78 13.6752 78.7544 13.4071ZM18.5379 26.1291C17.0769 26.4261 15.5671 26.4326 14.1033 26.1482C12.6396 25.8638 11.2534 25.2947 10.0319 24.4765C8.8104 23.6584 7.7799 22.6089 7.0051 21.394C6.23031 20.179 5.72795 18.8248 5.52957 17.4164C5.3312 16.0081 5.44108 14.5759 5.85232 13.2098C6.26356 11.8437 6.96728 10.5732 7.9193 9.47814C8.87133 8.38304 10.0511 7.48696 11.3845 6.84615C12.718 6.20533 14.1763 5.83363 15.668 5.75437H16.9492C29.6587 6.81454 30.863 23.5091 18.5123 26.1413L18.5379 26.1291Z" fill="url(#paint0_linear_660_12265)"/>
<defs>
<linearGradient id="paint0_linear_660_12265" x1="25.5461" y1="-10.9524" x2="82.7521" y2="91.4638" gradientUnits="userSpaceOnUse">
<stop stop-color="#39D0B5"/>
<stop offset="1" stop-color="#527AF5"/>
</linearGradient>
</defs>
</svg>
