<svg width="20" height="15" viewBox="0 0 20 15" fill="none" xmlns="http://www.w3.org/2000/svg">
<path d="M12.5875 14.9981C12.4904 14.9994 12.394 14.9814 12.304 14.9451C12.214 14.9088 12.1322 14.8549 12.0635 14.7868C11.9949 14.7186 11.9406 14.6374 11.9041 14.5481C11.8675 14.4588 11.8494 14.3631 11.8507 14.2666V12.8233C11.8505 12.5381 11.7931 12.2558 11.6818 11.9929C11.5705 11.73 11.4074 11.4917 11.2023 11.2921C11.0025 11.0901 10.764 10.9299 10.5007 10.821C10.2375 10.7121 9.95489 10.6567 9.66971 10.6582H3.86363C3.57688 10.656 3.2926 10.7109 3.02766 10.8198C2.76271 10.9287 2.52249 11.0893 2.32124 11.2921C2.11608 11.4917 1.95307 11.73 1.84174 11.9929C1.73041 12.2558 1.67299 12.5381 1.67284 12.8233V14.2666C1.67284 14.4606 1.59521 14.6467 1.45704 14.7838C1.31886 14.921 1.13145 14.9981 0.936031 14.9981C0.740616 14.9981 0.553205 14.921 0.415026 14.7838C0.276847 14.6467 0.199219 14.4606 0.199219 14.2666V12.8233C0.199217 12.346 0.29407 11.8735 0.478345 11.4327C0.662619 10.9919 0.932693 10.5915 1.27309 10.2545C1.61349 9.91746 2.01753 9.65043 2.46206 9.46868C2.90659 9.28694 3.38288 9.19404 3.86363 9.19533H9.69918C10.6684 9.19533 11.598 9.57755 12.2834 10.2579C12.9687 10.9383 13.3538 11.8611 13.3538 12.8233V14.2666C13.3538 14.3652 13.3339 14.4628 13.295 14.5535C13.2561 14.6442 13.1992 14.7261 13.1276 14.7945C13.0561 14.8628 12.9713 14.916 12.8785 14.951C12.7857 14.986 12.6867 15.002 12.5875 14.9981V14.9981Z" fill="#81D3F7"/>
<path d="M14.1393 9.34064C13.963 9.34038 13.7924 9.27819 13.6579 9.16509L11.3787 7.21458C11.2302 7.08526 11.1395 6.90266 11.1266 6.70696C11.1137 6.51126 11.1796 6.3185 11.3099 6.17106C11.4402 6.02363 11.6241 5.93361 11.8213 5.92081C12.0184 5.90801 12.2126 5.97347 12.3611 6.10279L14.1982 7.67295L18.3833 4.61066C18.5414 4.51285 18.731 4.47814 18.9138 4.5135C19.0967 4.54885 19.2593 4.65166 19.3689 4.80123C19.4784 4.9508 19.5269 5.13601 19.5044 5.3196C19.482 5.50319 19.3903 5.67152 19.2478 5.79071L14.5519 9.2041C14.4313 9.28979 14.2875 9.33738 14.1393 9.34064V9.34064Z" fill="#81D3F7"/>
<path d="M6.77196 7.646C6.00987 7.64599 5.26492 7.42153 4.6314 7.00102C3.99788 6.58051 3.50429 5.98286 3.2131 5.28373C2.92192 4.58461 2.84623 3.81543 2.99562 3.07358C3.14501 2.33172 3.51277 1.65055 4.05233 1.11628C4.5919 0.582016 5.27901 0.218682 6.02669 0.0722743C6.77437 -0.0741337 7.549 0.00296735 8.25252 0.293817C8.95604 0.584667 9.55681 1.07619 9.97879 1.70616C10.4008 2.33613 10.625 3.07622 10.623 3.83275C10.6204 4.84498 10.2135 5.81487 9.49161 6.52972C8.76968 7.24456 7.79163 7.646 6.77196 7.646V7.646ZM6.77196 1.47264C6.30174 1.47264 5.84209 1.61105 5.45112 1.87039C5.06015 2.12972 4.75543 2.49832 4.57548 2.92957C4.39554 3.36083 4.34846 3.83537 4.44019 4.29319C4.53193 4.751 4.75836 5.17154 5.09085 5.5016C5.42334 5.83167 5.84696 6.05645 6.30814 6.14752C6.76932 6.23858 7.24735 6.19185 7.68177 6.01321C8.11619 5.83458 8.4875 5.53208 8.74873 5.14396C9.00997 4.75584 9.14941 4.29954 9.14941 3.83275C9.14682 3.2076 8.89551 2.60879 8.45021 2.16673C8.00491 1.72468 7.4017 1.4752 6.77196 1.47264Z" fill="#81D3F7"/>
</svg>
