<svg width="21" height="20" viewBox="0 0 21 20" fill="none" xmlns="http://www.w3.org/2000/svg">
<path d="M8.57802 2.317C9.00715 0.561 11.5235 0.561 11.9526 2.317C12.017 2.5808 12.1432 2.82578 12.321 3.032C12.4988 3.23822 12.7231 3.39985 12.9757 3.50375C13.2283 3.60764 13.5021 3.65085 13.7747 3.62987C14.0473 3.60889 14.3111 3.5243 14.5445 3.383C16.0989 2.443 17.8788 4.209 16.9319 5.753C16.7898 5.98466 16.7047 6.24634 16.6836 6.51677C16.6626 6.78721 16.706 7.05877 16.8106 7.30938C16.9151 7.55999 17.0777 7.78258 17.2852 7.95905C17.4927 8.13553 17.7393 8.26091 18.0048 8.325C19.7737 8.751 19.7737 11.249 18.0048 11.675C17.739 11.7389 17.4922 11.8642 17.2845 12.0407C17.0768 12.2172 16.914 12.4399 16.8093 12.6907C16.7046 12.9414 16.6611 13.2132 16.6822 13.4838C16.7034 13.7544 16.7886 14.0162 16.9309 14.248C17.8778 15.791 16.0989 17.558 14.5435 16.618C14.3102 16.4769 14.0466 16.3924 13.7741 16.3715C13.5017 16.3506 13.2282 16.3938 12.9757 16.4975C12.7233 16.6013 12.499 16.7627 12.3213 16.9687C12.1435 17.1747 12.0172 17.4194 11.9526 17.683C11.5235 19.439 9.00715 19.439 8.57802 17.683C8.51363 17.4192 8.38741 17.1742 8.20963 16.968C8.03184 16.7618 7.80752 16.6001 7.55491 16.4963C7.30231 16.3924 7.02856 16.3491 6.75595 16.3701C6.48334 16.3911 6.21958 16.4757 5.98612 16.617C4.43179 17.557 2.65181 15.791 3.59871 14.247C3.74085 14.0153 3.82592 13.7537 3.84701 13.4832C3.8681 13.2128 3.82461 12.9412 3.72007 12.6906C3.61554 12.44 3.45291 12.2174 3.24541 12.0409C3.03791 11.8645 2.79139 11.7391 2.52589 11.675C0.756994 11.249 0.756994 8.751 2.52589 8.325C2.79163 8.26108 3.03841 8.13578 3.24614 7.95929C3.45388 7.7828 3.6167 7.56011 3.72136 7.30935C3.82601 7.05859 3.86954 6.78683 3.8484 6.51621C3.82727 6.24559 3.74206 5.98375 3.59972 5.752C2.65282 4.209 4.43179 2.442 5.98713 3.382C6.99045 3.99 8.29999 3.452 8.57802 2.317Z" stroke="#81D3F7" stroke-width="1.7" stroke-linecap="round" stroke-linejoin="round"/>
<path d="M13.2872 10C13.2872 10.7956 12.9688 11.5587 12.4021 12.1213C11.8354 12.6839 11.0667 13 10.2652 13C9.4637 13 8.69504 12.6839 8.1283 12.1213C7.56156 11.5587 7.24316 10.7956 7.24316 10C7.24316 9.20435 7.56156 8.44129 8.1283 7.87868C8.69504 7.31607 9.4637 7 10.2652 7C11.0667 7 11.8354 7.31607 12.4021 7.87868C12.9688 8.44129 13.2872 9.20435 13.2872 10V10Z" stroke="#81D3F7" stroke-width="1.7" stroke-linecap="round" stroke-linejoin="round"/>
</svg>
