<svg width="18" height="14" viewBox="0 0 18 14" fill="none" xmlns="http://www.w3.org/2000/svg">
<path d="M15.6184 14H1.91854C1.69333 14.0012 1.47012 13.9582 1.26183 13.8737C1.05355 13.7892 0.864323 13.6647 0.705122 13.5076C0.388711 13.1868 0.20994 12.7579 0.206055 12.3103V0.724137C0.206055 0.532084 0.283378 0.347897 0.421016 0.212095C0.558653 0.0762927 0.745329 0 0.939978 0H16.597C16.7917 0 16.9783 0.0762927 17.116 0.212095C17.2536 0.347897 17.3309 0.532084 17.3309 0.724137V12.3103C17.327 12.7579 17.1483 13.1868 16.8319 13.5076C16.6727 13.6647 16.4834 13.7892 16.2751 13.8737C16.0669 13.9582 15.8437 14.0012 15.6184 14ZM9.50241 12.5517H15.6184C15.6833 12.5497 15.7454 12.5258 15.7946 12.4841C15.8356 12.4349 15.8596 12.374 15.8631 12.3103V6.4593H9.50241V12.5517ZM1.6739 6.42068V12.3103C1.6774 12.374 1.70139 12.4349 1.7424 12.4841C1.79156 12.5258 1.85373 12.5497 1.91854 12.5517H8.03457V6.4593H1.90876C1.82917 6.45591 1.7503 6.44294 1.6739 6.42068V6.42068ZM1.6739 1.44827V5.04965C1.75155 5.0357 1.83111 5.0357 1.90876 5.04965H15.8631V1.44827H1.6739Z" fill="#81D3F7"/>
</svg>
