<svg width="21" height="17" viewBox="0 0 21 17" fill="none" xmlns="http://www.w3.org/2000/svg">
<path d="M14.3241 16.5079C14.1015 16.5079 13.8881 16.4202 13.7307 16.2639C13.5733 16.1077 13.4849 15.8958 13.4849 15.6748V14.0308C13.4849 13.3768 13.2231 12.7495 12.7573 12.2871C12.2914 11.8246 11.6596 11.5648 11.0007 11.5648H4.35401C4.02767 11.5641 3.70443 11.6276 3.40291 11.7515C3.10139 11.8754 2.82756 12.0573 2.59721 12.2868C2.13241 12.7501 1.87096 13.377 1.86987 14.0308V15.6748C1.86987 15.8958 1.78145 16.1077 1.62407 16.2639C1.46668 16.4202 1.25322 16.5079 1.03064 16.5079C0.808061 16.5079 0.594599 16.4202 0.437212 16.2639C0.279825 16.1077 0.191406 15.8958 0.191406 15.6748V14.0308C0.195318 12.9357 0.633493 11.8862 1.41109 11.1094C1.79566 10.7231 2.25409 10.4171 2.75946 10.2091C3.26483 10.0012 3.80696 9.89562 4.35401 9.89856H11.0007C11.548 9.89436 12.0905 9.99938 12.596 10.2074C13.1016 10.4154 13.5598 10.7221 13.9436 11.1094C14.3388 11.4889 14.6541 11.9426 14.8711 12.4441C15.0882 12.9457 15.2027 13.485 15.2081 14.0308V15.6748C15.2099 15.7885 15.1879 15.9014 15.1435 16.0062C15.0992 16.1111 15.0334 16.2056 14.9503 16.2839C14.8672 16.3623 14.7686 16.4226 14.6609 16.4611C14.5531 16.4997 14.4384 16.5156 14.3241 16.5079V16.5079Z" fill="#81D3F7"/>
<path d="M7.67778 8.26448C6.85497 8.26229 6.05128 8.01807 5.36822 7.56268C4.68516 7.10729 4.15337 6.46115 3.84003 5.70589C3.52668 4.95063 3.44585 4.12013 3.60772 3.31928C3.7696 2.51844 4.16693 1.78318 4.74952 1.20639C5.33211 0.629595 6.07383 0.237138 6.88099 0.078593C7.68815 -0.0799524 8.52454 0.00252611 9.2845 0.31561C10.0445 0.628694 10.6939 1.15834 11.1508 1.83764C11.6077 2.51694 11.8516 3.31543 11.8516 4.13223C11.8486 5.22919 11.4076 6.28022 10.6251 7.05485C9.84273 7.82948 8.7828 8.26448 7.67778 8.26448V8.26448ZM7.67778 1.66622C7.18646 1.66622 6.70618 1.81084 6.29767 2.08181C5.88916 2.35278 5.57076 2.73792 5.38274 3.18853C5.19472 3.63914 5.14553 4.13497 5.24138 4.61333C5.33723 5.09169 5.57382 5.53109 5.92123 5.87597C6.26864 6.22085 6.71127 6.45572 7.19315 6.55087C7.67502 6.64602 8.1745 6.59719 8.62841 6.41054C9.08233 6.22389 9.4703 5.90781 9.74326 5.50228C10.0162 5.09675 10.1619 4.61997 10.1619 4.13223C10.1619 3.47821 9.90019 2.85096 9.43433 2.3885C8.96846 1.92603 8.33661 1.66622 7.67778 1.66622V1.66622Z" fill="#81D3F7"/>
<path d="M19.3153 16.5095C19.2047 16.511 19.0949 16.4905 18.9924 16.4492C18.8899 16.4078 18.7967 16.3465 18.7185 16.2689C18.6403 16.1912 18.5785 16.0988 18.5369 15.997C18.4952 15.8952 18.4746 15.7862 18.4761 15.6764V14.0324C18.4729 13.4851 18.288 12.9542 17.9501 12.5217C17.6153 12.087 17.142 11.7777 16.6074 11.6442C16.3925 11.5892 16.2083 11.452 16.095 11.2626C15.9818 11.0731 15.9488 10.8469 16.0031 10.6333C16.061 10.4192 16.2014 10.2362 16.394 10.124C16.5866 10.0117 16.816 9.97922 17.0326 10.0335C17.9267 10.2607 18.7191 10.7772 19.2845 11.5014C19.8498 12.2256 20.156 13.1162 20.1545 14.0324V15.6764C20.1545 15.7858 20.1328 15.8942 20.0906 15.9952C20.0485 16.0963 19.9866 16.1882 19.9087 16.2655C19.8308 16.3429 19.7383 16.4043 19.6365 16.4461C19.5346 16.488 19.4255 16.5095 19.3153 16.5095Z" fill="#81D3F7"/>
<path d="M13.4963 8.16058C13.3094 8.1573 13.1286 8.09376 12.9813 7.97955C12.8339 7.86533 12.728 7.70664 12.6795 7.52742C12.6251 7.31385 12.6582 7.08761 12.7714 6.89818C12.8846 6.70874 13.0688 6.57154 13.2837 6.51657C13.8213 6.38294 14.2982 6.07389 14.6377 5.63902C14.9716 5.20517 15.1525 4.67432 15.1525 4.12831C15.1525 3.5823 14.9716 3.05145 14.6377 2.6176C14.2982 2.18273 13.8213 1.87368 13.2837 1.74005C13.1736 1.71569 13.0695 1.66954 12.9778 1.60436C12.886 1.53917 12.8084 1.45628 12.7497 1.36066C12.6909 1.26503 12.6522 1.15862 12.6358 1.0478C12.6195 0.936977 12.6258 0.824014 12.6544 0.715663C12.683 0.607313 12.7333 0.505801 12.8023 0.417197C12.8713 0.328593 12.9577 0.254716 13.0561 0.199984C13.1545 0.145252 13.2631 0.110788 13.3753 0.0986535C13.4874 0.0865188 13.6009 0.0969626 13.7089 0.12936C14.6006 0.359808 15.3901 0.877435 15.9536 1.60112C16.5171 2.3248 16.8228 3.21363 16.8228 4.12831C16.8228 5.04299 16.5171 5.93182 15.9536 6.6555C15.3901 7.37918 14.6006 7.89681 13.7089 8.12726L13.4963 8.16058Z" fill="#81D3F7"/>
</svg>
