<svg width="310" height="200" viewBox="0 0 310 200" fill="none" xmlns="http://www.w3.org/2000/svg">
<g clip-path="url(#clip0_242_13904)">
<path opacity="0.43" d="M149.293 160.536C176.523 156.078 204.343 153.317 232.555 152.283C243.776 151.848 255.318 151.673 264.77 148.187C274.212 144.702 281.472 137.349 280.996 126.666C280.769 121.133 278.514 115.197 277.739 109.561C275.701 94.4722 284.13 83.4375 284.719 69.1969C284.988 62.8263 283.675 55.949 282.361 49.1338C280.882 41.4498 279.114 33.1867 273.054 25.9785C268.803 20.9317 262.919 17.0949 257.076 14.013C242.566 6.41181 227.457 2.8232 213.03 0.951337C204.498 -0.196602 195.842 -0.765401 189.306 1.97518C183.99 4.21935 180.484 8.46982 176.286 11.955C166.595 20.0009 152.758 24.0135 137.214 23.2793C119.364 22.4519 98.598 15.6574 84.3263 21.3557C71.8851 26.3198 67.645 39.5573 59.5991 49.0924C51.0671 59.186 37.54 66.084 35.8853 80.3763C35.1511 86.8089 36.9609 94.1619 39.567 101.391C41.8939 107.886 45.0068 114.639 50.2915 120.471C57.8099 128.766 68.4206 133.854 78.4315 138.146C111.546 152.324 120.533 165.014 149.262 160.525" fill="#85D1F4"/>
<path d="M265.629 175.511C270.862 174.714 276.653 175.748 280.438 179.451C284.223 183.153 285.175 189.855 281.597 193.764C279.446 196.122 276.167 197.094 273.013 197.559C257.997 199.762 243.218 192.74 228.078 191.602C214.644 190.599 201.117 194.25 187.755 192.533C185.521 192.244 183.194 191.758 181.498 190.289C179.802 188.82 179.016 186.07 180.361 184.26C181.074 183.298 182.233 182.771 183.36 182.346C197.332 177.062 212.865 180.661 227.809 181.002C240.788 181.302 252.34 180.413 264.45 175.748" fill="#CAD7E8"/>
<path d="M8.57263 187.6C6.34914 188.127 4.04292 188.686 2.26413 190.123C0.485344 191.561 -0.610886 194.126 0.361243 196.194C1.44713 198.5 4.37386 199.141 6.9076 199.348C16.5875 200.165 26.4329 198.852 35.5544 195.522C38.5535 194.426 41.5112 193.102 44.6448 192.512C47.2509 192.026 49.9295 192.047 52.5873 192.14C82.7026 193.164 112.487 201.985 142.53 199.596C146.263 199.297 150.1 198.79 153.337 196.908C156.574 195.025 159.087 191.447 158.653 187.724C158.26 184.353 155.55 181.602 152.437 180.257C149.324 178.913 145.839 178.727 142.447 178.675C116.996 178.292 91.762 184.404 66.3109 183.97C63.7771 183.929 61.2331 183.815 58.7717 183.215C56.331 182.626 54.0248 181.56 51.6255 180.836C47.2096 179.492 42.5144 179.285 37.902 179.502C27.5085 179.988 17.2184 182.605 7.85904 187.145" fill="#CAD7E8"/>
<path d="M96.3743 14.6749C96.1158 12.5238 96.6536 10.2796 97.8532 8.48015L96.1778 9.0386C96.0744 9.06963 95.9503 9.111 95.8469 9.06963C95.7331 9.01792 95.6711 8.90416 95.6297 8.7904L93.4166 3.69189L92.0825 5.18111C91.917 5.36727 91.7412 5.56376 91.5033 5.65684C91.2034 5.7706 90.8725 5.70854 90.5622 5.65684C87.8837 5.24316 85.1949 6.13256 82.6301 7.02195C80.7582 7.67349 78.8864 8.32502 77.18 9.33852C75.4736 10.352 73.9533 11.7482 73.1156 13.5373C72.1642 15.585 72.1849 17.9429 72.2366 20.2077C72.2779 22.1417 72.3297 24.1169 72.9605 25.9474C73.157 26.5266 73.4155 27.0954 73.5293 27.6952C73.7982 29.0707 73.3121 30.4668 72.7537 31.7492C74.1912 31.532 75.4322 30.5495 76.2492 29.3499C77.0662 28.1502 77.5419 26.7438 77.9246 25.3476C78.1624 24.4996 78.4003 23.5895 79.0518 22.9897C80.2722 21.8728 82.2061 22.4105 83.8297 22.1417C85.4637 21.8728 86.8185 20.7559 88.0802 19.6803L91.2758 16.9708C92.2169 16.1744 93.2821 15.3264 94.5128 15.3781C94.9472 15.3988 95.3815 15.5229 95.8055 15.4402C96.2295 15.3574 96.6329 14.9231 96.4674 14.5198L96.364 14.6749H96.3743Z" fill="#5081F1"/>
<path d="M118.071 68.4007C118.102 68.9488 117.947 69.4762 117.771 69.983C116.53 73.5405 114.286 76.7672 113.624 80.4799C113.5 81.2245 113.335 82.1139 112.642 82.4035C112.063 82.6413 111.401 82.3207 110.873 81.9691C110.873 81.9691 110.853 81.9588 110.842 81.9484C108.174 80.1386 106.323 77.3567 103.862 75.2573C102.859 74.3989 101.752 73.6543 100.583 73.0441C100.449 72.9717 100.304 72.8993 100.17 72.8373H99.8078C99.2079 69.7244 99.0632 66.322 100.563 63.5193C100.852 62.9816 101.214 62.4541 101.762 62.1852C102.445 61.8543 103.241 61.9887 103.996 62.1025C104.979 62.2473 105.971 62.3197 106.964 62.3197C107.657 62.3197 108.35 62.3093 109.033 62.4024C109.695 62.4852 110.336 62.692 110.977 62.8781C111.949 63.1781 112.911 63.478 113.883 63.7882C114.514 63.9951 115.176 64.2122 115.724 64.6052C115.9 64.7293 116.055 64.8741 116.21 65.0292C116.272 65.1016 116.334 65.174 116.396 65.2464C116.696 65.5877 116.944 65.9807 117.192 66.3633C117.596 66.9942 118.009 67.6457 118.061 68.3903L118.071 68.4007Z" fill="white"/>
<path d="M108.949 47.1276C108.329 47.5309 107.894 48.0894 107.646 48.7823C107.553 49.0512 107.76 49.3407 108.008 49.4235C108.722 49.6613 109.198 48.8754 109.653 48.4617C110.18 47.9756 110.769 47.5723 111.411 47.2517C111.855 47.0242 111.659 46.2589 111.152 46.2899C110.139 46.352 109.28 46.838 108.691 47.655C108.339 48.1411 109.094 48.6892 109.508 48.2859C110.118 47.6757 110.925 47.3861 111.742 47.2C112.217 47.0862 112.703 47.0138 113.189 47.1276C113.417 47.1793 113.644 47.262 113.862 47.3448C113.986 47.3965 114.1 47.4482 114.213 47.4999L114.327 47.5516C114.451 47.624 114.43 47.593 114.286 47.4689V47.1896C114.544 47.0862 114.586 47.0138 114.41 46.9931C114.337 46.9621 114.265 46.9414 114.193 46.9208C114.079 46.8794 113.955 46.8587 113.831 46.838C113.541 46.7863 113.241 46.7656 112.952 46.7656C112.403 46.776 111.855 46.8794 111.318 46.9931C110.263 47.2207 109.146 47.5826 108.608 48.6168C108.349 49.1132 109.022 49.7234 109.425 49.2477C110.128 48.3996 111.09 47.8205 112.186 47.6447C112.445 47.6033 112.734 47.5723 112.993 47.593C113.21 47.6137 113.179 47.624 113.148 47.8515C113.045 48.4513 112.714 49.0408 112.372 49.5269C112.031 50.0129 112.776 50.5507 113.189 50.1577C113.955 49.4028 114.617 48.5754 114.451 47.4378L113.458 47.7171C113.655 48.2859 113.489 48.8857 113.055 49.2994C112.59 49.7441 111.938 49.8682 111.318 49.8371L111.576 50.7989C112.641 50.2405 115.051 48.6892 113.769 47.262C113.489 46.9518 113.034 47.1483 112.9 47.4895C112.59 48.3066 112.548 49.8578 111.473 50.0647L112.124 50.5611C112.124 50.1784 112.466 49.9302 112.724 49.7027C113.014 49.4442 113.272 49.1649 113.448 48.803C113.696 48.2755 113.965 47.0138 113.127 46.8587C112.724 46.7863 112.466 47.0759 112.31 47.3965C112.114 47.7895 111.948 48.2031 111.773 48.6065C111.431 49.4235 111.142 50.2508 110.894 51.0988C110.718 51.6987 111.504 51.9365 111.835 51.5022C112.631 50.437 113.448 49.2994 113.634 47.9446C113.676 47.6757 113.572 47.3758 113.272 47.3034C112.631 47.1483 112.341 47.7584 112.042 48.2031L111.007 49.7234L111.948 50.1267L112.61 47.6033C112.786 46.9414 111.855 46.7346 111.617 47.3241L110.449 50.137L111.442 50.4163C111.607 49.8578 111.721 49.289 111.783 48.7099C111.835 48.2135 111.804 47.7481 111.359 47.4482C111.059 47.2517 110.707 47.4585 110.604 47.7584L109.735 50.0853L110.749 50.2198C110.78 49.4959 110.687 48.7719 110.48 48.079C110.335 47.593 109.622 47.5826 109.487 48.079C109.322 48.6478 109.198 49.2166 109.104 49.7958H110.097C109.952 49.289 109.735 48.8133 109.446 48.3686C109.198 47.986 108.649 48.0687 108.505 48.4927C108.318 49.0408 108.298 49.5993 108.422 50.1577C108.536 50.6748 109.28 50.6231 109.415 50.1577C109.591 49.5786 109.446 49.0408 109.084 48.5858C108.722 48.1307 108.143 48.6478 108.215 49.0925C108.287 49.5372 108.412 49.9612 108.742 50.2715C109.073 50.5817 109.611 50.6955 110.046 50.4576C110.997 49.9406 110.852 48.5754 110.635 47.6964C110.49 47.1069 109.642 47.262 109.622 47.8308C109.601 48.3996 109.58 49.0098 109.58 49.6096C109.58 50.0543 109.456 50.7989 109.839 51.1092C110.273 51.4608 110.78 51.0885 110.925 50.6438C111.1 50.0957 111.111 49.4648 111.059 48.896C110.997 48.2445 109.994 48.2238 110.025 48.896L110.077 50.044H111.111L111.018 49.0201L110.976 48.5444C110.966 48.4203 110.904 48.2135 110.945 48.0997L110.707 48.41C110.573 48.4927 110.387 48.41 110.656 48.5134C110.738 48.5548 110.832 48.5858 110.925 48.6065C111.09 48.6478 111.266 48.6685 111.442 48.6582C111.835 48.6375 112.186 48.3996 112.579 48.3893C112.972 48.3789 113.345 48.6168 113.758 48.6065C114.12 48.5961 114.461 48.4513 114.679 48.1618C114.813 47.986 114.803 48.0583 114.461 47.9446C114.089 47.8205 114.182 47.7791 114.141 48.0273C114.11 48.2238 114.048 48.4203 113.975 48.6065C113.831 48.9477 113.624 49.258 113.365 49.5165C112.838 50.044 112.145 50.3853 111.462 50.6541C110.842 50.9023 111.08 51.7607 111.742 51.647C112.403 51.5332 114.451 50.9747 113.531 49.9716C113.293 49.713 112.714 49.8061 112.662 50.1991C112.579 50.83 111.99 51.2126 111.4 50.8506C111.1 50.6645 110.852 50.437 110.521 50.2922C110.18 50.1371 109.818 50.0336 109.446 49.9302C108.939 49.7854 108.215 49.5786 108.132 48.9891C108.132 49.0408 108.008 48.9374 108.143 49.0512C108.205 49.1029 108.329 49.1339 108.401 49.1546C108.546 49.1959 108.691 49.1959 108.825 49.1753C109.177 49.1236 109.435 48.9271 109.642 48.6478C110.025 48.0997 109.135 47.5826 108.753 48.1307C108.691 48.2135 108.546 48.1101 108.484 48.079C108.256 47.986 108.039 47.9446 107.801 48.0273C107.336 48.1721 107.067 48.6478 107.098 49.1236C107.15 50.1267 108.225 50.6541 109.063 50.9023C109.539 51.0471 110.025 51.1402 110.439 51.4298C110.852 51.7193 111.162 51.9675 111.659 52.0296C112.621 52.1434 113.531 51.4608 113.665 50.4887L112.796 50.7162L112.848 50.7679L112.693 50.4059C112.776 50.2818 112.765 50.2508 112.693 50.3129C112.641 50.3335 112.59 50.3646 112.538 50.3853C112.424 50.437 112.31 50.468 112.186 50.5094C111.948 50.5817 111.711 50.6335 111.473 50.6748L111.752 51.6676C112.848 51.2333 113.924 50.6645 114.596 49.6613C114.927 49.1753 115.185 48.5341 115.206 47.9446C115.227 47.4068 114.741 46.8897 114.203 47.2103C114.027 47.3137 113.965 47.5413 113.769 47.593C113.531 47.6447 113.21 47.4689 112.983 47.4172C112.631 47.3448 112.31 47.3861 111.969 47.4895C111.721 47.5619 111.473 47.686 111.214 47.6343C110.976 47.5826 110.79 47.4172 110.532 47.4275C110.18 47.4378 109.942 47.7274 109.921 48.0687C109.901 48.3583 109.973 48.6892 110.004 48.9788L110.108 50.075C110.17 50.7265 111.173 50.7472 111.142 50.075L111.09 48.9271H110.056C110.077 49.1959 110.087 49.4648 110.066 49.7337C110.066 49.8682 110.035 50.0026 110.015 50.1267L109.983 50.2612C109.911 50.4473 109.952 50.4473 110.108 50.2612L110.511 50.3129C110.625 50.6231 110.676 50.6955 110.666 50.5197C110.666 50.4473 110.666 50.3853 110.666 50.3129C110.666 50.2198 110.666 50.1267 110.666 50.044C110.666 49.7958 110.666 49.5476 110.666 49.289C110.666 48.8133 110.687 48.3376 110.707 47.8515L109.694 47.986C109.756 48.2445 109.797 48.4927 109.808 48.7512C109.808 48.9581 109.839 49.3097 109.704 49.4752C109.425 49.8061 109.301 48.9788 109.28 48.8236L108.412 49.3304C108.546 49.4959 108.536 49.7027 108.484 49.8992H109.477C109.394 49.5165 109.425 49.1546 109.559 48.7823L108.618 48.9064C108.867 49.2787 109.042 49.6613 109.166 50.0853C109.301 50.5404 110.077 50.6128 110.159 50.0853C110.252 49.5062 110.376 48.9374 110.542 48.3686H109.549C109.735 48.9891 109.808 49.5993 109.777 50.2405C109.746 50.8817 110.604 50.892 110.79 50.3749L111.659 48.048L110.904 48.3583C110.842 48.2445 110.821 48.2548 110.842 48.3686C110.842 48.441 110.842 48.5134 110.832 48.5961C110.821 48.7719 110.79 48.9477 110.759 49.1236C110.697 49.4752 110.614 49.8165 110.511 50.1577C110.428 50.4266 110.604 50.7162 110.873 50.7989C111.173 50.8817 111.4 50.6955 111.514 50.437L112.683 47.624L111.69 47.3448L111.028 49.8682C110.873 50.4576 111.649 50.7369 111.969 50.2715L112.703 49.1959L113.045 48.6892L113.2 48.4617C113.251 48.3789 113.407 48.2445 113.262 48.3066H112.983L113.065 48.3272L112.703 47.686C112.528 48.9581 111.762 49.9923 111.007 50.9954L111.948 51.3988C112.135 50.7679 112.341 50.1371 112.579 49.5165C112.693 49.227 112.807 48.9477 112.931 48.6582C113.003 48.4927 113.076 48.3376 113.148 48.1721C113.189 48.0894 113.22 48.017 113.262 47.9342C113.376 47.7688 113.324 47.7584 113.117 47.8929L112.755 47.7378C112.703 47.6343 112.683 47.6447 112.714 47.7791C112.714 47.8412 112.714 47.9136 112.703 47.9756C112.683 48.1204 112.631 48.2548 112.569 48.3789C112.445 48.6375 112.228 48.8133 112.021 48.9995C111.555 49.4235 111.162 49.8992 111.162 50.5507C111.162 50.9023 111.493 51.1092 111.814 51.0471C113.386 50.7369 113.5 48.9581 113.965 47.7481L113.096 47.9756C113.365 48.2755 112.672 48.803 112.507 48.9477C112.083 49.3201 111.617 49.62 111.121 49.8785C110.625 50.137 110.904 50.8093 111.38 50.8403C112.29 50.892 113.283 50.6128 113.924 49.9302C114.565 49.2477 114.813 48.2962 114.524 47.4172C114.306 46.776 113.427 47.0449 113.531 47.6964C113.634 48.3893 112.983 48.9788 112.538 49.4131L113.355 50.044C113.8 49.4028 114.224 48.5858 114.286 47.7895C114.317 47.4378 114.213 47.0759 113.955 46.838C113.644 46.5588 113.21 46.5381 112.807 46.5484C111.266 46.5898 109.766 47.3241 108.784 48.503L109.601 49.1339C109.87 48.6065 110.376 48.3376 110.925 48.1721C111.473 48.0066 112.083 47.8825 112.672 47.8205C112.993 47.7895 113.334 47.7791 113.655 47.8205C113.924 47.8619 114.162 47.986 114.43 48.0377C114.989 48.1307 115.599 47.655 115.351 47.0552C115.237 46.776 114.968 46.6622 114.71 46.5484C114.43 46.4243 114.151 46.3002 113.862 46.2072C113.231 46.0107 112.6 46.0003 111.948 46.1141C110.821 46.3106 109.684 46.7243 108.867 47.5516L109.684 48.1825C110.046 47.686 110.645 47.3758 111.256 47.3344L110.997 46.3726C110.459 46.6519 109.963 46.9725 109.497 47.3448C109.27 47.5206 109.053 47.7171 108.856 47.9136C108.753 48.017 108.649 48.1204 108.556 48.2238C108.505 48.2755 108.453 48.3376 108.401 48.3893C108.329 48.441 108.329 48.4513 108.401 48.441L108.763 49.0822C108.918 48.6478 109.208 48.2962 109.591 48.048C110.149 47.686 109.632 46.7966 109.073 47.1586L108.949 47.1276Z" fill="white"/>
<path d="M148.766 189.555C148.735 190.227 147.845 190.423 147.173 190.413C141.682 190.382 136.2 190.351 130.709 190.32C129.892 190.32 129.075 190.32 128.258 190.31C127.534 190.31 126.769 190.299 126.117 189.979C125.548 189.71 125.114 189.244 124.742 188.738C124.059 187.838 123.552 186.804 123.242 185.718L131.526 180.764C132.622 182.44 134.318 183.556 136.18 184.363C137.204 184.808 138.279 185.159 139.344 185.439C142.343 186.256 145.508 186.814 148.073 188.572C148.414 188.81 148.786 189.141 148.766 189.555Z" fill="white"/>
<path d="M24.3223 183.494C23.5259 185.542 22.7503 187.589 21.9643 189.637C21.9023 189.792 21.8402 189.947 21.7885 190.103C21.6954 190.34 21.6024 190.578 21.4162 190.754C21.2404 190.92 21.0025 190.992 20.7854 191.106C19.6891 191.654 19.1514 192.874 18.2826 193.722C17.3519 194.612 16.0695 195.025 14.7871 195.129C13.5151 195.232 12.2327 195.046 10.971 194.86C10.3919 194.777 9.82305 194.684 9.24391 194.601C9.02673 194.57 8.77853 194.519 8.64409 194.343C8.47862 194.136 8.54067 193.826 8.63375 193.567C9.34733 191.602 11.4364 190.465 12.5119 188.675C12.9463 187.951 13.2048 187.124 13.5875 186.369C13.6599 186.224 13.7426 186.09 13.815 185.955C14.7768 184.29 16.3074 182.998 17.9207 181.943L24.3223 183.504V183.494Z" fill="white"/>
<path d="M24.3237 183.494C23.5274 185.542 22.7517 187.59 21.9657 189.637C18.9459 189.275 15.9882 188.045 13.8164 185.945C14.7782 184.28 16.3088 182.987 17.9221 181.933L24.3237 183.494Z" fill="black"/>
<path d="M136.181 184.363C135.198 185.315 134.412 186.545 133.533 187.611C132.882 188.396 132.147 189.12 131.372 189.782C131.165 189.958 130.948 190.144 130.73 190.31C129.913 190.31 129.096 190.31 128.279 190.299C127.556 190.299 126.79 190.289 126.139 189.968C125.57 189.7 125.136 189.234 124.763 188.727C124.081 187.828 123.574 186.794 123.264 185.708L131.547 180.754C132.644 182.429 134.34 183.546 136.201 184.353L136.181 184.363Z" fill="black"/>
<path d="M121.33 60.7061C120.554 62.1125 119.768 63.519 118.982 64.9255C118.827 65.1944 118.662 65.484 118.383 65.6287C117.99 65.8252 117.535 65.6598 117.121 65.515C116.883 65.4219 116.635 65.3392 116.397 65.2564C116.314 65.2254 116.242 65.1944 116.159 65.1737C111.909 63.7052 107.41 62.9399 102.911 62.9192C102.477 62.9192 102.001 62.9399 101.681 63.2295C101.443 63.4466 101.35 63.7776 101.257 64.0878C100.708 66.1562 100.533 68.3176 100.739 70.448C100.822 71.3167 100.946 72.2889 100.564 73.0542C100.502 73.1783 100.429 73.292 100.336 73.4058C99.9328 73.9022 99.2813 74.1297 98.6607 74.2745C97.5438 74.533 96.3856 74.5744 95.2583 74.3986C93.8725 74.1814 92.497 73.6333 91.1009 73.7988C90.3046 73.9022 89.5393 74.2228 88.774 74.4606C87.2331 74.9053 85.5991 74.9364 84.0168 74.7709C79.5284 74.3159 75.1228 72.4026 70.6552 73.0542C69.5486 73.2093 68.442 73.5299 67.3251 73.4161C65.629 73.23 64.1709 72.02 63.2918 70.5514C62.4127 69.0829 62.0094 67.3869 61.6681 65.7011C60.2513 58.7308 59.5998 51.5846 59.7239 44.4694C59.7652 42.2149 59.9204 39.8363 61.1614 37.9541C62.4024 36.0719 65.0809 34.9446 66.9942 36.1339C67.1596 34.6654 67.3975 33.1969 67.7181 31.749C69.4452 32.0593 71.224 32.173 72.9717 32.08L85.7542 37.5508C86.2713 39.071 87.9156 39.919 89.4979 40.2086C91.0802 40.4982 92.7142 40.3741 94.2862 40.6843C96.7372 41.1807 98.8572 42.732 100.574 44.5418C102.229 46.2896 103.976 48.4717 106.365 48.4097C106.82 48.3993 107.327 48.3062 107.72 48.5441C108.02 48.7303 108.186 49.0715 108.382 49.3714C109.106 50.4884 110.502 51.1192 111.816 50.9227C113.129 50.7262 114.277 49.7127 114.649 48.4303C114.773 48.0063 114.825 47.5513 115.094 47.2204C115.57 46.6102 116.48 46.6619 117.245 46.7653C119.324 47.0549 121.402 47.3341 123.481 47.6237C123.616 47.6444 123.76 47.6547 123.895 47.6961C124.112 47.7478 124.319 47.8202 124.484 47.965C124.774 48.2338 124.867 48.6475 124.908 49.0405C125.425 53.1462 123.347 57.0761 121.33 60.6957V60.7061Z" fill="white"/>
<path d="M127.059 47.9961C126.056 48.1926 125.445 49.0923 125.135 49.992C124.97 50.4781 124.866 50.9848 124.742 51.4916L124.339 53.1566C124.184 53.7978 125.156 54.077 125.332 53.4358C125.549 52.6602 125.704 51.8225 126.025 51.0883C126.345 50.354 126.779 49.7335 127.172 49.0819C127.338 48.8027 127.183 48.3994 126.862 48.327C126.335 48.2029 125.528 48.1512 125.094 48.5442C124.866 48.751 124.804 49.0199 124.866 49.3095C124.928 49.568 124.97 49.7955 124.908 50.0644L125.921 50.1989C125.983 49.5163 126.748 49.1026 127.266 48.8027L126.635 47.9857C126.231 48.4201 125.58 48.4614 125.301 49.0302C125.145 49.3405 125.063 49.6818 125.021 50.0334C125.011 50.1368 125.001 50.1989 124.98 50.3023C124.98 50.3023 124.949 50.4367 124.949 50.416L124.918 50.4677C125.001 50.3954 125.001 50.385 124.928 50.4264L125.683 50.7366C125.621 50.2816 125.621 49.8162 125.642 49.3612H124.608L124.742 51.0572C124.763 51.3365 124.959 51.5743 125.259 51.5743C125.518 51.5743 125.797 51.3365 125.776 51.0572L125.642 49.3612C125.59 48.6993 124.649 48.689 124.608 49.3612C124.577 49.9196 124.608 50.4677 124.68 51.0159C124.732 51.3675 125.177 51.4606 125.435 51.3261C126.035 51.0159 125.942 50.3023 126.107 49.7542C126.128 49.6714 126.159 49.5473 126.211 49.4749C126.283 49.3922 126.459 49.3508 126.552 49.3095C126.852 49.175 127.121 48.9785 127.338 48.7407C127.731 48.3167 127.224 47.6238 126.707 47.9237C125.807 48.4511 124.949 49.1026 124.846 50.2195C124.794 50.7987 125.735 50.9228 125.859 50.354C125.911 50.1471 125.942 49.9403 125.931 49.7335C125.931 49.5784 125.931 49.2474 125.838 49.113C125.818 48.9992 125.797 49.0302 125.776 49.1957C125.776 49.2578 125.756 49.3095 125.725 49.3508C125.725 49.3508 125.911 49.3095 125.952 49.2991C126.149 49.2681 126.355 49.2991 126.542 49.3405L126.231 48.5855C125.797 49.2888 125.332 49.992 125.011 50.7573C124.69 51.5226 124.515 52.381 124.287 53.1876L125.28 53.4669C125.507 52.5258 125.714 51.5743 125.983 50.6436C126.18 49.9507 126.511 49.1854 127.286 49.0302C127.565 48.9785 127.721 48.6476 127.648 48.389C127.565 48.0995 127.286 47.9754 127.007 48.0271L127.059 47.9961Z" fill="black"/>
<path d="M90.1488 126.191C88.67 125.725 89.2491 123.264 88.1012 122.219C87.7392 121.889 87.2428 121.754 86.7671 121.682C84.4195 121.33 82.0512 122.416 80.2621 123.978C78.4729 125.539 77.1595 127.556 75.7841 129.49C69.7548 137.97 62.2363 145.364 56.7552 154.207C53.7664 159.036 51.4188 164.249 48.5128 169.14C46.1652 173.091 43.4453 176.824 40.7461 180.547L33.755 190.155C33.4861 190.527 33.1759 190.92 32.7312 191.023C32.3589 191.106 31.9762 190.961 31.6246 190.827L16.991 185.004C16.0912 184.643 15.0674 184.156 14.8502 183.215C14.7054 182.595 14.964 181.954 15.2329 181.375C17.1875 177.145 20.0418 173.411 22.7513 169.626C40.2703 145.168 52.7425 117.121 59.1855 87.7399C59.6922 85.4337 60.168 83.0861 61.3159 81.0281C62.4638 78.97 64.4081 77.2119 66.7557 76.9224L90.1592 126.222L90.1488 126.191Z" fill="white"/>
<path d="M67.8921 76.405L65.7514 77.1186L64.3242 82.8376C64.3242 82.8376 77.903 92.1245 78.6166 92.1245C79.3302 92.1245 96.4872 98.5571 96.4872 98.5571L99.3415 85.6919L98.266 73.1887C98.266 73.1887 85.0492 68.5452 84.6872 69.6104C84.3253 70.6756 68.9677 71.7512 68.9677 71.7512L67.8921 76.3947V76.405Z" fill="white"/>
<path d="M89.1035 125.601C93.4988 128.486 96.0222 133.43 98.3387 138.156L104.802 151.29C106.074 153.875 107.346 156.471 108.329 159.181C110.128 164.176 110.883 169.491 112.362 174.59C113.427 178.251 114.855 181.798 116.644 185.17C117.088 186.007 117.564 186.845 118.288 187.445C119.177 188.189 120.356 188.5 121.504 188.655C126.903 189.42 132.632 187.207 136.117 182.998C133.284 181.839 133.149 177.951 133.387 174.89C134.432 161.187 133.304 147.329 130.057 133.978C129.571 131.971 129.023 129.955 128.03 128.155C127.461 127.121 126.748 126.17 126.044 125.228L118.35 114.949C115.144 110.667 111.949 106.396 108.681 102.166C107.026 100.036 105.34 97.8744 104.327 95.3717C102.145 89.9836 103.055 83.0546 98.7524 79.1558L89.1139 125.59L89.1035 125.601Z" fill="white"/>
<path d="M86.1365 119.52C86.7777 120.244 87.3878 120.968 87.7912 121.857C88.2152 122.798 88.5875 123.77 88.9908 124.732C89.2494 125.342 90.0974 125.125 89.9836 124.453C89.8285 123.522 90.1491 122.571 90.2318 121.65C90.2732 121.185 90.2318 120.709 90.2939 120.233C90.3559 119.758 90.5007 119.272 90.6352 118.806L89.6217 118.672C89.6423 119.923 89.4148 121.175 88.9184 122.323L89.8595 122.726C90.2318 121.216 90.5524 119.706 90.3352 118.144C90.2628 117.638 89.4355 117.669 89.3424 118.144C89.1046 119.251 88.9081 120.368 88.7529 121.485H89.7458C89.3735 120.44 89.0839 119.365 88.8667 118.279L87.8739 118.558C88.1428 119.789 88.3289 121.04 88.5151 122.291L89.5079 122.012L87.8015 117.638C87.5636 117.028 86.6639 117.255 86.8087 117.917L87.574 121.495L88.5151 121.092L86.5812 118.051L85.7642 118.682L87.0362 120.13C87.4292 120.575 87.8015 120.988 88.4427 120.854C88.7943 120.782 88.8874 120.378 88.7529 120.099L87.7291 117.917L87.15 118.672C88.0083 118.796 88.5978 119.396 89.1046 120.058C89.3631 120.399 89.8492 120.151 89.9733 119.83C90.1387 119.385 90.1284 118.899 89.9526 118.465C89.7458 117.958 88.9391 117.969 88.9391 118.599V120.316C88.9391 120.988 89.9112 120.968 89.9733 120.316C90.0353 119.665 89.9423 118.961 89.7044 118.331C89.5079 117.793 88.7219 117.865 88.6909 118.465C88.6599 119.168 88.422 120.668 89.4562 120.74C89.632 120.751 89.8078 120.637 89.9009 120.482C90.387 119.685 90.6558 118.817 90.7282 117.896C90.7799 117.307 89.8492 117.203 89.7147 117.762C89.5803 118.32 89.4355 118.889 89.3114 119.458C89.1873 120.027 89.0529 120.544 89.1873 121.102C89.3217 121.661 90.0146 121.547 90.1801 121.102C90.4904 120.285 90.6972 119.447 90.811 118.589L89.7975 118.455C89.6734 119.437 89.5596 120.42 89.6527 121.412C89.7147 122.085 90.6145 122.074 90.6869 121.412C90.7696 120.606 90.5834 119.809 90.1801 119.117C89.9009 118.641 89.27 118.899 89.2183 119.375L88.7943 123.129C88.7633 123.408 89.0529 123.646 89.3114 123.646C89.6217 123.646 89.7975 123.408 89.8285 123.129C90.0043 121.671 89.4355 120.285 89.3114 118.848L88.3496 119.106C88.5875 119.644 88.7219 120.233 88.7736 120.813C88.8253 121.464 89.8181 121.485 89.8078 120.813V120.606C89.8078 119.944 88.7633 119.944 88.7736 120.606V120.813H89.8078C89.7458 120.027 89.5596 119.303 89.239 118.579C89.0322 118.113 88.2359 118.341 88.2772 118.837C88.4013 120.275 88.9701 121.671 88.7943 123.119H89.8285L90.2525 119.365L89.2907 119.623C89.6113 120.171 89.7251 120.761 89.663 121.402H90.6972C90.6041 120.409 90.7179 119.427 90.842 118.444C90.9144 117.876 89.9009 117.731 89.8285 118.31C89.7147 119.168 89.4976 120.006 89.1976 120.823H90.1905C90.087 120.399 90.2732 119.892 90.3766 119.468C90.4904 118.992 90.6041 118.506 90.7179 118.031L89.7044 117.896C89.6423 118.641 89.4045 119.334 89.0115 119.965L89.4562 119.706H89.3838L89.6423 119.768C89.7664 119.851 89.7251 119.923 89.7251 119.747C89.7251 119.603 89.7147 119.448 89.7147 119.303C89.7147 119.023 89.7147 118.744 89.7354 118.465L88.7219 118.599C88.9288 119.158 89.0012 119.716 88.9494 120.306H89.9836V118.589L88.9701 118.724C89.0942 119.013 89.1046 119.251 88.9908 119.541L89.8595 119.313C89.2494 118.537 88.4634 117.803 87.4499 117.669C86.9948 117.607 86.6639 118 86.8707 118.424L87.8946 120.606L88.2048 119.851C88.2048 119.851 88.1118 119.737 88.0911 119.716C88.0394 119.665 87.9877 119.603 87.9359 119.541C87.7705 119.354 87.6153 119.179 87.4499 118.992L86.5295 117.948C86.1468 117.503 85.4022 118.082 85.7125 118.579L87.6464 121.619C87.967 122.126 88.7116 121.795 88.5875 121.216L87.8222 117.638L86.8294 117.917L88.5358 122.291C88.784 122.922 89.632 122.674 89.5286 122.012C89.3424 120.761 89.1563 119.51 88.8874 118.279C88.7426 117.627 87.7705 117.907 87.8946 118.558C88.1014 119.654 88.391 120.72 88.7736 121.764C88.9288 122.188 89.6941 122.323 89.7664 121.764C89.9216 120.647 90.1181 119.53 90.3559 118.424H89.3631C89.5493 119.778 89.208 121.144 88.8874 122.457C88.7529 122.995 89.5906 123.419 89.8285 122.86C90.3973 121.537 90.6972 120.13 90.6765 118.682C90.6662 118.093 89.8285 117.979 89.663 118.548C89.5182 119.044 89.3735 119.541 89.3011 120.058C89.2287 120.575 89.27 121.123 89.2183 121.661C89.1252 122.705 88.8357 123.688 89.0115 124.743L90.0043 124.463C89.5699 123.419 89.1666 122.364 88.7012 121.34C88.2669 120.378 87.5843 119.582 86.8811 118.796C86.4364 118.3 85.7021 119.034 86.1468 119.53L86.1365 119.52Z" fill="white"/>
<path d="M85.3715 37.4786C81.1728 35.7205 77.0567 33.7866 73.0234 31.6562C73.7577 31.4493 74.5023 31.2322 75.0918 30.7461C75.6606 30.2807 76.0122 29.5982 76.2914 28.9259C76.7982 27.7056 77.1291 26.4129 77.7083 25.2236C78.2874 24.0343 79.1768 22.9174 80.4075 22.452C81.2762 22.121 82.2276 22.1417 83.1377 22.028C84.296 21.8832 85.4336 21.5005 86.4574 20.9214C88.1121 19.9803 89.4255 18.5635 90.8941 17.3431C92.3626 16.1228 94.1207 15.0783 96.0236 15.1403C96.158 15.1403 96.3028 15.161 96.3959 15.2541C96.489 15.3575 96.4993 15.5126 96.4993 15.6471L96.4476 24.3962C96.4476 25.0374 96.4476 25.689 96.3855 26.3301C96.1373 29.4741 94.6998 32.5663 92.2592 34.5726C92.0213 34.7691 91.7524 34.9656 91.4422 34.9862C91.256 35.0069 91.0699 34.9552 90.8837 34.9138C88.412 34.283 85.7335 33.5074 84.2857 31.408L85.3612 37.4579L85.3715 37.4786Z" fill="white"/>
<path d="M85.6508 33.2485C85.5267 34.6343 85.5371 36.0305 85.6819 37.4163C85.6922 37.5611 85.6405 37.7782 85.4957 37.7265C85.3923 37.6955 85.3923 37.5611 85.3613 37.4576C85.3199 37.3439 85.1958 37.2612 85.082 37.2715L85.6612 33.2485H85.6508Z" fill="white"/>
<path d="M68.979 78.7423C68.5343 82.2068 67.4897 85.5575 66.5797 88.9186C63.7977 99.188 62.2671 109.799 62.0293 120.44C62.0086 121.371 62.143 122.529 63.0117 122.86C63.684 123.119 64.4079 122.705 65.0491 122.354C69.2996 120.006 74.4084 120.058 79.2587 119.923C90.583 119.613 101.866 117.969 112.807 115.042C111.784 111.515 111.173 109.023 111.018 105.352L68.9893 78.7319L68.979 78.7423Z" fill="white"/>
<path d="M136.107 183.008C132.622 187.207 126.893 189.431 121.494 188.665C120.346 188.5 119.167 188.19 118.278 187.455C117.554 186.856 117.078 186.008 116.634 185.18C114.855 181.819 113.417 178.262 112.352 174.611C110.873 169.502 110.118 164.186 108.319 159.191C107.336 156.471 106.064 153.886 104.792 151.3C102.631 146.916 100.48 142.541 98.3285 138.156C96.0016 133.44 94.6779 130.369 91.0996 126.801L96.8497 90.863L97.8838 84.4304L98.7319 79.1768C101.958 82.1035 102.258 86.7263 103.117 91.1319C103.406 92.6004 103.748 94.0379 104.306 95.3824C105.185 97.5541 106.571 99.4674 107.998 101.329C108.215 101.618 108.432 101.898 108.66 102.177C108.794 102.353 108.929 102.529 109.063 102.704C109.094 102.746 109.136 102.787 109.167 102.828C110.129 104.069 111.08 105.31 112.011 106.562C114.131 109.354 116.23 112.146 118.33 114.959C120.636 118.041 122.942 121.113 125.248 124.195C125.321 124.288 125.393 124.391 125.465 124.484C125.496 124.526 125.527 124.567 125.548 124.608C125.714 124.825 125.869 125.032 126.024 125.249C126.727 126.191 127.441 127.142 128.009 128.176C129.013 129.986 129.55 132.003 130.036 134.009C133.284 147.36 134.411 161.218 133.356 174.921C133.129 177.972 133.253 181.871 136.097 183.029L136.107 183.008Z" fill="white"/>
<path d="M84.7503 31.222C84.2125 32.0597 83.9436 33.0525 83.985 34.0453C84.0056 34.521 84.7192 34.8002 84.9468 34.3038C85.3501 33.4455 85.8672 32.5664 86.1257 31.6563C86.1981 31.3874 86.0326 31.0979 85.7638 31.0151C85.4742 30.9324 85.2363 31.1186 85.1226 31.3771C84.409 33.1766 84.2332 35.1415 84.5848 37.0444L85.4535 36.5377C85.2053 36.2584 85.2363 35.7827 85.195 35.4311C85.1329 34.9037 85.0502 34.3866 84.9364 33.8695C84.7089 32.825 84.3986 31.8115 84.078 30.798L83.1369 31.2013C83.592 32.1838 83.9953 33.2283 84.5641 34.1384C84.8537 34.6037 85.4742 34.3762 85.5259 33.8798C85.65 32.7629 85.2467 31.6874 84.833 30.6739C84.5848 30.074 83.6747 30.2809 83.8402 30.9531C84.016 31.677 84.1711 32.4113 84.2849 33.1559C84.3262 33.4351 84.6675 33.5902 84.9261 33.5179C85.2156 33.4351 85.3294 33.1559 85.288 32.8767C85.1639 32.1424 85.0191 31.4081 84.8433 30.6739L83.8505 30.9531C84.2332 31.8942 84.6262 32.856 84.5021 33.8902L85.4638 33.6316C84.8847 32.7215 84.4917 31.6667 84.0367 30.6945C83.7885 30.1671 82.9198 30.5394 83.0956 31.0979C83.4368 32.1838 83.7678 33.28 83.9953 34.3969C84.0987 34.914 84.1608 35.4311 84.2228 35.9585C84.2849 36.486 84.3883 36.91 84.7399 37.2926C85.1122 37.7063 85.6914 37.2616 85.6086 36.7859C85.2984 35.0588 85.5052 33.2903 86.1464 31.6667L85.1536 31.3874C84.9157 32.2251 84.4503 33.0111 84.078 33.7867L85.0398 34.0453C84.9985 33.2179 85.2156 32.4423 85.6603 31.7494C86.0223 31.191 85.1329 30.6739 84.7709 31.2323L84.7503 31.222Z" fill="white"/>
<path d="M72.971 31.5631C71.2542 31.6458 69.5478 31.5424 67.8518 31.2529C67.5932 31.2115 67.283 31.3252 67.2106 31.6148C66.8797 33.104 66.6418 34.6139 66.466 36.1238L67.2416 35.6791C65.256 34.5105 62.7429 35.3379 61.2641 36.9615C59.4646 38.9368 59.2474 41.8222 59.1957 44.3559C59.0613 50.8919 59.6094 57.4383 60.778 63.8605C61.2744 66.6011 61.7191 69.6519 63.5806 71.8341C64.3563 72.7338 65.3698 73.4681 66.528 73.7783C67.9552 74.161 69.3617 73.7473 70.7785 73.5405C76.9526 72.6717 82.9818 76.7568 89.1145 74.8746C89.8488 74.647 90.5624 74.3368 91.338 74.2851C92.155 74.223 92.9513 74.4195 93.7373 74.5953C95.1852 74.9263 96.5916 75.1228 98.0809 74.9056C99.3012 74.7194 100.635 74.3161 101.132 73.0544C101.628 71.7927 101.214 70.3759 101.183 69.0935C101.152 67.4698 101.307 65.7945 101.763 64.2225C101.897 63.7571 102.031 63.5193 102.538 63.4469C102.859 63.4055 103.2 63.4469 103.521 63.4469C104.369 63.4676 105.217 63.5089 106.054 63.571C109.219 63.8295 112.363 64.4707 115.383 65.4532C116.448 65.8048 118.061 66.7976 119.033 65.7634C119.519 65.2463 119.819 64.4707 120.171 63.8605L121.402 61.6474C122.849 59.0413 124.38 56.3834 125.094 53.467C125.435 52.0709 125.59 50.6127 125.435 49.1752C125.373 48.6167 125.269 48.0272 124.845 47.6239C124.38 47.1896 123.718 47.1585 123.118 47.0758L118.134 46.3932C117.089 46.2485 115.714 45.9175 114.845 46.7449C114.4 47.1792 114.328 47.7584 114.152 48.3168C113.966 48.9477 113.573 49.4958 113.045 49.8888C112.011 50.6541 110.605 50.6437 109.56 49.8888C109.002 49.4958 108.795 48.9166 108.35 48.4306C107.906 47.9445 107.378 47.8721 106.778 47.8928C105.424 47.9342 104.379 47.4998 103.345 46.6311C102.373 45.8038 101.556 44.811 100.656 43.9112C99.7562 43.0115 98.6807 42.1117 97.5224 41.4395C96.3641 40.7673 95.0611 40.2916 93.7166 40.1054C92.186 39.8986 90.5934 40.0227 89.0938 39.6194C87.9149 39.3091 86.7152 38.6369 86.2602 37.4476C86.0223 36.8271 85.0295 37.096 85.2674 37.7268C86.1568 40.0744 88.6698 40.7673 90.945 40.9328C92.4446 41.0465 93.9338 41.0465 95.361 41.5533C96.6123 41.998 97.7706 42.7322 98.7841 43.5803C100.604 45.1109 101.959 47.3033 104.12 48.3996C104.565 48.6271 105.031 48.8029 105.517 48.8856C105.806 48.9373 106.096 48.958 106.396 48.958C106.727 48.958 107.182 48.8339 107.482 49.0201C107.719 49.1648 107.854 49.5165 108.009 49.744C108.164 49.9715 108.33 50.168 108.516 50.3542C108.919 50.7471 109.405 51.0471 109.933 51.2435C112.053 52.0502 114.462 50.8402 115.145 48.6891C115.331 48.0893 115.331 47.4274 116.065 47.2826C116.727 47.1482 117.472 47.3447 118.123 47.4274L122.86 48.079C123.511 48.172 124.215 48.1203 124.38 48.9063C124.525 49.6095 124.514 50.3852 124.463 51.0988C124.359 52.5673 123.956 54.0048 123.418 55.3699C122.343 58.1519 120.74 60.7373 119.292 63.3435L118.795 64.2328C118.62 64.5431 118.402 65.1636 117.989 65.2153C117.689 65.2567 117.327 65.0498 117.048 64.9464C116.665 64.812 116.293 64.6775 115.91 64.5431C114.452 64.057 112.973 63.6537 111.473 63.3435C108.65 62.7436 105.641 62.3196 102.745 62.423C102.238 62.4437 101.711 62.5265 101.328 62.8884C100.883 63.3124 100.759 63.995 100.635 64.5638C100.304 66.0116 100.149 67.5009 100.17 68.9901C100.17 69.683 100.253 70.3655 100.304 71.0481C100.356 71.6582 100.418 72.3718 100.077 72.92C99.3736 74.0886 97.1811 74.0679 96.0125 73.9748C94.5233 73.8611 93.0961 73.2302 91.5965 73.2612C90.2521 73.2923 89.0318 73.9438 87.7287 74.1817C84.7399 74.7298 81.6788 73.9231 78.7727 73.2819C75.8667 72.6407 73.1571 72.1443 70.3028 72.5994C68.8343 72.8372 67.4071 73.1992 66.0006 72.4753C64.8837 71.8961 64.0563 70.9033 63.4875 69.8071C62.836 68.5557 62.5154 67.1596 62.2362 65.7945C61.9259 64.2845 61.6467 62.7643 61.4088 61.2441C60.9228 58.1415 60.5918 55.0183 60.4057 51.8847C60.2195 48.7512 60.1161 45.7934 60.323 42.7633C60.4988 40.3123 61.2227 37.5614 63.6944 36.4961C64.6872 36.0721 65.7938 36.0308 66.7452 36.5789C67.1175 36.7961 67.4795 36.5065 67.5208 36.1342C67.6863 34.707 67.9242 33.3005 68.2344 31.894L67.5932 32.256C69.372 32.5663 71.1715 32.6904 72.9813 32.6076C73.6432 32.5766 73.6432 31.5424 72.9813 31.5735L72.971 31.5631Z" fill="black"/>
<path d="M107.968 48.6785C108.878 47.8511 109.86 46.9617 111.091 46.6722C111.743 46.517 112.446 46.5687 113.097 46.6411C113.749 46.7135 114.421 46.8893 115.011 47.2099C115.6 47.5305 116.117 46.6411 115.528 46.3205C114.214 45.5863 112.404 45.3484 110.936 45.6483C109.467 45.9482 108.299 46.9824 107.233 47.9442C106.737 48.3889 107.471 49.1232 107.968 48.6785Z" fill="black"/>
<path d="M101.12 73.9435C105.03 76.1153 106.54 81.069 110.645 82.9719C111.473 83.3545 112.838 83.7786 113.613 83.0443C113.955 82.7237 114.089 82.248 114.172 81.7929C114.296 81.0483 114.389 80.3037 114.513 79.5591C114.751 78.1836 115.123 76.8599 115.692 75.5879C116.261 74.3158 116.964 73.1472 117.626 71.9475C118.288 70.7479 118.95 69.4965 118.795 68.1211C118.67 66.9938 118.029 66.032 116.964 65.608C116.344 65.3598 116.075 66.363 116.685 66.6008C117.678 66.9938 117.895 68.2452 117.698 69.1759C117.46 70.3135 116.768 71.3477 116.209 72.3509C115.082 74.3675 114.079 76.4049 113.613 78.6904C113.5 79.2799 113.396 79.8797 113.313 80.4795C113.241 80.9759 113.241 81.5964 113.024 82.0515C112.548 83.0753 110.5 81.7619 109.942 81.3482C108.442 80.252 107.294 78.7421 106.136 77.2942C104.833 75.6706 103.468 74.0676 101.617 73.0334C101.038 72.7128 100.51 73.6022 101.1 73.9228L101.12 73.9435Z" fill="black"/>
<path d="M115.269 67.0767C115.135 68.9899 114.524 70.8204 113.883 72.6199C113.614 73.3748 113.356 74.1401 112.952 74.8434C112.756 75.1743 112.539 75.4845 112.26 75.7534C112.135 75.8775 111.929 76.0947 111.753 76.1361C111.525 76.1878 111.515 76.1671 111.391 75.9499C110.532 74.44 110.781 72.3613 110.77 70.7066C110.75 68.7831 110.563 66.8698 110.222 64.9773C110.108 64.3257 109.105 64.605 109.229 65.2565C109.653 67.6144 109.715 69.9517 109.736 72.3406C109.746 73.3231 109.798 74.3263 110.057 75.2777C110.243 76.0016 110.563 77.0979 111.443 77.2323C112.249 77.3564 113.035 76.5291 113.469 75.9499C113.987 75.257 114.318 74.4504 114.617 73.6437C115.403 71.5236 116.158 69.3622 116.313 67.087C116.355 66.4251 115.321 66.4251 115.279 67.087L115.269 67.0767Z" fill="black"/>
<path d="M110.428 64.295C111.349 64.8844 112.207 65.567 113.003 66.3323C113.396 66.7046 113.758 67.1079 114.11 67.5216C114.441 67.9146 114.782 68.3179 114.906 68.8247C115.061 69.4762 116.065 69.197 115.899 68.5454C115.754 67.9456 115.392 67.4492 114.999 66.9735C114.606 66.4978 114.213 66.0737 113.789 65.6601C112.921 64.812 111.969 64.0571 110.945 63.4056C110.387 63.0436 109.86 63.9433 110.428 64.295Z" fill="black"/>
<path d="M104.161 63.0433C104.378 64.729 104.885 66.3734 105.299 68.0177L106.581 73.1679C106.746 73.8091 107.739 73.5402 107.574 72.8887L106.343 67.935C105.94 66.3217 105.412 64.6877 105.195 63.0433C105.112 62.3918 104.078 62.3814 104.161 63.0433Z" fill="black"/>
<path d="M65.3794 64.4807C67.1375 65.6287 69.2679 65.7011 71.3053 65.8045C73.777 65.9389 76.259 66.063 78.7307 66.0527C83.5603 66.032 88.2968 65.1943 93.0851 64.6255C95.5775 64.3256 98.0698 64.036 100.552 63.6948C101.203 63.6017 100.924 62.6089 100.273 62.702C95.9911 63.3018 91.6786 63.7361 87.3868 64.336C84.9771 64.6772 82.5675 64.9461 80.1268 65.0082C77.6862 65.0702 75.3386 64.9875 72.9496 64.8737C70.5607 64.76 67.9235 64.9254 65.8862 63.6017C65.3277 63.2397 64.8106 64.1291 65.3691 64.4911L65.3794 64.4807Z" fill="black"/>
<path d="M98.3811 79.5386C100.677 81.669 101.442 84.7198 101.99 87.6879C102.57 90.8112 102.973 93.9964 104.431 96.8714C105.279 98.5468 106.396 100.067 107.534 101.556C108.744 103.128 109.954 104.7 111.164 106.282C113.728 109.664 116.272 113.067 118.816 116.459C121.361 119.851 123.967 123.202 126.428 126.645C128.724 129.872 129.51 133.719 130.327 137.525C132.054 145.571 133.016 153.782 133.202 162.014C133.305 166.554 133.057 171.053 132.809 175.583C132.664 178.375 132.871 182.181 135.839 183.463L135.736 182.646C132.509 186.483 127.483 188.624 122.467 188.252C121.236 188.158 119.902 187.962 118.858 187.248C117.669 186.431 117.048 184.89 116.428 183.639C115.104 180.981 113.997 178.21 113.128 175.376C111.35 169.605 110.605 163.535 108.382 157.898C107.275 155.075 105.9 152.376 104.565 149.656L100.367 141.124C97.8226 135.953 95.5991 130.586 91.4728 126.439C91.0074 125.963 90.2731 126.697 90.7385 127.173C92.5276 128.972 94.0065 130.979 95.2372 133.192C96.5609 135.57 97.6985 138.063 98.8982 140.503L103.262 149.377C104.69 152.283 106.189 155.168 107.378 158.178C109.654 163.969 110.378 170.205 112.26 176.11C113.16 178.954 114.297 181.726 115.631 184.384C116.241 185.594 116.841 186.928 117.896 187.828C118.889 188.665 120.171 189.017 121.433 189.193C127.007 189.958 132.83 187.693 136.449 183.391C136.635 183.163 136.677 182.719 136.346 182.574C133.626 181.395 133.678 177.744 133.843 175.242C134.102 171.25 134.288 167.258 134.236 163.255C134.133 155.096 133.264 146.957 131.651 138.952C131.247 136.946 130.803 134.95 130.296 132.975C129.83 131.154 129.262 129.345 128.321 127.711C127.379 126.077 126.076 124.494 124.908 122.933L121.061 117.793C118.568 114.452 116.076 111.112 113.563 107.792C112.28 106.096 110.998 104.411 109.705 102.735C108.537 101.215 107.327 99.7258 106.303 98.1021C105.279 96.4785 104.524 94.8031 104.048 92.9726C103.604 91.2662 103.345 89.5184 103.025 87.7913C102.435 84.5233 101.608 81.1519 99.074 78.8147C98.5879 78.3596 97.8537 79.0939 98.3397 79.5489L98.3811 79.5386Z" fill="black"/>
<path d="M90.2937 125.684C89.7663 125.487 89.6422 124.836 89.5284 124.35C89.394 123.76 89.2906 123.171 89.032 122.623C88.3391 121.144 86.5293 120.978 85.0815 121.144C81.4205 121.568 78.8247 124.402 76.777 127.215C74.4811 130.369 72.1852 133.492 69.7032 136.522C67.2212 139.552 64.7495 142.438 62.3605 145.468C59.9716 148.498 57.7171 151.58 55.7521 154.879C53.6734 158.364 51.8843 162.015 49.94 165.583C45.9378 172.936 40.8186 179.575 35.9062 186.328L34.0033 188.934C33.7034 189.338 33.4345 189.793 33.0933 190.155C32.6175 190.672 32.1004 190.424 31.5316 190.206C29.5357 189.41 27.5294 188.614 25.5334 187.817L19.5352 185.428C18.5941 185.056 17.6219 184.715 16.7015 184.281C15.9569 183.929 15.1916 183.422 15.3674 182.481C15.5432 181.54 16.1637 180.568 16.6188 179.73C17.0738 178.892 17.5702 178.044 18.077 177.217C19.1008 175.573 20.2177 173.98 21.3553 172.408C23.5788 169.306 25.7919 166.203 27.9017 163.018C32.0798 156.699 35.9269 150.163 39.4431 143.441C42.9593 136.719 46.1239 129.821 48.9369 122.778C51.7499 115.735 54.2112 108.568 56.2899 101.277C57.3448 97.5956 58.2962 93.8932 59.1546 90.1598C59.9612 86.6436 60.3749 82.5069 62.8363 79.6939C63.9015 78.4736 65.2666 77.6049 66.8799 77.3774C67.5314 77.2843 67.2522 76.2915 66.6007 76.3846C63.1879 76.8603 60.9644 79.8801 59.8785 82.9206C59.227 84.7511 58.8754 86.6747 58.4513 88.5569C58.0273 90.4391 57.5826 92.3213 57.1069 94.1931C55.2144 101.722 52.9185 109.158 50.24 116.449C47.5614 123.74 44.5106 130.875 41.0978 137.846C37.685 144.816 33.8896 151.611 29.7632 158.188C27.7052 161.456 25.5644 164.683 23.3409 167.837C21.1175 170.991 18.6458 174.187 16.6291 177.579C16.112 178.448 15.626 179.327 15.1813 180.227C14.809 180.981 14.3436 181.788 14.2919 182.647C14.1884 184.301 15.7914 185.035 17.0842 185.553C21.1588 187.176 25.2438 188.8 29.3185 190.424L30.8801 191.044C31.3248 191.22 31.7902 191.458 32.2762 191.509C33.1139 191.592 33.662 191.085 34.1378 190.465C35.4719 188.686 36.7646 186.866 38.0677 185.067C40.5807 181.612 43.1351 178.189 45.5448 174.663C47.9544 171.136 50.0021 167.641 51.9567 163.949C53.9113 160.257 55.7521 156.637 57.9963 153.183C62.3295 146.523 67.7383 140.669 72.661 134.454C73.8606 132.934 75.0292 131.403 76.1565 129.831C77.2837 128.259 78.3386 126.656 79.6624 125.26C80.9861 123.864 82.5787 122.726 84.461 122.292C85.34 122.085 86.3742 122.013 87.2429 122.312C87.9978 122.571 88.2047 123.274 88.3701 123.978C88.6287 125.074 88.8252 126.242 90.0042 126.687C90.6247 126.915 90.8936 125.922 90.2834 125.694L90.2937 125.684Z" fill="black"/>
<path d="M68.4621 78.7422C68.0174 82.0826 67.0246 85.3093 66.1455 88.5462C65.2664 91.7832 64.5425 94.9168 63.9117 98.1434C62.6707 104.555 61.895 111.06 61.6055 117.586C61.5331 119.261 60.8195 124.122 63.9737 123.398C64.6563 123.243 65.2664 122.809 65.887 122.498C66.5592 122.167 67.2728 121.888 67.9863 121.661C69.4032 121.216 70.882 120.937 72.3609 120.782C75.3083 120.461 78.2868 120.502 81.2445 120.378C84.5746 120.244 87.8943 119.985 91.2037 119.623C98.536 118.817 105.806 117.452 112.932 115.549C113.201 115.476 113.366 115.176 113.294 114.907C112.384 111.764 111.67 108.64 111.515 105.352C111.484 104.69 110.45 104.69 110.481 105.352C110.636 108.723 111.349 111.95 112.291 115.176L112.653 114.535C106.416 116.2 100.077 117.462 93.6857 118.279C90.5418 118.682 87.3979 118.982 84.2333 119.179C81.0687 119.375 78.2351 119.385 75.2359 119.52C72.485 119.644 69.6927 119.923 67.0866 120.864C66.4661 121.092 65.8456 121.35 65.2561 121.64C64.6666 121.93 63.6842 122.726 63.043 122.281C62.6086 121.992 62.5569 121.319 62.5362 120.854C62.5052 120.089 62.5569 119.323 62.5879 118.558C62.8258 112.167 63.5187 105.786 64.6873 99.4982C65.3388 95.982 66.1248 92.4968 67.0659 89.0426C68.007 85.5885 69.0205 82.2378 69.4859 78.7215C69.5686 78.0597 68.5345 78.07 68.4517 78.7215L68.4621 78.7422Z" fill="black"/>
<path d="M135.011 184.384C137.172 185.449 139.489 186.007 141.805 186.607C142.953 186.907 144.101 187.228 145.208 187.652C145.714 187.848 146.211 188.076 146.686 188.324C147.079 188.531 148.083 188.944 148.196 189.41C148.31 189.875 147.514 189.865 147.183 189.875C146.5 189.885 145.818 189.875 145.135 189.865L141.174 189.844L133.252 189.803L128.785 189.782C128.092 189.782 127.347 189.823 126.675 189.627C126.003 189.43 125.548 188.924 125.145 188.396C124.741 187.869 124.007 188.603 124.41 189.131C125.186 190.134 126.127 190.682 127.399 190.785C128.909 190.909 130.471 190.827 131.98 190.837L141.185 190.889L145.911 190.92C146.883 190.92 148.269 191.137 149.003 190.309C150.668 188.427 145.766 186.742 144.649 186.369C141.629 185.345 138.423 184.921 135.538 183.494C134.949 183.205 134.421 184.094 135.021 184.384H135.011Z" fill="black"/>
<path d="M14.9534 183.629C14.1778 184.415 13.5056 185.304 13.0299 186.307C12.5231 187.372 12.1612 188.438 11.3648 189.337C10.703 190.082 9.94802 190.744 9.30683 191.499C8.75871 192.14 8.08649 193.009 8.02444 193.888C7.95205 195.077 9.22409 195.108 10.0928 195.242C11.3338 195.429 12.5748 195.646 13.8365 195.677C16.0393 195.718 18.0043 195.015 19.3694 193.257C19.7003 192.822 20.0209 192.367 20.4243 191.995C20.8276 191.623 21.3447 191.509 21.7273 191.168C22.1513 190.785 22.3065 190.185 22.503 189.668C22.7822 188.934 23.0718 188.189 23.351 187.455C23.5888 186.835 22.5857 186.566 22.3582 187.176C22.1617 187.683 21.9755 188.189 21.779 188.686C21.5825 189.182 21.4584 189.751 21.1895 190.196C20.9724 190.558 20.476 190.661 20.145 190.899C19.8141 191.137 19.5245 191.416 19.266 191.726C18.7385 192.347 18.3145 193.071 17.6733 193.577C16.9184 194.177 15.9566 194.488 15.0052 194.591C13.9503 194.705 12.8851 194.601 11.8406 194.456C11.3131 194.384 10.7857 194.301 10.2583 194.229C9.81357 194.167 8.93452 194.229 9.18272 193.598C9.80323 192.047 11.3235 191.054 12.3577 189.792C13.0092 188.986 13.3918 188.086 13.8055 187.155C14.2709 186.1 14.9017 185.19 15.7084 184.373C16.1738 183.898 15.4395 183.163 14.9741 183.639L14.9534 183.629Z" fill="black"/>
<path d="M125.291 49.0198C126.19 48.6371 127.163 48.4924 128.135 48.5544L127.773 47.6754C126.945 48.6578 125.984 49.6093 125.518 50.8296C125.301 51.3881 125.187 51.9775 125.063 52.567C125.001 52.8876 124.949 53.5495 124.546 53.6115C124.267 53.6529 124.122 54.0045 124.184 54.2527C124.267 54.5526 124.546 54.6561 124.825 54.6147C126.056 54.4285 126.077 52.6291 126.325 51.719C126.687 50.4056 127.649 49.4438 128.507 48.4303C128.797 48.0787 128.61 47.5823 128.145 47.5513C126.976 47.4789 125.849 47.696 124.774 48.1614C124.515 48.2752 124.463 48.6475 124.587 48.8647C124.743 49.1335 125.043 49.1646 125.291 49.0508V49.0198Z" fill="black"/>
<path d="M63.8797 70.6035C64.4278 72.4857 64.4071 74.6574 63.8073 76.519C63.6832 76.9223 63.5281 77.367 63.6315 77.7703C63.6936 77.9875 63.8177 78.1633 63.9624 78.3185C64.8932 79.3423 66.1756 79.5284 67.3752 79.6732L72.9495 80.3454C74.3146 80.5109 75.7004 80.6764 77.0552 80.3661C77.8515 80.1903 78.6375 79.849 79.4338 79.6422C82.557 78.8355 85.7526 80.1283 88.8965 80.7281C90.3754 81.0073 91.875 81.1418 93.3642 81.2659C95.174 81.421 97.0252 81.5761 98.7833 80.9659C98.9384 80.9142 99.1039 80.8418 99.2073 80.6764C99.3314 80.4799 99.3314 80.1903 99.3107 79.9318C99.1659 77.9461 98.2352 76.0019 98.6488 74.0887C98.7833 73.4371 99.0005 72.5374 98.5454 72.2375C98.4316 72.1651 98.2972 72.1547 98.1731 72.1547C96.3012 72.1237 94.4087 72.5788 92.5885 72.0617C92.0404 71.9065 91.5026 71.6687 90.9442 71.5549C90.1686 71.3998 89.3722 71.4929 88.5863 71.5756C82.4019 72.2064 76.1761 71.8755 70.0538 70.5931C68.0061 70.1588 65.8964 69.621 63.8694 70.2518V70.5828L63.8797 70.6035Z" fill="#5081F1"/>
<path d="M82.9922 77.729C82.5268 77.8841 82.0821 78.0599 81.6271 78.2668C81.172 78.3599 80.7377 78.4633 80.293 78.5977L82.9922 77.729Z" fill="#5081F1"/>
<path d="M112.032 107.089C110.957 106.241 109.891 105.372 108.868 104.462C104.317 100.47 100.274 95.8786 96.8815 90.8525C95.5888 88.9393 94.3891 86.964 93.2825 84.937C92.9723 84.3475 92.6413 83.7477 92.1967 83.241C91.6279 82.6101 90.8522 82.1861 90.2524 81.5759C89.6422 80.9658 89.2182 80.0557 89.5491 79.2697C87.76 79.8385 85.9709 80.4177 84.1714 80.9968C83.2303 81.3071 82.2685 81.607 81.4619 82.1861C79.9623 83.2617 79.2074 85.0611 78.5041 86.7572C74.9465 95.434 71.027 103.956 66.7662 112.312C66.6007 112.643 66.4042 112.994 66.0526 113.108C65.732 113.201 65.3907 113.067 65.0908 112.922C63.5292 112.167 62.0503 111.216 60.7266 110.088C62.6501 106.944 63.8188 103.407 65.3183 100.036C67.397 95.3409 70.1273 90.9663 72.8471 86.6021C73.5814 85.4231 74.326 84.2338 75.1947 83.1582C76.9115 81.0382 79.135 79.3525 81.617 78.2666C84.5334 77.6564 87.5946 77.7288 90.4696 78.4941C91.6175 78.8043 92.7551 79.2284 93.7376 79.8902C95.051 80.7796 96.0438 82.0413 97.0159 83.2927C97.3055 83.6753 97.6054 84.0476 97.895 84.4199C99.6427 86.6538 101.38 88.8876 103.128 91.1214C105.248 93.831 107.368 96.5509 109.488 99.2604C110.078 100.015 110.657 100.77 111.246 101.515C111.494 101.825 111.743 102.156 111.867 102.518C111.981 102.87 111.991 103.242 111.991 103.614C111.991 104.597 112.001 105.569 112.012 106.541C112.012 106.717 112.012 106.893 112.012 107.058L112.032 107.089Z" fill="#5081F1"/>
<path d="M121.329 60.7062C120.553 62.1127 119.767 63.5191 118.981 64.9256C118.826 65.1945 118.661 65.4841 118.382 65.6289C117.989 65.8254 117.534 65.6599 117.12 65.5151C116.882 65.422 116.634 65.3393 116.396 65.2566C116.696 65.5978 116.944 65.9908 117.192 66.3735C117.596 67.0043 118.009 67.6559 118.061 68.4005C118.092 68.9486 117.937 69.476 117.761 69.9828C116.52 73.5403 114.276 76.767 113.614 80.4797C113.49 81.2243 113.324 82.1137 112.632 82.4033C112.052 82.6411 111.39 82.3205 110.863 81.9689C110.863 81.9689 110.842 81.9586 110.832 81.9482C110.956 80.7072 111.142 79.4869 111.422 78.2769C112.032 75.5673 113.056 72.9819 114.079 70.4068C114.669 68.9072 115.269 67.4077 115.858 65.9081C115.962 65.6599 116.055 65.4117 116.148 65.1635C116.168 65.1221 116.179 65.0808 116.199 65.0394C117.451 61.8851 118.712 58.7309 120.119 55.6387C120.719 54.3356 121.329 53.0326 121.96 51.7398C122.601 50.3954 123.242 49.0406 123.894 47.7065C124.111 47.7583 124.318 47.8306 124.483 47.9754C124.773 48.2443 124.866 48.658 124.907 49.051C125.424 53.1567 123.346 57.0866 121.329 60.7062Z" fill="black"/>
<path d="M125.559 124.608C121.536 125.642 117.41 126.635 113.273 126.18C111.991 126.046 110.698 125.756 109.56 125.115C108.433 124.484 107.482 123.46 107.12 122.219C106.83 121.196 106.954 120.11 107.089 119.055C107.678 114.184 108.278 109.323 108.867 104.462C108.94 103.873 109.012 103.294 109.085 102.715C109.229 101.567 109.364 100.419 109.509 99.2812C110.098 100.036 110.677 100.791 111.267 101.536C111.515 101.846 111.763 102.177 111.887 102.539C112.001 102.891 112.011 103.263 112.011 103.635C112.011 104.618 112.022 105.59 112.032 106.562C114.152 109.354 116.252 112.146 118.351 114.959C120.657 118.041 122.963 121.113 125.27 124.195C125.342 124.288 125.414 124.391 125.487 124.484C125.518 124.526 125.549 124.567 125.569 124.608H125.559Z" fill="black"/>
<path d="M155.353 48.0789C153.626 51.2952 151.64 54.3667 149.696 57.4589C149.696 57.4589 149.696 57.4692 149.696 57.4796C149.624 57.583 149.551 57.6968 149.479 57.8105C147.731 60.6028 146.014 63.3951 144.567 66.3425C144.07 67.356 143.605 68.3902 143.17 69.4347C136.779 85.2266 140.502 103.387 136.138 119.861C136.066 120.151 135.983 120.451 135.755 120.647C135.487 120.885 135.104 120.916 134.752 120.947C130.74 121.288 126.944 122.767 123.056 123.802C119.178 124.846 114.948 125.415 111.204 123.977C110.635 123.76 110.056 123.471 109.756 122.943C109.487 122.457 109.508 121.868 109.529 121.309C109.932 112.808 110.325 104.307 110.718 95.8063C110.873 92.3728 111.039 88.9393 111.556 85.5472C112.052 82.2379 112.89 78.9905 113.872 75.7846C118.288 61.5439 125.807 48.4719 133.78 35.8652L134.018 35.9893C137.493 36.6926 140.968 37.4165 144.443 38.1197C145.59 38.3576 146.738 38.5955 147.783 39.1022C148.921 39.6503 149.882 40.4984 150.834 41.336C152.158 42.5047 153.471 43.6629 154.795 44.8212C155.239 45.2039 155.705 45.6382 155.829 46.2174C155.974 46.8586 155.663 47.4998 155.353 48.0789Z" fill="#5081F1"/>
<path d="M85.5158 36.982C81.3584 35.2445 77.2838 33.3106 73.2918 31.2216L73.1677 32.1627C73.9744 31.9352 74.8121 31.6766 75.4636 31.1182C76.1151 30.5597 76.4875 29.8254 76.7977 29.0705C77.532 27.2917 77.9146 25.2233 79.3211 23.8065C80.7276 22.3897 82.9511 22.7827 84.7816 22.2139C86.6121 21.6451 88.0496 20.5592 89.4457 19.3285C90.8419 18.0978 92.2794 16.65 94.1099 15.9984C94.5546 15.8433 95.02 15.7192 95.4957 15.6882C95.5991 15.6882 95.9817 15.6468 96.0024 15.6779C96.0438 15.7399 95.9817 16.3087 95.9817 16.4431L95.9611 19.7835C95.9404 23.7445 96.3644 27.8915 94.2753 31.4388C93.7583 32.3281 93.1171 33.1348 92.3518 33.8381C91.9381 34.2207 91.6072 34.562 91.028 34.4482C90.5523 34.3551 90.0869 34.2 89.6215 34.0656C87.791 33.5278 85.8778 32.7832 84.7402 31.1699C84.3576 30.6321 83.4578 31.1492 83.8508 31.687C84.9264 33.1969 86.5087 34.0863 88.2357 34.6964C89.1044 35.0067 90.0249 35.2962 90.9349 35.4721C91.845 35.6479 92.5172 35.0894 93.1584 34.4896C94.5649 33.1555 95.5991 31.4594 96.2299 29.6393C96.9332 27.6019 96.9539 25.5129 96.9746 23.3825C96.9849 20.8901 97.0159 18.4081 97.0159 15.9157C97.0159 14.9332 96.5816 14.5816 95.6094 14.6333C94.6373 14.685 93.7169 14.985 92.8482 15.4193C90.9453 16.3811 89.5078 17.9737 87.8841 19.3078C87.0257 20.0214 86.0846 20.6419 85.0298 21.0349C83.9749 21.4279 82.8787 21.521 81.7618 21.6554C80.6449 21.7899 79.652 22.1105 78.804 22.8654C77.956 23.6204 77.4079 24.5925 76.9839 25.606C76.5081 26.7332 76.2082 27.9329 75.6911 29.0395C75.4326 29.5979 75.1017 30.1357 74.5846 30.4873C74.0675 30.8389 73.478 30.9941 72.8885 31.1595C72.4748 31.2733 72.3611 31.8938 72.7644 32.1006C76.8287 34.2414 80.9965 36.196 85.2263 37.9748C85.8364 38.2333 86.1053 37.2302 85.5055 36.982H85.5158Z" fill="black"/>
<path d="M85.1325 33.2487C85.0704 34.0037 85.0394 34.7483 85.0497 35.5032C85.0497 35.8755 85.0704 36.2582 85.0911 36.6305C85.1014 36.8063 85.1118 36.9821 85.1325 37.1476C85.1325 37.22 85.1324 37.3441 85.1531 37.4061C85.1531 37.4682 85.1531 37.4682 85.1531 37.4268C85.1738 37.3854 85.1738 37.3854 85.1531 37.4268L85.3393 37.2406L85.4841 37.1993L85.7426 37.2717C85.8564 37.4475 85.8977 37.4785 85.8564 37.3647C85.8357 37.3027 85.815 37.251 85.784 37.1889C85.7426 37.1165 85.7012 37.0441 85.6392 36.9821C85.4737 36.827 85.2772 36.7546 85.0601 36.7442C84.7808 36.7236 84.543 37.0028 84.543 37.2613C84.543 37.5612 84.7808 37.7577 85.0601 37.7784L84.9153 37.7164C84.8636 37.6233 84.8532 37.6129 84.8739 37.6647C84.8636 37.6853 84.967 37.9129 84.9463 37.8715C85.0083 37.9853 85.0911 38.0887 85.2048 38.1507C85.4841 38.3058 85.8047 38.2438 86.0012 37.9956C86.1666 37.8094 86.1977 37.5509 86.177 37.313C86.1563 37.0338 86.1253 36.7649 86.1149 36.4857C86.0529 35.3998 86.0632 34.3139 86.1666 33.228C86.1873 32.9488 85.9081 32.7109 85.6495 32.7109C85.3496 32.7109 85.1531 32.9488 85.1325 33.228V33.2487Z" fill="black"/>
<path d="M16.2145 181.25C16.2145 181.25 16.1214 181.25 16.0801 181.24C16.1628 181.209 16.2455 181.178 16.3283 181.136C16.2973 181.178 16.2455 181.219 16.2145 181.25Z" fill="black"/>
<path d="M16.3488 181.136C16.3488 181.136 16.3385 181.136 16.3281 181.136C16.3798 181.095 16.4212 181.043 16.4729 180.992L16.3488 181.126V181.136Z" fill="black"/>
<path d="M149.687 57.4901H149.738C149.738 57.4901 149.707 57.4901 149.697 57.4694C148.229 56.2388 146.688 55.1012 145.085 54.0359C144.681 53.7671 144.175 53.4982 143.72 53.6843C143.502 53.7774 143.337 53.9739 143.182 54.16C141.341 56.4249 139.81 58.938 138.631 61.5958C138.445 62.0095 138.269 62.4542 138.3 62.8989C138.383 63.9537 139.5 64.5536 140.472 64.9465C141.806 65.4843 143.171 65.9704 144.568 66.3323C146.015 63.3849 147.722 60.5823 149.48 57.8004C149.48 57.8004 149.48 57.7693 149.501 57.7693L149.697 57.4798L149.687 57.4901Z" fill="black"/>
<path d="M159.233 67.1596C158.095 67.3147 156.958 67.3561 155.81 67.3147C154.072 67.232 152.356 66.9217 150.711 66.384C148.622 65.7014 146.616 64.6569 144.423 64.5018C143.72 64.4501 142.996 64.5018 142.303 64.3673C141.6 64.2225 140.928 63.8916 140.39 63.4055C140.214 63.2401 140.028 63.0436 140.007 62.8057C139.997 62.6402 140.038 62.4851 140.101 62.33C141.021 59.6618 142.314 57.1177 143.927 54.7908C144.01 54.6667 144.113 54.5323 144.258 54.4806C144.413 54.4185 144.568 54.4806 144.723 54.5323C146.967 55.3906 148.188 57.914 150.36 58.9482C151.363 59.4239 152.49 59.548 153.586 59.7445C154.238 59.8583 154.889 60.0031 155.52 60.1685C156.472 60.4168 157.402 60.7373 158.302 61.0993L159.243 67.1596H159.233Z" fill="#FCFCFC"/>
<path d="M284.244 23.7238C283.748 22.6689 283.83 21.3658 284.461 20.3937C285.516 18.7701 287.688 18.3254 289.622 18.3047C292.745 18.2737 295.899 18.9872 298.578 20.5799C301.256 22.1725 303.438 24.6649 304.421 27.633C304.793 28.7396 304.99 29.8978 305.186 31.0561C305.362 32.08 305.538 33.1141 305.383 34.138C305.217 35.2239 304.7 36.227 304.193 37.1991L303.769 35.9892C302.58 39.3399 301.225 42.6389 299.705 45.8656C299.612 46.0724 299.467 46.2999 299.24 46.2896C299.054 46.2896 298.929 46.1138 298.816 45.9586C298.205 45.1003 297.347 44.4591 296.509 43.8386C293.707 41.7806 290.821 39.7743 288.422 37.2509C286.023 34.7275 284.099 31.6042 283.686 28.1397C283.551 27.0332 283.582 25.8645 284.079 24.8614C284.244 24.5201 284.472 24.1581 284.358 23.7962" fill="#5081F1"/>
<path d="M158.426 60.5924C156.833 59.9512 155.179 59.4859 153.493 59.1963C151.952 58.9274 150.525 58.6689 149.304 57.6243C148.229 56.7039 144.961 52.4534 143.472 54.5218C142.541 55.8145 141.745 57.2417 141.052 58.6792C140.7 59.4031 140.379 60.1477 140.08 60.9027C139.821 61.5439 139.314 62.4126 139.552 63.1158C139.749 63.6743 140.338 64.0776 140.824 64.3568C141.538 64.7602 142.303 64.9256 143.12 64.967C143.937 65.0084 144.785 65.0084 145.623 65.1945C146.46 65.3807 147.226 65.6392 148.001 65.9288C149.77 66.5803 151.497 67.2422 153.358 67.5628C155.22 67.8834 157.268 67.9248 159.222 67.6766C159.874 67.5938 159.884 66.5596 159.222 66.6424C156.12 67.0354 153.027 66.6837 150.09 65.6185C148.705 65.1118 147.339 64.512 145.892 64.1914C145.25 64.0466 144.599 63.9742 143.947 63.9535C143.12 63.9225 142.303 63.9328 141.538 63.5605C141.269 63.4261 140.855 63.2192 140.69 62.971C140.452 62.6091 140.69 62.1747 140.824 61.8128C141.103 61.0682 141.403 60.3339 141.745 59.61C142.355 58.2965 143.058 57.0245 143.854 55.8042C143.947 55.6697 144.258 55.0285 144.423 54.9768C144.589 54.9251 145.033 55.2457 145.178 55.3181C145.705 55.6284 146.171 56.0317 146.616 56.4557C147.433 57.2417 148.187 58.1001 149.098 58.7826C150.328 59.6927 151.745 59.9512 153.214 60.1994C154.91 60.489 156.554 60.9544 158.147 61.5956C158.767 61.8438 159.036 60.8406 158.426 60.6028V60.5924Z" fill="black"/>
<path d="M298.981 43.7662C300.522 44.7176 302.104 45.7001 303.232 47.1273C304.359 48.5544 304.938 50.5504 304.235 52.2258C304.007 52.7635 303.656 53.2703 303.625 53.8494C303.583 54.6457 304.142 55.3386 304.638 55.9695C308.558 60.9542 309.974 67.8212 308.32 73.9435C306.913 79.1868 303.501 83.6338 300.16 87.9153C297.337 91.5556 294.307 95.3407 290.036 97.0781C287.812 97.9779 285.02 98.164 283.251 96.5507C281.369 94.834 281.297 91.7211 279.363 90.0664C278.142 91.7211 275.712 92.0727 273.758 91.4419C271.803 90.811 270.2 89.4252 268.649 88.0704C266.994 86.6122 265.329 85.1437 264.026 83.3649C260.872 79.0524 260.21 73.4678 258.493 68.4107C258.059 67.1283 257.5 65.8045 256.394 65.0289C255.287 64.2533 253.498 64.3153 252.826 65.4943C252.826 64.4808 251.947 63.6017 250.944 63.3949C249.94 63.1881 248.896 63.5604 248.1 64.1809C247.593 62.4641 249.01 60.8301 250.302 59.5995L257.562 52.6705C260.448 49.9092 263.364 47.1376 266.704 44.9451C270.045 42.7527 273.871 41.1497 277.863 40.9946C278.153 40.9842 278.473 40.9946 278.711 41.1497C279.073 41.3979 279.115 41.9046 279.166 42.339C279.456 44.7486 281.028 46.9721 283.21 48.0373C283.748 48.3062 284.358 48.5234 284.699 49.0198C284.947 49.3611 285.03 49.7851 285.092 50.1988C285.402 52.112 285.444 54.0769 285.216 56.0005C287.481 56.3935 289.022 59.1134 288.195 61.2645C292.083 60.4992 296.21 59.6201 299.033 56.8382C300.243 55.6489 301.174 54.0356 301.081 52.3499C300.915 49.2473 297.451 46.5998 298.423 43.6524" fill="#FCFCFC"/>
<path d="M279.011 41.0775C279.591 43.1873 280.19 45.328 281.328 47.1999C281.742 47.8824 282.238 48.5236 282.631 49.2165C284.11 51.833 284.172 55.0597 285.578 57.7175C286.364 59.2067 287.574 60.4891 289.022 61.3578C289.488 61.637 289.994 61.8852 290.532 62.0093C291.463 62.2265 292.435 62.0714 293.355 61.8128C294.348 61.5336 295.31 61.1406 296.168 60.5615C298.754 58.8137 300.036 55.6802 300.76 52.65C300.874 52.195 300.977 51.7192 300.957 51.2435C300.915 50.1163 300.233 49.1235 299.685 48.141C298.795 46.538 298.216 44.7489 298.009 42.9287L299.137 45.4521C298.661 43.8285 298.123 42.1014 296.83 40.9948C296.055 40.3226 295.072 39.9503 294.11 39.5883C292.249 38.8851 290.336 38.1612 288.34 38.1715C286.944 38.1715 285.578 38.5335 284.234 38.8851C283.314 39.1229 282.383 39.3711 281.566 39.8572C280.707 40.364 279.849 41.1499 278.877 40.9431" fill="white"/>
<path d="M274.378 192.657C274.357 193.029 274.254 193.412 273.954 193.64C273.675 193.857 273.292 193.867 272.951 193.857C270.469 193.753 268.152 192.667 265.794 191.861C263.25 190.992 260.603 190.434 257.914 190.206C257.438 190.165 256.88 190.082 256.652 189.658C256.57 189.503 256.549 189.327 256.528 189.141C256.311 187.135 256.166 185.118 256.104 183.101C256.042 181.85 256.021 180.599 256.032 179.347C256.032 178.385 256.042 177.434 256.084 176.472L257.8 176.782L263.571 177.817C264.078 179.606 264.657 181.447 265.515 183.091C266.27 184.528 267.232 185.821 268.535 186.783C269.704 187.652 271.069 188.2 272.248 189.048C273.427 189.896 274.44 191.189 274.368 192.647L274.378 192.657Z" fill="#FCFCFC"/>
<path d="M159.232 67.1594C158.095 67.3146 156.957 67.3559 155.809 67.3145C155.416 64.9876 155.427 62.5677 155.509 60.1787C156.461 60.4269 157.391 60.7475 158.291 61.1095L159.232 67.1698V67.1594Z" fill="black"/>
<path d="M256.114 183.122C258.906 183.257 261.709 183.288 264.501 183.215C264.842 183.215 265.184 183.194 265.515 183.112C264.656 181.467 264.077 179.627 263.57 177.837L257.8 176.803C257.21 177.662 256.621 178.52 256.031 179.368L256.104 183.122H256.114Z" fill="black"/>
<path d="M157.227 59.1442C157.237 63.6532 157.837 68.1622 158.996 72.5161C159.378 73.9536 159.854 75.4222 160.857 76.5287C162.491 78.3282 165.118 78.7419 167.528 79.0832C185.264 81.5962 202.71 86.0949 219.443 92.4551C223.621 94.0478 227.82 95.7852 231.316 98.5671C239.641 105.217 242.506 116.448 244.481 126.924C247.408 142.427 249.507 158.084 250.758 173.814C250.965 176.358 251.42 179.347 253.695 180.495C254.533 180.919 255.484 181.012 256.415 181.095L262.527 181.653C263.106 181.705 263.727 181.746 264.244 181.467C264.875 181.115 265.154 180.36 265.361 179.667C267.605 172.118 267.295 164.082 266.964 156.212L265.226 114.514C265.092 111.308 264.958 108.082 265.464 104.917C265.775 102.962 266.333 100.997 266.095 99.0325C265.733 96.0541 263.644 93.6341 261.855 91.2244C256.415 83.9024 253.085 75.0188 252.372 65.9284C252.32 65.2976 252.258 64.6047 251.782 64.1806C251.275 63.7256 250.51 63.7773 249.838 63.8497L237.738 65.2045C235.132 65.4941 232.453 65.8043 230.116 66.9936C229.185 67.4693 228.306 68.0795 227.324 68.4415C225.917 68.9689 224.376 68.9689 222.866 68.9689C214.386 68.9482 205.73 68.8862 197.726 66.1146C194.623 65.039 191.655 63.5601 188.49 62.6501C185.822 61.8848 183.061 61.5228 180.31 61.1919C172.533 60.2404 164.746 59.4441 156.938 58.7822" fill="#FCFCFC"/>
<path d="M279.063 41.3874C277.729 36.6922 278.732 31.5524 280.946 27.1985C281.67 25.7713 282.58 24.3441 283.986 23.5685C284.152 23.4754 284.338 23.3927 284.524 23.4134C284.71 23.434 284.855 23.5581 285 23.6719L288.888 26.7951C289.136 27.002 289.395 27.2088 289.56 27.488C289.922 28.1189 289.705 28.9049 289.612 29.6288C289.457 30.8077 289.664 32.0694 290.357 33.0416C291.225 34.2722 292.735 34.8928 294.204 35.1927C295.517 35.4616 297.006 35.5857 297.896 36.5888C298.764 37.5713 298.651 39.257 297.668 40.1154C297.523 40.2498 297.348 40.3739 297.306 40.5601C297.265 40.7359 297.348 40.9117 297.43 41.0668L298.547 43.311" fill="white"/>
<path d="M264.151 181.292C265.019 183.515 266.198 185.646 268.122 187.124C270.046 188.603 273.427 189.441 273.841 192.151C273.882 192.43 273.924 192.874 273.748 193.112C273.562 193.371 273.241 193.35 272.962 193.35C272.238 193.329 271.514 193.195 270.811 193.03C269.446 192.699 268.143 192.171 266.829 191.695C264.151 190.713 261.379 190.061 258.545 189.772C258.204 189.741 257.842 189.741 257.511 189.648C257.056 189.524 257.077 189.203 257.036 188.8C256.953 187.962 256.88 187.114 256.818 186.276C256.694 184.549 256.622 182.822 256.591 181.085C256.581 180.423 255.546 180.423 255.557 181.085C255.588 182.864 255.66 184.632 255.795 186.4C255.846 187.155 255.919 187.921 255.991 188.676C256.053 189.296 256.063 189.979 256.622 190.372C257.077 190.692 257.656 190.723 258.184 190.775C259.032 190.858 259.869 190.961 260.707 191.106C262.393 191.396 264.058 191.83 265.671 192.378C267.15 192.885 268.587 193.495 270.087 193.909C270.801 194.105 271.524 194.25 272.269 194.333C272.848 194.395 273.541 194.477 274.079 194.188C275.237 193.567 274.989 191.882 274.524 190.899C273.955 189.689 272.89 188.81 271.762 188.128C270.283 187.228 268.753 186.525 267.574 185.211C266.488 184.001 265.743 182.522 265.164 181.023C264.926 180.413 263.923 180.671 264.171 181.302L264.151 181.292Z" fill="black"/>
<path d="M156.71 59.1445C156.731 62.6297 157.082 66.1149 157.775 69.538C158.354 72.4027 158.923 75.9189 161.467 77.7391C164.011 79.5592 167.238 79.5385 170.061 79.9729C173.536 80.5107 177.001 81.1105 180.455 81.8034C194.127 84.5129 207.602 88.3808 220.591 93.4483C223.652 94.6376 226.683 95.9717 229.413 97.8125C231.822 99.4362 233.922 101.505 235.639 103.852C238.958 108.402 240.892 113.791 242.278 119.199C243.891 125.487 244.925 131.94 245.97 138.342C247.149 145.581 248.142 152.852 248.948 160.132C249.352 163.762 249.714 167.392 250.024 171.022C250.251 173.68 250.148 176.813 251.596 179.171C253.24 181.85 256.601 181.622 259.363 181.881L262.041 182.129C262.796 182.202 263.613 182.326 264.327 182.005C265.599 181.447 265.888 179.833 266.199 178.634C267.967 171.88 267.843 164.827 267.564 157.919C267.274 150.576 266.953 143.223 266.654 135.881C266.354 128.538 266.033 121.216 265.743 113.884C265.671 112.074 265.609 110.254 265.681 108.444C265.754 106.634 266.023 104.886 266.354 103.107C266.654 101.442 266.871 99.7567 266.488 98.0917C266.168 96.6956 265.495 95.4132 264.709 94.2239C263.851 92.9208 262.858 91.7108 261.948 90.4388C261.038 89.1667 260.2 87.8947 259.425 86.5606C257.811 83.7994 256.477 80.8933 255.433 77.8735C254.388 74.8537 253.654 71.7925 253.22 68.659C253.116 67.904 253.033 67.1491 252.961 66.3838C252.899 65.7219 252.899 64.9876 252.589 64.3775C251.886 63.002 250.262 63.3123 249 63.4467L238.286 64.6463C236.611 64.8325 234.925 64.998 233.281 65.3806C231.719 65.7322 230.292 66.3217 228.916 67.1077C228.192 67.5214 227.479 67.9247 226.672 68.1419C225.762 68.4004 224.811 68.4521 223.87 68.4625C222.194 68.4935 220.508 68.4625 218.823 68.4418C215.379 68.4004 211.925 68.2867 208.491 67.904C205.058 67.5214 201.635 66.8698 198.356 65.7839C195.078 64.6981 191.986 63.1261 188.666 62.1643C185.346 61.2025 181.872 60.8613 178.448 60.4579C174.86 60.0339 171.261 59.6306 167.662 59.2686C164.063 58.9067 160.547 58.5757 156.979 58.2758C156.317 58.2241 156.317 59.2583 156.979 59.31C164.104 59.9098 171.219 60.6337 178.324 61.4818C181.778 61.8954 185.274 62.2367 188.625 63.2295C191.975 64.2223 194.882 65.7116 198.077 66.7768C204.437 68.8968 211.201 69.3415 217.851 69.4553C219.536 69.4863 221.222 69.4863 222.908 69.4966C224.593 69.507 226.186 69.4863 227.706 68.8658C229.227 68.2453 230.457 67.3042 231.988 66.7974C233.518 66.2907 235.215 66.0322 236.849 65.8357C240.344 65.422 243.85 65.0497 247.356 64.6567C248.193 64.5636 249.031 64.4602 249.879 64.3775C250.655 64.2947 251.503 64.2223 251.772 65.1221C251.979 65.7943 251.937 66.5596 252.01 67.2525C252.092 68.0281 252.196 68.8038 252.31 69.5794C253.24 75.6604 255.329 81.5655 258.411 86.8812C259.942 89.5287 261.865 91.866 263.582 94.3894C264.409 95.6097 265.154 96.9128 265.485 98.3606C265.888 100.098 265.537 101.846 265.216 103.563C264.565 107.037 264.575 110.492 264.72 114.008C264.864 117.524 265.02 121.206 265.164 124.805L266.064 146.419C266.354 153.41 266.881 160.442 266.654 167.444C266.54 170.877 266.199 174.311 265.392 177.651C265.216 178.396 265.03 179.151 264.782 179.875C264.461 180.774 263.996 181.198 263.003 181.167C261.245 181.105 259.476 180.857 257.718 180.692C256.229 180.557 254.45 180.609 253.261 179.564C252.33 178.747 251.906 177.517 251.648 176.338C251.337 174.921 251.286 173.473 251.162 172.036C251.017 170.257 250.851 168.488 250.686 166.71C249.352 152.779 247.408 138.869 244.688 125.136C242.588 114.514 239.227 102.994 229.671 96.7266C227.065 95.0099 224.201 93.7482 221.305 92.6106C218.151 91.3696 214.965 90.2216 211.759 89.1254C205.254 86.9122 198.667 84.968 191.996 83.3133C185.326 81.6586 178.593 80.2831 171.809 79.1973C170.175 78.9387 168.531 78.7112 166.897 78.463C165.511 78.2562 164.084 77.9976 162.822 77.3461C159.906 75.8465 159.378 72.1752 158.778 69.2588C158.106 65.9287 157.775 62.5366 157.754 59.1342C157.754 58.4723 156.72 58.4723 156.72 59.1342L156.71 59.1445Z" fill="black"/>
<path d="M252.598 66.4558C248.554 68.3381 246.062 72.0301 245.172 76.3219C244.676 78.7212 244.51 81.1929 243.869 83.5715C243.228 85.9501 241.946 88.0495 240.808 90.2213C239.67 92.3931 238.864 94.5855 238.688 97.0262C238.605 98.1638 238.585 99.4255 238.926 100.532C239.267 101.639 240.115 102.321 240.87 103.107C244.2 106.572 246.475 110.874 249.836 114.328C253.632 118.217 258.162 121.288 262.64 124.329C262.97 124.556 263.415 124.256 263.415 123.884L263.601 109.033C263.653 104.7 263.312 99.9116 265.442 95.9713C265.763 95.3819 264.863 94.8648 264.553 95.4542C262.391 99.4358 262.629 104.141 262.577 108.526L262.381 123.894L263.157 123.449C259.33 120.854 255.493 118.248 252.091 115.093C250.385 113.511 248.823 111.805 247.427 109.953C246.031 108.102 244.821 106.272 243.414 104.503C242.701 103.593 241.935 102.725 241.118 101.908C240.725 101.515 240.301 101.132 240.053 100.625C239.805 100.118 239.743 99.4772 239.712 98.9084C239.557 96.4574 240.094 94.0788 241.139 91.8656C242.111 89.8076 243.362 87.8944 244.221 85.7847C245.079 83.6749 245.4 81.3377 245.741 79.0625C246.124 76.5494 246.589 74.026 247.965 71.8543C249.206 69.8893 251.005 68.338 253.115 67.3556C253.715 67.0763 253.197 66.187 252.598 66.4662V66.4558Z" fill="black"/>
<path d="M298.723 44.2215C300.925 45.5762 303.47 47.1689 303.956 49.9301C304.059 50.5196 304.049 51.1401 303.873 51.7193C303.676 52.3604 303.263 52.9086 303.149 53.5704C302.932 54.8425 303.883 55.7836 304.576 56.7247C307.555 60.7683 308.909 65.9185 308.382 70.9033C307.803 76.3638 304.742 81.0693 301.505 85.3508C298.526 89.3013 295.413 93.8104 290.904 96.1269C288.66 97.2852 285.34 98.0402 283.375 95.9408C281.69 94.1516 281.617 91.3904 279.735 89.7047C279.549 89.5392 279.187 89.4771 279.001 89.7047C277.15 92.0729 273.83 91.2766 271.679 89.8391C270.355 88.9601 269.176 87.8535 267.997 86.7986C266.818 85.7438 265.598 84.5855 264.615 83.2824C262.826 80.9245 261.823 78.1115 261.016 75.2985C260.21 72.4856 259.672 69.5278 258.462 66.8596C257.904 65.6393 257.004 64.4603 255.659 64.0984C254.439 63.7674 253.095 64.0984 252.402 65.205L253.364 65.4635C253.301 64.3156 252.536 63.3434 251.45 62.9608C250.22 62.5264 248.865 62.9608 247.862 63.7054L248.617 64.0157C248.151 62.1645 249.961 60.6235 251.15 59.4859L255.618 55.2251C258.431 52.5466 261.192 49.775 264.243 47.355C267.294 44.935 270.407 43.0735 274.016 42.091C274.843 41.8635 275.681 41.6981 276.529 41.5946C276.974 41.5429 277.429 41.4912 277.874 41.4912C278.515 41.4912 278.587 41.7601 278.66 42.3186C278.866 43.8078 279.414 45.1626 280.356 46.3415C280.862 46.9724 281.462 47.5308 282.134 47.9859C282.807 48.4409 283.986 48.6891 284.379 49.4337C284.606 49.8577 284.637 50.4265 284.699 50.9023C284.772 51.4607 284.813 52.0295 284.844 52.5983C284.896 53.7359 284.844 54.8632 284.72 55.9904C284.699 56.1973 284.896 56.4455 285.102 56.4868C287.14 56.8902 288.422 59.155 287.719 61.1096C287.574 61.5129 287.998 61.8128 288.36 61.7508C291.959 61.0476 295.755 60.2409 298.671 57.8623C300.057 56.735 301.277 55.1734 301.556 53.3636C301.815 51.7089 301.174 50.1887 300.398 48.7615C299.581 47.2413 298.402 45.5659 298.95 43.7664C299.147 43.1252 298.143 42.8563 297.957 43.4872C297.016 46.5794 299.964 48.9373 300.522 51.771C301.267 55.5354 296.975 58.1725 294.007 59.2481C292.094 59.941 290.087 60.3443 288.091 60.7373L288.732 61.3785C289.612 58.9275 287.957 55.9904 285.392 55.4837L285.775 55.9801C286.002 53.9221 286.002 51.7606 285.578 49.7336C285.185 47.9031 283.272 47.686 282.031 46.5897C280.666 45.3797 279.942 43.7974 279.683 42.0187C279.58 41.3258 279.301 40.6846 278.566 40.4984C277.729 40.2916 276.684 40.5294 275.857 40.6535C267.542 41.9152 261.368 48.3478 255.566 53.8807C253.736 55.6285 251.905 57.3762 250.075 59.124C248.668 60.4684 247.117 62.2058 247.645 64.3052C247.717 64.6051 248.131 64.812 248.399 64.6155C249.092 64.0984 249.961 63.7054 250.85 63.8812C251.626 64.0363 252.298 64.6775 252.35 65.4842C252.381 65.9909 253.033 66.1874 253.312 65.7427C254.025 64.6051 255.68 64.9568 256.507 65.7427C257.511 66.7045 257.924 68.1627 258.328 69.4451C259.217 72.2891 259.827 75.2055 260.81 78.0184C261.792 80.8314 263.137 83.3134 265.153 85.4645C266.249 86.6228 267.449 87.6777 268.649 88.7222C269.735 89.6633 270.841 90.6147 272.124 91.287C274.512 92.559 277.925 92.7762 279.766 90.4286H279.032C280.8 92.0006 280.966 94.6067 282.434 96.3958C284.006 98.3194 286.654 98.5676 288.929 97.9884C294.1 96.675 297.657 92.0005 300.76 88.0086C304.214 83.5616 307.782 78.8768 309.044 73.2716C310.192 68.1213 309.313 62.5678 306.675 58.0071C306.293 57.3555 305.879 56.7143 305.424 56.1145C305.01 55.5561 304.4 54.9873 304.214 54.2944C303.997 53.4774 304.659 52.7431 304.886 51.9881C305.083 51.3263 305.114 50.623 305.021 49.9405C304.576 46.7449 301.794 44.873 299.271 43.3217C298.702 42.9701 298.185 43.8698 298.754 44.2111L298.723 44.2215Z" fill="black"/>
<path d="M279.569 41.253C278.69 38.0574 278.876 34.7067 279.786 31.5421C280.252 29.9391 280.883 28.3879 281.679 26.9193C282.103 26.1437 283.758 23.3307 284.833 24.1891C285.547 24.7579 286.26 25.337 286.974 25.9058C287.605 26.4126 288.442 26.909 288.97 27.5398C289.466 28.1397 289.187 28.9256 289.104 29.6185C289.011 30.3631 289.053 31.1284 289.249 31.8524C289.632 33.2382 290.614 34.324 291.886 34.9549C293.158 35.5857 294.472 35.6995 295.806 36.0304C296.561 36.2166 297.367 36.5372 297.75 37.2611C298.081 37.892 298.05 38.7297 297.667 39.3295C297.285 39.9293 296.633 40.1361 296.84 40.9531C296.943 41.3565 297.202 41.7391 297.388 42.1114L298.112 43.5696C298.412 44.1694 299.301 43.642 299.001 43.0525L298.329 41.7081C298.122 41.2944 297.75 40.8807 298.04 40.4774C298.453 39.9086 298.826 39.5156 298.95 38.7814C299.188 37.3956 298.526 36.0925 297.274 35.4616C295.94 34.7894 294.399 34.8205 293.014 34.3137C291.297 33.6829 290.118 32.3384 290.087 30.4562C290.076 29.7013 290.325 28.967 290.283 28.212C290.242 27.3123 289.725 26.7952 289.063 26.2574C288.349 25.6783 287.636 25.1095 286.922 24.5407L285.754 23.5996C285.474 23.3721 285.174 23.0722 284.833 22.9481C284.151 22.6999 283.468 23.217 282.961 23.6203C282.351 24.1064 281.855 24.7062 281.41 25.3474C280.459 26.7435 279.766 28.3672 279.197 29.9598C277.894 33.6622 277.511 37.7058 278.566 41.5116C278.742 42.1528 279.745 41.8839 279.559 41.2324L279.569 41.253Z" fill="black"/>
<path d="M285.371 68.1933C285.785 69.4757 284.968 70.3341 283.871 70.8719C282.672 71.451 281.451 72.0094 280.241 72.5679C277.821 73.6952 275.308 74.7914 272.588 74.6983L273.085 75.3499C273.436 74.1295 274.74 73.3539 275.774 72.7644C276.922 72.1025 278.163 71.6371 279.445 71.3476C280.097 71.2028 279.817 70.1996 279.166 70.3548C277.646 70.696 276.187 71.2855 274.864 72.1025C273.705 72.8265 272.475 73.7055 272.082 75.081C271.989 75.4119 272.247 75.7222 272.578 75.7325C275.732 75.8359 278.618 74.4501 281.41 73.1471L283.654 72.0922C284.244 71.813 284.864 71.5544 285.381 71.1511C286.364 70.3755 286.726 69.0931 286.353 67.9141C286.147 67.2832 285.154 67.5521 285.361 68.1933H285.371Z" fill="black"/>
<path d="M272.352 75.4433C273.096 77.9357 273.851 80.4694 275.102 82.7653C275.713 83.9029 276.612 84.8854 277.171 86.0333C277.729 87.1813 277.822 88.5257 278.381 89.6943C278.67 90.2941 279.56 89.7667 279.27 89.1772C278.743 88.0707 278.65 86.8296 278.143 85.7127C277.616 84.5441 276.716 83.5616 276.095 82.4447C274.823 80.1695 274.079 77.6565 273.344 75.1744C273.158 74.5333 272.155 74.8125 272.352 75.4537V75.4433Z" fill="black"/>
<path d="M285.557 68.4314C288.236 71.5649 289.674 75.4845 291.059 79.3109C291.214 79.7453 291.949 79.8487 292.052 79.3109C292.735 76.0119 294.41 73.0231 296.882 70.7376C297.368 70.2825 296.634 69.5586 296.147 70.0033C293.552 72.4026 291.763 75.5775 291.049 79.0317H292.042C290.584 75.0294 289.074 70.9754 286.271 67.6971C285.837 67.1903 285.113 67.9246 285.537 68.4314H285.557Z" fill="black"/>
<path d="M253.001 64.9771C253.715 64.2635 254.066 64.3255 255.059 64.1911C256.373 64.0049 258.151 65.2046 258.72 66.4042C260.147 69.455 260.075 72.8989 261.295 76.0428C263.829 82.6098 268.566 88.3081 274.564 92.0002C272.764 93.4687 270.706 94.627 268.524 95.3923C270.055 98.3707 271.73 101.277 273.53 104.1L269.869 107.813C269.021 104.927 268.131 101.98 266.352 99.5497C264.905 97.5847 260.995 95.9921 260.985 93.5514C260.985 92.6517 261.264 91.7106 260.882 90.9039C260.675 90.4696 260.292 90.1386 259.93 89.8284C257.262 87.5429 256.248 84.7816 255.483 81.3481C255.225 80.1898 254.232 79.621 253.725 78.5455C252.898 76.8081 251.946 75.2361 250.136 74.5846C245.627 72.9609 240.901 72.0198 236.423 70.3031C235.772 70.0549 235.017 69.6412 234.996 68.9483C237.468 68.1727 239.95 69.8377 242.37 70.7478C246.124 72.1646 249.743 71.2028 253.001 73.5297C251.243 70.8512 251.708 67.8728 253.001 64.9564" fill="#5081F1"/>
<path d="M283.8 55.1836C282.807 55.2767 281.897 54.7596 280.904 55.0595C280.087 55.3077 279.404 55.8868 278.877 56.5487C278.349 57.2106 277.843 58.0379 277.781 58.9273C277.76 59.2686 277.77 59.6616 277.998 59.9305C278.101 60.0546 278.246 60.1477 278.401 60.1994C278.556 60.2511 278.835 60.1787 278.96 60.2821C279.26 60.5406 278.825 61.4094 278.732 61.7403C278.587 62.2367 278.463 62.7331 278.391 63.2399C278.256 64.1499 278.287 65.0807 278.66 65.9287C278.867 66.4044 279.218 66.8078 279.249 67.3455C279.28 67.8833 279.208 68.4831 279.187 69.0313L279.032 72.4854C279.001 73.1473 280.035 73.1473 280.066 72.4854L280.211 69.4036C280.252 68.5038 280.459 67.4386 280.149 66.5802C280.025 66.2286 279.808 65.9287 279.642 65.5978C279.435 65.1738 279.353 64.698 279.353 64.2327C279.342 63.2916 279.621 62.3815 279.901 61.4921C280.118 60.7992 280.283 59.9512 279.611 59.4444C279.435 59.31 278.898 59.2686 278.815 59.1238C278.639 58.8136 279.084 58.1 279.249 57.8311C279.652 57.1485 280.232 56.466 280.976 56.135C281.917 55.7214 282.858 56.3005 283.82 56.2074C284.482 56.1454 284.482 55.1112 283.82 55.1732L283.8 55.1836Z" fill="black"/>
<path d="M286.313 67.7488C285.755 66.5698 286.117 65.3702 286.871 64.3981C287.585 63.4673 288.454 62.64 288.743 61.461C288.909 60.8198 287.906 60.5406 287.75 61.1818C287.451 62.3918 286.385 63.2191 285.724 64.2326C284.907 65.4529 284.793 66.9421 285.424 68.2659C285.713 68.8657 286.603 68.3383 286.313 67.7488Z" fill="black"/>
<path d="M264.688 54.9869C264.005 55.928 263.302 56.8691 262.412 57.6344C261.523 58.3997 260.892 59.0926 260.675 60.2819C260.458 61.4712 260.551 62.5881 260.634 63.7257C260.706 64.7806 260.685 66.0216 261.451 66.8386C261.906 67.3246 262.64 66.5904 262.185 66.1043C261.833 65.732 261.802 65.1942 261.751 64.7082C261.688 64.1187 261.647 63.5395 261.626 62.9501C261.585 61.9883 261.513 60.9748 261.802 60.044C262.112 59.0305 263.012 58.5548 263.715 57.8412C264.419 57.1276 265.008 56.3106 265.598 55.504C265.991 54.9662 265.091 54.4491 264.708 54.9869H264.688Z" fill="black"/>
<path d="M258.999 59.8164C258.513 59.8888 258.079 60.1784 257.655 60.4266L256.279 61.2229C255.865 61.4608 255.421 61.6986 255.183 62.133C254.945 62.5673 254.935 63.0637 254.966 63.5395C254.986 63.8187 255.193 64.0565 255.483 64.0565C255.752 64.0565 256.021 63.8187 256 63.5395C255.99 63.343 255.979 63.1465 255.99 62.95C255.99 62.8879 255.99 62.8672 256.021 62.7742C256.021 62.7535 256.062 62.6604 256.041 62.7121C256.062 62.6707 256.083 62.6294 256.114 62.588C256.176 62.5053 256.29 62.4225 256.414 62.3501C256.6 62.2364 256.796 62.1226 256.982 62.0192L258.172 61.3367C258.534 61.1298 258.865 60.892 259.268 60.8299C259.547 60.7885 259.702 60.4369 259.63 60.1887C259.547 59.8991 259.268 59.7854 258.989 59.8267L258.999 59.8164Z" fill="black"/>
</g>
<defs>
<clipPath id="clip0_242_13904">
<rect width="309.52" height="200" fill="white"/>
</clipPath>
</defs>
</svg>
