<svg width="245" height="200" viewBox="0 0 245 200" fill="none" xmlns="http://www.w3.org/2000/svg">
<g clip-path="url(#clip0_2_39)">
<path d="M73.2141 36.3862C47.0896 46.8905 26.4964 73.5752 10.0264 102.307C5.05832 110.99 0.157866 120.681 0.0114154 131.569C-0.101239 139.224 2.16311 146.585 4.88934 153.336C7.90848 160.855 11.6486 168.035 16.7518 173.225C28.1412 184.701 43.7888 183.853 57.7467 188.274C70.8822 192.435 83.6572 201.696 97.0518 199.74C112.463 197.478 124.258 181.264 137.945 171.619C149.864 163.218 163.732 159.758 177.149 161.816C182.962 162.709 188.764 164.62 194.576 163.874C201.73 162.969 208.241 158.141 214.235 152.917C224.374 144.064 233.983 133.458 240.224 119.663C242.736 114.111 244.73 107.847 244.539 101.379C244.313 92.1641 239.897 84.17 235.661 76.8317C231.91 70.3075 228.114 63.7381 223.405 58.4011C212.894 46.4382 198.35 41.1691 189.383 27.2161C186.004 21.9809 183.604 15.7281 179.931 10.8887C172.789 1.48116 161.794 -1.23254 151.768 0.508752C141.742 2.25005 132.425 7.84706 123.154 13.1049C99.8919 26.3178 75.7273 37.861 50.841 47.6481" fill="#E9F0FA"/>
<path d="M62.3988 35.0072C54.513 42.4134 49.4886 52.3862 46.6272 62.8114C43.7658 73.2365 43.2476 84.1253 43.3265 94.9235C43.3265 98.9715 43.518 103.019 43.946 107.045C44.2615 109.951 44.7234 112.834 44.8698 115.74C45.3204 124.661 42.8533 133.492 39.361 141.746C35.8687 150 31.3626 157.667 27.4197 165.672L156.409 164.835C156.409 164.835 170.017 145.93 160.228 85.0072C157.693 69.2564 158.572 47.4563 172.473 35.0524L62.3988 35.0072Z" fill="#F2F6FC"/>
<path d="M78.7797 58.4234C77.3991 62.2441 76.3549 66.179 75.6592 70.1828C73.2033 86.0128 79.8612 101.944 80.0302 118.012C80.1992 134.577 73.4962 150.339 66.9172 165.502" fill="#F2F6FC"/>
<path d="M122.275 59.0001C118.141 75.3276 114.266 92.4465 118.051 108.853C118.986 112.89 120.372 116.825 121.115 120.895C121.786 125.005 122.039 129.172 121.87 133.333C121.798 137.906 121.459 142.47 120.856 147.003C120.03 153.038 118.642 158.981 116.71 164.755" fill="#F2F6FC"/>
<path d="M162.863 49.8306C160.526 58.7037 160.706 68.0558 163.382 76.832C164.981 81.9088 167.448 86.6691 169.127 91.7234C171.38 98.5755 172.225 105.846 172.743 113.06C173.365 119.67 173.316 126.326 172.597 132.926C171.369 142.368 167.888 151.595 168.429 161.104C164.948 160.483 161.38 160.56 157.929 161.33" fill="#F2F6FC"/>
<path d="M167.562 40.7851C163.652 55.2469 163.821 68.8154 169.758 82.6214C171.324 86.2397 173.375 89.6431 175.2 93.1483C183.085 108.368 186.916 126.12 183.66 142.99C182.883 146.993 181.722 151.097 182.533 155.089C177.905 156.184 173.172 156.776 168.418 156.853" fill="#F2F6FC"/>
<path d="M171.776 35.5839C168.678 44.6296 169.061 57.3048 172.305 66.3505C175.55 75.3962 180.608 83.6391 185.159 92.0855C189.71 100.532 193.845 109.453 194.982 118.985C195.422 122.728 195.411 126.493 195.681 130.292C196.141 136.316 197.372 142.256 199.342 147.965C194.008 149.066 188.595 149.735 183.154 149.967" fill="#F2F6FC"/>
<path d="M66.2399 35.3009C60.1161 41.6019 55.4942 49.2137 52.7214 57.5646C60.3819 58.6953 68.1663 58.6953 75.9057 58.5935L159.98 57.9038C161.348 49.2327 165.483 41.2416 171.763 35.1313C148.5 34.0006 71.2981 35.0182 64.5051 35.4818" fill="#5081F1"/>
<path d="M160.002 61.9518C160.622 61.0133 160.824 83.5258 162.863 89.2698C162.863 89.2698 173.408 138.263 161.399 160.753L157.929 161.285C157.929 161.285 170.073 139.258 160.284 90.05C160.284 90.0839 156.746 66.8591 160.002 61.9518Z" fill="#81D3F7"/>
<path d="M168.452 156.784L176.608 154.828C175.275 148.251 175.275 141.471 176.608 134.894C176.608 134.894 184.494 118.385 168.452 88.1728C168.452 88.1728 174.975 113.851 173.071 123.96C173.071 123.96 169.702 152.725 168.452 156.784Z" fill="#81D3F7"/>
<path d="M207.384 117.673C203.803 103.75 202.371 89.3587 203.137 75.0001C203.295 72.0602 203.487 68.9055 201.932 66.418C201.014 65.1762 199.964 64.0387 198.8 63.0258C195.74 59.918 193.798 55.8762 193.28 51.5378C192.83 47.6934 192.841 42.6844 189.202 41.3615C186.6 40.4456 183.795 42.3791 182.353 44.7536C180.167 48.3379 180.021 52.7816 180.19 56.9879C180.438 63.0032 181.226 69.1317 183.885 74.5365C186.082 78.9915 189.518 82.8359 191.162 87.517C193.742 94.7649 192.131 103.901 197.606 109.283C199.487 111.138 201.977 112.234 204.106 113.806C206.235 115.378 208.128 117.752 207.869 120.387L207.553 116.554" fill="#5081F1"/>
<path d="M62.3988 35.0072C54.513 42.4134 49.4886 52.3862 46.6272 62.8114C43.7658 73.2365 43.2476 84.1253 43.3265 94.9235C43.3265 98.9715 43.518 103.019 43.946 107.045C44.2615 109.951 44.7234 112.834 44.8698 115.74C45.3204 124.661 42.8533 133.492 39.361 141.746C35.8687 150 31.3626 157.667 27.4197 165.672L156.409 164.835C156.409 164.835 170.017 145.93 160.228 85.0072C157.693 69.2564 158.572 47.4563 172.473 35.0524L62.3988 35.0072Z" fill="white"/>
<path d="M62.0956 34.7015C56.3523 40.3202 51.8769 47.1103 48.9714 54.6133C45.7625 63.0034 43.8626 71.8402 43.3387 80.8118C42.5834 90.3912 42.7645 100.022 43.8794 109.566C44.5643 114.193 44.6702 118.888 44.1948 123.541C43.5744 128.114 42.4406 132.601 40.8152 136.918C37.6158 145.782 32.9294 153.969 28.626 162.336C28.1078 163.354 27.5896 164.383 27.0827 165.412C27.0447 165.475 27.0243 165.548 27.0235 165.622C27.0228 165.696 27.0417 165.77 27.0784 165.834C27.1151 165.898 27.1682 165.952 27.2323 165.989C27.2964 166.026 27.3692 166.045 27.4432 166.045H29.9666H36.8047L47.1464 165.977L60.1917 165.898L75.0395 165.796L90.7435 165.694L106.515 165.593L121.554 165.502L134.881 165.412L145.741 165.344H153.188C154.261 165.406 155.337 165.406 156.41 165.344C156.962 165.265 157.266 164.439 157.536 163.998C158.377 162.399 159.089 160.736 159.665 159.023C160.729 155.961 161.565 152.824 162.166 149.638C163.087 144.81 163.689 139.926 163.969 135.018C164.363 128.213 164.363 121.391 163.969 114.586C163.496 105.54 162.482 96.5739 161.119 87.6413C160.555 83.9326 159.992 80.2352 159.756 76.4812C159.525 72.8055 159.547 69.1181 159.823 65.4455C160.249 57.8902 162.355 50.5265 165.985 43.8942C167.813 40.7291 170.124 37.8713 172.835 35.4251C172.891 35.3652 172.929 35.2904 172.944 35.2096C172.959 35.1287 172.95 35.0452 172.919 34.969C172.889 34.8928 172.837 34.8271 172.77 34.7797C172.703 34.7323 172.624 34.7051 172.542 34.7015H66.8834C65.4527 34.7015 64.0107 34.7015 62.58 34.7015H62.3997C62.2995 34.718 62.2084 34.7697 62.1427 34.8473C62.077 34.925 62.0409 35.0236 62.0409 35.1255C62.0409 35.2274 62.077 35.326 62.1427 35.4037C62.2084 35.4814 62.2995 35.533 62.3997 35.5495H170.863C171.358 35.5891 171.855 35.5891 172.35 35.5495C172.41 35.5439 172.471 35.5439 172.531 35.5495L172.226 34.8259C163.113 43.0235 159.485 55.3483 158.843 67.2772C158.564 73.0303 158.874 78.7969 159.767 84.4867C160.893 92.0737 162.02 99.6495 162.617 107.304C163.653 118.319 163.653 129.408 162.617 140.423C162.074 146.597 160.819 152.687 158.877 158.571C158.38 160.052 157.785 161.499 157.097 162.901C156.894 163.297 156.691 163.693 156.455 164.032C156.323 164.205 156.21 164.39 156.117 164.586C156.117 164.586 156.117 164.643 156.117 164.654L156.477 164.45H153.019L143.646 164.507L129.733 164.597L112.835 164.711L94.3147 164.824L75.5578 164.948L58.1189 165.061L43.3387 165.152L32.7492 165.219H29.4484C28.8851 165.219 28.3219 165.163 27.7248 165.219H27.4995L27.8712 165.864C31.9606 157.553 36.6695 149.536 40.2632 140.988C43.7217 132.632 46.0424 123.621 45.3326 114.518C45.1411 112.133 44.7919 109.758 44.5215 107.372C44.2512 104.986 44.1047 102.578 44.0033 100.17C43.8005 95.3679 43.8005 90.5586 44.0033 85.7417C44.2059 76.5264 45.7234 67.3878 48.5095 58.6047C50.9976 50.7526 55.1219 43.5217 60.6085 37.3926C61.2845 36.6576 61.9829 35.9566 62.7039 35.2668C63.0982 34.9276 62.4899 34.3284 62.0956 34.7015Z" fill="#2E304F"/>
<path d="M48.4075 59.0909H160.003C160.103 59.0744 160.194 59.0227 160.26 58.9451C160.326 58.8674 160.362 58.7688 160.362 58.6669C160.362 58.565 160.326 58.4664 160.26 58.3887C160.194 58.311 160.103 58.2594 160.003 58.2429H48.4075C48.3073 58.2594 48.2162 58.311 48.1505 58.3887C48.0847 58.4664 48.0486 58.565 48.0486 58.6669C48.0486 58.7688 48.0847 58.8674 48.1505 58.9451C48.2162 59.0227 48.3073 59.0744 48.4075 59.0909V59.0909Z" fill="#2E304F"/>
<path d="M78.3735 58.3107C77.1288 61.813 76.146 65.4035 75.4333 69.0525C74.8312 72.5003 74.5933 76.0023 74.7235 79.5002C74.9488 86.5785 76.3458 93.5549 77.585 100.52C78.8241 107.485 79.838 114.575 79.5339 121.698C79.0846 128.854 77.706 135.921 75.4333 142.718C72.8566 150.402 69.8938 157.95 66.5561 165.332C66.3421 165.83 67.0743 166.26 67.2884 165.762C72.9211 152.748 78.6552 139.417 80.1084 125.158C80.675 118.091 80.2961 110.98 78.9819 104.014C77.8553 96.9132 76.2556 89.8688 75.6924 82.6888C75.3334 78.6927 75.4203 74.6688 75.9515 70.692C76.6422 66.5596 77.7055 62.4987 79.1283 58.5595C79.2973 58.0393 78.4862 57.8132 78.3172 58.3333L78.3735 58.3107Z" fill="#2E304F"/>
<path d="M121.869 58.8758C118.489 72.2973 115.199 86.1485 116.303 100.101C116.561 103.442 117.096 106.755 117.903 110.006C118.748 113.399 119.852 116.791 120.551 120.183C121.213 123.667 121.522 127.209 121.474 130.755C121.474 134.317 121.339 137.89 121.046 141.44C120.39 149.336 118.797 157.125 116.303 164.642C116.135 165.163 116.946 165.389 117.115 164.869C119.311 158.305 120.821 151.529 121.621 144.651C122.026 141.078 122.24 137.483 122.33 133.898C122.462 130.355 122.334 126.806 121.947 123.281C121.445 119.939 120.691 116.639 119.694 113.41C118.689 109.999 117.936 106.518 117.441 102.996C116.667 96.0852 116.796 89.1024 117.824 82.2249C119.015 74.4255 120.636 66.6983 122.68 59.0793C122.71 58.9713 122.696 58.8559 122.641 58.7584C122.586 58.6608 122.494 58.5892 122.387 58.5592C122.279 58.5292 122.164 58.5433 122.067 58.5984C121.97 58.6536 121.898 58.7452 121.869 58.8532V58.8758Z" fill="#2E304F"/>
<path d="M43.5183 92.1525H160.284C160.385 92.136 160.476 92.0843 160.541 92.0066C160.607 91.9289 160.643 91.8304 160.643 91.7284C160.643 91.6265 160.607 91.5279 160.541 91.4503C160.476 91.3726 160.385 91.3209 160.284 91.3044H43.5183C43.4181 91.3209 43.327 91.3726 43.2612 91.4503C43.1955 91.5279 43.1594 91.6265 43.1594 91.7284C43.1594 91.8304 43.1955 91.9289 43.2612 92.0066C43.327 92.0843 43.4181 92.136 43.5183 92.1525V92.1525Z" fill="#2E304F"/>
<path d="M42.6963 131.49H162.865C162.965 131.473 163.056 131.422 163.122 131.344C163.187 131.266 163.223 131.168 163.223 131.066C163.223 130.964 163.187 130.865 163.122 130.788C163.056 130.71 162.965 130.658 162.865 130.642H42.6963C42.5961 130.658 42.505 130.71 42.4393 130.788C42.3736 130.865 42.3375 130.964 42.3375 131.066C42.3375 131.168 42.3736 131.266 42.4393 131.344C42.505 131.422 42.5961 131.473 42.6963 131.49V131.49Z" fill="#2E304F"/>
<path d="M162.46 49.6726C160.678 56.3289 160.321 63.2884 161.412 70.0932C161.956 73.5379 162.862 76.915 164.116 80.1678C165.467 83.6843 167.067 87.1104 168.329 90.6608C170.909 97.8295 171.776 105.45 172.328 113.015C173.073 120.82 172.834 128.687 171.618 136.432C170.131 144.584 167.563 152.68 168.013 161.059L168.543 160.652C164.987 160.031 161.345 160.108 157.818 160.878C157.289 160.991 157.514 161.805 158.044 161.692C161.422 160.956 164.91 160.879 168.318 161.466C168.38 161.483 168.446 161.486 168.511 161.473C168.575 161.461 168.635 161.434 168.687 161.395C168.739 161.356 168.782 161.305 168.812 161.247C168.841 161.189 168.857 161.124 168.858 161.059C168.453 153.517 170.526 146.201 172.001 138.874C172.778 135.178 173.275 131.429 173.488 127.658C173.661 123.791 173.62 119.918 173.364 116.057C172.936 108.605 172.238 101.063 170.255 93.8607C168.273 86.6581 164.487 80.3939 162.865 73.2252C161.089 65.5344 161.228 57.5227 163.271 49.8987C163.301 49.7907 163.286 49.6753 163.232 49.5777C163.177 49.4802 163.085 49.4086 162.978 49.3786C162.87 49.3486 162.755 49.3627 162.658 49.4178C162.561 49.473 162.489 49.5646 162.46 49.6726V49.6726Z" fill="#2E304F"/>
<path d="M167.156 40.6603C165.036 48.1378 164.186 55.9207 164.644 63.6816C165.232 71.4133 167.346 78.9505 170.863 85.8548C172.631 89.36 174.637 92.7521 176.326 96.3026C177.974 99.7656 179.389 103.335 180.562 106.988C182.936 114.211 184.227 121.749 184.392 129.353C184.47 133.616 184.135 137.876 183.39 142.074C182.612 146.382 181.272 150.735 182.162 155.133L182.455 154.613C177.861 155.688 173.168 156.275 168.452 156.366C168.352 156.382 168.261 156.434 168.195 156.512C168.129 156.589 168.093 156.688 168.093 156.79C168.093 156.892 168.129 156.99 168.195 157.068C168.261 157.146 168.352 157.197 168.452 157.214C173.243 157.122 178.012 156.527 182.68 155.439C182.789 155.407 182.881 155.333 182.936 155.234C182.991 155.134 183.004 155.017 182.973 154.907C182.151 150.837 183.356 146.766 184.1 142.786C184.784 139.131 185.161 135.424 185.226 131.705C185.311 124.284 184.317 116.891 182.275 109.758C180.115 102.503 177.144 95.5157 173.42 88.9303C171.45 85.4307 169.78 81.769 168.429 77.9851C167.161 74.3177 166.274 70.5285 165.782 66.678C164.824 58.0245 165.562 49.2664 167.956 40.8978C167.986 40.7898 167.972 40.6744 167.917 40.5768C167.862 40.4793 167.771 40.4076 167.663 40.3777C167.556 40.3477 167.441 40.3618 167.344 40.4169C167.246 40.4721 167.175 40.5637 167.145 40.6716L167.156 40.6603Z" fill="#2E304F"/>
<path d="M171.369 35.4702C169.276 42.1736 168.673 49.2559 169.6 56.2187C169.958 59.5715 170.683 62.8744 171.763 66.0672C173.069 69.7317 174.616 73.3051 176.393 76.7637C183.468 90.8863 193.292 104.41 194.722 120.624C195.128 125.283 195.094 129.952 195.725 134.6C196.359 139.171 197.435 143.67 198.935 148.032L199.228 147.512C193.93 148.598 188.555 149.263 183.153 149.502C182.601 149.502 182.601 150.373 183.153 150.35C188.631 150.106 194.081 149.429 199.454 148.326C199.507 148.312 199.557 148.287 199.601 148.253C199.645 148.219 199.682 148.176 199.709 148.128C199.736 148.08 199.754 148.026 199.76 147.971C199.767 147.916 199.762 147.86 199.747 147.806C198.413 143.947 197.418 139.978 196.773 135.945C196.224 131.759 195.897 127.547 195.792 123.326C195.61 119.365 195.005 115.434 193.99 111.601C192.952 107.883 191.623 104.253 190.013 100.746C186.791 93.6 182.747 86.8836 179.063 79.9863C175.537 73.3603 172.191 66.4743 170.885 59.0116C169.409 51.2327 169.869 43.2085 172.225 35.6511C172.394 35.131 171.583 34.9162 171.403 35.425L171.369 35.4702Z" fill="#2E304F"/>
<path d="M42.9207 22.6929C41.9122 27.257 39.6349 31.4404 36.353 34.7576C36.1295 34.9347 35.971 35.1813 35.9023 35.4587C35.9023 35.8544 36.1727 36.1823 36.4656 36.465C40.0368 39.9476 41.5576 44.9792 42.9432 49.7848C43.4658 45.2299 44.9235 40.8331 47.2241 36.8721C47.362 36.6807 47.4545 36.4603 47.4945 36.2275C47.4765 35.8038 47.3042 35.4014 47.01 35.0968C44.4415 31.7047 43.3375 26.9331 42.9207 22.659" fill="#5081F1"/>
<path d="M56.5639 17.2662C56.0054 19.8125 54.7353 22.1462 52.9026 23.9939C52.7781 24.0894 52.6905 24.2252 52.6548 24.3783C52.6548 24.5932 52.8125 24.7854 52.9702 24.9437C54.9529 26.8772 55.8091 29.6814 56.5751 32.3612C56.8659 29.8238 57.6792 27.3748 58.9634 25.1698C59.0379 25.0614 59.0879 24.9379 59.1099 24.808C59.0977 24.5714 59.0019 24.3468 58.8395 24.1748C57.4935 22.1122 56.7161 19.7284 56.5864 17.2662" fill="#5081F1"/>
<path d="M66.2399 35.3009C60.1161 41.6019 55.4942 49.2137 52.7214 57.5646C60.3819 58.6953 68.1663 58.6953 75.9057 58.5935L159.98 57.9038C161.348 49.2327 165.483 41.2416 171.763 35.1313C148.5 34.0006 71.2981 35.0182 64.5051 35.4818" fill="#5081F1"/>
<path d="M189.035 61.07C194.032 72.1367 197.777 83.7311 200.199 95.6358C202.363 106.902 203.307 118.37 203.015 129.84C202.88 136.624 202.384 143.408 201.663 150.193C201.607 150.735 202.452 150.724 202.508 150.193C203.885 138.274 204.217 126.258 203.499 114.281C202.712 102.77 200.607 91.3877 197.225 80.3599C195.136 73.6385 192.646 67.0496 189.767 60.629C189.553 60.1315 188.821 60.5612 189.035 61.0587V61.07Z" fill="#F2F6FC"/>
<path d="M52.6548 52.6575H155.925Z" fill="#F2F6FC"/>
<path d="M52.6548 52.6575H155.925" stroke="#F2F6FC" stroke-width="0.5" stroke-miterlimit="10"/>
<path d="M209.773 125.429C207.658 125.352 205.627 124.575 203.997 123.22C202.367 121.864 201.229 120.005 200.761 117.933C199.792 113.76 200.964 109.419 202.349 105.371C203.735 101.323 205.368 97.2408 205.346 92.9328C205.346 87.2792 202.687 80.6307 206.585 76.5262C208.669 74.2648 211.981 73.8012 214.471 72.0033C221.061 67.2091 219.462 55.2123 226.683 51.4131C231.47 48.8916 238.252 52.7247 238.579 58.1974C238.861 62.7202 235.425 66.5985 232.597 70.1829C228.891 74.8867 225.748 80.5854 226.367 86.5443C226.741 88.4915 227.004 90.4583 227.156 92.4353C227.156 92.4353 227.697 125.588 209.773 125.429Z" fill="#81D3F7"/>
<path d="M209.312 168.204C206.193 155.161 205.222 141.694 206.44 128.336C207.845 114.913 211.121 101.755 216.173 89.247C219.246 81.5421 222.751 74.0184 226.672 66.7119C226.932 66.237 226.199 65.8074 225.94 66.2823C219.019 78.9499 213.547 92.3624 209.628 106.264C203.938 126.553 203.55 147.97 208.501 168.453C208.625 168.985 209.436 168.759 209.312 168.227V168.204Z" fill="#2E304F"/>
<path d="M66.9158 161.138C67.0652 161.138 67.2085 161.078 67.3141 160.972C67.4197 160.866 67.4791 160.723 67.4791 160.573C67.4791 160.423 67.4197 160.279 67.3141 160.173C67.2085 160.067 67.0652 160.007 66.9158 160.007C66.7664 160.007 66.6232 160.067 66.5175 160.173C66.4119 160.279 66.3525 160.423 66.3525 160.573C66.3525 160.723 66.4119 160.866 66.5175 160.972C66.6232 161.078 66.7664 161.138 66.9158 161.138Z" fill="#5081F1"/>
<path d="M154.686 163.422L154.968 163.15C155.018 163.099 155.056 163.037 155.081 162.969C155.11 162.902 155.126 162.829 155.126 162.755C155.126 162.681 155.11 162.607 155.081 162.54C155.056 162.472 155.018 162.41 154.968 162.359L154.844 162.268C154.76 162.214 154.662 162.186 154.562 162.189H154.416C154.319 162.208 154.231 162.26 154.168 162.336L153.898 162.608C153.841 162.655 153.798 162.718 153.774 162.789C153.744 162.856 153.729 162.929 153.729 163.003C153.729 163.077 153.744 163.151 153.774 163.218C153.795 163.29 153.838 163.354 153.898 163.399L154.01 163.49C154.094 163.543 154.192 163.571 154.292 163.569H154.438C154.535 163.55 154.623 163.498 154.686 163.422V163.422Z" fill="#5081F1"/>
<path d="M154.292 163.591C154.441 163.591 154.584 163.531 154.69 163.425C154.796 163.319 154.855 163.175 154.855 163.026C154.855 162.876 154.796 162.732 154.69 162.626C154.584 162.52 154.441 162.46 154.292 162.46C154.142 162.46 153.999 162.52 153.893 162.626C153.788 162.732 153.729 162.876 153.729 163.026C153.729 163.175 153.788 163.319 153.893 163.425C153.999 163.531 154.142 163.591 154.292 163.591Z" fill="#5081F1"/>
<path d="M157.287 70.9859C157.437 70.9859 157.58 70.9264 157.685 70.8203C157.791 70.7143 157.85 70.5705 157.85 70.4206C157.85 70.2706 157.791 70.1268 157.685 70.0208C157.58 69.9148 157.437 69.8552 157.287 69.8552C157.138 69.8552 156.995 69.9148 156.889 70.0208C156.783 70.1268 156.724 70.2706 156.724 70.4206C156.724 70.5705 156.783 70.7143 156.889 70.8203C156.995 70.9264 157.138 70.9859 157.287 70.9859Z" fill="#5081F1"/>
</g>
<defs>
<clipPath id="clip0_2_39">
<rect width="244.55" height="200" fill="white"/>
</clipPath>
</defs>
</svg>
