<svg width="32" height="32" viewBox="0 0 32 32" fill="none" xmlns="http://www.w3.org/2000/svg">
<path fill-rule="evenodd" clip-rule="evenodd" d="M28.7992 15.9992C28.7992 19.394 27.4507 22.6497 25.0502 25.0502C22.6497 27.4507 19.394 28.7992 15.9992 28.7992C12.6044 28.7992 9.34872 27.4507 6.94825 25.0502C4.54779 22.6497 3.19922 19.394 3.19922 15.9992C3.19922 12.6044 4.54779 9.34872 6.94825 6.94825C9.34872 4.54779 12.6044 3.19922 15.9992 3.19922C19.394 3.19922 22.6497 4.54779 25.0502 6.94825C27.4507 9.34872 28.7992 12.6044 28.7992 15.9992V15.9992ZM17.5992 22.3992C17.5992 22.8236 17.4306 23.2305 17.1306 23.5306C16.8305 23.8306 16.4236 23.9992 15.9992 23.9992C15.5749 23.9992 15.1679 23.8306 14.8678 23.5306C14.5678 23.2305 14.3992 22.8236 14.3992 22.3992C14.3992 21.9749 14.5678 21.5679 14.8678 21.2678C15.1679 20.9678 15.5749 20.7992 15.9992 20.7992C16.4236 20.7992 16.8305 20.9678 17.1306 21.2678C17.4306 21.5679 17.5992 21.9749 17.5992 22.3992V22.3992ZM15.9992 7.99922C15.5749 7.99922 15.1679 8.16779 14.8678 8.46785C14.5678 8.76791 14.3992 9.17487 14.3992 9.59922V15.9992C14.3992 16.4236 14.5678 16.8305 14.8678 17.1306C15.1679 17.4306 15.5749 17.5992 15.9992 17.5992C16.4236 17.5992 16.8305 17.4306 17.1306 17.1306C17.4306 16.8305 17.5992 16.4236 17.5992 15.9992V9.59922C17.5992 9.17487 17.4306 8.76791 17.1306 8.46785C16.8305 8.16779 16.4236 7.99922 15.9992 7.99922Z" fill="#E22E2E"/>
</svg>
