<svg width="25" height="23" viewBox="0 0 25 23" fill="none" xmlns="http://www.w3.org/2000/svg">
<path d="M6.11111 6.25H18.8889M6.11111 11.5H11.2222M12.5 22L7.38889 16.75H3.55556C2.87778 16.75 2.22776 16.4734 1.7485 15.9812C1.26925 15.4889 1 14.8212 1 14.125V3.625C1 2.92881 1.26925 2.26113 1.7485 1.76884C2.22776 1.27656 2.87778 1 3.55556 1H21.4444C22.1222 1 22.7722 1.27656 23.2515 1.76884C23.7308 2.26113 24 2.92881 24 3.625V14.125C24 14.8212 23.7308 15.4889 23.2515 15.9812C22.7722 16.4734 22.1222 16.75 21.4444 16.75H17.6111L12.5 22Z" stroke="#5081F0" stroke-width="1.72" stroke-linecap="round" stroke-linejoin="round"/>
</svg>
