<svg width="24" height="24" viewBox="0 0 24 24" fill="none" xmlns="http://www.w3.org/2000/svg">
<circle cx="12" cy="12" r="12" fill="#41DB65"/>
<path fill-rule="evenodd" clip-rule="evenodd" d="M10.75 6.5C10.6108 6.50007 10.4743 6.53891 10.3559 6.61216C10.2374 6.68542 10.1417 6.79019 10.0795 6.91475L9.5365 8H7C6.80109 8 6.61032 8.07902 6.46967 8.21967C6.32902 8.36032 6.25 8.55109 6.25 8.75C6.25 8.94891 6.32902 9.13968 6.46967 9.28033C6.61032 9.42098 6.80109 9.5 7 9.5V17C7 17.3978 7.15804 17.7794 7.43934 18.0607C7.72064 18.342 8.10218 18.5 8.5 18.5H14.5C14.8978 18.5 15.2794 18.342 15.5607 18.0607C15.842 17.7794 16 17.3978 16 17V9.5C16.1989 9.5 16.3897 9.42098 16.5303 9.28033C16.671 9.13968 16.75 8.94891 16.75 8.75C16.75 8.55109 16.671 8.36032 16.5303 8.21967C16.3897 8.07902 16.1989 8 16 8H13.4635L12.9205 6.91475C12.8583 6.79019 12.7626 6.68542 12.6441 6.61216C12.5257 6.53891 12.3892 6.50007 12.25 6.5H10.75ZM9.25 11C9.25 10.8011 9.32902 10.6103 9.46967 10.4697C9.61032 10.329 9.80109 10.25 10 10.25C10.1989 10.25 10.3897 10.329 10.5303 10.4697C10.671 10.6103 10.75 10.8011 10.75 11V15.5C10.75 15.6989 10.671 15.8897 10.5303 16.0303C10.3897 16.171 10.1989 16.25 10 16.25C9.80109 16.25 9.61032 16.171 9.46967 16.0303C9.32902 15.8897 9.25 15.6989 9.25 15.5V11ZM13 10.25C12.8011 10.25 12.6103 10.329 12.4697 10.4697C12.329 10.6103 12.25 10.8011 12.25 11V15.5C12.25 15.6989 12.329 15.8897 12.4697 16.0303C12.6103 16.171 12.8011 16.25 13 16.25C13.1989 16.25 13.3897 16.171 13.5303 16.0303C13.671 15.8897 13.75 15.6989 13.75 15.5V11C13.75 10.8011 13.671 10.6103 13.5303 10.4697C13.3897 10.329 13.1989 10.25 13 10.25Z" fill="white"/>
</svg>
